<?xml version="1.0" encoding="UTF-8" standalone="no"?>
<!-- Created with Inkscape (http://www.inkscape.org/) -->

<svg
   xmlns:dc="http://purl.org/dc/elements/1.1/"
   xmlns:cc="http://creativecommons.org/ns#"
   xmlns:rdf="http://www.w3.org/1999/02/22-rdf-syntax-ns#"
   xmlns:svg="http://www.w3.org/2000/svg"
   xmlns="http://www.w3.org/2000/svg"
   xmlns:sodipodi="http://sodipodi.sourceforge.net/DTD/sodipodi-0.dtd"
   xmlns:inkscape="http://www.inkscape.org/namespaces/inkscape"
   width="188.53517mm"
   height="269.14743mm"
   viewBox="0 0 188.53517 269.14743"
   version="1.1"
   id="svg965"
   inkscape:version="0.92.4 (unknown)"
   sodipodi:docname="clusters_k6.svg">
  <defs
     id="defs959" />
  <sodipodi:namedview
     id="base"
     pagecolor="#ffffff"
     bordercolor="#666666"
     borderopacity="1.0"
     inkscape:pageopacity="0.0"
     inkscape:pageshadow="2"
     inkscape:zoom="1.4"
     inkscape:cx="287.16415"
     inkscape:cy="347.8362"
     inkscape:document-units="mm"
     inkscape:current-layer="layer1"
     showgrid="false"
     inkscape:window-width="2560"
     inkscape:window-height="1358"
     inkscape:window-x="0"
     inkscape:window-y="31"
     inkscape:window-maximized="1" />
  <metadata
     id="metadata962">
    <rdf:RDF>
      <cc:Work
         rdf:about="">
        <dc:format>image/svg+xml</dc:format>
        <dc:type
           rdf:resource="http://purl.org/dc/dcmitype/StillImage" />
        <dc:title></dc:title>
      </cc:Work>
    </rdf:RDF>
  </metadata>
  <g
     inkscape:label="Layer 1"
     inkscape:groupmode="layer"
     id="layer1"
     transform="translate(-10.933369,-4.4222663)">
    <g
       id="g3670"
       transform="translate(33.609413,-1.8706896)">
      <g
         transform="translate(22.769659,158.97532)"
         id="g2125">
        <g
           transform="matrix(0.35277777,0,0,-0.35277777,-74.761534,290.82058)"
           id="g1644">
          <path
             d="m 554.68,552.18 -0.03,1.54 -0.08,1.54 -0.13,1.54 -0.18,1.53 -0.24,1.53 -0.29,1.52 -0.34,1.5 -0.4,1.49 -0.44,1.48 -0.5,1.47 -0.54,1.44 -0.6,1.42 -0.64,1.41 -0.69,1.38 -0.74,1.35 -0.78,1.33 -38.31,-23.47 z"
             style="fill:#0a9748;fill-opacity:1;fill-rule:nonzero;stroke:none"
             id="path124"
             inkscape:connector-curvature="0" />
          <path
             d="m 548.06,575.65 -0.77,1.21 -0.8,1.19 -0.85,1.15 -0.87,1.13 -0.92,1.1 -0.95,1.07 -0.98,1.04 -1.02,1.01 -1.04,0.98 -1.08,0.94 -1.11,0.91 -1.13,0.87 -1.16,0.83 -1.19,0.8 -1.22,0.76 -1.23,0.72 -1.26,0.68 -1.28,0.64 -1.3,0.6 -1.32,0.56 -1.33,0.51 -1.35,0.47 -1.37,0.43 -1.38,0.39 -1.39,0.34 -1.4,0.29 -1.41,0.26 -1.41,0.2 -1.42,0.16 -1.43,0.12 -1.43,0.07 -1.43,0.03 -1.43,-0.02 -1.43,-0.07 -1.43,-0.11 -1.42,-0.16 -1.42,-0.2 -1.41,-0.25 -1.4,-0.29 -1.39,-0.33 -1.38,-0.38 -1.36,-0.43 -1.36,-0.47 -1.33,-0.51 -1.32,-0.55 -1.31,-0.59 -1.28,-0.64 -1.26,-0.67 -1.24,-0.72 -1.21,-0.75 -1.19,-0.8 -1.17,-0.83 -1.14,-0.87 -1.11,-0.9 -1.08,-0.94 -1.05,-0.97 -1.02,-1 -0.98,-1.04 -0.96,-1.07 -0.91,-1.1 -0.89,-1.12 -0.84,-1.16 -0.81,-1.18 -0.77,-1.2 -0.74,-1.23 -0.69,-1.25 -0.65,-1.28 -0.61,-1.29 -0.57,-1.31 -0.53,-1.33 -0.49,-1.35 -0.44,-1.36 -0.4,-1.37 -0.35,-1.39 -0.32,-1.4 -0.26,-1.4 -0.22,-1.42 -0.18,-1.42 -0.13,-1.42 -0.08,-1.43 -0.04,-1.43 v -1.43 l 0.05,-1.43 0.1,-1.43 0.14,-1.42 0.19,-1.42 0.23,-1.41 0.28,-1.41 0.32,-1.39 0.37,-1.39 43.24,12.2 z"
             style="fill:#1f9dd9;fill-opacity:1;fill-rule:nonzero;stroke:none"
             id="path126"
             inkscape:connector-curvature="0" />
          <path
             d="m 466.51,539.98 0.43,-1.43 0.48,-1.41 0.52,-1.4 0.57,-1.38 0.61,-1.36 0.66,-1.34 0.71,-1.32 0.74,-1.29 0.79,-1.26 0.83,-1.24 0.88,-1.22 0.91,-1.18 0.95,-1.15 0.99,-1.12 1.02,-1.08 1.06,-1.05 1.1,-1.02 1.12,-0.98 1.16,-0.94 1.19,-0.9 1.22,-0.86 1.25,-0.82 1.27,-0.78 1.3,-0.73 1.33,-0.69 1.34,-0.65 18.81,40.8 z"
             style="fill:#000000;fill-opacity:1;fill-rule:nonzero;stroke:none"
             id="path128"
             inkscape:connector-curvature="0" />
          <path
             d="m 490.94,511.38 1.49,-0.66 1.52,-0.6 1.53,-0.54 1.55,-0.49 1.57,-0.43 1.59,-0.38 1.6,-0.32 1.6,-0.26 1.62,-0.2 1.62,-0.14 1.63,-0.08 1.63,-0.03 1.62,0.04 -1.76,44.89 z"
             style="fill:#e21e26;fill-opacity:1;fill-rule:nonzero;stroke:none"
             id="path130"
             inkscape:connector-curvature="0" />
          <path
             d="m 511.51,507.29 1.47,0.08 1.45,0.13 1.46,0.17 1.44,0.23 1.44,0.27 1.43,0.31 1.42,0.37 1.41,0.41 1.39,0.45 1.37,0.5 1.36,0.55 1.34,0.59 1.32,0.63 1.3,0.67 1.28,0.72 1.25,0.76 1.23,0.8 1.2,0.84 1.17,0.87 1.14,0.92 1.12,0.95 1.08,0.99 1.05,1.02 1.01,1.05 0.98,1.09 0.94,1.12 0.91,1.15 0.87,1.18 0.83,1.2 0.79,1.23 0.75,1.26 0.71,1.28 0.66,1.31 0.63,1.32 0.58,1.35 0.53,1.36 0.49,1.38 0.45,1.39 0.4,1.41 0.36,1.42 0.3,1.43 0.26,1.44 0.22,1.45 0.16,1.45 0.12,1.46 0.08,1.47 0.02,1.46 h -44.93 z"
             style="fill:#942581;fill-opacity:1;fill-rule:nonzero;stroke:none"
             id="path132"
             inkscape:connector-curvature="0" />
        </g>
        <text
           y="103.83531"
           x="126.08709"
           id="text72"
           style="font-style:normal;font-variant:normal;font-weight:600;font-stretch:normal;font-size:21.51944351px;font-family:'URW Gothic L';-inkscape-font-specification:'URW Gothic L, Semi-Bold';font-variant-ligatures:normal;font-variant-caps:normal;font-variant-numeric:normal;font-feature-settings:normal;text-align:start;writing-mode:lr-tb;text-anchor:start;fill:#000000;fill-opacity:1;fill-rule:nonzero;stroke:#000000;stroke-width:0.35277775;stroke-opacity:1">
          <tspan
             style="font-style:normal;font-variant:normal;font-weight:600;font-stretch:normal;font-size:21.51944351px;font-family:'URW Gothic L';-inkscape-font-specification:'URW Gothic L, Semi-Bold';font-variant-ligatures:normal;font-variant-caps:normal;font-variant-numeric:normal;font-feature-settings:normal;text-align:start;writing-mode:lr-tb;text-anchor:start;stroke:#000000;stroke-width:0.35277775;stroke-opacity:1"
             id="tspan70"
             y="103.83531"
             x="126.08709">6</tspan>
        </text>
      </g>
      <rect
         ry="8.113842"
         y="235.7287"
         x="21.65691"
         height="38.540745"
         width="143.00114"
         id="rect3285"
         style="opacity:1;vector-effect:none;fill:none;fill-opacity:1;fill-rule:nonzero;stroke:#000000;stroke-width:2.34189963;stroke-linecap:butt;stroke-linejoin:miter;stroke-miterlimit:4;stroke-dasharray:none;stroke-dashoffset:0;stroke-opacity:1;paint-order:markers fill stroke" />
      <text
         id="text3275"
         y="246.9769"
         x="30.536665"
         style="font-style:normal;font-variant:normal;font-weight:normal;font-stretch:normal;font-size:7.05555534px;line-height:2ex;font-family:'URW Gothic L';-inkscape-font-specification:'URW Gothic L, Normal';font-variant-ligatures:normal;font-variant-caps:normal;font-variant-numeric:normal;font-feature-settings:normal;text-align:start;letter-spacing:0px;word-spacing:0px;writing-mode:lr-tb;text-anchor:start;fill:#000000;fill-opacity:1;stroke:none;stroke-width:0.26458332"
         xml:space="preserve"><tspan
           style="stroke-width:0.26458332"
           y="246.9769"
           x="30.536665"
           id="tspan3273"
           sodipodi:role="line">complex farmers</tspan><tspan
           id="tspan3277"
           style="stroke-width:0.26458332"
           y="254.03246"
           x="30.536665"
           sodipodi:role="line">highest population</tspan><tspan
           id="tspan3279"
           style="stroke-width:0.26458332"
           y="261.08801"
           x="30.536665"
           sodipodi:role="line">densities</tspan><tspan
           id="tspan3281"
           style="stroke-width:0.26458332"
           y="268.14355"
           x="30.536665"
           sodipodi:role="line">mixed residence</tspan></text>
    </g>
    <g
       id="g3555"
       transform="translate(-7.4311899,14.906792)">
      <g
         transform="translate(-8.908681,96.256208)"
         id="g2070">
        <g
           transform="matrix(0.35277777,0,0,-0.35277777,-140.0007,257.1446)"
           id="g1653">
          <path
             d="m 577.99,455.82 v 0 h -44.93 z"
             style="fill:#0a9748;fill-opacity:1;fill-rule:nonzero;stroke:none"
             id="path114"
             inkscape:connector-curvature="0" />
          <path
             d="m 577.99,455.82 -0.02,1.42 -0.07,1.42 -0.11,1.41 -0.16,1.41 -0.2,1.41 -0.24,1.4 -0.29,1.39 -0.34,1.38 -0.37,1.37 -0.42,1.35 -0.46,1.35 -0.51,1.32 -0.55,1.31 -0.58,1.29 -0.63,1.28 -0.67,1.25 -0.71,1.23 -0.74,1.21 -0.79,1.18 -0.82,1.16 -0.85,1.13 -0.89,1.11 -0.93,1.07 -0.96,1.05 -0.99,1.02 -1.03,0.98 -1.05,0.95 -1.09,0.92 -1.11,0.88 -1.14,0.84 -1.16,0.81 -1.2,0.78 -1.21,0.73 -1.24,0.7 -1.26,0.65 -1.28,0.62 -1.29,0.57 -1.32,0.54 -1.33,0.49 -1.35,0.45 -1.36,0.41 -1.37,0.36 -1.38,0.32 -1.39,0.28 -1.41,0.23 -1.4,0.19 -1.41,0.14 -1.42,0.1 -1.42,0.06 -1.42,0.01 -1.42,-0.04 -1.42,-0.08 -1.41,-0.12 -1.41,-0.17 -1.4,-0.22 -1.4,-0.26 -1.39,-0.3 -1.37,-0.34 -1.37,-0.39 -1.35,-0.44 -1.34,-0.47 -1.32,-0.52 -1.31,-0.56 -1.28,-0.6 -1.27,-0.63 -1.25,-0.68 -1.22,-0.72 -1.2,-0.76 -1.18,-0.79 -1.15,-0.83 -1.12,-0.87 -1.1,-0.9 -1.07,-0.94 -1.03,-0.97 -1.01,-1 -0.97,-1.03 -0.94,-1.07 -0.91,-1.09 -0.87,-1.12 -0.84,-1.15 -0.8,-1.17 -0.76,-1.2 -0.72,-1.22 -0.69,-1.25 -0.64,-1.26 -0.61,-1.29 -0.56,-1.3 -0.52,-1.32 -0.48,-1.33 -0.44,-1.36 -0.39,-1.36 -0.36,-1.37 -0.3,-1.39 -0.27,-1.4 -0.22,-1.4 -0.17,-1.41 -0.13,-1.41 -0.09,-1.42 -0.04,-1.42 v -1.42 l 0.05,-1.41 0.1,-1.42 0.13,-1.41 0.19,-1.41 0.22,-1.4 0.27,-1.4 0.32,-1.38 0.36,-1.37 0.4,-1.37 0.44,-1.34 0.49,-1.34 0.53,-1.32 0.57,-1.3 0.61,-1.28 0.65,-1.26 0.69,-1.24 0.73,-1.22 0.77,-1.19 0.81,-1.17 0.84,-1.14 0.88,-1.12 0.91,-1.09 0.94,-1.06 0.98,-1.02 1.01,-1 1.05,-0.96 1.07,-0.94 1.1,-0.89 1.13,-0.86 1.15,-0.83 1.18,-0.79 1.21,-0.75 1.23,-0.71 1.25,-0.67 1.27,-0.63 1.29,-0.6 1.31,-0.55 1.32,-0.51 1.34,-0.47 1.36,-0.42 1.36,-0.38 1.38,-0.34 1.39,-0.3 1.4,-0.25 1.4,-0.21 1.41,-0.16 1.42,-0.12 1.42,-0.07 1.41,-0.03 1.42,0.02 1.42,0.06 1.42,0.11 1.41,0.15 1.41,0.19 1.4,0.24 1.39,0.29 1.38,0.33 1.37,0.37 1.36,0.41 1.34,0.46 1.33,0.5 1.31,0.54 1.3,0.58 1.27,0.62 1.26,0.67 1.23,0.7 1.21,0.74 1.19,0.78 1.16,0.81 1.14,0.86 1.1,0.88 1.08,0.93 1.05,0.95 1.02,0.99 0.99,1.02 0.95,1.05 0.92,1.08 0.89,1.11 0.85,1.14 0.82,1.16 0.77,1.19 0.74,1.21 0.7,1.24 0.67,1.25 0.62,1.28 0.58,1.29 0.54,1.32 -41.83,16.41 z"
             style="fill:#1f9dd9;fill-opacity:1;fill-rule:nonzero;stroke:none"
             id="path116"
             inkscape:connector-curvature="0" />
          <path
             d="m 574.89,439.41 0.58,1.57 0.53,1.6 0.46,1.61 0.41,1.63 0.34,1.65 0.28,1.65 -44.43,6.7 z"
             style="fill:#000000;fill-opacity:1;fill-rule:nonzero;stroke:none"
             id="path118"
             inkscape:connector-curvature="0" />
          <path
             d="m 577.49,449.12 0.38,3.34 -44.81,3.36 z"
             style="fill:#e21e26;fill-opacity:1;fill-rule:nonzero;stroke:none"
             id="path120"
             inkscape:connector-curvature="0" />
          <path
             d="m 577.87,452.46 0.12,3.36 h -44.93 z"
             style="fill:#942581;fill-opacity:1;fill-rule:nonzero;stroke:none"
             id="path122"
             inkscape:connector-curvature="0" />
        </g>
        <text
           y="104.15299"
           x="67.486275"
           id="text68"
           style="font-style:normal;font-variant:normal;font-weight:600;font-stretch:normal;font-size:21.51944351px;font-family:'URW Gothic L';-inkscape-font-specification:'URW Gothic L, Semi-Bold';font-variant-ligatures:normal;font-variant-caps:normal;font-variant-numeric:normal;font-feature-settings:normal;text-align:start;writing-mode:lr-tb;text-anchor:start;fill:#1f9dd9;fill-opacity:1;fill-rule:nonzero;stroke:none;stroke-width:0.35277775">
          <tspan
             style="font-style:normal;font-variant:normal;font-weight:600;font-stretch:normal;font-size:21.51944351px;font-family:'URW Gothic L';-inkscape-font-specification:'URW Gothic L, Semi-Bold';font-variant-ligatures:normal;font-variant-caps:normal;font-variant-numeric:normal;font-feature-settings:normal;text-align:start;writing-mode:lr-tb;text-anchor:start;fill:#1f9dd9;fill-opacity:1;stroke-width:0.35277775"
             id="tspan66"
             y="104.15299"
             x="67.486275">5</tspan>
        </text>
      </g>
      <text
         id="text3267"
         y="187.47179"
         x="80.248199"
         style="font-style:normal;font-variant:normal;font-weight:normal;font-stretch:normal;font-size:7.05555534px;line-height:2ex;font-family:'URW Gothic L';-inkscape-font-specification:'URW Gothic L, Normal';font-variant-ligatures:normal;font-variant-caps:normal;font-variant-numeric:normal;font-feature-settings:normal;text-align:start;letter-spacing:0px;word-spacing:0px;writing-mode:lr-tb;text-anchor:start;fill:#1f9dd9;fill-opacity:1;stroke:none;stroke-width:0.26458332"
         xml:space="preserve"><tspan
           id="tspan3269"
           style="fill:#1f9dd9;fill-opacity:1;stroke-width:0.26458332"
           y="187.47179"
           x="80.248199"
           sodipodi:role="line">complex farmers and</tspan><tspan
           style="fill:#1f9dd9;fill-opacity:1;stroke-width:0.26458332"
           y="194.52734"
           x="80.248199"
           sodipodi:role="line"
           id="tspan942">mobile pastoralists</tspan><tspan
           id="tspan3271"
           style="fill:#1f9dd9;fill-opacity:1;stroke-width:0.26458332"
           y="201.5829"
           x="80.248199"
           sodipodi:role="line">patrilocal residence</tspan></text>
      <rect
         ry="8.1077137"
         y="173.34183"
         x="19.535192"
         height="38.511635"
         width="143.03191"
         id="rect3285-5"
         style="opacity:1;vector-effect:none;fill:none;fill-opacity:1;fill-rule:nonzero;stroke:#1f9dd9;stroke-width:2.34126687;stroke-linecap:butt;stroke-linejoin:miter;stroke-miterlimit:4;stroke-dasharray:none;stroke-dashoffset:0;stroke-opacity:1;paint-order:markers fill stroke" />
    </g>
    <g
       id="g3685"
       transform="translate(37.201936,14.010876)">
      <g
         transform="translate(18.898036,86.878632)"
         id="g2115">
        <g
           transform="matrix(0.35277777,0,0,-0.35277777,-91.317394,289.75149)"
           id="g1627">
          <path
             d="m 601.61,648.54 v 0 h -44.92 z"
             style="fill:#0a9748;fill-opacity:1;fill-rule:nonzero;stroke:none"
             id="path104"
             inkscape:connector-curvature="0" />
          <path
             d="m 601.61,648.54 -0.02,1.44 -0.07,1.45 -0.11,1.44 -0.17,1.44 -0.21,1.43 -0.25,1.43 -0.3,1.41 -0.35,1.41 -0.39,1.39 -0.44,1.38 -0.48,1.37 -0.52,1.35 -0.57,1.33 -0.61,1.31 -0.65,1.29 -0.69,1.27 -0.74,1.25 -0.77,1.22 -0.81,1.2 -0.85,1.17 -0.89,1.14 -0.92,1.12 -0.96,1.08 -1,1.05 -1.02,1.02 -1.06,0.99 -1.09,0.95 -1.12,0.92 -1.15,0.87 -1.18,0.85 -1.21,0.8 -1.22,0.76 -1.26,0.73 -1.27,0.68 -1.3,0.64 -1.32,0.6 -1.33,0.56 -1.36,0.51 -1.37,0.47 -1.38,0.43 -1.4,0.38 -1.4,0.33 -1.42,0.29 -1.43,0.25 -1.43,0.2 -1.44,0.15 -1.44,0.1 -2.55,-44.85 z"
             style="fill:#1f9dd9;fill-opacity:1;fill-rule:nonzero;stroke:none"
             id="path106"
             inkscape:connector-curvature="0" />
          <path
             d="m 559.24,693.39 -3.4,0.07 0.85,-44.92 z"
             style="fill:#000000;fill-opacity:1;fill-rule:nonzero;stroke:none"
             id="path108"
             inkscape:connector-curvature="0" />
          <path
             d="m 555.84,693.46 -1.43,-0.05 -1.43,-0.1 -1.42,-0.14 -1.42,-0.18 -1.41,-0.23 -1.4,-0.28 -1.39,-0.32 -1.39,-0.36 -1.37,-0.41 -1.35,-0.45 -1.34,-0.5 -1.33,-0.53 -1.31,-0.58 -1.28,-0.62 -1.27,-0.66 -1.25,-0.7 -1.22,-0.74 -1.2,-0.78 -1.17,-0.82 -1.15,-0.85 -1.12,-0.89 -1.09,-0.92 -1.06,-0.96 -1.03,-0.99 -1,-1.03 -0.96,-1.05 -0.93,-1.09 -0.9,-1.11 -0.86,-1.14 -0.82,-1.17 -0.79,-1.2 -0.74,-1.21 -0.71,-1.25 -0.67,-1.26 -0.62,-1.28 -0.59,-1.31 -0.54,-1.32 -0.51,-1.34 -0.46,-1.35 -0.41,-1.37 -0.37,-1.38 -0.33,-1.39 -0.28,-1.4 -0.24,-1.41 -0.2,-1.42 -0.15,-1.42 -0.1,-1.43 -0.06,-1.42 -0.01,-1.43 0.03,-1.43 0.08,-1.43 0.13,-1.42 0.16,-1.42 0.22,-1.42 0.26,-1.4 0.3,-1.4 0.35,-1.38 0.39,-1.38 0.44,-1.36 0.47,-1.35 0.52,-1.33 0.57,-1.31 0.6,-1.3 0.65,-1.27 0.68,-1.26 0.73,-1.23 0.76,-1.21 0.8,-1.18 0.84,-1.16 0.88,-1.13 0.91,-1.1 0.95,-1.07 0.98,-1.04 1.01,-1.01 1.04,-0.98 1.07,-0.94 1.11,-0.91 1.13,-0.87 1.16,-0.84 1.18,-0.8 1.21,-0.76 1.24,-0.72 1.25,-0.68 1.28,-0.65 1.3,-0.6 1.31,-0.56 1.34,-0.51 1.34,-0.48 1.37,-0.43 1.37,-0.39 1.39,-0.34 1.4,-0.3 1.4,-0.26 1.42,-0.21 1.42,-0.17 1.42,-0.12 1.43,-0.07 1.43,-0.03 1.43,0.02 1.42,0.06 1.43,0.1 1.42,0.16 1.42,0.19 1.41,0.25 1.4,0.28 1.39,0.33 1.38,0.38 1.36,0.42 1.35,0.46 1.34,0.51 1.32,0.54 1.3,0.59 1.29,0.63 1.26,0.67 1.24,0.72 1.22,0.75 1.19,0.78 1.17,0.83 1.14,0.86 1.11,0.9 1.08,0.93 1.05,0.97 1.03,1 0.98,1.03 0.96,1.06 0.92,1.1 0.89,1.12 0.85,1.15 0.81,1.17 0.78,1.2 0.73,1.23 0.7,1.25 0.66,1.27 0.61,1.29 0.58,1.3 0.53,1.33 0.49,1.34 0.45,1.36 -42.88,13.4 z"
             style="fill:#e21e26;fill-opacity:1;fill-rule:nonzero;stroke:none"
             id="path110"
             inkscape:connector-curvature="0" />
          <path
             d="m 599.57,635.14 0.48,1.63 0.41,1.65 0.35,1.67 0.29,1.67 0.23,1.69 0.16,1.69 0.09,1.7 0.03,1.7 h -44.92 z"
             style="fill:#942581;fill-opacity:1;fill-rule:nonzero;stroke:none"
             id="path112"
             inkscape:connector-curvature="0" />
        </g>
        <text
           y="68.914192"
           x="126.34533"
           id="text64"
           style="font-style:normal;font-variant:normal;font-weight:600;font-stretch:normal;font-size:21.51944351px;font-family:'URW Gothic L';-inkscape-font-specification:'URW Gothic L, Semi-Bold';font-variant-ligatures:normal;font-variant-caps:normal;font-variant-numeric:normal;font-feature-settings:normal;text-align:start;writing-mode:lr-tb;text-anchor:start;fill:#e21e26;fill-opacity:1;fill-rule:nonzero;stroke:none;stroke-width:0.35277775">
          <tspan
             style="font-style:normal;font-variant:normal;font-weight:600;font-stretch:normal;font-size:21.51944351px;font-family:'URW Gothic L';-inkscape-font-specification:'URW Gothic L, Semi-Bold';font-variant-ligatures:normal;font-variant-caps:normal;font-variant-numeric:normal;font-feature-settings:normal;text-align:start;writing-mode:lr-tb;text-anchor:start;fill:#e21e26;fill-opacity:1;stroke-width:0.35277775"
             id="tspan62"
             y="68.914192"
             x="126.34533">4</tspan>
        </text>
      </g>
      <text
         id="text3247"
         y="146.8748"
         x="24.775532"
         style="font-style:normal;font-variant:normal;font-weight:normal;font-stretch:normal;font-size:7.05555534px;line-height:2ex;font-family:'URW Gothic L';-inkscape-font-specification:'URW Gothic L, Normal';font-variant-ligatures:normal;font-variant-caps:normal;font-variant-numeric:normal;font-feature-settings:normal;text-align:start;letter-spacing:0px;word-spacing:0px;writing-mode:lr-tb;text-anchor:start;fill:#e21e26;fill-opacity:1;stroke:none;stroke-width:0.26458332"
         xml:space="preserve"><tspan
           style="fill:#e21e26;fill-opacity:1;stroke-width:0.26458332"
           y="146.8748"
           x="24.775532"
           id="tspan3245"
           sodipodi:role="line">simple farmers</tspan><tspan
           id="tspan3249"
           style="fill:#e21e26;fill-opacity:1;stroke-width:0.26458332"
           y="153.93036"
           x="24.775532"
           sodipodi:role="line">matrilocal residence</tspan></text>
      <rect
         ry="8.1254721"
         y="128.54341"
         x="18.064978"
         height="38.595989"
         width="142.94063"
         id="rect3285-2"
         style="opacity:1;vector-effect:none;fill:none;fill-opacity:1;fill-rule:nonzero;stroke:#e21e26;stroke-width:2.34308195;stroke-linecap:butt;stroke-linejoin:miter;stroke-miterlimit:4;stroke-dasharray:none;stroke-dashoffset:0;stroke-opacity:1;paint-order:markers fill stroke" />
    </g>
    <g
       id="g3587"
       transform="translate(8.7138375,14.838242)">
      <g
         transform="translate(-24.11708,40.450203)"
         id="g2080">
        <g
           transform="matrix(0.35277777,0,0,-0.35277777,-139.20342,187.65454)"
           id="g1662">
          <path
             d="m 575.73,359.46 -0.02,1.17 -44.91,-1.17 z"
             style="fill:#0a9748;fill-opacity:1;fill-rule:nonzero;stroke:none"
             id="path94"
             inkscape:connector-curvature="0" />
          <path
             d="m 575.71,360.63 -0.06,1.42 -0.1,1.42 -0.15,1.42 -0.2,1.4 -0.23,1.41 -0.29,1.39 -0.32,1.38 -0.37,1.38 -0.42,1.36 -0.45,1.34 -0.5,1.33 -0.54,1.32 -0.58,1.3 -0.63,1.28 -0.66,1.25 -0.7,1.24 -0.74,1.21 -0.78,1.19 -0.82,1.17 -0.85,1.13 -0.89,1.11 -0.92,1.09 -0.96,1.05 -0.99,1.02 -1.02,0.99 -1.05,0.95 -1.08,0.93 -1.11,0.88 -1.14,0.86 -1.17,0.81 -1.19,0.78 -1.21,0.74 -1.24,0.7 -1.26,0.67 -1.27,0.62 -1.3,0.58 -1.32,0.54 -1.33,0.5 -1.35,0.45 -1.36,0.42 -1.37,0.37 -1.38,0.32 -1.4,0.28 -1.4,0.24 -1.41,0.19 -1.41,0.15 -1.42,0.11 -1.42,0.06 -1.42,0.01 -1.42,-0.03 -1.42,-0.08 -1.42,-0.12 -1.41,-0.16 -1.41,-0.21 -1.4,-0.26 -1.39,-0.3 -1.38,-0.34 -1.36,-0.39 -1.36,-0.43 -1.34,-0.47 -1.33,-0.51 -1.31,-0.56 -1.29,-0.59 -1.27,-0.64 -1.25,-0.68 -1.23,-0.72 -1.2,-0.75 -1.18,-0.79 -1.15,-0.83 -1.13,-0.87 -1.1,-0.9 -1.07,-0.94 -1.04,-0.97 -1.01,-1 -0.98,-1.03 -0.94,-1.06 -0.91,-1.1 -0.88,-1.12 -0.84,-1.14 -0.8,-1.18 -0.77,-1.2 -0.72,-1.22 -0.69,-1.24 -0.65,-1.27 -0.6,-1.29 -0.57,-1.3 -0.52,-1.32 -0.49,-1.34 -0.44,-1.35 -0.39,-1.37 -0.36,-1.37 -0.31,-1.39 -0.26,-1.4 -0.23,-1.4 -0.17,-1.41 -0.13,-1.42 -0.09,-1.42 -0.04,-1.42 v -1.42 l 0.05,-1.42 0.09,-1.42 0.14,-1.42 0.18,-1.41 0.22,-1.4 0.28,-1.39 0.31,-1.39 0.36,-1.38 0.4,-1.36 0.45,-1.35 0.48,-1.34 0.53,-1.32 0.57,-1.3 0.62,-1.28 0.65,-1.27 0.69,-1.24 0.73,-1.22 0.77,-1.19 0.81,-1.17 0.84,-1.15 0.88,-1.12 0.91,-1.09 0.95,-1.06 0.98,-1.02 1.01,-1 1.05,-0.97 1.07,-0.93 1.11,-0.9 1.13,-0.86 1.15,-0.82 1.19,-0.79 1.2,-0.75 1.23,-0.72 1.26,-0.67 1.27,-0.63 1.29,-0.59 1.31,-0.55 1.33,-0.51 1.34,-0.47 1.36,-0.43 1.37,-0.38 1.38,-0.33 1.39,-0.3 1.4,-0.25 1.41,-0.2 1.41,-0.16 1.42,-0.12 1.42,-0.07 1.42,-0.03 1.42,0.02 1.42,0.07 1.42,0.11 1.41,0.15 1.41,0.2 1.4,0.24 1.4,0.29 1.38,0.33 1.37,0.37 1.36,0.42 1.34,0.46 1.33,0.51 1.32,0.54 1.29,0.59 1.28,0.62 1.26,0.67 1.23,0.71 1.21,0.74 1.19,0.78 1.16,0.82 1.13,0.86 1.11,0.89 1.08,0.93 1.05,0.96 1.02,0.99 0.98,1.03 0.95,1.05 0.92,1.09 0.89,1.11 0.85,1.14 0.81,1.17 0.77,1.19 0.74,1.22 0.7,1.23 0.66,1.26 0.61,1.29 0.58,1.29 0.54,1.32 0.49,1.33 -42.37,14.94 z"
             style="fill:#1f9dd9;fill-opacity:1;fill-rule:nonzero;stroke:none"
             id="path96"
             inkscape:connector-curvature="0" />
          <path
             d="m 573.17,344.52 0.67,2.05 0.56,2.07 0.47,2.09 -44.07,8.73 z"
             style="fill:#000000;fill-opacity:1;fill-rule:nonzero;stroke:none"
             id="path98"
             inkscape:connector-curvature="0" />
          <path
             d="m 574.87,350.73 0.48,2.89 -44.55,5.84 z"
             style="fill:#e21e26;fill-opacity:1;fill-rule:nonzero;stroke:none"
             id="path100"
             inkscape:connector-curvature="0" />
          <path
             d="m 575.35,353.62 0.21,1.94 0.13,1.95 0.04,1.95 H 530.8 Z"
             style="fill:#942581;fill-opacity:1;fill-rule:nonzero;stroke:none"
             id="path102"
             inkscape:connector-curvature="0" />
        </g>
        <text
           y="68.796478"
           x="67.47551"
           id="text60"
           style="font-style:normal;font-variant:normal;font-weight:600;font-stretch:normal;font-size:21.51944351px;font-family:'URW Gothic L';-inkscape-font-specification:'URW Gothic L, Semi-Bold';font-variant-ligatures:normal;font-variant-caps:normal;font-variant-numeric:normal;font-feature-settings:normal;text-align:start;writing-mode:lr-tb;text-anchor:start;fill:#1f9dd9;fill-opacity:1;fill-rule:nonzero;stroke:none;stroke-width:0.35277775">
          <tspan
             style="font-style:normal;font-variant:normal;font-weight:600;font-stretch:normal;font-size:21.51944351px;font-family:'URW Gothic L';-inkscape-font-specification:'URW Gothic L, Semi-Bold';font-variant-ligatures:normal;font-variant-caps:normal;font-variant-numeric:normal;font-feature-settings:normal;text-align:start;writing-mode:lr-tb;text-anchor:start;fill:#1f9dd9;fill-opacity:1;stroke-width:0.35277775"
             id="tspan58"
             y="68.796478"
             x="67.47551">3</tspan>
        </text>
      </g>
      <text
         id="text3253"
         y="92.641609"
         x="65.732185"
         style="font-style:normal;font-variant:normal;font-weight:normal;font-stretch:normal;font-size:7.05555534px;line-height:2ex;font-family:'URW Gothic L';-inkscape-font-specification:'URW Gothic L, Normal';font-variant-ligatures:normal;font-variant-caps:normal;font-variant-numeric:normal;font-feature-settings:normal;text-align:start;letter-spacing:0px;word-spacing:0px;writing-mode:lr-tb;text-anchor:start;fill:#1f9dd9;fill-opacity:1;stroke:none;stroke-width:0.26458332"
         xml:space="preserve"><tspan
           id="tspan3255"
           style="fill:#1f9dd9;fill-opacity:1;stroke-width:0.26458332"
           y="92.641609"
           x="65.732185"
           sodipodi:role="line">simple farmers</tspan><tspan
           id="tspan3259"
           style="fill:#1f9dd9;fill-opacity:1;stroke-width:0.26458332"
           y="99.697166"
           x="65.732185"
           sodipodi:role="line">semi-advanced</tspan><tspan
           id="tspan3261"
           style="fill:#1f9dd9;fill-opacity:1;stroke-width:0.26458332"
           y="106.75272"
           x="65.732185"
           sodipodi:role="line">agriculture</tspan><tspan
           id="tspan3263"
           style="fill:#1f9dd9;fill-opacity:1;stroke-width:0.26458332"
           y="113.80827"
           x="65.732185"
           sodipodi:role="line">patrilocal residence</tspan></text>
      <rect
         ry="8.1351833"
         y="81.97419"
         x="3.3915558"
         height="38.642113"
         width="142.88783"
         id="rect3285-9"
         style="opacity:1;vector-effect:none;fill:none;fill-opacity:1;fill-rule:nonzero;stroke:#1f9dd9;stroke-width:2.34404826;stroke-linecap:butt;stroke-linejoin:miter;stroke-miterlimit:4;stroke-dasharray:none;stroke-dashoffset:0;stroke-opacity:1;paint-order:markers fill stroke" />
    </g>
    <g
       id="g3761"
       transform="translate(0,0.92336719)">
      <g
         transform="translate(56.792369,44.980064)"
         id="g2105">
        <g
           id="g1918"
           transform="translate(-9.2441545,-81.526517)">
          <g
             id="g1618"
             transform="matrix(0.35277777,0,0,-0.35277777,-53.879238,368.86327)">
            <g
               id="g1901">
              <path
                 d="m 439.28,744.9 h 37.48"
                 style="fill:none;stroke:#a9a9a9;stroke-width:3.75;stroke-linecap:round;stroke-linejoin:round;stroke-miterlimit:10;stroke-dasharray:none;stroke-opacity:1"
                 id="path38"
                 inkscape:connector-curvature="0" />
              <path
                 d="m 521.69,744.9 -0.02,1.53 -0.08,1.53 -0.13,1.53 -0.19,1.52 -0.23,1.52 -0.29,1.5 -0.33,1.5 -0.39,1.48 -0.44,1.47 -0.49,1.45 -0.54,1.44 -0.58,1.42 -0.64,1.39 -0.68,1.38 -0.73,1.35 -0.77,1.32 -0.82,1.3 -0.86,1.26 -36.72,-25.89 z"
                 style="fill:#0a9748;fill-opacity:1;fill-rule:nonzero;stroke:none"
                 id="path84"
                 inkscape:connector-curvature="0" />
              <path
                 d="m 513.48,770.79 -0.85,1.17 -0.89,1.14 -0.92,1.11 -0.96,1.07 -1,1.05 -1.02,1.02 -1.06,0.98 -1.09,0.94 -1.12,0.91 -1.14,0.88 -1.18,0.84 -1.2,0.8 -1.23,0.76 -1.25,0.72 -1.27,0.68 -1.29,0.63 -1.32,0.6 -1.33,0.56 -1.35,0.51 -1.36,0.47 -1.38,0.42 -1.39,0.38 -1.41,0.33 -1.41,0.29 -1.42,0.25 -1.43,0.19 -1.44,0.15 -1.44,0.11 -1.44,0.06 -1.44,0.01 -1.44,-0.03 -1.44,-0.08 -1.44,-0.13 -1.43,-0.17 -1.43,-0.22 -1.42,-0.26 -1.41,-0.31 -1.4,-0.35 -1.38,-0.4 -1.37,-0.44 -1.36,-0.49 -1.34,-0.53 -1.33,-0.57 -1.3,-0.62 -1.29,-0.65 -1.26,-0.7 -1.24,-0.74 -1.22,-0.78 -1.19,-0.81 -1.16,-0.86 -1.13,-0.89 -1.11,-0.92 -1.08,-0.97 -1.04,-0.99 -1.01,-1.03 -0.98,-1.06 -0.94,-1.09 -0.91,-1.12 -0.87,-1.15 -0.84,-1.18 -0.79,-1.2 -0.76,-1.23 -0.72,-1.25 -0.67,-1.28 -0.64,-1.29 -0.59,-1.32 -0.55,-1.33 -0.51,-1.35 -0.46,-1.37 -0.42,-1.38 -0.38,-1.39 -0.33,-1.41 -0.28,-1.41 -0.24,-1.42 -0.2,-1.43 -0.15,-1.44 -0.1,-1.44 -0.05,-1.44 -0.01,-1.44 0.04,-1.45 44.88,1.89 z"
                 style="fill:#1f9dd9;fill-opacity:1;fill-rule:nonzero;stroke:none"
                 id="path86"
                 inkscape:connector-curvature="0" />
              <path
                 d="m 431.88,743.01 0.08,-1.48 0.14,-1.47 0.18,-1.47 0.23,-1.47 0.28,-1.45 0.33,-1.45 0.38,-1.43 0.42,-1.42 0.47,-1.41 0.52,-1.39 0.56,-1.37 0.61,-1.36 0.65,-1.33 0.69,-1.31 0.74,-1.28 0.78,-1.27 0.82,-1.23 0.86,-1.21 0.9,-1.18 0.94,-1.14 0.97,-1.12 1.02,-1.08 1.04,-1.05 1.08,-1.02 1.12,-0.98 1.14,-0.94 1.18,-0.9 1.21,-0.86 1.23,-0.82 1.26,-0.79 1.28,-0.74 1.31,-0.69 1.33,-0.66 19.13,40.66 z"
                 style="fill:#000000;fill-opacity:1;fill-rule:nonzero;stroke:none"
                 id="path88"
                 inkscape:connector-curvature="0" />
              <path
                 d="m 457.63,704.24 1.32,-0.59 1.34,-0.55 1.36,-0.51 1.37,-0.47 1.38,-0.42 1.4,-0.37 1.41,-0.33 1.42,-0.29 1.43,-0.24 1.43,-0.19 1.44,-0.15 1.45,-0.1 1.44,-0.05 1.45,-0.01 1.45,0.04 1.44,0.09 1.44,0.13 1.44,0.18 1.43,0.22 1.42,0.28 1.42,0.31 1.4,0.36 1.39,0.41 1.37,0.45 1.36,0.5 1.34,0.54 1.33,0.58 1.31,0.63 1.28,0.66 1.26,0.71 1.24,0.75 1.22,0.79 1.19,0.82 1.16,0.87 1.13,0.9 1.1,0.93 1.08,0.98 1.04,1 1.01,1.04 0.97,1.07 0.94,1.1 0.9,1.14 0.87,1.16 0.82,1.18 0.79,1.22 0.75,1.23 0.71,1.27 0.67,1.28 0.63,1.3 0.58,1.33 0.54,1.34 0.5,1.36 -42.43,14.78 z"
                 style="fill:#e21e26;fill-opacity:1;fill-rule:nonzero;stroke:none"
                 id="path90"
                 inkscape:connector-curvature="0" />
              <path
                 d="m 519.19,730.12 0.52,1.59 0.46,1.61 0.41,1.62 0.34,1.64 0.27,1.65 0.22,1.66 0.16,1.66 0.09,1.67 0.03,1.68 h -44.93 z"
                 style="fill:#942581;fill-opacity:1;fill-rule:nonzero;stroke:none"
                 id="path92"
                 inkscape:connector-curvature="0" />
            </g>
          </g>
        </g>
        <text
           y="32.645668"
           x="126.08709"
           id="text56"
           style="font-style:normal;font-variant:normal;font-weight:600;font-stretch:normal;font-size:21.51944351px;font-family:'URW Gothic L';-inkscape-font-specification:'URW Gothic L, Semi-Bold';font-variant-ligatures:normal;font-variant-caps:normal;font-variant-numeric:normal;font-feature-settings:normal;text-align:start;writing-mode:lr-tb;text-anchor:start;fill:#000000;fill-opacity:1;fill-rule:nonzero;stroke:none;stroke-width:0.35277775">
          <tspan
             style="font-style:normal;font-variant:normal;font-weight:600;font-stretch:normal;font-size:21.51944351px;font-family:'URW Gothic L';-inkscape-font-specification:'URW Gothic L, Semi-Bold';font-variant-ligatures:normal;font-variant-caps:normal;font-variant-numeric:normal;font-feature-settings:normal;text-align:start;writing-mode:lr-tb;text-anchor:start;stroke-width:0.35277775"
             id="tspan54"
             y="32.645668"
             x="126.08709">2</tspan>
        </text>
      </g>
      <text
         id="text3207"
         y="60.934486"
         x="60.427074"
         style="font-style:normal;font-variant:normal;font-weight:normal;font-stretch:normal;font-size:7.05555534px;line-height:2ex;font-family:'URW Gothic L';-inkscape-font-specification:'URW Gothic L, Normal';font-variant-ligatures:normal;font-variant-caps:normal;font-variant-numeric:normal;font-feature-settings:normal;text-align:start;letter-spacing:0px;word-spacing:0px;writing-mode:lr-tb;text-anchor:start;fill:#000000;fill-opacity:1;stroke:none;stroke-width:0.26458332"
         xml:space="preserve"><tspan
           id="tspan3239"
           style="font-style:normal;font-variant:normal;font-weight:normal;font-stretch:normal;font-size:6.3499999px;font-family:'URW Gothic L';-inkscape-font-specification:'URW Gothic L, Normal';font-variant-ligatures:normal;font-variant-caps:normal;font-variant-numeric:normal;font-feature-settings:normal;text-align:start;writing-mode:lr-tb;text-anchor:start;stroke-width:0.26458332"
           y="60.934486"
           x="60.427074"
           sodipodi:role="line">simple farmers</tspan><tspan
           style="font-style:normal;font-variant:normal;font-weight:normal;font-stretch:normal;font-size:6.3499999px;font-family:'URW Gothic L';-inkscape-font-specification:'URW Gothic L, Normal';font-variant-ligatures:normal;font-variant-caps:normal;font-variant-numeric:normal;font-feature-settings:normal;text-align:start;writing-mode:lr-tb;text-anchor:start;stroke-width:0.26458332"
           y="68.204475"
           x="60.427074"
           sodipodi:role="line"
           id="tspan911">and hunter-gatherers</tspan><tspan
           id="tspan3243"
           style="font-style:normal;font-variant:normal;font-weight:normal;font-stretch:normal;font-size:6.3499999px;font-family:'URW Gothic L';-inkscape-font-specification:'URW Gothic L, Normal';font-variant-ligatures:normal;font-variant-caps:normal;font-variant-numeric:normal;font-feature-settings:normal;text-align:start;writing-mode:lr-tb;text-anchor:start;stroke-width:0.26458332"
           y="75.474464"
           x="60.427074"
           sodipodi:role="line">mostly sedentary</tspan><tspan
           style="font-style:normal;font-variant:normal;font-weight:normal;font-stretch:normal;font-size:6.3499999px;font-family:'URW Gothic L';-inkscape-font-specification:'URW Gothic L, Normal';font-variant-ligatures:normal;font-variant-caps:normal;font-variant-numeric:normal;font-feature-settings:normal;text-align:start;writing-mode:lr-tb;text-anchor:start;stroke-width:0.26458332"
           y="82.744453"
           x="60.427074"
           sodipodi:role="line"
           id="tspan919">mixed residence</tspan></text>
      <rect
         ry="8.1077137"
         y="50.278603"
         x="55.266006"
         height="38.511635"
         width="143.03191"
         id="rect3285-5-6"
         style="opacity:1;vector-effect:none;fill:none;fill-opacity:1;fill-rule:nonzero;stroke:#000000;stroke-width:2.34126687;stroke-linecap:butt;stroke-linejoin:miter;stroke-miterlimit:4;stroke-dasharray:none;stroke-dashoffset:0;stroke-opacity:1;paint-order:markers fill stroke" />
    </g>
    <g
       id="g3723"
       transform="translate(8.7124468,0.64197961)">
      <g
         transform="translate(-24.546904,-0.34761947)"
         id="g2092">
        <g
           transform="matrix(0.35277777,0,0,-0.35277777,-133.46666,82.092376)"
           id="g1672">
          <g
             id="g1067">
            <g
               id="g1908"
               transform="translate(5.303301,-100.0051)">
              <path
                 d="m 554.17,263.1 -0.03,1.46 -0.07,1.45 -0.12,1.45 -0.16,1.44 -0.21,1.44 -0.26,1.43 -0.3,1.42 -0.35,1.41 -0.4,1.4 -0.44,1.39 -0.48,1.37 -0.53,1.35 -0.57,1.34 -0.62,1.32 -0.65,1.29 -0.7,1.28 -0.74,1.25 -0.78,1.23 -0.82,1.2 -0.86,1.17 -0.89,1.15 -0.94,1.11 -0.96,1.09 -1.01,1.05 -1.03,1.02 -1.07,0.99 -1.1,0.95 -1.13,0.91 -1.16,0.88 -1.18,0.84 -1.22,0.8 -1.23,0.77 -1.27,0.72 -1.28,0.68 -20.37,-40.05 z"
                 style="fill:#0a9748;fill-opacity:1;fill-rule:nonzero;stroke:none"
                 id="path74"
                 inkscape:connector-curvature="0" />
              <path
                 d="m 529.61,303.15 -1.29,0.63 -1.3,0.58 -1.33,0.55 -1.34,0.5 -1.36,0.46 -1.37,0.42 -1.38,0.37 -1.39,0.33 -1.41,0.29 -1.41,0.24 -1.42,0.19 -1.43,0.15 -1.42,0.1 -1.44,0.06 -1.43,0.01 -1.43,-0.03 -1.43,-0.08 -1.43,-0.13 -1.42,-0.17 -1.42,-0.21 -1.41,-0.27 -1.4,-0.3 -1.39,-0.35 -1.37,-0.4 -1.37,-0.43 -1.35,-0.48 -1.33,-0.53 -1.32,-0.56 -1.29,-0.61 -1.28,-0.65 -1.26,-0.69 -1.23,-0.73 -1.21,-0.77 -1.18,-0.8 -1.16,-0.85 -1.13,-0.88 -1.1,-0.91 -1.08,-0.95 -1.04,-0.99 -1.01,-1.01 -0.97,-1.05 -0.94,-1.08 -0.91,-1.11 -0.87,-1.14 -0.84,-1.16 -0.8,-1.19 -0.76,-1.22 -0.72,-1.23 -0.68,-1.26 -0.64,-1.29 -0.6,-1.3 -0.55,-1.32 -0.52,-1.34 -0.47,-1.35 -0.43,-1.37 -0.38,-1.38 -0.34,-1.39 -0.3,-1.4 -0.25,-1.41 -0.2,-1.42 -0.16,-1.42 -0.12,-1.43 -0.07,-1.43 -0.02,-1.43 0.02,-1.43 0.07,-1.44 0.11,-1.42 0.16,-1.43 0.21,-1.42 44.36,7.11 z"
                 style="fill:#1f9dd9;fill-opacity:1;fill-rule:nonzero;stroke:none"
                 id="path76"
                 inkscape:connector-curvature="0" />
              <path
                 d="m 464.88,255.99 0.25,-1.42 0.29,-1.41 0.35,-1.4 0.38,-1.39 0.43,-1.38 0.48,-1.36 0.52,-1.35 0.56,-1.33 0.61,-1.31 0.64,-1.29 0.69,-1.27 0.73,-1.25 0.76,-1.22 0.81,-1.2 0.84,-1.17 0.89,-1.14 0.91,-1.12 0.96,-1.08 0.98,-1.05 1.03,-1.02 1.05,-0.99 1.08,-0.95 1.12,-0.92 1.14,-0.88 1.17,-0.85 1.2,-0.8 1.22,-0.77 1.25,-0.73 1.27,-0.69 1.29,-0.64 1.31,-0.61 1.33,-0.56 1.35,-0.52 1.36,-0.47 1.38,-0.43 1.39,-0.39 1.4,-0.34 1.41,-0.3 1.43,-0.25 1.42,-0.2 1.44,-0.16 1.44,-0.12 1.44,-0.06 1.44,-0.02 1.45,0.02 1.44,0.07 1.44,0.12 1.43,0.17 1.43,0.21 1.42,0.25 1.41,0.31 1.4,0.34 1.39,0.4 1.38,0.43 1.36,0.48 1.34,0.53 1.33,0.56 1.31,0.61 1.29,0.65 1.27,0.7 1.24,0.73 1.22,0.77 1.19,0.81 1.17,0.85 1.14,0.89 1.11,0.92 1.08,0.95 1.05,1 1.02,1.02 0.98,1.06 -33.37,30.07 z"
                 style="fill:#000000;fill-opacity:1;fill-rule:nonzero;stroke:none"
                 id="path78"
                 inkscape:connector-curvature="0" />
              <path
                 d="m 542.61,233.03 0.99,1.13 0.95,1.17 0.91,1.19 0.87,1.23 0.82,1.25 0.79,1.29 0.74,1.3 0.7,1.33 0.65,1.36 0.61,1.37 0.56,1.4 0.51,1.41 0.47,1.43 0.42,1.44 0.37,1.46 0.32,1.47 0.27,1.48 0.22,1.48 0.17,1.5 -44.71,4.38 z"
                 style="fill:#e21e26;fill-opacity:1;fill-rule:nonzero;stroke:none"
                 id="path80"
                 inkscape:connector-curvature="0" />
              <path
                 d="m 553.95,258.72 0.16,2.19 0.06,2.19 h -44.93 z"
                 style="fill:#942581;fill-opacity:1;fill-rule:nonzero;stroke:none"
                 id="path82"
                 inkscape:connector-curvature="0" />
            </g>
          </g>
        </g>
        <text
           y="32.505791"
           x="67.486275"
           id="text52"
           style="font-style:normal;font-variant:normal;font-weight:600;font-stretch:normal;font-size:21.51944351px;font-family:'URW Gothic L';-inkscape-font-specification:'URW Gothic L, Semi-Bold';font-variant-ligatures:normal;font-variant-caps:normal;font-variant-numeric:normal;font-feature-settings:normal;text-align:start;writing-mode:lr-tb;text-anchor:start;fill:#000000;fill-opacity:1;fill-rule:nonzero;stroke:none;stroke-width:0.35277775">
          <tspan
             style="font-style:normal;font-variant:normal;font-weight:600;font-stretch:normal;font-size:21.51944351px;font-family:'URW Gothic L';-inkscape-font-specification:'URW Gothic L, Semi-Bold';font-variant-ligatures:normal;font-variant-caps:normal;font-variant-numeric:normal;font-feature-settings:normal;text-align:start;writing-mode:lr-tb;text-anchor:start;stroke-width:0.35277775"
             id="tspan50"
             y="32.505791"
             x="67.486275">1</tspan>
        </text>
      </g>
      <text
         id="text3195"
         y="19.712349"
         x="60.872986"
         style="font-style:normal;font-variant:normal;font-weight:normal;font-stretch:normal;font-size:7.05555534px;line-height:2ex;font-family:'URW Gothic L';-inkscape-font-specification:'URW Gothic L, Normal';font-variant-ligatures:normal;font-variant-caps:normal;font-variant-numeric:normal;font-feature-settings:normal;text-align:start;letter-spacing:0px;word-spacing:0px;writing-mode:lr-tb;text-anchor:start;fill:#000000;fill-opacity:1;stroke:none;stroke-width:0.26458332"
         xml:space="preserve"><tspan
           id="tspan3197"
           style="font-style:normal;font-variant:normal;font-weight:normal;font-stretch:normal;font-size:7.05555534px;font-family:'URW Gothic L';-inkscape-font-specification:'URW Gothic L, Normal';font-variant-ligatures:normal;font-variant-caps:normal;font-variant-numeric:normal;font-feature-settings:normal;text-align:start;writing-mode:lr-tb;text-anchor:start;stroke-width:0.26458332"
           y="19.712349"
           x="60.872986"
           sodipodi:role="line">mobile hunters</tspan><tspan
           id="tspan3201"
           style="font-style:normal;font-variant:normal;font-weight:normal;font-stretch:normal;font-size:7.05555534px;font-family:'URW Gothic L';-inkscape-font-specification:'URW Gothic L, Normal';font-variant-ligatures:normal;font-variant-caps:normal;font-variant-numeric:normal;font-feature-settings:normal;text-align:start;writing-mode:lr-tb;text-anchor:start;stroke-width:0.26458332"
           y="26.767904"
           x="60.872986"
           sodipodi:role="line">fishers and gatherers</tspan><tspan
           id="tspan3203"
           style="font-style:normal;font-variant:normal;font-weight:normal;font-stretch:normal;font-size:7.05555534px;font-family:'URW Gothic L';-inkscape-font-specification:'URW Gothic L, Normal';font-variant-ligatures:normal;font-variant-caps:normal;font-variant-numeric:normal;font-feature-settings:normal;text-align:start;writing-mode:lr-tb;text-anchor:start;stroke-width:0.26458332"
           y="33.82346"
           x="60.872986"
           sodipodi:role="line">mixed residence</tspan></text>
      <rect
         ry="8.1077137"
         y="4.9509201"
         x="3.3915558"
         height="38.511635"
         width="143.03191"
         id="rect3285-5-9"
         style="opacity:1;vector-effect:none;fill:none;fill-opacity:1;fill-rule:nonzero;stroke:#000000;stroke-width:2.34126687;stroke-linecap:butt;stroke-linejoin:miter;stroke-miterlimit:4;stroke-dasharray:none;stroke-dashoffset:0;stroke-opacity:1;paint-order:markers fill stroke" />
    </g>
  </g>
</svg>
