<?xml version="1.0" encoding="UTF-8" standalone="no"?>
<!-- Created with Inkscape (http://www.inkscape.org/) -->

<svg
   xmlns:dc="http://purl.org/dc/elements/1.1/"
   xmlns:cc="http://creativecommons.org/ns#"
   xmlns:rdf="http://www.w3.org/1999/02/22-rdf-syntax-ns#"
   xmlns:svg="http://www.w3.org/2000/svg"
   xmlns="http://www.w3.org/2000/svg"
   xmlns:sodipodi="http://sodipodi.sourceforge.net/DTD/sodipodi-0.dtd"
   xmlns:inkscape="http://www.inkscape.org/namespaces/inkscape"
   version="1.1"
   id="svg2"
   xml:space="preserve"
   width="1093.6698"
   height="895.25354"
   viewBox="0 0 1093.6698 895.25354"
   sodipodi:docname="ward.D_k6_v28.svg"
   inkscape:version="0.92.4 (unknown)"><metadata
     id="metadata8"><rdf:RDF><cc:Work
         rdf:about=""><dc:format>image/svg+xml</dc:format><dc:type
           rdf:resource="http://purl.org/dc/dcmitype/StillImage" /><dc:title></dc:title></cc:Work></rdf:RDF></metadata><defs
     id="defs6"><clipPath
       clipPathUnits="userSpaceOnUse"
       id="clipPath20"><path
         d="m 285.12,672 h 289.44 v 336 H 285.12 Z"
         id="path18"
         inkscape:connector-curvature="0" /></clipPath><clipPath
       clipPathUnits="userSpaceOnUse"
       id="clipPath46"><path
         d="M 574.56,672 H 864 v 336 H 574.56 Z"
         id="path44"
         inkscape:connector-curvature="0" /></clipPath><clipPath
       clipPathUnits="userSpaceOnUse"
       id="clipPath72"><path
         d="M 285.12,336 H 574.56 V 672 H 285.12 Z"
         id="path70"
         inkscape:connector-curvature="0" /></clipPath><clipPath
       clipPathUnits="userSpaceOnUse"
       id="clipPath98"><path
         d="M 574.56,336 H 864 V 672 H 574.56 Z"
         id="path96"
         inkscape:connector-curvature="0" /></clipPath><clipPath
       clipPathUnits="userSpaceOnUse"
       id="clipPath124"><path
         d="M 285.12,0 H 574.56 V 336 H 285.12 Z"
         id="path122"
         inkscape:connector-curvature="0" /></clipPath><clipPath
       clipPathUnits="userSpaceOnUse"
       id="clipPath150"><path
         d="M 574.56,0 H 864 V 336 H 574.56 Z"
         id="path148"
         inkscape:connector-curvature="0" /></clipPath></defs><sodipodi:namedview
     pagecolor="#ffffff"
     bordercolor="#666666"
     borderopacity="1"
     objecttolerance="10"
     gridtolerance="10"
     guidetolerance="10"
     inkscape:pageopacity="0"
     inkscape:pageshadow="2"
     inkscape:window-width="1278"
     inkscape:window-height="1357"
     id="namedview4"
     showgrid="false"
     inkscape:zoom="0.35119048"
     inkscape:cx="716.52896"
     inkscape:cy="523.62504"
     inkscape:window-x="1280"
     inkscape:window-y="31"
     inkscape:window-maximized="0"
     inkscape:current-layer="g5051" /><g
     id="g10"
     inkscape:groupmode="layer"
     inkscape:label="ward.D_k6_v28"
     transform="matrix(1.3333333,0,0,-1.3333333,-8.3034544,1340.3202)"><g
       id="g12" /><g
       id="g5029"
       transform="translate(61.5,54)"><path
         inkscape:connector-curvature="0"
         id="path22"
         style="fill:#000000;fill-opacity:1;fill-rule:nonzero;stroke:none"
         d="m 537.04,840 v 0.79 l -0.01,0.78 -0.02,0.79 -0.02,0.78 -0.02,0.79 -0.03,0.79 -0.04,0.78 -0.04,0.79 -0.05,0.78 -0.06,0.79 L 429.84,840 Z" /><path
         inkscape:connector-curvature="0"
         id="path24"
         style="fill:#a6cee3;fill-opacity:1;fill-rule:nonzero;stroke:none"
         d="m 536.75,847.86 -0.05,0.67 -0.06,0.67 -0.06,0.67 -0.06,0.67 -0.07,0.68 -0.07,0.67 -0.08,0.67 -0.08,0.67 -0.08,0.67 -0.09,0.66 -0.1,0.67 -0.1,0.67 -0.1,0.67 -0.1,0.66 -0.11,0.67 -0.12,0.66 -0.12,0.67 -0.12,0.66 -0.13,0.66 -0.13,0.67 -0.14,0.66 -0.14,0.66 -0.14,0.66 -0.15,0.65 -0.15,0.66 -0.16,0.66 -0.16,0.65 -0.16,0.66 -0.17,0.65 -0.17,0.65 -0.18,0.65 -0.18,0.65 -0.19,0.65 -0.18,0.65 -0.2,0.65 -0.2,0.64 -0.2,0.64 -0.2,0.65 -0.21,0.64 -0.21,0.64 -0.22,0.64 -0.22,0.63 -0.23,0.64 -0.23,0.64 -0.23,0.63 -0.24,0.63 -0.24,0.63 -0.25,0.63 -0.25,0.62 -0.25,0.63 -0.26,0.62 -0.26,0.63 -0.26,0.62 -0.27,0.62 -0.27,0.61 -0.28,0.62 -0.28,0.61 -0.29,0.61 -0.28,0.61 -0.3,0.61 -0.29,0.61 -0.3,0.6 -0.31,0.6 -0.3,0.6 -0.31,0.6 -0.32,0.6 -0.32,0.59 -0.32,0.6 -0.33,0.59 -0.33,0.59 -0.33,0.58 -0.34,0.59 -0.34,0.58 -0.34,0.58 -0.35,0.58 -0.35,0.57 -0.36,0.58 -0.36,0.57 -0.36,0.57 -0.37,0.56 -0.37,0.57 -0.37,0.56 -0.38,0.56 -0.38,0.56 -0.38,0.55 -0.39,0.55 -0.39,0.55 -0.39,0.55 -0.4,0.55 -0.4,0.54 -0.4,0.54 -0.41,0.54 -0.41,0.53 -0.42,0.53 -0.42,0.53 -0.42,0.53 -0.42,0.52 -0.43,0.53 -0.43,0.52 -0.44,0.51 -0.43,0.52 -0.44,0.51 -0.45,0.5 -0.45,0.51 -0.45,0.5 -0.45,0.5 -0.46,0.5 -0.46,0.49 -0.46,0.49 -0.47,0.49 -0.46,0.48 -0.48,0.49 -0.47,0.48 -0.48,0.47 -0.48,0.47 -0.49,0.47 -0.48,0.47 -0.49,0.46 -0.49,0.47 -0.5,0.45 -0.5,0.46 -0.5,0.45 -0.51,0.45 -0.5,0.44 -0.51,0.44 -0.51,0.44 -0.52,0.44 -0.52,0.43 -0.52,0.43 -0.52,0.42 -0.53,0.43 -0.53,0.42 -0.53,0.41 -0.53,0.41 -0.54,0.41 -0.54,0.41 -0.54,0.4 -0.55,0.4 -0.54,0.39 -0.55,0.39 -0.55,0.39 -0.56,0.39 -0.55,0.38 -0.56,0.38 -0.56,0.37 -0.57,0.37 -0.56,0.37 -0.57,0.36 -0.57,0.36 -0.58,0.36 -0.57,0.35 -0.58,0.35 -0.58,0.35 -0.58,0.34 -0.58,0.34 -0.59,0.33 -0.59,0.33 -0.59,0.33 -0.59,0.32 -0.59,0.32 -0.6,0.32 -0.6,0.31 -0.6,0.31 -0.6,0.3 -0.6,0.3 -0.61,0.3 -0.61,0.29 -0.61,0.29 -0.61,0.29 -0.61,0.28 -0.62,0.28 -0.61,0.27 -0.62,0.27 -0.62,0.27 -0.62,0.26 -0.63,0.26 -0.62,0.25 -0.63,0.25 -0.63,0.25 -0.62,0.24 -0.64,0.24 -0.63,0.24 -0.63,0.23 -0.64,0.22 -0.63,0.23 -0.64,0.21 -0.64,0.22 -0.64,0.21 -0.65,0.21 -0.64,0.2 -0.64,0.2 -0.65,0.19 -0.65,0.19 -0.65,0.19 -0.65,0.18 -0.65,0.18 -0.65,0.17 -0.65,0.17 -0.66,0.17 -0.65,0.16 -0.66,0.16 -0.65,0.15 -0.66,0.15 -0.66,0.14 -0.66,0.15 -0.66,0.13 -0.66,0.13 -0.66,0.13 -0.67,0.13 -0.66,0.12 -0.67,0.11 -0.66,0.12 -0.67,0.1 -0.66,0.11 -0.67,0.1 -0.67,0.09 -0.67,0.09 -0.67,0.09 -0.67,0.08 -0.67,0.08 -0.67,0.07 -0.67,0.07 -0.67,0.07 -0.67,0.06 -0.67,0.06 -0.68,0.05 -0.67,0.05 -0.67,0.04 -0.68,0.04 -0.67,0.04 -0.67,0.03 -0.68,0.03 -0.67,0.02 -0.68,0.02 -0.67,0.01 -0.68,0.01 -0.67,0.01 h -0.68 -0.67 l -0.67,-0.01 -0.68,-0.01 -0.67,-0.02 -0.68,-0.01 -0.67,-0.03 -0.68,-0.03 -0.67,-0.03 -0.67,-0.03 -0.68,-0.05 -0.67,-0.04 -0.67,-0.05 -0.68,-0.05 -0.67,-0.06 -0.67,-0.06 -0.67,-0.07 -0.67,-0.07 -0.67,-0.07 -0.67,-0.08 -0.67,-0.08 -0.67,-0.09 -0.67,-0.09 -0.67,-0.1 -0.67,-0.1 -0.66,-0.1 -0.67,-0.11 -0.66,-0.11 -0.67,-0.12 -0.66,-0.12 -0.66,-0.12 -0.67,-0.13 -0.66,-0.14 -0.66,-0.13 -0.66,-0.14 -0.66,-0.15 -0.66,-0.15 -0.65,-0.15 -0.66,-0.16 -0.65,-0.16 -0.66,-0.17 -0.65,-0.17 -0.65,-0.18 -0.65,-0.17 -0.65,-0.19 -0.65,-0.18 -0.65,-0.19 -0.64,-0.2 -0.65,-0.2 -0.64,-0.2 -0.64,-0.21 -0.64,-0.21 -0.64,-0.21 -0.64,-0.22 -0.64,-0.23 -0.63,-0.22 -0.64,-0.23 -0.63,-0.24 -0.63,-0.24 -0.63,-0.24 -0.63,-0.25 -0.62,-0.25 -0.63,-0.26 -0.62,-0.25 -0.62,-0.27 -0.62,-0.26 -0.62,-0.27 -0.62,-0.28 -0.61,-0.28 -0.61,-0.28 -0.62,-0.29 -0.6,-0.29 -0.61,-0.29 -0.61,-0.3 -0.6,-0.3 -0.6,-0.3 -0.6,-0.31 -0.6,-0.31 -0.6,-0.32 -0.59,-0.32 -0.59,-0.32 -0.59,-0.33 -0.59,-0.33 -0.59,-0.34 -0.58,-0.34 -0.58,-0.34 -0.58,-0.35 -0.58,-0.35 -0.57,-0.35 -0.57,-0.36 -0.57,-0.36 -0.57,-0.36 -0.57,-0.37 -0.56,-0.37 -0.56,-0.37 -0.56,-0.38 -0.56,-0.38 -0.55,-0.39 -0.55,-0.39 -0.55,-0.39 -0.55,-0.4 -0.54,-0.39 -0.54,-0.41 -0.54,-0.4 -0.54,-0.41 -0.53,-0.42 -0.53,-0.41 -0.53,-0.42 -0.53,-0.42 -0.52,-0.43 -0.52,-0.43 -0.52,-0.43 -0.51,-0.44 -0.52,-0.44 -0.51,-0.44 -0.5,-0.44 -0.51,-0.45 -0.5,-0.45 -0.5,-0.46 -0.49,-0.46 -0.49,-0.46 -0.49,-0.46 -0.49,-0.47 -0.48,-0.47 -0.48,-0.47 -0.48,-0.48 -0.48,-0.48 -0.47,-0.48 -0.47,-0.49 -0.46,-0.48 -0.47,-0.5 -0.46,-0.49 -0.45,-0.5 -0.45,-0.5 -0.45,-0.5 -0.45,-0.5 -0.45,-0.51 -0.44,-0.51 -0.43,-0.52 -0.44,-0.51 -0.43,-0.52 -0.42,-0.53 -0.43,-0.52 -0.42,-0.53 -0.42,-0.53 -0.41,-0.53 -0.41,-0.54 -0.41,-0.53 -0.4,-0.54 -0.4,-0.55 -0.4,-0.54 -0.4,-0.55 -0.39,-0.55 -0.38,-0.55 -0.39,-0.56 -0.38,-0.56 -0.37,-0.56 -0.37,-0.56 -0.37,-0.56 -0.37,-0.57 -0.36,-0.57 -0.36,-0.57 -0.36,-0.57 -0.35,-0.58 -0.34,-0.58 -0.35,-0.58 -0.34,-0.58 -0.34,-0.59 -0.33,-0.58 -0.33,-0.59 -0.32,-0.59 -0.32,-0.6 -0.32,-0.59 -0.32,-0.6 -0.31,-0.6 -0.3,-0.6 -0.31,-0.6 -0.3,-0.6 -0.29,-0.61 -0.29,-0.61 -0.29,-0.61 -0.29,-0.61 -0.28,-0.62 -0.27,-0.61 -0.27,-0.62 -0.27,-0.62 -0.27,-0.62 -0.26,-0.62 -0.25,-0.62 -0.26,-0.63 -0.25,-0.63 -0.24,-0.63 -0.24,-0.63 -0.24,-0.63 -0.23,-0.63 -0.23,-0.63 -0.23,-0.64 -0.22,-0.64 -0.21,-0.64 -0.22,-0.64 -0.21,-0.64 -0.2,-0.64 -0.2,-0.65 -0.2,-0.64 -0.19,-0.65 -0.19,-0.65 -0.18,-0.64 -0.18,-0.65 -0.18,-0.66 -0.17,-0.65 -0.17,-0.65 -0.17,-0.66 -0.16,-0.65 -0.15,-0.66 -0.15,-0.66 -0.15,-0.65 -0.14,-0.66 -0.14,-0.66 -0.14,-0.66 -0.13,-0.67 -0.13,-0.66 -0.12,-0.66 -0.12,-0.67 -0.11,-0.66 -0.11,-0.67 -0.11,-0.66 -0.1,-0.67 -0.1,-0.67 -0.09,-0.67 -0.09,-0.66 -0.08,-0.67 -0.08,-0.67 -0.08,-0.67 -0.07,-0.67 -0.07,-0.68 -0.06,-0.67 -0.06,-0.67 -0.06,-0.67 -0.05,-0.68 -0.05,-0.67 -0.04,-0.67 -0.04,-0.68 -0.03,-0.67 -0.03,-0.67 -0.03,-0.68 -0.02,-0.67 -0.01,-0.68 -0.02,-0.67 -0.01,-0.68 v -0.67 -0.67 -0.68 l 0.01,-0.67 0.02,-0.68 0.01,-0.67 0.02,-0.68 0.03,-0.67 0.03,-0.68 0.03,-0.67 0.04,-0.67 0.04,-0.68 0.05,-0.67 0.05,-0.67 0.06,-0.67 0.05,-0.68 0.07,-0.67 0.07,-0.67 0.07,-0.67 0.07,-0.67 0.08,-0.67 0.09,-0.67 0.09,-0.67 0.09,-0.67 0.1,-0.66 0.1,-0.67 0.11,-0.67 0.11,-0.66 0.11,-0.67 0.12,-0.66 0.12,-0.67 0.13,-0.66 0.13,-0.66 0.13,-0.66 0.14,-0.66 0.14,-0.66 0.15,-0.66 0.15,-0.66 0.16,-0.65 0.16,-0.66 0.16,-0.65 0.17,-0.66 0.17,-0.65 0.18,-0.65 0.18,-0.65 0.18,-0.65 0.19,-0.65 0.19,-0.64 0.2,-0.65 0.2,-0.64 0.21,-0.65 0.2,-0.64 0.22,-0.64 0.21,-0.64 0.23,-0.63 0.22,-0.64 0.23,-0.64 0.23,-0.63 0.24,-0.63 0.24,-0.63 0.24,-0.63 0.25,-0.63 0.26,-0.62 0.25,-0.63 0.26,-0.62 0.27,-0.62 0.27,-0.62 0.27,-0.62 0.27,-0.61 0.28,-0.62 0.29,-0.61 0.28,-0.61 0.3,-0.61 0.29,-0.6 0.3,-0.61 0.3,-0.6 0.31,-0.6 0.31,-0.6 0.31,-0.6 0.32,-0.59 0.32,-0.6 0.33,-0.59 0.33,-0.59 0.33,-0.58 0.34,-0.59 0.34,-0.58 0.34,-0.58 0.35,-0.58 0.35,-0.57 0.36,-0.58 0.35,-0.57 0.37,-0.57 0.36,-0.57 0.37,-0.56 0.37,-0.56 0.38,-0.56 0.38,-0.56 0.38,-0.56 0.39,-0.55 0.39,-0.55 0.39,-0.55 0.4,-0.54 0.4,-0.55 0.4,-0.54 0.41,-0.53 0.41,-0.54 0.42,-0.53 0.41,-0.53 0.42,-0.53 0.43,-0.52 0.43,-0.53 0.43,-0.52 0.43,-0.51 0.44,-0.52 0.44,-0.51 0.44,-0.51 0.45,-0.5 0.45,-0.5 0.45,-0.5 0.46,-0.5 0.46,-0.5 0.46,-0.49 0.46,-0.49 0.47,-0.48 0.47,-0.48 0.48,-0.48 0.48,-0.48 0.48,-0.47 0.48,-0.47 0.49,-0.47 0.49,-0.46 0.49,-0.47 0.49,-0.45 0.5,-0.46 0.5,-0.45 0.51,-0.45 0.5,-0.45 0.51,-0.44 0.52,-0.44 0.51,-0.43 0.52,-0.44 0.52,-0.42 0.52,-0.43 0.53,-0.42 0.53,-0.42 0.53,-0.42 0.53,-0.41 0.54,-0.41 0.54,-0.41 0.54,-0.4 0.54,-0.4 0.55,-0.39 0.55,-0.4 0.55,-0.39 0.55,-0.38 0.56,-0.38 0.56,-0.38 0.56,-0.38 0.56,-0.37 0.57,-0.37 0.56,-0.36 0.57,-0.36 0.58,-0.36 0.57,-0.35 0.58,-0.35 0.58,-0.35 0.58,-0.34 0.58,-0.34 0.59,-0.33 0.59,-0.33 0.59,-0.33 0.59,-0.33 0.59,-0.32 0.6,-0.31 0.59,-0.32 0.6,-0.31 0.61,-0.3 0.6,-0.3 0.6,-0.3 0.61,-0.29 0.61,-0.29 0.61,-0.29 0.61,-0.28 0.62,-0.28 0.62,-0.28 0.61,-0.27 0.62,-0.26 0.62,-0.27 0.63,-0.25 0.62,-0.26 0.63,-0.25 0.63,-0.25 0.63,-0.24 0.63,-0.24 0.63,-0.24 0.63,-0.23 0.64,-0.22 0.63,-0.23 0.64,-0.22 0.64,-0.21 0.64,-0.21 0.64,-0.21 0.65,-0.2 0.64,-0.2 0.65,-0.2 0.65,-0.19 0.64,-0.19 0.65,-0.18 0.65,-0.18 0.66,-0.17 0.65,-0.17 0.65,-0.17 0.66,-0.16 0.65,-0.16 0.66,-0.15 0.66,-0.15 0.66,-0.15 0.66,-0.14 0.66,-0.14 0.66,-0.13 0.66,-0.13 0.66,-0.13 0.67,-0.12 0.66,-0.11 0.67,-0.12 0.66,-0.1 0.67,-0.11 0.67,-0.1 0.66,-0.09 0.67,-0.1 0.67,-0.08 0.67,-0.09 0.67,-0.07 0.67,-0.08 0.67,-0.07 0.67,-0.07 0.68,-0.06 0.67,-0.06 0.67,-0.05 0.67,-0.05 0.68,-0.04 0.67,-0.04 0.67,-0.04 0.68,-0.03 0.67,-0.03 0.68,-0.02 0.67,-0.02 0.67,-0.02 0.68,-0.01 0.67,-0.01 h 0.68 0.67 l 0.68,0.01 0.67,0.01 0.68,0.01 0.67,0.02 0.68,0.02 0.67,0.03 0.67,0.03 0.68,0.04 0.67,0.04 0.67,0.04 0.68,0.05 0.67,0.05 0.67,0.06 0.67,0.06 0.68,0.07 0.67,0.07 0.67,0.07 0.67,0.08 0.67,0.08 0.67,0.09 0.66,0.09 0.67,0.09 0.67,0.1 0.67,0.1 0.66,0.11 0.67,0.11 0.66,0.12 0.67,0.12 0.66,0.12 0.66,0.13 0.66,0.13 0.66,0.14 0.66,0.14 0.66,0.14 0.66,0.15 0.66,0.16 0.65,0.15 0.66,0.17 0.65,0.16 0.66,0.17 0.65,0.17 0.65,0.18 0.65,0.18 0.65,0.19 0.64,0.19 0.65,0.19 0.65,0.2 0.64,0.21 0.64,0.2 0.64,0.21 0.64,0.22 0.64,0.22 0.64,0.22 0.63,0.22 0.64,0.23 0.63,0.24 0.63,0.24 0.63,0.24 0.63,0.25 0.63,0.25 0.62,0.25 0.62,0.26 0.63,0.26 0.62,0.27 0.61,0.27 0.62,0.27 0.62,0.28 0.61,0.28 0.61,0.29 0.61,0.28 0.61,0.3 0.6,0.29 0.61,0.31 0.6,0.3 0.6,0.31 0.6,0.31 0.59,0.32 0.6,0.32 0.59,0.32 0.59,0.33 0.59,0.33 0.58,0.33 0.59,0.34 0.58,0.34 0.58,0.35 0.58,0.34 0.57,0.36 0.57,0.35 0.58,0.36 0.56,0.37 0.57,0.36 0.56,0.37 0.56,0.38 0.56,0.38 0.56,0.38 0.55,0.38 0.56,0.39 0.55,0.39 0.54,0.4 0.55,0.4 0.54,0.4 0.54,0.4 0.54,0.41 0.53,0.41 0.53,0.42 0.53,0.42 0.53,0.42 0.52,0.43 0.52,0.42 0.52,0.44 0.52,0.43 0.51,0.44 0.51,0.44 0.51,0.45 0.5,0.44 0.5,0.45 0.5,0.46 0.5,0.46 0.49,0.46 0.49,0.46 0.49,0.47 0.48,0.47 0.48,0.47 0.48,0.48 0.48,0.48 0.47,0.48 0.47,0.48 0.46,0.49 0.47,0.49 0.46,0.49 0.45,0.5 0.46,0.5 0.45,0.5 0.44,0.51 0.45,0.5 0.44,0.52 0.44,0.51 0.43,0.51 0.43,0.52 0.43,0.53 0.43,0.52 0.42,0.53 0.42,0.53 0.41,0.53 0.41,0.53 0.41,0.54 0.4,0.54 0.41,0.54 0.39,0.55 0.4,0.54 0.39,0.55 0.39,0.56 0.38,0.55 0.38,0.56 0.38,0.56 0.37,0.56 0.37,0.56 0.37,0.57 0.36,0.57 0.36,0.57 0.35,0.57 0.36,0.58 0.34,0.58 0.35,0.58 0.34,0.58 0.34,0.58 0.33,0.59 0.33,0.59 0.33,0.59 0.32,0.59 0.32,0.6 -94.64,50.35 z" /><path
         inkscape:connector-curvature="0"
         id="path26"
         style="fill:#1f78b4;fill-opacity:1;fill-rule:nonzero;stroke:none"
         d="m 524.48,789.65 0.33,0.62 0.32,0.62 0.32,0.63 0.32,0.63 0.31,0.63 0.31,0.63 0.3,0.63 0.3,0.64 0.29,0.64 0.3,0.64 0.28,0.64 0.28,0.64 0.28,0.65 0.28,0.65 0.27,0.65 0.26,0.65 0.26,0.65 0.26,0.66 0.25,0.65 0.25,0.66 0.25,0.66 0.24,0.66 0.23,0.66 0.23,0.67 0.23,0.66 0.22,0.67 0.22,0.67 0.21,0.67 0.21,0.67 0.21,0.67 0.2,0.68 0.19,0.67 0.19,0.68 0.19,0.68 0.18,0.67 0.18,0.68 0.18,0.69 0.16,0.68 0.17,0.68 0.16,0.69 0.16,0.68 -104.62,23.4 z" /><path
         inkscape:connector-curvature="0"
         id="path28"
         style="fill:#b2df8a;fill-opacity:1;fill-rule:nonzero;stroke:none"
         d="m 534.46,816.6 0.16,0.77 0.17,0.77 0.15,0.77 0.16,0.77 0.14,0.77 0.14,0.78 0.14,0.77 0.13,0.78 0.12,0.77 0.12,0.78 L 429.84,840 Z" /><path
         inkscape:connector-curvature="0"
         id="path30"
         style="fill:#33a02c;fill-opacity:1;fill-rule:nonzero;stroke:none"
         d="m 535.89,824.33 v 0 L 429.84,840 Z" /><path
         inkscape:connector-curvature="0"
         id="path32"
         style="fill:#fb9a99;fill-opacity:1;fill-rule:nonzero;stroke:none"
         d="m 535.89,824.33 v 0 L 429.84,840 Z" /><path
         inkscape:connector-curvature="0"
         id="path34"
         style="fill:#e31a1c;fill-opacity:1;fill-rule:nonzero;stroke:none"
         d="m 535.89,824.33 0.1,0.71 0.1,0.71 0.09,0.71 0.09,0.7 0.08,0.71 0.08,0.72 0.07,0.71 0.07,0.71 0.07,0.71 0.06,0.71 0.05,0.71 0.05,0.72 0.05,0.71 0.04,0.71 0.03,0.72 0.03,0.71 0.03,0.72 0.02,0.71 0.02,0.72 0.01,0.71 0.01,0.72 V 840 h -107.2 z" /><text
         y="-825.79999"
         x="418.72"
         id="text38"
         style="font-style:normal;font-variant:normal;font-weight:600;font-stretch:normal;font-size:48px;font-family:'URW Gothic L';-inkscape-font-specification:'URW Gothic L, Semi-Bold';font-variant-ligatures:normal;font-variant-caps:normal;font-variant-numeric:normal;font-feature-settings:normal;text-align:start;writing-mode:lr-tb;text-anchor:start;fill:#ffffff;fill-opacity:1;fill-rule:nonzero;stroke:#000000;stroke-width:1.52474999;stroke-miterlimit:4;stroke-dasharray:none;stroke-opacity:1"
         transform="scale(1,-1)"><tspan
           style="font-style:normal;font-variant:normal;font-weight:600;font-stretch:normal;font-size:48px;font-family:'URW Gothic L';-inkscape-font-specification:'URW Gothic L, Semi-Bold';font-variant-ligatures:normal;font-variant-caps:normal;font-variant-numeric:normal;font-feature-settings:normal;text-align:start;writing-mode:lr-tb;text-anchor:start;fill:#ffffff;fill-opacity:1;stroke:#000000;stroke-width:1.52474999;stroke-miterlimit:4;stroke-dasharray:none;stroke-opacity:1"
           id="tspan36"
           y="-825.79999"
           x="418.72">1</tspan></text>
</g><g
       id="g5040"
       transform="translate(0,54)"><path
         inkscape:connector-curvature="0"
         id="path48"
         style="fill:#000000;fill-opacity:1;fill-rule:nonzero;stroke:none"
         d="m 826.48,840 v 0.69 l -0.01,0.69 -0.01,0.69 -0.02,0.69 -0.02,0.69 -0.02,0.69 -0.03,0.69 -0.03,0.69 -0.04,0.69 -0.04,0.69 -0.05,0.69 -0.05,0.69 -0.06,0.69 -0.06,0.69 -0.06,0.69 -0.07,0.68 -0.07,0.69 -0.08,0.69 -0.08,0.68 -0.09,0.69 -0.09,0.68 -0.1,0.69 -0.1,0.68 -0.1,0.68 -0.11,0.69 -0.11,0.68 -0.12,0.68 -0.12,0.68 -0.13,0.68 -0.13,0.68 -0.13,0.67 -0.14,0.68 -0.14,0.68 -0.15,0.67 -0.16,0.67 -0.15,0.68 -0.16,0.67 -0.17,0.67 -0.17,0.67 -0.17,0.67 -0.18,0.67 -0.18,0.66 -0.19,0.67 -0.19,0.66 -0.2,0.66 -0.2,0.66 -0.2,0.66 -0.21,0.66 -0.21,0.66 -0.22,0.66 -0.22,0.65 -0.22,0.65 -0.23,0.66 -0.24,0.65 -0.23,0.64 -0.25,0.65 -0.24,0.65 -0.25,0.64 -0.26,0.64 -0.25,0.64 -0.27,0.64 -0.26,0.64 -0.27,0.64 -0.28,0.63 -0.28,0.63 -97.93,-43.6 z" /><path
         inkscape:connector-curvature="0"
         id="path50"
         style="fill:#a6cee3;fill-opacity:1;fill-rule:nonzero;stroke:none"
         d="m 817.21,883.6 -0.3,0.68 -0.32,0.69 -0.31,0.67 -0.32,0.68 -0.33,0.67 -0.33,0.67 -0.33,0.67 -0.34,0.67 -0.35,0.67 -0.35,0.66 -0.35,0.66 -0.36,0.65 L 719.28,840 Z" /><path
         inkscape:connector-curvature="0"
         id="path52"
         style="fill:#1f78b4;fill-opacity:1;fill-rule:nonzero;stroke:none"
         d="m 813.22,891.64 -0.34,0.62 -0.34,0.61 -0.35,0.61 -0.35,0.6 -0.36,0.61 -0.36,0.6 -0.36,0.6 -0.37,0.59 -0.37,0.6 -0.37,0.59 -0.38,0.59 -0.38,0.59 -0.39,0.58 -0.39,0.58 -0.4,0.58 -0.39,0.58 -0.41,0.57 -0.4,0.57 -0.41,0.57 -0.41,0.57 -0.42,0.56 -0.42,0.56 -0.42,0.56 -0.43,0.55 -0.43,0.56 -0.44,0.55 -0.43,0.54 -0.45,0.55 -0.44,0.54 -0.45,0.54 -0.45,0.53 -0.46,0.53 -0.46,0.53 -0.46,0.53 -0.47,0.52 -0.47,0.52 -0.47,0.52 -0.48,0.51 -0.48,0.51 -0.48,0.51 -0.49,0.5 -0.49,0.5 -0.49,0.5 -0.49,0.5 -0.5,0.49 -0.51,0.49 -0.5,0.48 L 719.28,840 Z" /><path
         inkscape:connector-curvature="0"
         id="path54"
         style="fill:#b2df8a;fill-opacity:1;fill-rule:nonzero;stroke:none"
         d="m 793.21,917.63 -0.49,0.47 -0.5,0.46 -0.49,0.46 -0.5,0.45 -0.51,0.45 -0.5,0.45 -0.51,0.45 -0.51,0.44 -0.51,0.44 -0.52,0.43 -0.52,0.44 -0.52,0.43 -0.53,0.42 -0.52,0.42 -0.53,0.42 -0.53,0.42 -0.54,0.41 -0.54,0.41 -0.54,0.41 -0.54,0.4 -0.55,0.4 -0.54,0.39 -0.55,0.4 -0.56,0.39 -0.55,0.38 -0.56,0.38 -0.56,0.38 -0.56,0.38 -0.57,0.37 -0.56,0.36 -0.57,0.37 -0.57,0.36 -0.58,0.35 -0.57,0.36 -0.58,0.35 -0.58,0.34 -0.59,0.35 -0.58,0.33 -0.59,0.34 -0.59,0.33 -0.59,0.33 -0.59,0.32 -0.6,0.32 -0.59,0.32 -0.6,0.31 -0.6,0.31 -0.61,0.3 -0.6,0.3 -0.61,0.3 -0.61,0.29 -0.61,0.29 -0.61,0.29 -0.62,0.28 -0.61,0.28 -0.62,0.27 -0.62,0.27 -0.62,0.27 -0.62,0.26 -0.63,0.26 -0.62,0.25 -0.63,0.25 -0.63,0.25 -0.63,0.24 -0.63,0.24 -0.64,0.23 -0.63,0.24 -0.64,0.22 -0.64,0.22 -0.64,0.22 -0.64,0.22 -0.64,0.21 -0.64,0.2 -0.65,0.21 -0.64,0.19 -0.65,0.2 -0.65,0.19 -0.65,0.18 -0.65,0.19 -0.65,0.17 -0.65,0.18 -0.66,0.17 -0.65,0.16 -0.66,0.16 -0.66,0.16 -0.65,0.15 -0.66,0.15 -0.66,0.15 -0.66,0.14 -0.67,0.13 -0.66,0.14 -0.66,0.12 -0.67,0.13 -0.66,0.12 -0.67,0.11 -0.66,0.11 -0.67,0.11 -0.67,0.1 -0.67,0.1 -0.67,0.1 -0.67,0.09 -0.67,0.08 -0.67,0.08 -0.67,0.08 -0.67,0.07 -0.67,0.07 -0.68,0.07 -0.67,0.06 -0.67,0.06 -0.68,0.05 -0.67,0.05 -0.67,0.04 -0.68,0.04 -0.67,0.03 -0.68,0.03 -0.67,0.03 -0.68,0.02 -0.67,0.02 -0.68,0.01 -0.68,0.01 -0.67,0.01 h -0.68 -0.67 l -0.68,-0.01 -0.67,-0.01 -0.68,-0.02 -0.67,-0.02 -0.68,-0.02 -0.67,-0.03 -0.68,-0.04 -0.67,-0.03 -0.68,-0.04 -0.67,-0.05 -0.68,-0.05 -0.67,-0.06 -0.67,-0.05 -0.68,-0.07 -0.67,-0.06 -0.67,-0.07 -0.67,-0.08 -0.67,-0.08 -0.67,-0.08 -0.67,-0.09 -0.67,-0.1 -0.67,-0.09 -0.67,-0.1 -0.67,-0.11 -0.66,-0.11 -0.67,-0.11 -0.67,-0.12 -0.66,-0.12 -0.66,-0.13 -0.67,-0.13 -0.66,-0.13 -0.66,-0.14 -0.66,-0.14 -0.66,-0.15 -0.66,-0.15 -0.66,-0.16 -0.65,-0.15 -0.66,-0.17 -0.65,-0.17 -0.66,-0.17 -0.65,-0.17 -0.65,-0.18 -0.65,-0.19 -0.65,-0.19 -0.65,-0.19 -0.64,-0.19 -0.65,-0.21 -0.64,-0.2 -0.65,-0.21 -0.64,-0.21 -0.64,-0.22 -0.64,-0.22 -0.63,-0.22 -0.64,-0.23 -0.63,-0.23 -0.64,-0.24 -0.63,-0.24 -0.63,-0.25 -0.63,-0.24 -0.62,-0.26 -0.63,-0.25 -0.62,-0.26 -0.62,-0.27 -0.62,-0.27 -0.62,-0.27 -0.62,-0.28 -0.61,-0.28 -0.62,-0.28 -0.61,-0.29 -0.61,-0.29 -0.61,-0.29 -0.6,-0.3 -0.61,-0.31 -0.6,-0.3 -0.6,-0.31 -0.6,-0.32 -0.59,-0.32 -0.6,-0.32 -0.59,-0.32 -0.59,-0.33 -0.59,-0.34 -0.58,-0.33 -0.59,-0.34 -0.58,-0.35 -0.58,-0.35 -0.57,-0.35 -0.58,-0.35 -0.57,-0.36 -0.57,-0.36 -0.57,-0.37 -0.57,-0.37 -0.56,-0.37 -0.56,-0.38 -0.56,-0.38 -0.56,-0.38 -0.55,-0.39 -0.55,-0.39 -0.55,-0.39 -0.55,-0.4 -0.54,-0.4 -0.54,-0.41 -0.54,-0.4 -0.54,-0.41 -0.53,-0.42 -0.53,-0.42 -0.53,-0.42 -0.52,-0.42 -0.53,-0.43 -0.52,-0.43 -0.52,-0.44 -0.51,-0.43 -0.51,-0.45 -0.51,-0.44 -0.51,-0.45 -0.5,-0.45 -0.5,-0.45 -0.5,-0.46 -0.5,-0.46 -0.49,-0.46 -0.49,-0.47 -0.48,-0.47 -0.49,-0.47 -0.48,-0.47 -0.47,-0.48 -0.48,-0.48 -0.47,-0.49 -0.47,-0.48 -0.46,-0.49 -0.46,-0.5 -0.46,-0.49 -0.46,-0.5 -0.45,-0.5 -0.45,-0.51 -0.45,-0.51 -0.44,-0.51 -0.44,-0.51 -0.44,-0.52 -0.43,-0.51 -0.43,-0.53 -0.43,-0.52 -0.42,-0.53 -0.42,-0.53 -0.42,-0.53 -0.41,-0.53 -0.41,-0.54 -0.41,-0.54 -0.4,-0.54 -0.4,-0.55 -0.4,-0.54 -0.39,-0.55 -0.39,-0.56 -0.38,-0.55 -0.39,-0.56 -0.38,-0.56 -0.37,-0.56 -0.37,-0.56 -0.37,-0.57 -0.37,-0.57 -0.36,-0.57 -0.35,-0.57 -0.36,-0.58 -0.35,-0.58 -0.34,-0.58 -0.35,-0.58 -0.34,-0.58 -0.33,-0.59 -0.33,-0.59 -0.33,-0.59 -0.33,-0.59 -0.32,-0.6 -0.31,-0.59 -0.32,-0.6 -0.31,-0.6 -0.3,-0.61 -0.3,-0.6 -0.3,-0.61 -0.29,-0.61 -0.29,-0.61 -0.29,-0.61 -0.28,-0.61 -0.28,-0.62 -0.28,-0.61 -0.27,-0.62 -0.26,-0.62 -0.27,-0.63 -0.26,-0.62 -0.25,-0.63 -0.25,-0.62 -0.25,-0.63 -0.24,-0.63 -0.24,-0.64 -0.24,-0.63 -0.23,-0.63 -0.23,-0.64 -0.22,-0.64 -0.22,-0.64 -0.21,-0.64 -0.22,-0.64 -0.2,-0.64 -0.21,-0.65 -0.19,-0.64 -0.2,-0.65 -0.19,-0.65 -0.19,-0.65 -0.18,-0.65 -0.18,-0.65 -0.17,-0.65 -0.17,-0.66 -0.17,-0.65 -0.16,-0.66 -0.16,-0.65 -0.15,-0.66 -0.15,-0.66 -0.15,-0.66 -0.14,-0.66 -0.14,-0.66 -0.13,-0.67 -0.13,-0.66 -0.12,-0.66 -0.12,-0.67 -0.12,-0.66 -0.11,-0.67 -0.11,-0.67 -0.1,-0.67 -0.1,-0.66 -0.1,-0.67 -0.09,-0.67 -0.09,-0.67 -0.08,-0.67 -0.08,-0.67 -0.07,-0.68 -0.07,-0.67 -0.07,-0.67 -0.06,-0.67 -0.05,-0.68 -0.06,-0.67 -0.05,-0.67 -0.04,-0.68 -0.04,-0.67 -0.04,-0.68 -0.03,-0.67 -0.03,-0.68 -0.02,-0.67 -0.02,-0.68 -0.01,-0.67 -0.01,-0.68 -0.01,-0.68 v -0.67 -0.68 l 0.01,-0.67 0.01,-0.68 0.02,-0.67 0.01,-0.68 0.03,-0.67 0.03,-0.68 0.03,-0.67 0.04,-0.68 0.04,-0.67 0.04,-0.68 106.94,7.48 z" /><path
         inkscape:connector-curvature="0"
         id="path56"
         style="fill:#33a02c;fill-opacity:1;fill-rule:nonzero;stroke:none"
         d="m 612.34,832.52 0.05,-0.67 0.05,-0.68 0.06,-0.67 0.06,-0.67 0.07,-0.68 0.07,-0.67 0.08,-0.67 0.07,-0.67 0.09,-0.68 0.09,-0.67 0.09,-0.67 0.09,-0.67 0.1,-0.67 0.11,-0.66 0.11,-0.67 0.11,-0.67 0.12,-0.66 0.12,-0.67 0.12,-0.66 0.13,-0.67 0.14,-0.66 0.13,-0.66 0.15,-0.66 0.14,-0.67 0.15,-0.65 0.16,-0.66 0.16,-0.66 0.16,-0.66 0.17,-0.65 0.17,-0.66 0.17,-0.65 0.18,-0.65 0.19,-0.65 0.18,-0.65 0.2,-0.65 0.19,-0.65 0.2,-0.65 0.21,-0.64 0.2,-0.64 0.22,-0.65 0.21,-0.64 0.22,-0.64 0.23,-0.64 0.23,-0.63 0.23,-0.64 0.23,-0.63 0.25,-0.63 0.24,-0.63 0.25,-0.63 0.25,-0.63 0.26,-0.63 0.26,-0.62 0.26,-0.62 0.27,-0.63 0.27,-0.61 0.28,-0.62 0.28,-0.62 0.28,-0.61 0.29,-0.61 0.29,-0.62 0.29,-0.6 0.3,-0.61 0.31,-0.61 0.3,-0.6 0.31,-0.6 0.32,-0.6 0.31,-0.6 0.33,-0.59 0.32,-0.59 0.33,-0.59 0.33,-0.59 0.34,-0.59 0.34,-0.58 0.35,-0.59 0.34,-0.58 0.35,-0.58 0.36,-0.57 0.36,-0.57 0.36,-0.58 0.37,-0.56 0.37,-0.57 0.37,-0.57 0.38,-0.56 0.38,-0.56 0.38,-0.55 0.39,-0.56 0.39,-0.55 0.39,-0.55 0.4,-0.55 0.4,-0.54 0.4,-0.55 0.41,-0.53 0.41,-0.54 0.42,-0.54 0.42,-0.53 0.42,-0.53 0.42,-0.52 0.43,-0.53 0.43,-0.52 0.44,-0.52 0.43,-0.51 0.44,-0.52 0.45,-0.51 0.45,-0.5 0.45,-0.51 0.45,-0.5 0.46,-0.5 0.46,-0.49 0.46,-0.5 0.47,-0.49 0.47,-0.48 0.47,-0.49 0.48,-0.48 0.47,-0.48 0.49,-0.47 0.48,-0.47 0.49,-0.47 0.49,-0.47 0.49,-0.46 0.5,-0.46 0.5,-0.46 0.5,-0.45 0.5,-0.45 0.51,-0.45 0.51,-0.44 0.52,-0.44 0.51,-0.44 0.52,-0.43 0.52,-0.43 0.53,-0.43 0.52,-0.42 0.53,-0.42 0.54,-0.42 0.53,-0.42 0.54,-0.41 0.54,-0.4 0.54,-0.41 0.55,-0.4 0.54,-0.39 0.55,-0.4 0.56,-0.39 0.55,-0.38 0.56,-0.39 0.56,-0.38 0.56,-0.37 0.57,-0.38 0.56,-0.36 0.57,-0.37 0.58,-0.36 0.57,-0.36 0.58,-0.35 0.57,-0.35 0.58,-0.35 0.59,-0.34 0.58,-0.34 0.59,-0.34 0.59,-0.33 0.59,-0.33 0.59,-0.33 0.6,-0.32 0.6,-0.31 0.6,-0.32 0.6,-0.31 0.6,-0.3 0.61,-0.31 0.6,-0.29 0.61,-0.3 0.61,-0.29 0.61,-0.29 0.62,-0.28 0.62,-0.28 0.61,-0.27 0.62,-0.27 0.62,-0.27 0.63,-0.26 0.62,-0.26 0.63,-0.26 0.63,-0.25 0.63,-0.25 0.63,-0.24 0.63,-0.24 0.63,-0.24 0.64,-0.23 0.64,-0.23 0.64,-0.22 0.63,-0.22 0.65,-0.21 0.64,-0.22 0.64,-0.2 0.65,-0.21 0.64,-0.2 0.65,-0.19 0.65,-0.19 0.65,-0.19 0.65,-0.18 0.65,-0.18 0.66,-0.17 0.65,-0.17 0.66,-0.17 0.65,-0.16 0.66,-0.16 0.66,-0.16 0.66,-0.15 0.66,-0.14 0.66,-0.14 0.67,-0.14 0.66,-0.13 0.66,-0.13 0.67,-0.13 0.66,-0.12 0.67,-0.11 0.67,-0.11 0.66,-0.11 0.67,-0.11 0.67,-0.1 0.67,-0.09 0.67,-0.09 0.67,-0.09 0.67,-0.08 0.68,-0.08 0.67,-0.07 0.67,-0.07 0.67,-0.07 0.68,-0.06 0.67,-0.06 0.68,-0.05 0.67,-0.05 0.68,-0.04 0.67,-0.04 0.68,-0.04 0.67,-0.03 0.68,-0.03 0.67,-0.02 0.68,-0.02 0.68,-0.01 0.67,-0.01 0.68,-0.01 h 0.68 0.67 l 0.68,0.01 0.68,0.01 0.67,0.02 0.68,0.02 0.67,0.02 0.68,0.03 0.68,0.03 0.67,0.04 0.68,0.04 0.67,0.04 0.68,0.05 0.67,0.06 0.67,0.06 0.68,0.06 0.67,0.06 0.67,0.08 0.68,0.07 0.67,0.08 0.67,0.08 0.67,0.09 0.67,0.09 0.67,0.1 0.67,0.1 0.67,0.1 0.66,0.11 0.67,0.12 0.67,0.11 0.66,0.13 0.67,0.12 0.66,0.13 0.66,0.14 0.67,0.13 0.66,0.15 0.66,0.14 0.66,0.15 0.66,0.16 0.65,0.16 0.66,0.16 0.65,0.17 0.66,0.17 0.65,0.18 0.65,0.18 0.66,0.18 0.65,0.19 0.64,0.19 0.65,0.2 0.65,0.2 0.64,0.2 0.65,0.21 0.64,0.21 0.64,0.22 0.64,0.22 0.64,0.22 0.63,0.23 0.64,0.23 0.63,0.24 0.63,0.24 0.63,0.25 0.63,0.24 0.63,0.26 0.63,0.25 0.62,0.26 0.62,0.27 0.63,0.27 0.61,0.27 0.62,0.27 0.62,0.28 0.61,0.29 0.61,0.29 0.61,0.29 0.61,0.29 0.61,0.3 0.6,0.3 0.61,0.31 0.6,0.31 0.6,0.32 0.59,0.32 0.6,0.32 0.59,0.32 0.59,0.33 0.59,0.34 0.59,0.33 0.58,0.34 0.58,0.35 0.58,0.35 0.58,0.35 0.58,0.35 0.57,0.36 0.57,0.36 0.57,0.37 0.57,0.37 0.56,0.37 0.56,0.38 0.56,0.38 0.56,0.38 0.55,0.39 0.56,0.39 0.55,0.4 0.54,0.39 0.55,0.41 0.54,0.4 0.54,0.41 0.54,0.41 0.53,0.41 0.53,0.42 0.53,0.42 0.53,0.43 0.52,0.43 0.52,0.43 0.52,0.43 0.52,0.44 0.51,0.44 0.51,0.45 0.51,0.44 0.5,0.46 0.5,0.45 0.5,0.46 0.49,0.46 0.5,0.46 0.49,0.47 0.48,0.47 0.49,0.47 0.48,0.48 0.48,0.47 0.47,0.49 0.47,0.48 0.47,0.49 0.47,0.49 0.46,0.49 0.46,0.5 0.46,0.5 0.45,0.5 0.45,0.51 0.45,0.5 0.44,0.52 0.44,0.51 0.44,0.52 0.43,0.51 0.43,0.53 0.43,0.52 0.42,0.53 0.42,0.53 0.42,0.53 0.41,0.54 0.41,0.53 0.41,0.54 0.4,0.55 0.4,0.54 0.4,0.55 0.39,0.55 0.39,0.55 0.39,0.56 0.38,0.56 0.38,0.56 0.38,0.56 0.37,0.56 0.37,0.57 0.36,0.57 0.36,0.57 0.36,0.58 0.36,0.57 0.35,0.58 0.34,0.58 0.35,0.58 0.34,0.59 0.33,0.59 0.33,0.59 0.33,0.59 0.33,0.59 0.32,0.6 0.31,0.59 0.32,0.6 0.31,0.61 0.3,0.6 0.3,0.6 0.3,0.61 0.3,0.61 -96.68,46.32 z" /><path
         inkscape:connector-curvature="0"
         id="path58"
         style="fill:#fb9a99;fill-opacity:1;fill-rule:nonzero;stroke:none"
         d="m 815.96,793.68 0.3,0.63 0.29,0.63 0.29,0.63 0.29,0.64 0.28,0.63 0.28,0.64 0.27,0.64 0.27,0.64 0.27,0.65 0.26,0.64 0.26,0.65 0.25,0.65 0.25,0.65 0.24,0.65 0.24,0.65 0.24,0.66 0.23,0.65 0.23,0.66 0.22,0.66 0.22,0.66 0.22,0.66 0.21,0.67 0.2,0.66 0.2,0.67 0.2,0.67 0.2,0.67 0.18,0.67 0.19,0.67 0.18,0.67 0.17,0.67 0.18,0.68 0.16,0.67 0.17,0.68 0.15,0.68 0.16,0.68 0.15,0.68 0.14,0.68 0.14,0.68 0.14,0.68 0.13,0.69 0.13,0.68 0.12,0.69 0.12,0.68 -105.7,17.88 z" /><path
         inkscape:connector-curvature="0"
         id="path60"
         style="fill:#e31a1c;fill-opacity:1;fill-rule:nonzero;stroke:none"
         d="m 824.98,822.12 0.12,0.71 0.11,0.71 0.11,0.71 0.1,0.71 0.1,0.71 0.09,0.72 0.09,0.71 0.08,0.71 0.08,0.72 0.08,0.71 0.07,0.72 0.06,0.71 0.06,0.72 0.06,0.71 0.05,0.72 0.05,0.72 0.04,0.72 0.03,0.71 0.03,0.72 0.03,0.72 0.02,0.72 0.02,0.71 0.01,0.72 0.01,0.72 V 840 h -107.2 z" /><text
         id="text64"
         style="font-style:normal;font-variant:normal;font-weight:600;font-stretch:normal;font-size:48px;font-family:'URW Gothic L';-inkscape-font-specification:'URW Gothic L, Semi-Bold';font-variant-ligatures:normal;font-variant-caps:normal;font-variant-numeric:normal;font-feature-settings:normal;text-align:start;writing-mode:lr-tb;text-anchor:start;fill:#ffffff;fill-opacity:1;fill-rule:nonzero;stroke:#000000;stroke-width:1.52474999;stroke-miterlimit:4;stroke-dasharray:none;stroke-opacity:1"
         transform="scale(1,-1)"
         x="708.15997"
         y="-825.79999"><tspan
           style="font-style:normal;font-variant:normal;font-weight:600;font-stretch:normal;font-size:48px;font-family:'URW Gothic L';-inkscape-font-specification:'URW Gothic L, Semi-Bold';font-variant-ligatures:normal;font-variant-caps:normal;font-variant-numeric:normal;font-feature-settings:normal;text-align:start;writing-mode:lr-tb;text-anchor:start;fill:#ffffff;fill-opacity:1;stroke:#000000;stroke-width:1.52474999;stroke-miterlimit:4;stroke-dasharray:none;stroke-opacity:1"
           id="tspan62"
           y="-825.79999"
           x="708.15997">2</tspan></text>
</g><g
       id="g5062"
       transform="translate(61.5,165)"><path
         inkscape:connector-curvature="0"
         id="path74"
         style="fill:#000000;fill-opacity:1;fill-rule:nonzero;stroke:none"
         d="m 537.04,504 v 0.68 l -0.01,0.68 -0.01,0.68 -0.01,0.68 -0.02,0.68 -0.03,0.68 -0.03,0.68 -0.03,0.68 -0.03,0.68 -0.05,0.67 -0.04,0.68 -0.05,0.68 -0.05,0.68 -0.06,0.68 -0.06,0.67 -0.07,0.68 -0.07,0.67 -0.08,0.68 -0.08,0.68 -0.08,0.67 -0.09,0.67 -0.09,0.68 -0.1,0.67 -0.1,0.67 -0.1,0.67 -0.11,0.68 -0.12,0.67 -0.12,0.67 -0.12,0.66 -0.12,0.67 -0.13,0.67 -0.14,0.67 -0.14,0.66 -0.14,0.67 -0.15,0.66 -0.15,0.66 -0.16,0.66 -0.16,0.66 -0.16,0.66 -0.17,0.66 -0.17,0.66 -0.18,0.66 -0.18,0.65 -0.19,0.66 -0.19,0.65 -0.19,0.65 -0.2,0.65 -0.2,0.65 -0.2,0.65 -0.21,0.64 -0.22,0.65 -0.22,0.64 -0.22,0.65 -0.22,0.64 -0.23,0.64 -0.24,0.64 -0.24,0.63 -0.24,0.64 -0.25,0.63 -0.25,0.63 -0.25,0.63 -0.26,0.63 -0.26,0.63 -0.27,0.62 -0.27,0.63 -0.27,0.62 -0.28,0.62 -0.28,0.62 -0.29,0.62 -0.29,0.61 -0.29,0.61 -0.3,0.61 -0.3,0.61 -0.31,0.61 -0.31,0.61 -0.31,0.6 -0.32,0.6 -0.32,0.6 -0.32,0.6 -0.33,0.59 -0.33,0.6 -0.34,0.59 -0.34,0.59 -0.34,0.58 -0.35,0.59 -0.35,0.58 -0.36,0.58 -0.35,0.58 -0.37,0.57 -0.36,0.58 -0.37,0.57 -0.37,0.57 -0.38,0.56 -0.38,0.57 -0.38,0.56 -0.39,0.56 -0.39,0.55 -0.39,0.56 -0.4,0.55 -0.4,0.55 -0.41,0.54 -0.41,0.55 -0.41,0.54 -0.41,0.54 -0.42,0.53 -0.42,0.54 -0.43,0.53 -0.43,0.52 -0.43,0.53 -0.43,0.52 -0.44,0.52 L 429.84,504 Z" /><path
         inkscape:connector-curvature="0"
         id="path76"
         style="fill:#a6cee3;fill-opacity:1;fill-rule:nonzero;stroke:none"
         d="m 511.56,573.38 -0.61,0.71 -0.61,0.7 -0.62,0.7 L 429.84,504 Z" /><path
         inkscape:connector-curvature="0"
         id="path78"
         style="fill:#1f78b4;fill-opacity:1;fill-rule:nonzero;stroke:none"
         d="m 509.72,575.49 -0.51,0.56 -0.51,0.57 -0.52,0.56 -0.52,0.55 -0.53,0.55 -0.53,0.55 -0.53,0.54 -0.54,0.54 -0.54,0.54 -0.55,0.53 -0.55,0.53 L 429.84,504 Z" /><path
         inkscape:connector-curvature="0"
         id="path80"
         style="fill:#b2df8a;fill-opacity:1;fill-rule:nonzero;stroke:none"
         d="m 503.89,581.51 -0.49,0.47 -0.49,0.46 -0.49,0.46 -0.5,0.45 -0.5,0.45 -0.51,0.45 -0.51,0.45 -0.51,0.44 -0.51,0.44 -0.51,0.44 -0.52,0.43 -0.52,0.43 -0.53,0.43 -0.52,0.42 -0.53,0.42 -0.53,0.42 -0.54,0.41 -0.53,0.41 -0.54,0.41 -0.54,0.4 -0.55,0.4 -0.54,0.4 -0.55,0.39 -0.56,0.39 -0.55,0.39 -0.56,0.38 -0.56,0.38 -0.56,0.37 -0.56,0.37 -0.57,0.37 -0.56,0.37 -0.58,0.36 -0.57,0.36 -0.57,0.35 -0.58,0.35 -0.58,0.35 -0.58,0.34 -0.59,0.34 -0.58,0.33 -0.59,0.34 -0.59,0.32 -0.59,0.33 -0.6,0.32 -0.59,0.32 -0.6,0.31 -0.6,0.31 -0.6,0.3 -0.61,0.31 -0.6,0.29 -0.61,0.3 -0.61,0.29 -0.61,0.29 -0.62,0.28 -0.61,0.28 -0.62,0.27 -0.62,0.27 -0.62,0.27 -0.62,0.26 -0.62,0.26 -0.63,0.26 -0.62,0.25 -0.63,0.25 -0.63,0.24 -0.63,0.24 -0.64,0.24 -0.63,0.23 -0.64,0.22 -0.63,0.23 -0.64,0.22 -0.64,0.21 -0.64,0.21 -0.65,0.21 -0.64,0.21 -0.65,0.19 -0.64,0.2 -0.65,0.19 -0.65,0.19 -0.65,0.18 -0.65,0.18 -0.65,0.17 -0.66,0.18 -0.65,0.16 -0.66,0.16 -0.65,0.16 -0.66,0.16 -0.66,0.15 -0.66,0.14 -0.66,0.14 -0.66,0.14 -0.66,0.14 -0.66,0.12 -0.67,0.13 -0.66,0.12 -0.67,0.12 -0.66,0.11 -0.67,0.11 -0.67,0.1 -0.66,0.1 -0.67,0.1 -0.67,0.09 -0.67,0.09 -0.67,0.08 -0.67,0.08 -0.67,0.07 -0.68,0.07 -0.67,0.07 -0.67,0.06 -0.67,0.06 -0.68,0.05 -0.67,0.05 -0.67,0.04 -0.68,0.05 -0.67,0.03 -0.68,0.03 -0.67,0.03 -0.68,0.03 -0.67,0.02 -0.68,0.01 -0.67,0.01 -0.68,0.01 h -0.67 -0.68 l -0.67,-0.01 -0.68,-0.01 -0.67,-0.01 -0.68,-0.02 -0.67,-0.03 -0.68,-0.02 -0.67,-0.03 -0.68,-0.04 -0.67,-0.04 -0.67,-0.04 -0.68,-0.05 -0.67,-0.06 -0.67,-0.05 -0.68,-0.06 -0.67,-0.07 -0.67,-0.07 -0.67,-0.07 -0.67,-0.08 -0.67,-0.08 -0.67,-0.09 -0.67,-0.09 -0.67,-0.1 -0.67,-0.1 -0.67,-0.1 -0.66,-0.11 -0.67,-0.11 -0.66,-0.12 -0.67,-0.12 -0.66,-0.12 -0.66,-0.13 -0.67,-0.13 -0.66,-0.14 -0.66,-0.14 -0.66,-0.15 -0.66,-0.15 -0.65,-0.15 -0.66,-0.16 -0.66,-0.16 -0.65,-0.17 -0.65,-0.17 -0.66,-0.17 -0.65,-0.18 -0.65,-0.18 -0.65,-0.19 -0.64,-0.19 -0.65,-0.19 -0.65,-0.2 -0.64,-0.2 -0.64,-0.21 -0.64,-0.21 -0.64,-0.22 -0.64,-0.22 -0.64,-0.22 -0.64,-0.23 -0.63,-0.23 -0.63,-0.23 -0.64,-0.24 -0.63,-0.25 -0.62,-0.24 -0.63,-0.25 -0.63,-0.26 -0.62,-0.26 -0.62,-0.26 -0.62,-0.27 -0.62,-0.27 -0.62,-0.27 -0.61,-0.28 -0.62,-0.28 -0.61,-0.29 -0.61,-0.29 -0.61,-0.29 -0.6,-0.3 -0.61,-0.3 -0.6,-0.31 -0.6,-0.31 -0.6,-0.31 -0.6,-0.31 -0.59,-0.32 -0.59,-0.33 -0.59,-0.33 -0.59,-0.33 -0.59,-0.33 -0.58,-0.34 -0.58,-0.34 -0.58,-0.35 -0.58,-0.35 -0.58,-0.35 -0.57,-0.36 -0.57,-0.36 -0.57,-0.37 -0.57,-0.36 -0.56,-0.38 -0.56,-0.37 -0.56,-0.38 -0.56,-0.38 -0.55,-0.39 -0.55,-0.38 -0.55,-0.4 -0.55,-0.39 -0.54,-0.4 -0.55,-0.41 -0.54,-0.4 -0.53,-0.41 -0.54,-0.41 -0.53,-0.42 -0.53,-0.42 -0.52,-0.42 -0.53,-0.43 -0.52,-0.43 -0.52,-0.43 -0.51,-0.44 -0.52,-0.44 -0.51,-0.44 -0.5,-0.45 -0.51,-0.44 -0.5,-0.46 -0.5,-0.45 -0.49,-0.46 -0.5,-0.46 -0.49,-0.47 -0.48,-0.46 -0.49,-0.47 -0.48,-0.48 -0.48,-0.48 -0.47,-0.47 -0.48,-0.49 -0.47,-0.48 -0.46,-0.49 -0.46,-0.49 -0.46,-0.5 -0.46,-0.5 -0.45,-0.5 -0.45,-0.5 -0.45,-0.51 -0.45,-0.5 -0.44,-0.52 -0.43,-0.51 -0.44,-0.52 -0.43,-0.52 -0.43,-0.52 -0.42,-0.52 -0.42,-0.53 -0.42,-0.53 -0.42,-0.54 -0.41,-0.53 -0.4,-0.54 -0.41,-0.54 -0.4,-0.54 -0.4,-0.55 -0.39,-0.55 -0.39,-0.55 -0.39,-0.55 -0.38,-0.56 -0.38,-0.56 -0.38,-0.56 -0.37,-0.56 -0.37,-0.56 -0.37,-0.57 -0.36,-0.57 -0.36,-0.57 -0.35,-0.58 -0.36,-0.58 -0.34,-0.57 -0.35,-0.59 -0.34,-0.58 -0.34,-0.58 -0.33,-0.59 -0.33,-0.59 -0.32,-0.59 -0.33,-0.6 -0.31,-0.59 -0.32,-0.6 -0.31,-0.6 -0.31,-0.6 -0.3,-0.6 -0.3,-0.61 -0.29,-0.61 -0.3,-0.6 -0.28,-0.62 -0.29,-0.61 -0.28,-0.61 -0.27,-0.62 -0.28,-0.62 -0.27,-0.62 -0.26,-0.62 -0.26,-0.62 -0.26,-0.63 -0.25,-0.62 -0.25,-0.63 -0.24,-0.63 -0.25,-0.63 -0.23,-0.63 -0.24,-0.64 -0.22,-0.63 -0.23,-0.64 -0.22,-0.64 -0.22,-0.64 -0.21,-0.64 -0.21,-0.64 -0.2,-0.64 -0.2,-0.65 -0.2,-0.64 -0.19,-0.65 -0.19,-0.65 -0.19,-0.65 -0.18,-0.65 -0.17,-0.65 -0.17,-0.65 -0.17,-0.66 -0.17,-0.65 -0.16,-0.66 -0.15,-0.66 -0.15,-0.65 -0.15,-0.66 -0.14,-0.66 -0.14,-0.66 -0.14,-0.67 -0.13,-0.66 -0.13,-0.66 -0.12,-0.67 -0.12,-0.66 -0.11,-0.67 -0.11,-0.66 -0.1,-0.67 -0.11,-0.67 -0.09,-0.67 -0.1,-0.66 -0.08,-0.67 -0.09,-0.67 -0.08,-0.67 -0.08,-0.68 -0.07,-0.67 -0.07,-0.67 -0.06,-0.67 -0.06,-0.67 -0.05,-0.68 -0.05,-0.67 -0.05,-0.67 -0.04,-0.68 -0.04,-0.67 -0.03,-0.68 -0.03,-0.67 -0.03,-0.68 -0.02,-0.67 -0.02,-0.68 -0.01,-0.67 -0.01,-0.68 v -0.67 -0.68 l 0.01,-0.67 v -0.68 l 0.02,-0.67 0.01,-0.68 0.03,-0.67 0.02,-0.68 0.03,-0.67 0.04,-0.68 0.04,-0.67 0.04,-0.67 0.05,-0.68 0.05,-0.67 0.05,-0.67 0.06,-0.68 0.07,-0.67 0.06,-0.67 0.08,-0.67 0.07,-0.67 0.09,-0.67 0.08,-0.67 0.09,-0.67 0.09,-0.67 0.1,-0.67 0.1,-0.67 0.11,-0.66 0.11,-0.67 0.11,-0.67 0.12,-0.66 0.13,-0.66 0.12,-0.67 0.14,-0.66 0.13,-0.66 0.14,-0.66 0.14,-0.66 0.15,-0.66 0.15,-0.66 0.16,-0.66 0.16,-0.65 0.17,-0.66 0.16,-0.65 0.18,-0.65 0.17,-0.66 0.19,-0.65 0.18,-0.65 0.19,-0.64 0.19,-0.65 0.2,-0.65 0.2,-0.64 0.21,-0.64 0.21,-0.65 0.21,-0.64 0.22,-0.64 0.22,-0.63 0.23,-0.64 0.23,-0.64 0.23,-0.63 0.24,-0.63 0.24,-0.63 0.24,-0.63 0.25,-0.63 0.26,-0.62 0.25,-0.63 0.27,-0.62 0.26,-0.62 0.27,-0.62 0.27,-0.62 0.28,-0.62 0.28,-0.61 0.29,-0.61 0.28,-0.61 0.3,-0.61 0.29,-0.61 0.3,-0.6 0.31,-0.61 0.3,-0.6 0.32,-0.6 0.31,-0.59 0.32,-0.6 0.32,-0.59 0.33,-0.59 0.33,-0.59 0.33,-0.59 0.34,-0.58 0.34,-0.59 0.35,-0.58 0.35,-0.58 0.35,-0.57 0.35,-0.58 0.36,-0.57 0.37,-0.57 0.36,-0.56 0.37,-0.57 0.38,-0.56 0.37,-0.56 0.38,-0.56 0.39,-0.55 0.39,-0.56 0.39,-0.55 0.39,-0.55 0.4,-0.54 0.4,-0.54 0.41,-0.54 0.4,-0.54 0.42,-0.54 0.41,-0.53 0.42,-0.53 0.42,-0.53 0.43,-0.52 0.43,-0.52 0.43,-0.52 0.43,-0.52 0.44,-0.51 0.44,-0.52 0.45,-0.5 0.44,-0.51 0.46,-0.5 0.45,-0.5 0.46,-0.5 0.46,-0.49 0.46,-0.49 0.47,-0.49 0.47,-0.49 0.47,-0.48 0.48,-0.48 0.47,-0.47 0.49,-0.48 0.48,-0.47 0.49,-0.47 0.49,-0.46 0.49,-0.46 0.5,-0.46 0.5,-0.45 0.5,-0.45 0.5,-0.45 0.51,-0.45 0.51,-0.44 0.52,-0.44 0.51,-0.43 0.52,-0.44 0.52,-0.43 0.53,-0.42 0.52,-0.42 0.53,-0.42 0.54,-0.42 0.53,-0.41 0.54,-0.41 0.54,-0.41 0.54,-0.4 0.55,-0.4 0.54,-0.39 0.55,-0.39 0.56,-0.39 0.55,-0.39 0.56,-0.38 0.56,-0.38 0.56,-0.37 0.56,-0.37 0.57,-0.37 0.57,-0.36 0.57,-0.36 0.57,-0.36 0.58,-0.35 0.58,-0.35 0.58,-0.35 0.58,-0.34 0.59,-0.34 0.58,-0.33 0.59,-0.33 0.59,-0.33 0.59,-0.32 0.6,-0.32 0.6,-0.32 0.59,-0.31 0.61,-0.31 0.6,-0.3 0.6,-0.3 0.61,-0.3 0.61,-0.29 0.61,-0.29 0.61,-0.29 0.61,-0.28 0.62,-0.28 0.62,-0.27 0.62,-0.27 0.62,-0.27 0.62,-0.26 0.62,-0.26 0.63,-0.25 0.63,-0.25 0.62,-0.25 0.63,-0.24 0.64,-0.24 0.63,-0.23 0.63,-0.23 0.64,-0.23 0.64,-0.22 34.98,101.33 z" /><path
         inkscape:connector-curvature="0"
         id="path82"
         style="fill:#33a02c;fill-opacity:1;fill-rule:nonzero;stroke:none"
         d="m 394.86,402.67 0.79,-0.27 0.8,-0.27 0.8,-0.25 0.8,-0.26 0.8,-0.24 30.99,102.62 z" /><path
         inkscape:connector-curvature="0"
         id="path84"
         style="fill:#fb9a99;fill-opacity:1;fill-rule:nonzero;stroke:none"
         d="m 398.85,401.38 0.65,-0.2 0.65,-0.19 0.65,-0.18 0.66,-0.18 0.65,-0.18 0.66,-0.18 0.65,-0.16 0.66,-0.17 0.66,-0.16 0.66,-0.16 0.66,-0.15 0.67,-0.15 0.66,-0.14 0.66,-0.14 0.67,-0.14 0.66,-0.13 0.67,-0.13 0.67,-0.12 0.67,-0.12 0.67,-0.11 0.67,-0.11 0.67,-0.11 0.67,-0.1 0.67,-0.1 0.67,-0.09 0.67,-0.09 0.68,-0.09 0.67,-0.08 0.68,-0.08 0.67,-0.07 0.68,-0.07 0.67,-0.06 0.68,-0.06 0.67,-0.05 0.68,-0.05 0.68,-0.05 0.68,-0.04 0.67,-0.04 0.68,-0.03 0.68,-0.03 0.68,-0.03 0.68,-0.02 0.67,-0.02 0.68,-0.01 0.68,-0.01 h 0.68 0.68 l 0.68,0.01 0.68,0.01 0.68,0.01 0.67,0.02 0.68,0.02 0.68,0.03 0.68,0.03 0.68,0.03 0.67,0.04 0.68,0.04 0.68,0.05 0.67,0.06 0.68,0.05 0.68,0.06 0.67,0.07 0.68,0.07 0.67,0.07 0.68,0.08 0.67,0.08 0.67,0.09 0.68,0.09 0.67,0.09 0.67,0.1 0.67,0.11 0.67,0.1 0.67,0.12 0.67,0.11 0.67,0.12 0.66,0.13 0.67,0.13 0.67,0.13 0.66,0.14 0.67,0.14 0.66,0.14 0.66,0.15 0.66,0.16 0.66,0.16 0.66,0.16 0.66,0.16 0.65,0.18 0.66,0.17 0.66,0.18 0.65,0.18 0.65,0.19 0.65,0.19 0.65,0.2 0.65,0.2 0.65,0.2 0.64,0.21 0.65,0.21 0.64,0.22 0.64,0.22 0.65,0.22 0.63,0.23 0.64,0.23 0.64,0.24 0.63,0.24 0.64,0.24 0.63,0.25 0.63,0.25 0.63,0.26 0.62,0.26 0.63,0.27 0.62,0.26 0.62,0.28 0.62,0.27 0.62,0.28 0.62,0.29 0.61,0.28 0.62,0.3 0.61,0.29 0.61,0.3 0.6,0.3 0.61,0.31 0.6,0.31 0.6,0.32 0.6,0.32 0.6,0.32 0.6,0.32 0.59,0.33 0.59,0.34 0.59,0.34 0.59,0.34 0.58,0.34 0.58,0.35 0.58,0.35 0.58,0.36 0.58,0.36 0.57,0.36 0.57,0.37 0.57,0.37 0.57,0.37 0.56,0.38 0.56,0.38 0.56,0.39 0.56,0.38 0.55,0.4 0.55,0.39 0.55,0.4 0.55,0.4 0.54,0.41 0.55,0.41 0.53,0.41 0.54,0.42 0.53,0.41 0.54,0.43 0.52,0.42 0.53,0.43 0.52,0.44 0.52,0.43 0.52,0.44 0.51,0.44 0.52,0.45 0.51,0.45 0.5,0.45 0.5,0.46 0.5,0.45 0.5,0.47 0.5,0.46 0.49,0.47 0.49,0.47 0.48,0.47 0.49,0.48 0.47,0.48 0.48,0.49 0.47,0.48 0.47,0.49 0.47,0.49 0.47,0.5 0.46,0.5 0.46,0.5 0.45,0.5 0.45,0.51 0.45,0.51 0.44,0.51 0.45,0.52 0.43,0.52 0.44,0.52 0.43,0.52 0.43,0.53 0.42,0.53 0.43,0.53 0.42,0.53 0.41,0.54 0.41,0.54 0.41,0.54 0.4,0.55 0.41,0.54 0.39,0.55 0.4,0.55 0.39,0.56 0.39,0.56 0.38,0.56 0.38,0.56 0.38,0.56 0.37,0.57 0.37,0.57 0.37,0.57 0.36,0.58 0.36,0.57 0.35,0.58 0.35,0.58 0.35,0.58 0.34,0.59 0.34,0.59 0.34,0.59 0.33,0.59 0.33,0.59 0.33,0.6 0.32,0.6 0.32,0.6 0.31,0.6 0.31,0.6 0.31,0.61 0.3,0.6 0.3,0.61 0.29,0.62 0.29,0.61 0.29,0.61 0.28,0.62 0.28,0.62 0.28,0.62 0.27,0.62 0.27,0.63 0.26,0.62 0.26,0.63 0.25,0.63 0.25,0.63 0.25,0.63 0.25,0.63 0.23,0.64 0.24,0.64 0.23,0.63 0.23,0.64 0.22,0.64 0.22,0.65 0.22,0.64 0.21,0.65 -102,32.99 z" /><path
         inkscape:connector-curvature="0"
         id="path86"
         style="fill:#e31a1c;fill-opacity:1;fill-rule:nonzero;stroke:none"
         d="m 531.84,471.01 0.21,0.66 0.21,0.67 0.2,0.67 0.2,0.67 0.2,0.67 0.19,0.67 0.19,0.67 0.18,0.68 0.18,0.67 0.17,0.68 0.17,0.68 0.16,0.68 0.16,0.68 0.16,0.68 0.15,0.68 0.15,0.68 0.14,0.69 0.14,0.68 0.13,0.69 0.13,0.68 0.12,0.69 0.12,0.69 0.12,0.69 0.11,0.69 0.11,0.69 0.1,0.69 0.1,0.69 0.09,0.7 0.09,0.69 0.08,0.69 0.08,0.7 0.08,0.69 0.07,0.7 0.06,0.69 0.07,0.7 0.05,0.69 0.05,0.7 0.05,0.7 0.05,0.7 0.03,0.69 0.04,0.7 0.03,0.7 0.02,0.7 0.02,0.7 0.02,0.69 0.01,0.7 0.01,0.7 v 0.7 h -107.2 z" /><text
         y="-490.17999"
         x="418.72"
         id="text90"
         style="font-style:normal;font-variant:normal;font-weight:600;font-stretch:normal;font-size:48px;font-family:'URW Gothic L';-inkscape-font-specification:'URW Gothic L, Semi-Bold';font-variant-ligatures:normal;font-variant-caps:normal;font-variant-numeric:normal;font-feature-settings:normal;text-align:start;writing-mode:lr-tb;text-anchor:start;fill:#ffffff;fill-opacity:1;fill-rule:nonzero;stroke:#000000;stroke-width:1.52474999;stroke-miterlimit:4;stroke-dasharray:none;stroke-opacity:1"
         transform="scale(1,-1)"><tspan
           style="font-style:normal;font-variant:normal;font-weight:600;font-stretch:normal;font-size:48px;font-family:'URW Gothic L';-inkscape-font-specification:'URW Gothic L, Semi-Bold';font-variant-ligatures:normal;font-variant-caps:normal;font-variant-numeric:normal;font-feature-settings:normal;text-align:start;writing-mode:lr-tb;text-anchor:start;fill:#ffffff;fill-opacity:1;stroke:#000000;stroke-width:1.52474999;stroke-miterlimit:4;stroke-dasharray:none;stroke-opacity:1"
           id="tspan88"
           y="-490.17999"
           x="418.72">3</tspan></text>
</g><g
       id="g5051"
       transform="translate(0,165)"><path
         inkscape:connector-curvature="0"
         id="path100"
         style="fill:#000000;fill-opacity:1;fill-rule:nonzero;stroke:none"
         d="m 826.48,504 v 0.68 l -0.01,0.69 -0.01,0.68 -0.01,0.68 -0.02,0.69 -0.03,0.68 -0.03,0.68 -0.03,0.68 -0.04,0.69 -0.04,0.68 -0.04,0.68 -0.05,0.68 -0.06,0.68 -0.06,0.68 -0.06,0.69 -0.07,0.68 -0.07,0.67 -0.07,0.68 -0.09,0.68 -0.08,0.68 -0.09,0.68 -0.09,0.68 -0.1,0.67 -0.1,0.68 -0.11,0.67 -0.11,0.68 -0.11,0.67 -0.12,0.67 -0.13,0.68 -0.12,0.67 -0.14,0.67 -0.13,0.67 -0.14,0.67 -0.15,0.66 -0.15,0.67 -0.15,0.67 -0.16,0.66 -0.16,0.67 -0.17,0.66 -0.17,0.66 -0.17,0.66 -0.18,0.66 -0.18,0.66 -0.19,0.66 -0.19,0.65 -0.2,0.66 -0.2,0.65 -0.2,0.65 -0.21,0.65 -0.21,0.65 -0.22,0.65 -0.22,0.65 -0.22,0.64 -0.23,0.65 -0.23,0.64 -0.24,0.64 -0.24,0.64 -0.24,0.64 -0.25,0.64 -0.26,0.63 -0.25,0.63 -0.26,0.64 -0.27,0.62 -0.27,0.63 -0.27,0.63 -0.28,0.62 -0.28,0.63 -0.29,0.62 -0.28,0.62 -0.3,0.61 -0.29,0.62 -0.31,0.61 -0.3,0.62 -0.31,0.61 -0.31,0.6 -0.32,0.61 -0.32,0.6 -0.32,0.6 -0.33,0.6 -0.33,0.6 -0.34,0.6 -0.34,0.59 -0.34,0.59 -0.35,0.59 -0.35,0.59 -0.35,0.58 -0.36,0.58 -0.36,0.58 -0.37,0.58 -0.36,0.58 -0.38,0.57 -0.37,0.57 -0.38,0.57 -0.39,0.56 -0.38,0.56 L 719.28,504 Z" /><path
         inkscape:connector-curvature="0"
         id="path102"
         style="fill:#a6cee3;fill-opacity:1;fill-rule:nonzero;stroke:none"
         d="m 807.42,565.02 v 0 L 719.28,504 Z" /><path
         inkscape:connector-curvature="0"
         id="path104"
         style="fill:#1f78b4;fill-opacity:1;fill-rule:nonzero;stroke:none"
         d="m 807.42,565.02 -0.43,0.61 -0.42,0.6 -0.43,0.6 -0.44,0.6 -0.44,0.59 -0.44,0.59 -0.45,0.59 -0.45,0.58 -0.45,0.58 -0.46,0.58 -0.46,0.58 L 719.28,504 Z" /><path
         inkscape:connector-curvature="0"
         id="path106"
         style="fill:#b2df8a;fill-opacity:1;fill-rule:nonzero;stroke:none"
         d="m 802.55,571.52 -0.43,0.52 -0.43,0.52 -0.43,0.52 -0.44,0.51 -0.44,0.51 -0.44,0.51 -0.45,0.51 -0.45,0.5 -0.45,0.5 -0.45,0.5 -0.46,0.49 -0.46,0.5 -0.47,0.48 -0.47,0.49 -0.47,0.48 -0.47,0.48 -0.48,0.48 -0.48,0.48 -0.48,0.47 -0.49,0.46 -0.49,0.47 -0.49,0.46 -0.49,0.46 -0.5,0.46 -0.5,0.45 -0.5,0.45 -0.51,0.44 -0.51,0.45 -0.51,0.44 -0.51,0.43 -0.52,0.44 -0.52,0.43 -0.52,0.42 -0.53,0.43 -0.53,0.42 -0.53,0.41 -0.53,0.42 -0.54,0.41 -0.53,0.41 -0.54,0.4 -0.55,0.4 -0.54,0.4 -0.55,0.39 -0.55,0.39 -0.56,0.38 -0.55,0.39 -0.56,0.38 -0.56,0.37 -0.56,0.37 -0.57,0.37 -0.56,0.37 -0.57,0.36 -0.58,0.36 -0.57,0.35 -0.58,0.35 -0.58,0.35 -0.58,0.34 -0.58,0.34 -0.58,0.34 -0.59,0.33 -0.59,0.33 -0.59,0.32 -0.6,0.32 -0.59,0.32 -0.6,0.32 -0.6,0.31 -0.6,0.3 -0.6,0.3 -0.61,0.3 -0.6,0.3 -0.61,0.29 -0.61,0.28 -0.61,0.29 -0.62,0.28 -0.61,0.27 -0.62,0.27 -0.62,0.27 -0.62,0.27 -0.63,0.26 -0.62,0.25 -0.63,0.25 -0.62,0.25 -0.63,0.25 -0.63,0.24 -0.63,0.23 -0.64,0.23 -0.63,0.23 -0.64,0.23 -0.64,0.22 -0.64,0.21 -0.64,0.22 -0.64,0.2 -0.64,0.21 -0.64,0.2 -0.65,0.19 -0.65,0.2 -0.65,0.18 -0.64,0.19 -0.65,0.18 -0.66,0.17 -0.65,0.17 -0.65,0.17 -0.66,0.17 -0.65,0.15 -0.66,0.16 -0.66,0.15 -0.66,0.15 -0.65,0.14 -0.66,0.14 -0.67,0.13 -0.66,0.13 -0.66,0.13 -0.66,0.12 -0.67,0.12 -0.66,0.11 -0.67,0.11 -0.67,0.11 -0.66,0.1 -0.67,0.09 -0.67,0.1 -0.67,0.08 -0.67,0.09 -0.67,0.08 -0.67,0.07 -0.67,0.07 -0.67,0.07 -0.67,0.06 -0.67,0.06 -0.68,0.06 -0.67,0.05 -0.67,0.04 -0.68,0.05 -0.67,0.03 -0.67,0.04 -0.68,0.02 -0.67,0.03 -0.68,0.02 -0.67,0.02 -0.67,0.01 -0.68,0.01 h -0.67 -0.68 l -0.67,-0.01 -0.68,-0.01 -0.67,-0.01 -0.68,-0.02 -0.67,-0.02 -0.67,-0.02 -0.68,-0.03 -0.67,-0.04 -0.68,-0.04 -0.67,-0.04 -0.67,-0.05 -0.67,-0.05 -0.68,-0.06 -0.67,-0.06 -0.67,-0.06 -0.67,-0.07 -0.67,-0.07 -0.67,-0.08 -0.67,-0.08 -0.67,-0.09 -0.67,-0.08 -0.67,-0.1 -0.67,-0.1 -0.66,-0.1 -0.67,-0.11 -0.66,-0.11 -0.67,-0.11 -0.66,-0.12 -0.67,-0.12 -0.66,-0.13 -0.66,-0.13 -0.66,-0.14 -0.66,-0.14 -0.66,-0.14 -0.66,-0.15 -0.66,-0.15 -0.65,-0.16 -0.66,-0.16 -0.65,-0.16 -0.66,-0.17 -0.65,-0.17 -0.65,-0.18 -0.65,-0.18 -0.65,-0.19 -0.65,-0.19 -0.64,-0.19 -0.65,-0.2 -0.64,-0.2 -0.64,-0.2 -0.64,-0.21 -0.64,-0.22 -0.64,-0.21 -0.64,-0.23 -0.64,-0.22 -0.63,-0.23 -0.63,-0.23 -0.64,-0.24 -0.63,-0.24 -0.62,-0.25 -0.63,-0.25 -0.63,-0.25 -0.62,-0.26 -0.62,-0.26 -0.62,-0.27 -0.62,-0.26 -0.62,-0.28 -0.61,-0.27 -0.62,-0.28 -0.61,-0.29 -0.61,-0.29 -0.61,-0.29 -0.6,-0.3 -0.61,-0.3 -0.6,-0.3 -0.6,-0.31 -0.6,-0.31 -0.6,-0.31 -0.59,-0.32 -0.59,-0.32 -0.59,-0.33 -0.59,-0.33 -0.59,-0.33 -0.58,-0.34 -0.58,-0.34 -0.58,-0.35 -0.58,-0.34 -0.58,-0.36 -0.57,-0.35 -0.57,-0.36 -0.57,-0.36 -0.57,-0.37 -0.56,-0.37 -0.56,-0.37 -0.56,-0.38 -0.56,-0.38 -0.56,-0.38 -0.55,-0.39 -0.55,-0.39 -0.55,-0.39 -0.54,-0.4 -0.54,-0.4 -0.54,-0.41 -0.54,-0.41 -0.54,-0.41 -0.53,-0.41 -0.53,-0.42 -0.52,-0.42 -0.53,-0.43 -0.52,-0.42 -0.52,-0.43 -0.52,-0.44 -0.51,-0.44 -0.51,-0.44 -0.51,-0.44 -0.5,-0.45 -0.5,-0.45 -0.5,-0.45 -0.5,-0.46 -0.49,-0.46 -0.5,-0.46 -0.48,-0.47 -0.49,-0.47 -0.48,-0.47 -0.48,-0.48 -0.47,-0.47 -0.48,-0.48 -0.47,-0.49 -0.46,-0.49 -0.47,-0.49 -0.46,-0.49 -0.46,-0.49 -0.45,-0.5 -0.45,-0.5 -0.45,-0.51 -0.45,-0.51 -0.44,-0.51 -0.44,-0.51 -0.43,-0.51 -0.43,-0.52 -0.43,-0.52 -0.43,-0.53 -0.42,-0.52 -0.42,-0.53 -0.41,-0.53 -0.42,-0.54 -0.4,-0.53 -0.41,-0.54 -0.4,-0.55 -0.4,-0.54 -0.4,-0.55 -0.39,-0.55 -0.39,-0.55 -0.38,-0.55 -0.38,-0.56 -0.38,-0.56 -0.37,-0.56 -0.37,-0.56 -0.37,-0.57 -0.36,-0.57 -0.36,-0.57 -0.36,-0.57 -0.35,-0.58 -0.35,-0.57 -0.35,-0.58 -0.34,-0.58 -0.34,-0.59 -0.33,-0.58 -0.33,-0.59 -0.33,-0.59 -0.32,-0.59 -0.32,-0.6 -0.32,-0.59 -0.31,-0.6 -0.31,-0.6 -0.3,-0.6 -0.31,-0.61 -0.29,-0.6 -0.3,-0.61 -0.29,-0.61 -0.28,-0.61 -0.28,-0.61 -0.28,-0.62 -0.27,-0.62 -0.27,-0.61 -0.27,-0.62 -0.26,-0.63 -0.26,-0.62 -0.26,-0.62 -0.25,-0.63 -0.24,-0.63 -0.24,-0.63 -0.24,-0.63 -0.24,-0.63 -0.23,-0.64 -0.22,-0.63 -0.23,-0.64 -0.22,-0.64 -0.21,-0.64 -0.21,-0.64 -0.21,-0.64 -0.2,-0.64 -0.2,-0.65 -0.19,-0.64 -0.19,-0.65 -0.19,-0.65 -0.18,-0.65 -0.18,-0.65 -0.17,-0.65 -0.17,-0.65 -0.17,-0.66 -0.16,-0.65 -0.16,-0.66 -0.15,-0.66 -0.15,-0.65 -0.15,-0.66 -0.14,-0.66 -0.13,-0.66 -0.14,-0.67 -0.12,-0.66 -0.13,-0.66 -0.12,-0.66 -0.11,-0.67 -0.12,-0.66 -0.1,-0.67 -0.11,-0.67 -0.1,-0.66 -0.09,-0.67 -0.09,-0.67 -0.09,-0.67 -0.08,-0.67 -0.08,-0.67 -0.07,-0.67 -0.07,-0.67 -0.07,-0.67 -0.06,-0.68 -0.06,-0.67 -0.05,-0.67 -0.05,-0.67 -0.04,-0.68 -0.04,-0.67 -0.04,-0.67 -0.03,-0.68 -0.03,-0.67 -0.02,-0.68 -0.02,-0.67 -0.01,-0.67 -0.01,-0.68 -0.01,-0.67 v -0.68 -0.67 l 0.01,-0.68 0.01,-0.67 0.02,-0.68 0.01,-0.67 0.03,-0.68 0.03,-0.67 0.03,-0.67 0.03,-0.68 0.05,-0.67 0.04,-0.67 0.05,-0.68 0.05,-0.67 0.06,-0.67 0.06,-0.67 0.07,-0.67 0.07,-0.68 0.07,-0.67 0.08,-0.67 0.08,-0.67 0.09,-0.66 0.09,-0.67 0.1,-0.67 0.1,-0.67 0.1,-0.66 0.11,-0.67 0.11,-0.67 0.12,-0.66 0.12,-0.66 0.12,-0.67 0.13,-0.66 0.14,-0.66 0.13,-0.66 0.15,-0.66 0.14,-0.66 0.15,-0.66 0.15,-0.65 0.16,-0.66 0.16,-0.65 0.17,-0.66 0.17,-0.65 0.18,-0.65 0.17,-0.65 0.19,-0.65 0.18,-0.65 0.19,-0.65 0.2,-0.64 0.2,-0.65 0.2,-0.64 0.21,-0.64 0.21,-0.65 0.21,-0.63 0.22,-0.64 0.23,-0.64 0.22,-0.63 0.24,-0.64 0.23,-0.63 0.24,-0.63 0.24,-0.63 0.25,-0.63 0.25,-0.63 0.26,-0.62 0.25,-0.62 0.27,-0.62 0.26,-0.62 0.27,-0.62 0.28,-0.62 0.28,-0.61 0.28,-0.62 0.29,-0.61 0.29,-0.61 0.29,-0.6 0.3,-0.61 0.3,-0.6 0.3,-0.6 0.31,-0.6 0.32,-0.6 0.31,-0.6 0.32,-0.59 0.33,-0.59 0.32,-0.59 0.33,-0.59 0.34,-0.59 0.34,-0.58 0.34,-0.58 0.35,-0.58 0.35,-0.58 0.35,-0.57 0.36,-0.57 0.36,-0.57 0.36,-0.57 0.37,-0.57 0.37,-0.56 0.37,-0.56 0.38,-0.56 0.38,-0.56 0.39,-0.55 0.39,-0.55 0.39,-0.55 0.4,-0.55 0.4,-0.54 0.4,-0.54 0.4,-0.54 0.41,-0.54 0.42,-0.53 0.41,-0.53 0.42,-0.53 0.42,-0.53 0.43,-0.52 0.43,-0.52 0.43,-0.52 0.44,-0.51 0.44,-0.52 0.44,-0.51 0.44,-0.5 0.45,-0.51 0.45,-0.5 0.46,-0.5 0.46,-0.49 0.46,-0.49 0.46,-0.49 0.47,-0.49 0.47,-0.48 0.47,-0.49 0.48,-0.47 0.48,-0.48 0.48,-0.47 0.49,-0.47 0.48,-0.46 0.5,-0.47 0.49,-0.46 0.5,-0.45 0.5,-0.45 0.5,-0.45 0.5,-0.45 0.51,-0.45 0.51,-0.44 0.52,-0.43 0.51,-0.44 0.52,-0.43 0.53,-0.43 0.52,-0.42 0.53,-0.42 0.53,-0.42 0.53,-0.41 0.54,-0.41 0.53,-0.41 0.54,-0.4 0.55,-0.4 0.54,-0.4 0.55,-0.4 0.55,-0.39 0.55,-0.38 0.56,-0.39 0.56,-0.38 0.56,-0.37 0.56,-0.37 0.56,-0.37 0.57,-0.37 0.57,-0.36 0.57,-0.36 0.57,-0.36 0.58,-0.35 0.58,-0.34 0.58,-0.35 0.58,-0.34 0.59,-0.34 0.58,-0.33 0.59,-0.33 0.59,-0.32 0.59,-0.32 0.6,-0.32 0.6,-0.32 0.6,-0.31 0.6,-0.3 0.6,-0.31 0.6,-0.3 0.61,-0.29 0.61,-0.29 0.61,-0.29 0.61,-0.29 0.61,-0.28 0.62,-0.27 0.62,-0.27 0.62,-0.27 0.62,-0.27 0.62,-0.26 0.62,-0.25 0.63,-0.26 0.63,-0.25 0.62,-0.24 0.63,-0.24 0.64,-0.24 0.63,-0.23 0.63,-0.23 0.64,-0.23 0.64,-0.22 0.64,-0.21 0.64,-0.22 0.64,-0.21 0.64,-0.2 0.65,-0.2 0.64,-0.2 0.65,-0.19 0.64,-0.19 0.65,-0.18 0.65,-0.18 0.66,-0.18 0.65,-0.17 0.65,-0.17 0.66,-0.17 0.65,-0.16 0.66,-0.15 0.65,-0.15 0.66,-0.15 0.66,-0.14 0.66,-0.14 0.66,-0.14 0.66,-0.13 0.67,-0.13 0.66,-0.12 0.67,-0.12 0.66,-0.11 0.67,-0.11 0.66,-0.11 0.67,-0.1 0.67,-0.1 0.66,-0.09 0.67,-0.09 0.67,-0.08 0.67,-0.08 0.67,-0.08 0.67,-0.07 0.68,-0.07 0.67,-0.06 0.67,-0.06 0.67,-0.06 0.67,-0.05 0.68,-0.05 0.67,-0.04 0.67,-0.04 0.68,-0.03 0.67,-0.03 0.68,-0.03 0.67,-0.02 0.67,-0.01 0.68,-0.02 0.67,-0.01 h 0.68 0.67 0.68 l 0.67,0.01 0.68,0.02 0.67,0.01 0.68,0.02 0.67,0.03 0.67,0.03 0.68,0.03 0.67,0.04 0.67,0.04 0.68,0.05 0.67,0.05 0.67,0.06 0.67,0.05 0.68,0.07 0.67,0.07 0.67,0.07 0.67,0.07 0.67,0.08 0.67,0.09 0.67,0.09 0.66,0.09 0.67,0.1 0.67,0.1 0.67,0.11 0.66,0.1 0.67,0.12 0.66,0.12 0.66,0.12 0.67,0.13 0.66,0.13 0.66,0.13 0.66,0.14 0.66,0.14 0.66,0.15 0.65,0.15 0.66,0.16 0.66,0.16 0.65,0.16 0.65,0.17 0.66,0.17 0.65,0.18 0.65,0.18 0.65,0.18 0.65,0.19 0.64,0.19 0.65,0.2 0.64,0.2 0.64,0.21 0.65,0.2 0.64,0.22 0.63,0.21 0.64,0.22 0.64,0.23 0.63,0.23 0.64,0.23 0.63,0.24 0.63,0.24 0.63,0.24 0.62,0.25 0.63,0.25 0.62,0.26 0.63,0.26 0.62,0.27 0.62,0.26 0.61,0.28 0.62,0.27 0.61,0.28 0.61,0.29 0.61,0.28 0.61,0.29 0.61,0.3 0.6,0.3 0.61,0.3 0.6,0.31 0.6,0.31 0.59,0.31 0.6,0.32 0.59,0.32 0.59,0.33 0.59,0.33 0.59,0.33 0.58,0.34 0.59,0.34 0.58,0.34 0.58,0.35 0.57,0.35 0.58,0.35 0.57,0.36 0.57,0.36 0.56,0.37 0.57,0.37 0.56,0.37 0.56,0.38 0.56,0.38 0.55,0.38 0.56,0.39 0.55,0.39 0.54,0.39 0.55,0.4 0.54,0.4 0.54,0.4 0.54,0.41 0.54,0.41 0.53,0.41 0.53,0.42 0.53,0.42 0.52,0.43 0.52,0.42 0.52,0.43 0.52,0.44 0.51,0.44 0.51,0.44 0.51,0.44 0.51,0.45 0.5,0.45 0.5,0.45 0.5,0.45 0.49,0.46 0.49,0.47 0.49,0.46 0.49,0.47 0.48,0.47 0.48,0.48 0.48,0.47 0.47,0.48 0.47,0.49 0.47,0.48 0.46,0.49 0.46,0.5 0.46,0.49 0.46,0.5 0.45,0.5 0.45,0.5 0.44,0.51 0.45,0.51 0.43,0.51 0.44,0.52 0.43,0.52 0.43,0.52 0.43,0.52 0.42,0.52 0.42,0.53 0.42,0.53 0.41,0.54 0.41,0.53 0.4,0.54 0.41,0.54 0.4,0.55 0.39,0.54 0.39,0.55 0.39,0.55 0.39,0.56 0.38,0.55 0.38,0.56 0.37,0.56 0.38,0.57 0.36,0.56 0.37,0.57 0.36,0.57 0.36,0.57 0.35,0.58 0.35,0.58 0.34,0.57 0.35,0.59 0.34,0.58 0.33,0.58 0.33,0.59 0.33,0.59 0.32,0.59 0.32,0.6 0.32,0.59 0.31,0.6 0.31,0.6 0.31,0.6 0.3,0.61 0.3,0.6 0.29,0.61 0.29,0.61 0.29,0.61 0.28,0.61 0.28,0.62 0.27,0.61 0.27,0.62 0.27,0.62 0.26,0.62 0.26,0.62 0.26,0.63 0.25,0.62 0.25,0.63 0.24,0.63 0.24,0.63 0.23,0.63 0.24,0.64 0.22,0.63 0.23,0.64 0.22,0.64 0.21,0.64 0.21,0.64 0.21,0.64 0.2,0.64 L 719.28,504 Z" /><path
         inkscape:connector-curvature="0"
         id="path108"
         style="fill:#33a02c;fill-opacity:1;fill-rule:nonzero;stroke:none"
         d="m 821.6,472.03 v 0 L 719.28,504 Z" /><path
         inkscape:connector-curvature="0"
         id="path110"
         style="fill:#fb9a99;fill-opacity:1;fill-rule:nonzero;stroke:none"
         d="m 821.6,472.03 v 0 L 719.28,504 Z" /><path
         inkscape:connector-curvature="0"
         id="path112"
         style="fill:#e31a1c;fill-opacity:1;fill-rule:nonzero;stroke:none"
         d="m 821.6,472.03 0.21,0.66 0.2,0.66 0.19,0.67 0.19,0.66 0.19,0.67 0.18,0.66 0.18,0.67 0.17,0.67 0.17,0.67 0.17,0.67 0.16,0.67 0.16,0.67 0.15,0.68 0.15,0.67 0.14,0.68 0.14,0.67 0.13,0.68 0.13,0.68 0.13,0.68 0.12,0.68 0.12,0.68 0.11,0.68 0.11,0.68 0.11,0.68 0.09,0.69 0.1,0.68 0.09,0.69 0.09,0.68 0.08,0.69 0.08,0.68 0.07,0.69 0.07,0.69 0.06,0.68 0.06,0.69 0.06,0.69 0.05,0.69 0.05,0.69 0.04,0.69 0.04,0.69 0.03,0.69 0.03,0.69 0.02,0.69 0.02,0.69 0.02,0.69 0.01,0.69 0.01,0.69 V 504 h -107.2 z" /><text
         y="-489.79999"
         x="708.15997"
         id="text116"
         style="font-style:normal;font-variant:normal;font-weight:600;font-stretch:normal;font-size:48px;font-family:'URW Gothic L';-inkscape-font-specification:'URW Gothic L, Semi-Bold';font-variant-ligatures:normal;font-variant-caps:normal;font-variant-numeric:normal;font-feature-settings:normal;text-align:start;writing-mode:lr-tb;text-anchor:start;fill:#ffffff;fill-opacity:1;fill-rule:nonzero;stroke:#000000;stroke-width:1.52474999;stroke-miterlimit:4;stroke-dasharray:none;stroke-opacity:1"
         transform="scale(1,-1)"><tspan
           style="font-style:normal;font-variant:normal;font-weight:600;font-stretch:normal;font-size:48px;font-family:'URW Gothic L';-inkscape-font-specification:'URW Gothic L, Semi-Bold';font-variant-ligatures:normal;font-variant-caps:normal;font-variant-numeric:normal;font-feature-settings:normal;text-align:start;writing-mode:lr-tb;text-anchor:start;fill:#ffffff;fill-opacity:1;stroke:#000000;stroke-width:1.52474999;stroke-miterlimit:4;stroke-dasharray:none;stroke-opacity:1"
           id="tspan114"
           y="-489.79999"
           x="708.15997">4</tspan></text>
</g><g
       id="g5073"
       transform="translate(61.5,273)"><path
         inkscape:connector-curvature="0"
         id="path126"
         style="fill:#000000;fill-opacity:1;fill-rule:nonzero;stroke:none"
         d="m 537.04,168 v 0.7 l -0.01,0.69 -0.01,0.7 -0.02,0.7 -0.02,0.7 -0.02,0.69 -0.03,0.7 -0.04,0.7 -0.03,0.69 -0.05,0.7 -0.04,0.69 -0.06,0.7 -0.05,0.69 -0.06,0.7 -0.07,0.69 -0.07,0.7 -0.07,0.69 -0.08,0.69 -0.09,0.69 -0.09,0.7 -0.09,0.69 -0.1,0.69 -0.1,0.69 -0.1,0.69 -0.11,0.68 -0.12,0.69 -0.12,0.69 -0.12,0.69 -0.13,0.68 -0.13,0.69 -0.14,0.68 -0.14,0.68 -0.15,0.68 -0.15,0.68 -0.16,0.68 -0.16,0.68 -0.16,0.68 -0.17,0.68 -0.17,0.67 -0.18,0.68 -0.18,0.67 -0.19,0.67 -0.19,0.67 -0.19,0.67 -0.2,0.67 -0.2,0.67 L 429.84,168 Z" /><path
         inkscape:connector-curvature="0"
         id="path128"
         style="fill:#a6cee3;fill-opacity:1;fill-rule:nonzero;stroke:none"
         d="m 532.28,199.6 -0.22,0.69 -0.22,0.7 -0.23,0.69 -0.23,0.69 -0.24,0.69 -0.24,0.69 -0.24,0.69 -0.25,0.68 -0.26,0.68 -0.26,0.69 -0.26,0.67 -0.27,0.68 -0.27,0.68 -0.28,0.67 -0.28,0.67 -0.29,0.67 -0.29,0.67 -0.3,0.67 -0.3,0.66 -0.3,0.66 -0.31,0.66 -0.32,0.66 L 429.84,168 Z" /><path
         inkscape:connector-curvature="0"
         id="path130"
         style="fill:#1f78b4;fill-opacity:1;fill-rule:nonzero;stroke:none"
         d="m 526.42,214.51 -0.29,0.62 -0.31,0.61 -0.3,0.61 -0.31,0.6 -0.31,0.61 -0.32,0.6 -0.32,0.6 -0.32,0.6 -0.33,0.6 -0.34,0.59 -0.33,0.6 -0.34,0.59 -0.34,0.58 -0.35,0.59 -0.35,0.58 -0.36,0.59 -0.35,0.58 -0.37,0.57 -0.36,0.58 -0.37,0.57 -0.37,0.57 -0.38,0.57 -0.38,0.56 -0.38,0.57 -0.39,0.56 -0.39,0.56 -0.4,0.55 -0.39,0.55 -0.41,0.56 -0.4,0.54 -0.41,0.55 -0.41,0.54 -0.42,0.54 -0.42,0.54 -0.42,0.53 -0.42,0.54 -0.43,0.53 -0.43,0.52 -0.44,0.53 -0.44,0.52 -0.44,0.52 -0.45,0.51 -0.44,0.51 -0.46,0.51 -0.45,0.51 -0.46,0.5 -0.46,0.51 -0.47,0.49 -0.46,0.5 -0.47,0.49 -0.48,0.49 -0.48,0.49 -0.48,0.48 -0.48,0.48 -0.49,0.48 -0.49,0.47 -0.49,0.47 -0.49,0.47 -0.5,0.46 -0.5,0.47 -0.51,0.45 -0.51,0.46 -0.51,0.45 -0.51,0.45 -0.51,0.44 -0.52,0.45 -0.52,0.43 -0.53,0.44 -0.52,0.43 -0.53,0.43 -0.54,0.43 -0.53,0.42 -0.54,0.42 -0.54,0.41 -0.54,0.41 -0.55,0.41 -0.55,0.4 -0.55,0.41 -0.55,0.39 -0.56,0.4 -0.55,0.39 -0.57,0.38 -0.56,0.39 -0.56,0.38 -0.57,0.37 -0.57,0.38 -0.58,0.37 -0.57,0.36 -0.58,0.36 -0.58,0.36 -0.58,0.35 -0.58,0.36 -0.59,0.34 -0.59,0.35 -0.59,0.33 -0.59,0.34 -0.6,0.33 -0.6,0.33 -0.59,0.32 -0.61,0.32 -0.6,0.32 -0.6,0.31 -0.61,0.31 -0.61,0.31 -0.61,0.3 -0.61,0.3 -0.62,0.29 -0.62,0.29 -0.62,0.28 -0.62,0.29 -0.62,0.27 -0.62,0.28 -0.63,0.27 -0.62,0.26 -0.63,0.26 -0.63,0.26 -0.64,0.26 -0.63,0.25 -0.64,0.24 -0.63,0.24 -0.64,0.24 -0.64,0.23 -0.64,0.23 -0.65,0.23 -0.64,0.22 -0.65,0.22 -0.64,0.21 -0.65,0.21 -0.65,0.2 -0.65,0.2 -0.66,0.2 -0.65,0.19 -0.65,0.19 -0.66,0.19 -0.66,0.18 -0.66,0.17 -0.65,0.17 -0.66,0.17 -0.67,0.16 -0.66,0.16 -0.66,0.16 -0.67,0.15 -0.66,0.14 -0.67,0.15 -0.67,0.13 -0.66,0.14 -0.67,0.13 -0.67,0.12 -0.67,0.12 -0.67,0.12 -0.68,0.11 -0.67,0.11 -0.67,0.1 -15.98,-106 z" /><path
         inkscape:connector-curvature="0"
         id="path132"
         style="fill:#b2df8a;fill-opacity:1;fill-rule:nonzero;stroke:none"
         d="m 445.82,274 -0.68,0.1 -0.67,0.1 -0.68,0.09 -0.68,0.09 -0.67,0.08 -0.68,0.08 -0.68,0.07 -0.68,0.07 -0.68,0.06 -0.68,0.06 -0.68,0.06 -0.68,0.05 -0.68,0.05 -0.68,0.04 -0.68,0.04 -0.68,0.04 -0.69,0.03 -0.68,0.02 -0.68,0.03 -0.68,0.01 -0.68,0.02 -0.69,0.01 h -0.68 -0.68 -0.68 l -0.69,-0.01 -0.68,-0.02 -0.68,-0.01 -0.68,-0.03 -0.68,-0.02 -0.69,-0.03 -0.68,-0.04 -0.68,-0.04 -0.68,-0.04 -0.68,-0.05 -0.68,-0.05 -0.68,-0.06 -0.68,-0.06 -0.68,-0.06 -0.68,-0.07 -0.68,-0.07 -0.68,-0.08 -0.67,-0.08 -0.68,-0.09 -0.68,-0.09 -0.67,-0.1 -0.68,-0.1 -0.67,-0.1 -0.68,-0.11 -0.67,-0.11 -0.67,-0.12 -0.67,-0.12 -0.67,-0.12 -0.67,-0.13 -0.67,-0.14 -0.67,-0.14 -0.67,-0.14 -0.66,-0.15 -0.67,-0.15 -0.67,-0.15 -0.66,-0.16 -0.66,-0.16 -0.66,-0.17 -0.66,-0.17 -0.66,-0.18 -0.66,-0.18 -0.66,-0.18 -0.65,-0.19 -0.66,-0.2 -0.65,-0.19 -0.65,-0.2 -0.65,-0.21 -0.65,-0.21 -0.65,-0.21 -0.65,-0.22 -0.64,-0.22 -0.65,-0.23 -0.64,-0.23 -0.64,-0.23 -0.64,-0.24 -0.64,-0.24 -0.64,-0.25 -0.63,-0.25 -0.63,-0.25 -0.64,-0.26 -0.63,-0.26 -0.62,-0.27 -0.63,-0.27 -0.63,-0.27 -0.62,-0.28 -0.62,-0.29 -0.62,-0.28 -0.62,-0.29 -0.61,-0.3 46.51,-96.58 z" /><path
         inkscape:connector-curvature="0"
         id="path134"
         style="fill:#33a02c;fill-opacity:1;fill-rule:nonzero;stroke:none"
         d="m 383.33,264.58 v 0 L 429.84,168 Z" /><path
         inkscape:connector-curvature="0"
         id="path136"
         style="fill:#fb9a99;fill-opacity:1;fill-rule:nonzero;stroke:none"
         d="m 383.33,264.58 -0.61,-0.29 -0.61,-0.3 -0.6,-0.3 -0.61,-0.31 -0.6,-0.31 -0.6,-0.32 -0.59,-0.31 -0.6,-0.33 -0.59,-0.32 -0.59,-0.33 -0.59,-0.34 -0.59,-0.33 -0.58,-0.34 -0.58,-0.35 -0.59,-0.35 -0.57,-0.35 -0.58,-0.35 -0.57,-0.36 -0.57,-0.36 -0.57,-0.37 -0.57,-0.37 -0.56,-0.37 -0.57,-0.38 -0.56,-0.38 -0.55,-0.39 -0.56,-0.38 -0.55,-0.39 -0.55,-0.4 -0.55,-0.4 -0.54,-0.4 -0.54,-0.4 -0.54,-0.41 -0.54,-0.41 -0.53,-0.42 -0.54,-0.42 -0.53,-0.42 -0.52,-0.42 -0.53,-0.43 -0.52,-0.43 -0.52,-0.44 -0.51,-0.44 -0.51,-0.44 -0.51,-0.44 -0.51,-0.45 -0.51,-0.45 -0.5,-0.46 -0.5,-0.45 -0.49,-0.46 -0.49,-0.47 -0.49,-0.46 -0.49,-0.47 -0.49,-0.48 -0.48,-0.47 -0.47,-0.48 -0.48,-0.48 -0.47,-0.49 -0.47,-0.49 -0.47,-0.49 -0.46,-0.49 -0.46,-0.5 -0.45,-0.5 -0.46,-0.5 -0.45,-0.51 -0.44,-0.5 -0.45,-0.52 -0.44,-0.51 -0.43,-0.52 -0.44,-0.51 -0.43,-0.53 -0.43,-0.52 -0.42,-0.53 -0.42,-0.53 -0.42,-0.53 -0.41,-0.54 -0.41,-0.54 -0.41,-0.54 -0.4,-0.54 -0.4,-0.54 -0.4,-0.55 -0.39,-0.55 -0.39,-0.56 -0.39,-0.55 -0.38,-0.56 -0.38,-0.56 -0.38,-0.56 -0.37,-0.57 -0.37,-0.57 -0.36,-0.57 -0.36,-0.57 -0.36,-0.57 -0.36,-0.58 -0.35,-0.58 -0.34,-0.58 -0.35,-0.58 -0.34,-0.59 -0.33,-0.58 -0.33,-0.59 -0.33,-0.6 -0.33,-0.59 -0.32,-0.6 -0.31,-0.59 -0.32,-0.6 -0.31,-0.6 -0.3,-0.61 -0.3,-0.6 -0.3,-0.61 -0.3,-0.61 -0.29,-0.61 -0.28,-0.62 -0.29,-0.61 -0.27,-0.62 -0.28,-0.62 -0.27,-0.62 -0.27,-0.62 -0.26,-0.62 -0.26,-0.63 -0.25,-0.62 -0.26,-0.63 -0.24,-0.63 -0.25,-0.63 -0.24,-0.63 -0.23,-0.64 -0.23,-0.64 -0.23,-0.63 -0.22,-0.64 -0.22,-0.64 -0.22,-0.64 -0.21,-0.65 -0.2,-0.64 -0.21,-0.65 -0.2,-0.64 -0.19,-0.65 -0.19,-0.65 -0.19,-0.65 -0.18,-0.65 -0.18,-0.65 -0.17,-0.66 -0.17,-0.65 -0.17,-0.66 -0.16,-0.66 -0.16,-0.65 -0.15,-0.66 -0.15,-0.66 -0.15,-0.66 -0.14,-0.67 -0.13,-0.66 -0.14,-0.66 -0.13,-0.67 -0.12,-0.66 -0.12,-0.67 -0.12,-0.66 -0.11,-0.67 -0.1,-0.67 -0.11,-0.67 -0.1,-0.67 -0.09,-0.67 -0.09,-0.67 -0.09,-0.67 -0.08,-0.67 -0.08,-0.67 -0.07,-0.68 -0.07,-0.67 -0.07,-0.67 -0.06,-0.68 -0.05,-0.67 -0.06,-0.68 -0.04,-0.67 -0.05,-0.68 -0.04,-0.67 -0.03,-0.68 -0.03,-0.67 -0.03,-0.68 -0.02,-0.68 -0.02,-0.67 -0.01,-0.68 -0.01,-0.68 -0.01,-0.67 v -0.68 -0.68 l 0.01,-0.67 0.01,-0.68 0.02,-0.68 0.02,-0.67 0.02,-0.68 0.03,-0.67 0.04,-0.68 0.03,-0.68 0.04,-0.67 0.05,-0.68 0.05,-0.67 0.05,-0.68 0.06,-0.67 0.07,-0.67 0.06,-0.68 0.07,-0.67 0.08,-0.67 0.08,-0.67 0.08,-0.68 0.09,-0.67 0.1,-0.67 0.09,-0.67 0.1,-0.67 0.11,-0.66 0.11,-0.67 0.11,-0.67 0.12,-0.66 0.12,-0.67 0.13,-0.67 0.13,-0.66 0.13,-0.66 0.14,-0.66 0.15,-0.67 0.14,-0.66 0.15,-0.66 0.16,-0.65 0.16,-0.66 0.16,-0.66 0.17,-0.65 0.17,-0.66 0.18,-0.65 0.18,-0.65 0.18,-0.65 0.19,-0.65 0.2,-0.65 0.19,-0.65 0.2,-0.65 0.21,-0.64 0.21,-0.65 0.21,-0.64 0.22,-0.64 0.22,-0.64 0.22,-0.64 0.23,-0.63 0.24,-0.64 0.23,-0.63 0.25,-0.63 0.24,-0.63 99.79,39.16 z" /><path
         inkscape:connector-curvature="0"
         id="path138"
         style="fill:#e31a1c;fill-opacity:1;fill-rule:nonzero;stroke:none"
         d="m 330.05,128.84 0.25,-0.63 0.25,-0.63 0.26,-0.62 0.26,-0.63 0.26,-0.62 0.27,-0.62 0.28,-0.62 0.27,-0.62 0.28,-0.61 0.29,-0.61 0.28,-0.62 0.3,-0.6 0.29,-0.61 0.3,-0.61 0.3,-0.6 0.31,-0.6 0.31,-0.6 0.32,-0.6 0.32,-0.6 0.32,-0.59 0.32,-0.59 0.33,-0.59 0.34,-0.59 0.33,-0.59 0.34,-0.58 0.35,-0.58 0.35,-0.58 0.35,-0.58 0.35,-0.57 0.36,-0.58 0.37,-0.57 0.36,-0.57 0.37,-0.56 0.37,-0.56 0.38,-0.57 0.38,-0.55 0.39,-0.56 0.38,-0.55 0.39,-0.56 0.4,-0.54 0.4,-0.55 0.4,-0.54 0.4,-0.55 0.41,-0.53 0.41,-0.54 0.42,-0.53 0.41,-0.54 0.43,-0.52 0.42,-0.53 0.43,-0.52 0.43,-0.52 0.43,-0.52 0.44,-0.51 0.44,-0.52 0.45,-0.51 0.45,-0.5 0.45,-0.51 0.45,-0.5 0.46,-0.49 0.46,-0.5 0.46,-0.49 0.47,-0.49 0.47,-0.49 0.47,-0.48 0.48,-0.48 0.47,-0.48 0.49,-0.47 0.48,-0.47 0.49,-0.47 0.49,-0.46 0.49,-0.47 0.5,-0.45 0.5,-0.46 0.5,-0.45 0.5,-0.45 0.51,-0.45 0.51,-0.44 0.52,-0.44 0.51,-0.44 0.52,-0.43 0.52,-0.43 0.53,-0.43 0.52,-0.42 0.53,-0.42 0.54,-0.42 0.53,-0.41 0.54,-0.41 0.54,-0.41 0.54,-0.4 0.54,-0.4 0.55,-0.39 0.55,-0.4 0.56,-0.39 0.55,-0.38 0.56,-0.38 0.56,-0.38 0.56,-0.38 0.56,-0.37 0.57,-0.37 0.57,-0.36 0.57,-0.36 0.57,-0.36 0.58,-0.35 0.58,-0.35 0.58,-0.35 0.58,-0.34 0.59,-0.34 0.58,-0.34 0.59,-0.33 0.59,-0.33 0.6,-0.32 0.59,-0.32 0.6,-0.32 0.6,-0.31 0.6,-0.31 0.6,-0.3 0.61,-0.31 0.6,-0.29 0.61,-0.3 0.61,-0.29 0.61,-0.28 0.62,-0.28 0.61,-0.28 0.62,-0.28 0.62,-0.27 0.62,-0.27 0.62,-0.26 0.63,-0.26 0.63,-0.25 0.62,-0.25 0.63,-0.25 0.63,-0.24 0.63,-0.24 0.64,-0.24 0.63,-0.23 0.64,-0.22 0.64,-0.23 0.64,-0.22 0.64,-0.21 0.64,-0.21 0.64,-0.21 0.65,-0.2 0.64,-0.2 0.65,-0.2 0.65,-0.19 0.65,-0.18 0.65,-0.18 0.65,-0.18 0.65,-0.18 0.66,-0.17 0.65,-0.16 0.66,-0.16 0.66,-0.16 0.66,-0.16 0.65,-0.14 0.66,-0.15 0.67,-0.14 0.66,-0.14 0.66,-0.13 0.66,-0.13 0.67,-0.12 0.66,-0.12 0.67,-0.12 0.67,-0.11 0.66,-0.11 0.67,-0.1 0.67,-0.1 0.67,-0.1 0.67,-0.09 0.67,-0.08 0.67,-0.08 0.67,-0.08 0.67,-0.08 0.67,-0.07 0.68,-0.06 0.67,-0.06 0.67,-0.06 0.68,-0.05 0.67,-0.05 0.68,-0.04 0.67,-0.04 0.68,-0.04 0.67,-0.03 0.68,-0.03 0.67,-0.02 0.68,-0.02 0.67,-0.01 0.68,-0.01 0.67,-0.01 h 0.68 0.68 l 0.67,0.01 0.68,0.01 0.67,0.02 0.68,0.02 0.67,0.02 0.68,0.03 0.67,0.03 0.68,0.04 0.67,0.04 0.68,0.05 0.67,0.04 0.68,0.06 0.67,0.06 0.67,0.06 0.67,0.07 0.68,0.07 0.67,0.07 0.67,0.08 0.67,0.08 0.67,0.09 0.67,0.09 0.67,0.1 0.67,0.1 0.66,0.11 0.67,0.1 0.67,0.12 0.66,0.12 0.67,0.12 0.66,0.12 0.66,0.13 0.67,0.14 0.66,0.13 0.66,0.15 0.66,0.14 0.66,0.15 0.66,0.16 0.65,0.16 0.66,0.16 0.65,0.17 0.66,0.17 0.65,0.17 0.65,0.18 0.65,0.19 0.65,0.19 0.65,0.19 0.65,0.19 0.64,0.2 0.65,0.21 0.64,0.21 0.64,0.21 0.64,0.21 0.64,0.22 0.64,0.23 0.63,0.23 0.64,0.23 0.63,0.24 0.63,0.24 0.63,0.24 0.63,0.25 0.63,0.25 0.62,0.26 0.63,0.26 0.62,0.26 0.62,0.27 0.62,0.27 0.62,0.28 0.61,0.28 0.61,0.28 0.62,0.29 0.61,0.29 0.6,0.29 0.61,0.3 0.6,0.3 0.61,0.31 0.6,0.31 0.6,0.32 0.59,0.31 0.6,0.33 0.59,0.32 0.59,0.33 0.59,0.33 0.58,0.34 0.59,0.34 0.58,0.34 0.58,0.35 0.58,0.35 0.57,0.36 0.57,0.35 0.58,0.37 0.56,0.36 0.57,0.37 0.56,0.37 0.56,0.38 0.56,0.38 0.56,0.38 0.55,0.39 0.56,0.39 0.55,0.39 0.54,0.4 0.55,0.4 0.54,0.41 0.54,0.4 0.53,0.41 0.54,0.42 0.53,0.42 0.53,0.42 0.52,0.42 0.53,0.43 0.52,0.43 0.52,0.43 0.51,0.44 0.51,0.44 0.51,0.45 0.51,0.44 0.5,0.45 0.5,0.46 0.5,0.45 0.5,0.46 0.49,0.47 0.49,0.46 0.49,0.47 0.48,0.47 0.48,0.48 0.48,0.48 0.47,0.48 0.48,0.48 0.46,0.49 0.47,0.49 0.46,0.49 0.46,0.5 0.46,0.5 0.45,0.5 0.45,0.5 0.45,0.51 0.44,0.51 0.44,0.51 0.44,0.52 0.43,0.52 0.43,0.52 0.43,0.52 0.42,0.53 0.42,0.53 0.42,0.53 0.41,0.53 0.41,0.54 0.41,0.54 0.4,0.54 0.4,0.55 0.4,0.54 0.39,0.55 0.39,0.56 0.39,0.55 0.38,0.56 0.38,0.56 0.38,0.56 0.37,0.56 0.37,0.57 0.36,0.57 0.36,0.57 0.36,0.57 0.36,0.58 0.35,0.58 0.34,0.58 0.35,0.58 0.34,0.58 0.33,0.59 0.33,0.59 0.33,0.59 0.33,0.59 0.32,0.59 0.32,0.6 0.31,0.6 0.31,0.6 0.3,0.6 0.31,0.61 0.29,0.6 0.3,0.61 0.29,0.61 0.29,0.62 0.28,0.61 0.28,0.61 0.27,0.62 0.27,0.62 0.27,0.62 0.27,0.62 0.25,0.63 0.26,0.62 0.25,0.63 0.25,0.63 0.24,0.63 0.24,0.63 0.24,0.64 0.23,0.63 0.23,0.64 0.22,0.63 0.22,0.64 0.22,0.64 0.21,0.65 0.21,0.64 0.2,0.64 0.2,0.65 0.19,0.65 0.2,0.64 0.18,0.65 0.19,0.65 0.17,0.66 0.18,0.65 0.17,0.65 0.17,0.66 0.16,0.65 0.16,0.66 0.15,0.66 0.15,0.66 0.15,0.66 0.14,0.66 0.14,0.66 0.13,0.66 0.13,0.67 0.12,0.66 0.12,0.67 0.12,0.66 0.11,0.67 0.11,0.66 0.11,0.67 0.1,0.67 0.09,0.67 0.09,0.67 0.09,0.67 0.08,0.67 0.08,0.67 0.07,0.67 0.08,0.68 0.06,0.67 0.06,0.67 0.06,0.67 0.05,0.68 0.05,0.67 0.05,0.68 0.04,0.67 0.03,0.68 0.04,0.67 0.02,0.68 0.03,0.67 0.02,0.68 0.01,0.67 0.01,0.68 0.01,0.67 V 168 h -107.2 z" /><text
         y="-154.42"
         x="418.72"
         id="text142"
         style="font-style:normal;font-variant:normal;font-weight:600;font-stretch:normal;font-size:48px;font-family:'URW Gothic L';-inkscape-font-specification:'URW Gothic L, Semi-Bold';font-variant-ligatures:normal;font-variant-caps:normal;font-variant-numeric:normal;font-feature-settings:normal;text-align:start;writing-mode:lr-tb;text-anchor:start;fill:#ffffff;fill-opacity:1;fill-rule:nonzero;stroke:#000000;stroke-width:1.52474999;stroke-miterlimit:4;stroke-dasharray:none;stroke-opacity:1"
         transform="scale(1,-1)"><tspan
           style="font-style:normal;font-variant:normal;font-weight:600;font-stretch:normal;font-size:48px;font-family:'URW Gothic L';-inkscape-font-specification:'URW Gothic L, Semi-Bold';font-variant-ligatures:normal;font-variant-caps:normal;font-variant-numeric:normal;font-feature-settings:normal;text-align:start;writing-mode:lr-tb;text-anchor:start;fill:#ffffff;fill-opacity:1;stroke:#000000;stroke-width:1.52474999;stroke-miterlimit:4;stroke-dasharray:none;stroke-opacity:1"
           id="tspan140"
           y="-154.42"
           x="418.72">5</tspan></text>
</g><g
       id="g5084"
       transform="translate(0,273)"><path
         inkscape:connector-curvature="0"
         id="path152"
         style="fill:#000000;fill-opacity:1;fill-rule:nonzero;stroke:none"
         d="m 826.48,168 v 0.68 l -0.01,0.69 -0.01,0.68 -0.01,0.68 -0.02,0.69 -0.03,0.68 -0.03,0.68 -0.03,0.69 -0.04,0.68 -0.04,0.68 -0.04,0.68 -0.05,0.69 -0.06,0.68 -0.06,0.68 -0.06,0.68 -0.07,0.68 -0.07,0.68 -0.08,0.68 -0.08,0.68 -0.08,0.68 -0.09,0.67 -0.09,0.68 -0.1,0.68 -0.1,0.67 -0.11,0.68 -0.11,0.67 -0.12,0.68 -0.11,0.67 -0.13,0.67 -0.13,0.67 -0.13,0.67 -0.13,0.67 -0.15,0.67 -0.14,0.67 -0.15,0.67 -0.15,0.67 -0.16,0.66 -0.16,0.66 -0.17,0.67 -0.17,0.66 -0.17,0.66 -0.18,0.66 -0.19,0.66 -0.18,0.66 -0.19,0.65 -0.2,0.66 -0.2,0.65 -0.2,0.65 -0.21,0.66 -0.21,0.65 -0.22,0.64 -0.22,0.65 -0.23,0.65 -0.22,0.64 -0.24,0.64 -0.23,0.64 -0.24,0.64 -0.25,0.64 -0.25,0.64 -0.25,0.63 -0.26,0.64 -0.26,0.63 -0.27,0.63 -0.27,0.63 -0.27,0.62 -0.28,0.63 -0.28,0.62 -0.28,0.62 -0.29,0.62 -0.29,0.62 -0.3,0.62 -0.3,0.61 -0.31,0.61 -0.31,0.61 -0.31,0.61 -0.32,0.61 -0.32,0.6 -0.32,0.6 -0.33,0.6 -0.33,0.6 -0.34,0.59 -0.34,0.6 -0.34,0.59 -0.35,0.59 -0.35,0.58 -0.35,0.59 -0.36,0.58 -0.36,0.58 -0.37,0.58 -0.37,0.57 -0.37,0.58 -0.38,0.57 -0.38,0.57 -0.38,0.56 -0.39,0.56 -0.39,0.57 -0.39,0.55 -0.4,0.56 -0.4,0.55 -0.41,0.55 -0.41,0.55 -0.41,0.55 -0.42,0.54 -0.42,0.54 -0.42,0.54 -0.42,0.53 -0.43,0.53 -0.44,0.53 -0.43,0.53 -0.44,0.52 -0.44,0.52 -0.45,0.52 -0.45,0.52 -0.45,0.51 -0.46,0.51 -0.46,0.5 L 798,240.77 719.28,168 Z" /><path
         inkscape:connector-curvature="0"
         id="path154"
         style="fill:#a6cee3;fill-opacity:1;fill-rule:nonzero;stroke:none"
         d="m 798,240.77 v 0 L 719.28,168 Z" /><path
         inkscape:connector-curvature="0"
         id="path156"
         style="fill:#1f78b4;fill-opacity:1;fill-rule:nonzero;stroke:none"
         d="m 798,240.77 -0.57,0.61 -0.58,0.61 -0.59,0.61 -0.59,0.6 -0.59,0.6 -75.8,-75.8 z" /><path
         inkscape:connector-curvature="0"
         id="path158"
         style="fill:#b2df8a;fill-opacity:1;fill-rule:nonzero;stroke:none"
         d="m 795.08,243.8 -0.48,0.48 -0.48,0.48 -0.49,0.47 -0.49,0.47 -0.5,0.46 -0.49,0.47 -0.5,0.46 -0.5,0.45 -0.51,0.46 -0.51,0.45 -0.51,0.44 -0.51,0.45 -0.52,0.44 -0.52,0.44 -0.52,0.43 -0.53,0.43 -0.52,0.43 -0.53,0.42 -0.54,0.42 -0.53,0.42 -0.54,0.42 -0.54,0.41 -0.54,0.4 -0.55,0.41 -0.55,0.4 -0.55,0.39 -0.55,0.4 -0.56,0.39 -0.56,0.38 -0.56,0.38 -0.56,0.38 -0.57,0.38 -0.57,0.37 -0.57,0.37 -0.57,0.36 -0.58,0.36 -0.57,0.36 -0.58,0.36 -0.58,0.35 -0.59,0.34 -0.58,0.34 -0.59,0.34 -0.59,0.34 -0.6,0.33 -0.59,0.33 -0.6,0.32 -0.6,0.32 -0.6,0.32 -0.6,0.31 -0.6,0.31 -0.61,0.3 -0.61,0.3 -0.61,0.3 -0.61,0.29 -0.62,0.29 -0.61,0.29 -0.62,0.28 -0.62,0.28 -0.62,0.27 -0.63,0.27 -0.62,0.27 -0.63,0.26 -0.62,0.26 -0.63,0.25 -0.64,0.25 -0.63,0.25 -0.63,0.24 -0.64,0.24 -0.64,0.23 -0.64,0.23 -0.64,0.23 -0.64,0.22 -0.64,0.22 -0.65,0.21 -0.64,0.21 -0.65,0.2 -0.65,0.2 -0.65,0.2 -0.65,0.2 -0.65,0.18 -0.65,0.19 -0.66,0.18 -0.65,0.18 -0.66,0.17 -0.66,0.17 -0.66,0.16 -0.66,0.16 -0.66,0.16 -0.66,0.15 -0.66,0.14 -0.67,0.15 -0.66,0.14 -0.67,0.13 -0.66,0.13 -0.67,0.13 -0.67,0.12 -0.67,0.12 -0.67,0.11 -0.67,0.11 -0.67,0.1 -0.67,0.1 -0.67,0.1 -0.67,0.09 -0.68,0.09 -0.67,0.08 -0.67,0.08 -0.68,0.08 -0.67,0.07 -0.68,0.07 -0.68,0.06 -0.67,0.06 -0.68,0.05 -0.68,0.05 -0.67,0.05 -0.68,0.04 -0.68,0.03 -0.68,0.03 -0.68,0.03 -0.68,0.03 -0.67,0.02 -0.68,0.01 -0.68,0.01 -0.68,0.01 h -0.68 -0.68 l -0.68,-0.01 -0.68,-0.01 -0.68,-0.01 -0.67,-0.02 -0.68,-0.03 -0.68,-0.03 -0.68,-0.03 -0.68,-0.03 -0.68,-0.04 -0.67,-0.05 -0.68,-0.05 -0.68,-0.05 -0.67,-0.06 -0.68,-0.06 -0.68,-0.07 -0.67,-0.07 -0.68,-0.08 -0.67,-0.08 -0.67,-0.08 -0.68,-0.09 -0.67,-0.09 -0.67,-0.1 -0.67,-0.1 -0.67,-0.1 -0.67,-0.11 -0.67,-0.11 -0.67,-0.12 -0.67,-0.12 -0.67,-0.13 -0.66,-0.13 -0.67,-0.13 -0.66,-0.14 -0.67,-0.15 -0.66,-0.14 -0.66,-0.15 -0.66,-0.16 -0.66,-0.16 -0.66,-0.16 -0.66,-0.17 -0.66,-0.17 -0.65,-0.18 -0.66,-0.18 -0.65,-0.19 -0.65,-0.18 -0.65,-0.2 -0.65,-0.2 -0.65,-0.2 -0.65,-0.2 -0.64,-0.21 -0.65,-0.21 -0.64,-0.22 -0.64,-0.22 -0.64,-0.23 -0.64,-0.23 -0.64,-0.23 -0.64,-0.24 -0.63,-0.24 -0.63,-0.25 -0.64,-0.25 -0.63,-0.25 -0.62,-0.26 41.02,-99.04 z" /><path
         inkscape:connector-curvature="0"
         id="path160"
         style="fill:#33a02c;fill-opacity:1;fill-rule:nonzero;stroke:none"
         d="m 678.26,267.04 -0.69,-0.29 -0.68,-0.29 -0.68,-0.29 -0.68,-0.31 -0.68,-0.3 -0.68,-0.31 -0.67,-0.32 -0.67,-0.32 -0.67,-0.32 -0.66,-0.33 -0.67,-0.33 -0.66,-0.34 -0.66,-0.34 -0.65,-0.35 -0.66,-0.35 -0.65,-0.36 -0.65,-0.36 52.38,-93.53 z" /><path
         inkscape:connector-curvature="0"
         id="path162"
         style="fill:#fb9a99;fill-opacity:1;fill-rule:nonzero;stroke:none"
         d="m 666.9,261.53 -0.59,-0.33 -0.59,-0.34 -0.58,-0.34 -0.58,-0.34 -0.58,-0.35 -0.58,-0.35 -0.58,-0.35 -0.57,-0.36 -0.57,-0.36 -0.57,-0.37 -0.57,-0.37 -0.56,-0.37 -0.57,-0.37 -0.56,-0.38 -0.55,-0.39 -0.56,-0.38 -0.55,-0.39 -0.55,-0.4 -0.55,-0.39 -0.54,-0.4 -0.55,-0.41 -0.54,-0.41 -0.53,-0.41 -0.54,-0.41 -0.53,-0.42 -0.53,-0.42 -0.53,-0.42 -0.52,-0.43 -0.52,-0.43 -0.52,-0.43 -0.52,-0.44 -0.51,-0.44 -0.51,-0.45 -0.51,-0.44 -0.5,-0.45 -0.51,-0.46 -0.5,-0.45 -0.49,-0.46 -0.5,-0.46 -0.49,-0.47 -0.48,-0.47 -0.49,-0.47 -0.48,-0.48 -0.48,-0.47 -0.47,-0.49 -0.48,-0.48 -0.46,-0.49 -0.47,-0.49 -0.46,-0.49 -0.46,-0.5 -0.46,-0.49 -0.45,-0.51 -0.46,-0.5 -0.44,-0.51 -0.45,-0.51 -0.44,-0.51 -0.44,-0.52 -0.43,-0.51 -0.43,-0.53 -0.43,-0.52 -0.42,-0.53 -0.42,-0.52 -0.42,-0.54 -0.42,-0.53 -0.41,-0.54 -0.41,-0.54 -0.4,-0.54 -0.4,-0.54 -0.4,-0.55 -0.39,-0.55 -0.39,-0.55 -0.39,-0.56 -0.38,-0.56 -0.38,-0.56 -0.38,-0.56 -0.37,-0.56 -0.37,-0.57 -0.37,-0.57 -0.36,-0.57 -0.36,-0.57 -0.35,-0.58 -0.35,-0.58 -0.35,-0.58 -0.35,-0.58 -0.34,-0.58 -0.33,-0.59 -0.34,-0.59 -0.33,-0.59 -0.32,-0.59 -0.32,-0.6 -0.32,-0.59 -0.31,-0.6 -0.31,-0.6 -0.31,-0.61 -0.3,-0.6 -0.3,-0.61 -0.3,-0.61 -0.29,-0.61 -0.29,-0.61 -0.28,-0.61 -0.28,-0.62 -0.28,-0.62 -0.27,-0.62 -0.26,-0.62 -0.27,-0.62 -0.26,-0.62 -0.26,-0.63 -0.25,-0.63 -0.25,-0.63 -0.24,-0.63 -0.24,-0.63 -0.24,-0.63 -0.23,-0.64 -0.23,-0.64 -0.22,-0.63 -0.22,-0.64 -0.22,-0.64 -0.21,-0.65 -0.21,-0.64 -0.2,-0.65 -0.2,-0.64 -0.2,-0.65 -0.19,-0.65 -0.19,-0.65 -0.18,-0.65 -0.18,-0.65 -0.17,-0.65 -0.18,-0.66 -0.16,-0.65 -0.17,-0.66 -0.15,-0.66 -0.16,-0.66 -0.15,-0.66 -0.15,-0.66 -0.14,-0.66 -0.14,-0.66 -0.13,-0.66 -0.13,-0.67 -0.12,-0.66 -0.13,-0.67 -0.11,-0.66 -0.12,-0.67 -0.1,-0.67 -0.11,-0.66 -0.1,-0.67 -0.09,-0.67 -0.1,-0.67 -0.08,-0.67 -0.09,-0.68 -0.08,-0.67 -0.07,-0.67 -0.07,-0.67 -0.07,-0.67 -0.06,-0.68 -0.06,-0.67 -0.05,-0.68 -0.05,-0.67 -0.04,-0.68 -0.05,-0.67 -0.03,-0.68 -0.03,-0.67 -0.03,-0.68 -0.03,-0.67 -0.01,-0.68 -0.02,-0.68 -0.01,-0.67 -0.01,-0.68 v -0.68 -0.67 l 0.01,-0.68 0.01,-0.67 0.01,-0.68 0.02,-0.68 0.03,-0.67 0.02,-0.68 0.03,-0.67 0.04,-0.68 0.04,-0.67 0.05,-0.68 0.04,-0.67 0.06,-0.68 0.05,-0.67 0.07,-0.68 0.06,-0.67 0.07,-0.67 0.08,-0.67 0.08,-0.68 0.08,-0.67 0.08,-0.67 0.1,-0.67 0.09,-0.67 0.1,-0.67 0.11,-0.66 0.1,-0.67 0.12,-0.67 0.11,-0.67 0.12,-0.66 0.13,-0.67 0.13,-0.66 0.13,-0.66 0.14,-0.66 0.14,-0.67 0.15,-0.66 0.15,-0.66 0.15,-0.65 0.16,-0.66 0.16,-0.66 0.17,-0.65 0.17,-0.66 0.17,-0.65 0.18,-0.65 0.18,-0.66 0.19,-0.65 0.19,-0.64 0.2,-0.65 0.2,-0.65 0.2,-0.64 0.21,-0.65 0.21,-0.64 0.22,-0.64 0.22,-0.64 0.22,-0.64 0.23,-0.63 0.23,-0.64 0.24,-0.63 0.24,-0.64 0.24,-0.63 0.25,-0.63 0.25,-0.62 0.25,-0.63 0.26,-0.62 0.27,-0.63 0.27,-0.62 0.27,-0.62 0.27,-0.62 0.28,-0.61 0.28,-0.62 0.29,-0.61 0.29,-0.61 0.3,-0.61 0.3,-0.61 0.3,-0.6 0.3,-0.6 0.31,-0.6 0.32,-0.6 0.31,-0.6 0.33,-0.6 0.32,-0.59 0.33,-0.59 0.33,-0.59 0.34,-0.59 0.34,-0.58 0.34,-0.58 0.35,-0.58 0.35,-0.58 0.35,-0.58 0.36,-0.57 0.36,-0.57 0.37,-0.57 0.37,-0.57 0.37,-0.56 0.38,-0.57 0.38,-0.56 0.38,-0.55 0.39,-0.56 0.39,-0.55 0.39,-0.55 0.4,-0.55 0.4,-0.54 0.4,-0.55 0.41,-0.54 0.41,-0.53 0.41,-0.54 0.42,-0.53 0.42,-0.53 0.43,-0.53 0.42,-0.52 0.44,-0.52 0.43,-0.52 0.44,-0.52 0.44,-0.51 0.44,-0.51 0.45,-0.51 0.45,-0.5 0.45,-0.5 0.46,-0.5 0.46,-0.5 0.46,-0.49 0.47,-0.49 0.47,-0.49 0.47,-0.48 0.47,-0.49 0.48,-0.47 0.48,-0.48 0.49,-0.47 0.48,-0.47 0.49,-0.47 0.5,-0.46 0.49,-0.46 0.5,-0.46 0.5,-0.45 0.51,-0.45 0.5,-0.45 0.52,-0.44 0.51,-0.44 0.51,-0.44 0.52,-0.43 0.52,-0.44 0.53,-0.42 0.52,-0.43 0.53,-0.42 0.54,-0.42 0.53,-0.41 0.54,-0.41 0.54,-0.41 0.54,-0.4 0.54,-0.4 0.55,-0.4 0.55,-0.4 0.55,-0.39 0.56,-0.38 0.56,-0.39 0.55,-0.38 0.57,-0.37 0.56,-0.38 0.57,-0.36 0.57,-0.37 0.57,-0.36 0.57,-0.36 0.58,-0.36 0.58,-0.35 0.58,-0.34 0.58,-0.35 0.58,-0.34 0.59,-0.33 0.59,-0.34 0.59,-0.33 0.59,-0.32 0.6,-0.32 0.59,-0.32 0.6,-0.31 0.6,-0.32 0.61,-0.3 0.6,-0.3 0.61,-0.3 0.61,-0.3 0.61,-0.29 0.61,-0.29 0.62,-0.28 0.61,-0.28 0.62,-0.27 0.62,-0.28 0.62,-0.26 0.62,-0.27 0.63,-0.26 0.62,-0.25 0.63,-0.26 0.63,-0.24 0.63,-0.25 0.63,-0.24 0.64,-0.23 37.1,100.57 z" /><path
         inkscape:connector-curvature="0"
         id="path164"
         style="fill:#e31a1c;fill-opacity:1;fill-rule:nonzero;stroke:none"
         d="m 682.18,67.43 0.63,-0.24 0.64,-0.22 0.64,-0.23 0.64,-0.22 0.64,-0.21 0.64,-0.22 0.64,-0.2 0.65,-0.21 0.64,-0.2 0.65,-0.19 0.65,-0.19 0.65,-0.19 0.65,-0.19 0.65,-0.17 0.66,-0.18 0.65,-0.17 0.66,-0.17 0.65,-0.16 0.66,-0.16 0.66,-0.15 0.66,-0.15 0.66,-0.15 0.66,-0.14 0.66,-0.14 0.66,-0.13 0.67,-0.13 0.66,-0.13 0.67,-0.12 0.66,-0.12 0.67,-0.11 0.67,-0.11 0.67,-0.1 0.67,-0.1 0.67,-0.1 0.67,-0.09 0.67,-0.09 0.67,-0.08 0.67,-0.08 0.67,-0.07 0.67,-0.07 0.68,-0.07 0.67,-0.06 0.67,-0.06 0.68,-0.05 0.67,-0.05 0.68,-0.05 0.67,-0.04 0.68,-0.03 0.67,-0.03 0.68,-0.03 0.68,-0.03 0.67,-0.02 0.68,-0.01 0.67,-0.01 0.68,-0.01 h 0.68 0.67 l 0.68,0.01 0.68,0.01 0.67,0.01 0.68,0.02 0.67,0.03 0.68,0.02 0.67,0.04 0.68,0.03 0.67,0.04 0.68,0.05 0.67,0.05 0.68,0.05 0.67,0.06 0.68,0.06 0.67,0.06 0.67,0.07 0.67,0.08 0.68,0.08 0.67,0.08 0.67,0.09 0.67,0.09 0.67,0.09 0.67,0.1 0.66,0.11 0.67,0.11 0.67,0.11 0.66,0.12 0.67,0.12 0.67,0.12 0.66,0.13 0.66,0.13 0.66,0.14 0.67,0.14 0.66,0.15 0.66,0.15 0.65,0.15 0.66,0.16 0.66,0.17 0.65,0.16 0.66,0.17 0.65,0.18 0.65,0.18 0.65,0.18 0.65,0.19 0.65,0.19 0.65,0.19 0.65,0.2 0.64,0.21 0.64,0.21 0.65,0.21 0.64,0.21 0.64,0.22 0.64,0.23 0.63,0.22 0.64,0.24 0.63,0.23 0.63,0.24 0.63,0.25 0.63,0.24 0.63,0.26 0.63,0.25 0.62,0.26 0.63,0.27 0.62,0.26 0.62,0.27 0.61,0.28 0.62,0.28 0.61,0.28 0.62,0.29 0.61,0.29 0.61,0.29 0.6,0.3 0.61,0.31 0.6,0.3 0.6,0.31 0.6,0.32 0.6,0.31 0.59,0.32 0.6,0.33 0.59,0.33 0.59,0.33 0.58,0.34 0.59,0.34 0.58,0.34 0.58,0.35 0.58,0.35 0.57,0.35 0.58,0.36 0.57,0.36 0.57,0.37 0.56,0.37 0.57,0.37 0.56,0.38 0.56,0.38 0.56,0.38 0.55,0.39 0.56,0.39 0.55,0.39 0.54,0.4 0.55,0.4 0.54,0.4 0.54,0.41 0.54,0.41 0.53,0.41 0.53,0.42 0.53,0.42 0.53,0.43 0.52,0.43 0.52,0.43 0.52,0.43 0.52,0.44 0.51,0.44 0.51,0.44 0.51,0.45 0.5,0.45 0.51,0.45 0.5,0.46 0.49,0.46 0.49,0.46 0.49,0.47 0.49,0.47 0.49,0.47 0.48,0.47 0.48,0.48 0.47,0.48 0.47,0.49 0.47,0.49 0.47,0.49 0.46,0.49 0.46,0.49 0.46,0.5 0.45,0.5 0.45,0.51 0.45,0.51 0.44,0.51 0.44,0.51 0.44,0.52 0.44,0.51 0.43,0.53 0.42,0.52 0.43,0.53 0.42,0.53 0.42,0.53 0.41,0.53 0.41,0.54 0.41,0.54 0.4,0.54 0.4,0.55 0.4,0.54 0.4,0.55 0.39,0.56 0.38,0.55 0.39,0.56 0.38,0.56 0.37,0.56 0.37,0.56 0.37,0.57 0.37,0.57 0.36,0.57 0.36,0.57 0.35,0.58 0.35,0.58 0.35,0.58 0.35,0.58 0.34,0.59 0.33,0.58 0.33,0.59 0.33,0.59 0.33,0.6 0.32,0.59 0.32,0.6 0.31,0.6 0.31,0.6 0.31,0.6 0.3,0.61 0.3,0.6 0.29,0.61 0.3,0.61 0.28,0.61 0.29,0.62 0.27,0.61 0.28,0.62 0.27,0.62 0.27,0.62 0.26,0.62 0.26,0.63 0.26,0.63 0.25,0.62 0.25,0.63 0.24,0.63 0.24,0.64 0.24,0.63 0.23,0.63 0.23,0.64 0.22,0.64 0.22,0.64 0.22,0.64 0.21,0.64 0.21,0.65 0.2,0.64 0.2,0.65 0.2,0.64 0.19,0.65 0.19,0.65 0.18,0.65 0.18,0.66 0.17,0.65 0.17,0.65 0.17,0.66 0.16,0.66 0.16,0.65 0.16,0.66 0.15,0.66 0.14,0.66 0.15,0.66 0.13,0.66 0.14,0.67 0.13,0.66 0.12,0.67 0.12,0.66 0.12,0.67 0.11,0.66 0.11,0.67 0.1,0.67 0.1,0.67 0.1,0.67 0.09,0.67 0.09,0.67 0.08,0.67 0.08,0.67 0.07,0.67 0.07,0.68 0.07,0.67 0.06,0.67 0.06,0.68 0.05,0.67 0.05,0.68 0.05,0.67 0.04,0.68 0.03,0.67 0.04,0.68 0.02,0.67 0.03,0.68 0.02,0.68 0.01,0.67 0.01,0.68 0.01,0.67 V 168 h -107.2 z" /><text
         y="-154.17999"
         x="708.15997"
         id="text168"
         style="font-style:normal;font-variant:normal;font-weight:600;font-stretch:normal;font-size:48px;font-family:'URW Gothic L';-inkscape-font-specification:'URW Gothic L, Semi-Bold';font-variant-ligatures:normal;font-variant-caps:normal;font-variant-numeric:normal;font-feature-settings:normal;text-align:start;writing-mode:lr-tb;text-anchor:start;fill:#ffffff;fill-opacity:1;fill-rule:nonzero;stroke:#000000;stroke-width:1.52474999;stroke-miterlimit:4;stroke-dasharray:none;stroke-opacity:1"
         transform="scale(1,-1)"><tspan
           style="font-style:normal;font-variant:normal;font-weight:600;font-stretch:normal;font-size:48px;font-family:'URW Gothic L';-inkscape-font-specification:'URW Gothic L, Semi-Bold';font-variant-ligatures:normal;font-variant-caps:normal;font-variant-numeric:normal;font-feature-settings:normal;text-align:start;writing-mode:lr-tb;text-anchor:start;fill:#ffffff;fill-opacity:1;stroke:#000000;stroke-width:1.52474999;stroke-miterlimit:4;stroke-dasharray:none;stroke-opacity:1"
           id="tspan166"
           y="-154.17999"
           x="708.15997">6</tspan></text>
</g><g
       id="g170"
       transform="translate(7.5504624,-116.27712)"><g
         id="g4898"
         transform="translate(-10.5,15.940484)"><text
           y="-744.53906"
           x="12.561782"
           id="text194"
           style="font-variant:normal;font-weight:normal;font-size:28.23685455px;font-family:ZapfDingbats;-inkscape-font-specification:ZapfDingbats;writing-mode:lr-tb;fill:#fb9a99;fill-opacity:1;fill-rule:nonzero;stroke:none;stroke-width:1.25832689"
           transform="scale(1,-1)"><tspan
             style="stroke-width:1.25832689"
             id="tspan192"
             y="-744.53906"
             x="12.561782"></tspan></text>
<text
           y="-743.98645"
           x="195.87312"
           id="text222"
           style="font-style:normal;font-variant:normal;font-weight:normal;font-stretch:normal;font-size:30px;line-height:0;font-family:'URW Gothic L';-inkscape-font-specification:'URW Gothic L, Normal';font-variant-ligatures:normal;font-variant-position:normal;font-variant-caps:normal;font-variant-numeric:normal;font-variant-alternates:normal;font-feature-settings:normal;text-indent:0;text-align:center;text-decoration:none;text-decoration-line:none;text-decoration-style:solid;text-decoration-color:#000000;letter-spacing:0px;word-spacing:0px;text-transform:none;writing-mode:lr-tb;direction:ltr;text-orientation:mixed;dominant-baseline:auto;baseline-shift:baseline;text-anchor:middle;white-space:normal;shape-padding:0;opacity:1;vector-effect:none;fill:#000000;fill-opacity:1;fill-rule:nonzero;stroke:none;stroke-width:0.75;stroke-linecap:butt;stroke-linejoin:miter;stroke-miterlimit:4;stroke-dasharray:none;stroke-dashoffset:0;stroke-opacity:1"
           transform="scale(1,-1)"><tspan
             style="font-style:normal;font-variant:normal;font-weight:normal;font-stretch:normal;font-size:30px;line-height:0;font-family:'URW Gothic L';-inkscape-font-specification:'URW Gothic L, Normal';font-variant-ligatures:normal;font-variant-position:normal;font-variant-caps:normal;font-variant-numeric:normal;font-variant-alternates:normal;font-feature-settings:normal;text-indent:0;text-align:center;text-decoration:none;text-decoration-line:none;text-decoration-style:solid;text-decoration-color:#000000;letter-spacing:0px;word-spacing:0px;text-transform:none;writing-mode:lr-tb;direction:ltr;text-orientation:mixed;dominant-baseline:auto;baseline-shift:baseline;text-anchor:middle;white-space:normal;shape-padding:0;vector-effect:none;fill:#000000;fill-opacity:1;stroke:none;stroke-width:0.75;stroke-linecap:butt;stroke-linejoin:miter;stroke-miterlimit:4;stroke-dasharray:none;stroke-dashoffset:0;stroke-opacity:1"
             id="tspan220"
             y="-743.98645"
             x="195.87312">intensive agriculture</tspan></text>
</g><text
         transform="matrix(1,0,0,-1,64.8,692.68)"
         style="font-variant:normal;font-weight:normal;font-size:36px;font-family:Helvetica;-inkscape-font-specification:Helvetica;writing-mode:lr-tb;fill:#000000;fill-opacity:1;fill-rule:nonzero;stroke:none"
         id="text226"><tspan
           x="0"
           y="0"
           id="tspan224" /></text>
<g
         id="g4905"
         transform="translate(-10.5,24.000007)"><text
           y="-680.9502"
           x="12.561782"
           id="text198"
           style="font-variant:normal;font-weight:normal;font-size:28.23685455px;font-family:ZapfDingbats;-inkscape-font-specification:ZapfDingbats;writing-mode:lr-tb;fill:#e31a1c;fill-opacity:1;fill-rule:nonzero;stroke:none;stroke-width:1.25832689"
           transform="scale(1,-1)"><tspan
             style="stroke-width:1.25832689"
             id="tspan196"
             y="-680.9502"
             x="12.561782"></tspan></text>
<text
           transform="scale(1,-1)"
           id="text4782"
           y="-695.39758"
           x="52.240627"
           style="font-style:normal;font-variant:normal;font-weight:normal;font-stretch:normal;font-size:30px;line-height:0;font-family:'URW Gothic L';-inkscape-font-specification:'URW Gothic L, Normal';font-variant-ligatures:normal;font-variant-caps:normal;font-variant-numeric:normal;font-feature-settings:normal;text-align:center;letter-spacing:0px;word-spacing:0px;writing-mode:lr-tb;text-anchor:middle;fill:#000000;fill-opacity:1;stroke:none;stroke-width:0.75"
           xml:space="preserve"><tspan
             style="font-style:normal;font-variant:normal;font-weight:normal;font-stretch:normal;font-size:30px;line-height:2ex;font-family:'URW Gothic L';-inkscape-font-specification:'URW Gothic L, Normal';font-variant-ligatures:normal;font-variant-caps:normal;font-variant-numeric:normal;font-feature-settings:normal;text-align:start;writing-mode:lr-tb;text-anchor:start;stroke-width:0.75"
             y="-695.39758"
             x="52.240627"
             id="tspan4780"
             sodipodi:role="line">intensive agriculture</tspan><tspan
             id="tspan4784"
             style="font-style:normal;font-variant:normal;font-weight:normal;font-stretch:normal;font-size:30px;line-height:2ex;font-family:'URW Gothic L';-inkscape-font-specification:'URW Gothic L, Normal';font-variant-ligatures:normal;font-variant-caps:normal;font-variant-numeric:normal;font-feature-settings:normal;text-align:start;writing-mode:lr-tb;text-anchor:start;stroke-width:0.75"
             y="-665.39758"
             x="52.240627"
             sodipodi:role="line">with irrigation</tspan></text>
</g><text
         xml:space="preserve"
         style="font-style:normal;font-variant:normal;font-weight:normal;font-stretch:normal;font-size:30px;line-height:0;font-family:'URW Gothic L';-inkscape-font-specification:'URW Gothic L, Normal';font-variant-ligatures:normal;font-variant-caps:normal;font-variant-numeric:normal;font-feature-settings:normal;text-align:center;letter-spacing:0px;word-spacing:0px;writing-mode:lr-tb;text-anchor:middle;fill:#000000;fill-opacity:1;stroke:none;stroke-width:0.75"
         x="70.974342"
         y="-599.50665"
         id="text4817"
         transform="scale(1,-1)"><tspan
           sodipodi:role="line"
           x="70.974342"
           y="-590.38898"
           style="stroke-width:0.75"
           id="tspan4819" /></text>
<g
         id="g4892"
         transform="translate(-10.5,29.698099)"><text
           y="-786.31079"
           x="12.561782"
           id="text190"
           style="font-variant:normal;font-weight:normal;font-size:28.23685455px;font-family:ZapfDingbats;-inkscape-font-specification:ZapfDingbats;writing-mode:lr-tb;fill:#33a02c;fill-opacity:1;fill-rule:nonzero;stroke:none;stroke-width:1.25832689"
           transform="scale(1,-1)"><tspan
             style="stroke-width:1.25832689"
             id="tspan188"
             y="-786.31079"
             x="12.561782"></tspan></text>
<text
           transform="scale(1,-1)"
           id="text4825"
           y="-800.75818"
           x="50.740627"
           style="font-style:normal;font-variant:normal;font-weight:normal;font-stretch:normal;font-size:30px;line-height:2ex;font-family:'URW Gothic L';-inkscape-font-specification:'URW Gothic L, Normal';font-variant-ligatures:normal;font-variant-caps:normal;font-variant-numeric:normal;font-feature-settings:normal;text-align:start;letter-spacing:0px;word-spacing:0px;writing-mode:lr-tb;text-anchor:start;fill:#000000;fill-opacity:1;stroke:none;stroke-width:0.75"
           xml:space="preserve"><tspan
             style="stroke-width:0.75"
             y="-800.75818"
             x="50.740627"
             id="tspan4823"
             sodipodi:role="line">horticulture</tspan><tspan
             id="tspan4827"
             style="stroke-width:0.75"
             y="-770.75818"
             x="50.740627"
             sodipodi:role="line">(vegetable gardens)</tspan></text>
</g><g
         id="g4885"
         transform="translate(-10.5,21.326992)"><text
           y="-865.21124"
           x="12.561782"
           id="text186"
           style="font-variant:normal;font-weight:normal;font-size:28.23685455px;font-family:ZapfDingbats;-inkscape-font-specification:ZapfDingbats;writing-mode:lr-tb;fill:#b2df8a;fill-opacity:1;fill-rule:nonzero;stroke:none;stroke-width:1.25832689"
           transform="scale(1,-1)"><tspan
             style="stroke-width:1.25832689"
             id="tspan184"
             y="-865.21124"
             x="12.561782"></tspan></text>
<text
           transform="scale(1,-1)"
           id="text4831"
           y="-879.65863"
           x="51.190628"
           style="font-style:normal;font-variant:normal;font-weight:normal;font-stretch:normal;font-size:30px;line-height:2ex;font-family:'URW Gothic L';-inkscape-font-specification:'URW Gothic L, Normal';font-variant-ligatures:normal;font-variant-caps:normal;font-variant-numeric:normal;font-feature-settings:normal;text-align:start;letter-spacing:0px;word-spacing:0px;writing-mode:lr-tb;text-anchor:start;fill:#000000;fill-opacity:1;stroke:none;stroke-width:0.75"
           xml:space="preserve"><tspan
             style="stroke-width:0.75"
             y="-879.65863"
             x="51.190628"
             id="tspan4829"
             sodipodi:role="line">extensive or shifting</tspan><tspan
             id="tspan4833"
             style="stroke-width:0.75"
             y="-849.65863"
             x="51.190628"
             sodipodi:role="line">agriculture</tspan></text>
</g><g
         id="g4878"
         transform="translate(-10.5,23.378782)"><text
           y="-918.68884"
           x="12.561782"
           id="text182"
           style="font-variant:normal;font-weight:normal;font-size:28.23685455px;font-family:ZapfDingbats;-inkscape-font-specification:ZapfDingbats;writing-mode:lr-tb;fill:#1f78b4;fill-opacity:1;fill-rule:nonzero;stroke:none;stroke-width:1.25832689"
           transform="scale(1,-1)"><tspan
             style="stroke-width:1.25832689"
             id="tspan180"
             y="-918.68884"
             x="12.561782"></tspan></text>
<text
           transform="scale(1,-1)"
           id="text4837"
           y="-918.13623"
           x="51.190628"
           style="font-style:normal;font-variant:normal;font-weight:normal;font-stretch:normal;font-size:30px;line-height:2ex;font-family:'URW Gothic L';-inkscape-font-specification:'URW Gothic L, Normal';font-variant-ligatures:normal;font-variant-caps:normal;font-variant-numeric:normal;font-feature-settings:normal;text-align:start;letter-spacing:0px;word-spacing:0px;writing-mode:lr-tb;text-anchor:start;fill:#000000;fill-opacity:1;stroke:none;stroke-width:0.75"
           xml:space="preserve"><tspan
             style="stroke-width:0.75"
             y="-918.13623"
             x="51.190628"
             id="tspan4835"
             sodipodi:role="line">casual agriculture</tspan></text>
</g><g
         id="g4872"
         transform="translate(-10.5,2.884976)"><text
           y="-976.68201"
           x="12.561782"
           id="text178"
           style="font-variant:normal;font-weight:normal;font-size:28.23685455px;font-family:ZapfDingbats;-inkscape-font-specification:ZapfDingbats;writing-mode:lr-tb;fill:#a6cee3;fill-opacity:1;fill-rule:nonzero;stroke:none;stroke-width:1.25832689"
           transform="scale(1,-1)"><tspan
             style="stroke-width:1.25832689"
             id="tspan176"
             y="-976.68201"
             x="12.561782"></tspan></text>
<text
           transform="scale(1,-1)"
           id="text4841"
           y="-973.09943"
           x="51.190628"
           style="font-style:normal;font-variant:normal;font-weight:normal;font-stretch:normal;font-size:30px;line-height:2ex;font-family:'URW Gothic L';-inkscape-font-specification:'URW Gothic L, Normal';font-variant-ligatures:normal;font-variant-caps:normal;font-variant-numeric:normal;font-feature-settings:normal;text-align:start;letter-spacing:0px;word-spacing:0px;writing-mode:lr-tb;text-anchor:start;fill:#000000;fill-opacity:1;stroke:none;stroke-width:0.75"
           xml:space="preserve"><tspan
             style="stroke-width:0.75"
             y="-973.09943"
             x="51.190628"
             id="tspan4839"
             sodipodi:role="line">absent</tspan></text>
</g><g
         id="g4866"
         transform="translate(-10.5,-2.4307249e-6)"><text
           y="-1028.7142"
           x="12.493701"
           id="text174"
           style="font-variant:normal;font-weight:normal;font-size:29.48176575px;font-family:ZapfDingbats;-inkscape-font-specification:ZapfDingbats;writing-mode:lr-tb;fill:#000000;fill-opacity:1;fill-rule:nonzero;stroke:none;stroke-width:1.31380415"
           transform="scale(1,-1)"><tspan
             style="stroke-width:1.31380415"
             id="tspan172"
             y="-1028.7142"
             x="12.493701"></tspan></text>
<text
           transform="scale(1,-1)"
           id="text4845"
           y="-1040.4537"
           x="51.190628"
           style="font-style:normal;font-variant:normal;font-weight:normal;font-stretch:normal;font-size:30px;line-height:2ex;font-family:'URW Gothic L';-inkscape-font-specification:'URW Gothic L, Normal';font-variant-ligatures:normal;font-variant-caps:normal;font-variant-numeric:normal;font-feature-settings:normal;text-align:start;letter-spacing:0px;word-spacing:0px;writing-mode:lr-tb;text-anchor:start;fill:#000000;fill-opacity:1;stroke:none;stroke-width:0.75"
           xml:space="preserve"><tspan
             style="stroke-width:0.75"
             y="-1040.4537"
             x="51.190628"
             id="tspan4843"
             sodipodi:role="line">data not</tspan><tspan
             id="tspan4847"
             style="stroke-width:0.75"
             y="-1010.4537"
             x="51.190628"
             sodipodi:role="line">available</tspan></text>
</g></g><text
       xml:space="preserve"
       style="font-style:normal;font-variant:normal;font-weight:normal;font-stretch:normal;font-size:30px;line-height:0;font-family:sans-serif;-inkscape-font-specification:'sans-serif, Normal';font-variant-ligatures:normal;font-variant-caps:normal;font-variant-numeric:normal;font-feature-settings:normal;text-align:center;letter-spacing:0px;word-spacing:0px;writing-mode:lr-tb;text-anchor:middle;fill:#000000;fill-opacity:1;stroke:none;stroke-width:0.75"
       x="5.3275909"
       y="-983.07019"
       id="text1045"
       transform="scale(1,-1)"><tspan
         sodipodi:role="line"
         x="5.3275909"
         y="-983.07019"
         style="font-style:normal;font-variant:normal;font-weight:600;font-stretch:normal;font-size:30px;line-height:2ex;font-family:'URW Gothic L';-inkscape-font-specification:'URW Gothic L, Semi-Bold';font-variant-ligatures:normal;font-variant-caps:normal;font-variant-numeric:normal;font-feature-settings:normal;text-align:start;writing-mode:lr-tb;text-anchor:start;stroke-width:0.75"
         id="tspan1047">Intensity of</tspan><tspan
         sodipodi:role="line"
         x="5.3275909"
         y="-953.07019"
         style="font-style:normal;font-variant:normal;font-weight:600;font-stretch:normal;font-size:30px;line-height:2ex;font-family:'URW Gothic L';-inkscape-font-specification:'URW Gothic L, Semi-Bold';font-variant-ligatures:normal;font-variant-caps:normal;font-variant-numeric:normal;font-feature-settings:normal;text-align:start;writing-mode:lr-tb;text-anchor:start;stroke-width:0.75"
         id="tspan1051">agriculture (v28)</tspan></text>
</g></svg>