<?xml version="1.0" encoding="UTF-8" standalone="no"?>
<!-- Created with Inkscape (http://www.inkscape.org/) -->

<svg
   xmlns:dc="http://purl.org/dc/elements/1.1/"
   xmlns:cc="http://creativecommons.org/ns#"
   xmlns:rdf="http://www.w3.org/1999/02/22-rdf-syntax-ns#"
   xmlns:svg="http://www.w3.org/2000/svg"
   xmlns="http://www.w3.org/2000/svg"
   xmlns:sodipodi="http://sodipodi.sourceforge.net/DTD/sodipodi-0.dtd"
   xmlns:inkscape="http://www.inkscape.org/namespaces/inkscape"
   version="1.1"
   id="svg2"
   xml:space="preserve"
   width="1071.5967"
   height="907.63898"
   viewBox="0 0 1071.5967 907.63898"
   sodipodi:docname="ward.D_k6_v30.svg"
   inkscape:version="0.92.4 (unknown)"><metadata
     id="metadata8"><rdf:RDF><cc:Work
         rdf:about=""><dc:format>image/svg+xml</dc:format><dc:type
           rdf:resource="http://purl.org/dc/dcmitype/StillImage" /><dc:title /></cc:Work></rdf:RDF></metadata><defs
     id="defs6"><clipPath
       clipPathUnits="userSpaceOnUse"
       id="clipPath20"><path
         d="m 285.12,672 h 289.44 v 336 H 285.12 Z"
         id="path18"
         inkscape:connector-curvature="0" /></clipPath><clipPath
       clipPathUnits="userSpaceOnUse"
       id="clipPath50"><path
         d="M 574.56,672 H 864 v 336 H 574.56 Z"
         id="path48"
         inkscape:connector-curvature="0" /></clipPath><clipPath
       clipPathUnits="userSpaceOnUse"
       id="clipPath80"><path
         d="M 285.12,336 H 574.56 V 672 H 285.12 Z"
         id="path78"
         inkscape:connector-curvature="0" /></clipPath><clipPath
       clipPathUnits="userSpaceOnUse"
       id="clipPath110"><path
         d="M 574.56,336 H 864 V 672 H 574.56 Z"
         id="path108"
         inkscape:connector-curvature="0" /></clipPath><clipPath
       clipPathUnits="userSpaceOnUse"
       id="clipPath140"><path
         d="M 285.12,0 H 574.56 V 336 H 285.12 Z"
         id="path138"
         inkscape:connector-curvature="0" /></clipPath><clipPath
       clipPathUnits="userSpaceOnUse"
       id="clipPath170"><path
         d="M 574.56,0 H 864 V 336 H 574.56 Z"
         id="path168"
         inkscape:connector-curvature="0" /></clipPath></defs><sodipodi:namedview
     pagecolor="#ffffff"
     bordercolor="#666666"
     borderopacity="1"
     objecttolerance="10"
     gridtolerance="10"
     guidetolerance="10"
     inkscape:pageopacity="0"
     inkscape:pageshadow="2"
     inkscape:window-width="1278"
     inkscape:window-height="1357"
     id="namedview4"
     showgrid="false"
     inkscape:zoom="0.70710678"
     inkscape:cx="195.07681"
     inkscape:cy="64.722137"
     inkscape:window-x="1280"
     inkscape:window-y="31"
     inkscape:window-maximized="0"
     inkscape:current-layer="g1199" /><g
     id="g10"
     inkscape:groupmode="layer"
     inkscape:label="ward.D_k6_v30"
     transform="matrix(1.3333333,0,0,-1.3333333,-6.3766439,1336.7056)"><g
   id="g12" /><path
   d="m 579.04,892.5 v 0.79 l -0.01,0.78 -0.02,0.79 -0.02,0.78 -0.02,0.79 -0.03,0.79 -0.04,0.78 -0.04,0.79 -0.05,0.78 -0.06,0.79 -106.91,-7.86 z"
   style="fill:#000000;fill-opacity:1;fill-rule:nonzero;stroke:none"
   id="path22"
   inkscape:connector-curvature="0" /><path
   d="m 578.75,900.36 -0.05,0.67 -0.06,0.68 -0.06,0.68 -0.06,0.68 -0.07,0.67 -0.07,0.68 -0.08,0.67 -0.08,0.68 -0.09,0.67 -0.09,0.68 -0.1,0.67 -0.1,0.67 -0.1,0.68 -0.11,0.67 -0.11,0.67 -0.11,0.67 -0.12,0.67 -0.13,0.66 -0.13,0.67 -0.13,0.67 -0.14,0.67 -0.14,0.66 -0.15,0.66 -0.15,0.67 -0.15,0.66 -0.16,0.66 -0.16,0.66 -0.17,0.66 -0.17,0.66 -0.17,0.66 -0.18,0.65 -0.19,0.66 -0.18,0.65 -0.2,0.65 -0.19,0.65 -0.2,0.65 -0.21,0.65 -0.2,0.65 -0.22,0.65 -0.21,0.64 -0.22,0.64 -0.23,0.65 -0.23,0.64 -0.23,0.64 -0.24,0.63 -0.24,0.64 -0.24,0.63 -0.25,0.64 -0.25,0.63 -0.26,0.63 -0.26,0.62 -0.27,0.63 -0.27,0.63 -0.27,0.62 -0.27,0.62 -0.29,0.62 -0.28,0.62 -0.29,0.61 -0.29,0.62 -0.3,0.61 -0.3,0.61 -0.3,0.61 -0.31,0.6 -0.31,0.61 -0.32,0.6 -0.32,0.6 -0.32,0.6 -0.33,0.6 -0.33,0.59 -0.33,0.59 -0.34,0.59 -0.34,0.59 -0.35,0.58 -0.35,0.59 -0.35,0.58 -0.36,0.58 -0.36,0.57 -0.36,0.58 -0.37,0.57 -0.37,0.57 -0.37,0.57 -0.38,0.56 -0.38,0.57 -0.39,0.56 -0.39,0.55 -0.39,0.56 -0.4,0.55 -0.4,0.55 -0.4,0.55 -0.41,0.54 -0.41,0.55 -0.41,0.54 -0.42,0.53 -0.42,0.54 -0.42,0.53 -0.43,0.53 -0.43,0.52 -0.43,0.53 -0.44,0.52 -0.44,0.52 -0.45,0.51 -0.44,0.52 -0.45,0.5 -0.46,0.51 -0.45,0.51 -0.46,0.5 -0.47,0.49 -0.46,0.5 -0.47,0.49 -0.47,0.49 -0.48,0.49 -0.48,0.48 -0.48,0.48 -0.48,0.48 -0.49,0.47 -0.49,0.47 -0.49,0.47 -0.5,0.46 -0.5,0.47 -0.5,0.45 -0.51,0.46 -0.51,0.45 -0.51,0.45 -0.51,0.44 -0.52,0.45 -0.52,0.44 -0.52,0.43 -0.53,0.43 -0.52,0.43 -0.53,0.43 -0.54,0.42 -0.53,0.42 -0.54,0.41 -0.54,0.42 -0.55,0.4 -0.54,0.41 -0.55,0.4 -0.55,0.4 -0.56,0.39 -0.55,0.39 -0.56,0.39 -0.56,0.39 -0.57,0.38 -0.56,0.37 -0.57,0.38 -0.57,0.36 -0.57,0.37 -0.58,0.36 -0.58,0.36 -0.58,0.36 -0.58,0.35 -0.58,0.35 -0.59,0.34 -0.59,0.34 -0.59,0.34 -0.59,0.33 -0.6,0.33 -0.6,0.32 -0.6,0.32 -0.6,0.32 -0.6,0.31 -0.61,0.31 -0.6,0.31 -0.61,0.3 -0.61,0.3 -0.62,0.29 -0.61,0.3 -0.62,0.28 -0.62,0.28 -0.62,0.28 -0.62,0.28 -0.62,0.27 -0.63,0.27 -0.63,0.26 -0.62,0.26 -0.63,0.25 -0.64,0.25 -0.63,0.25 -0.64,0.24 -0.63,0.24 -0.64,0.24 -0.64,0.23 -0.64,0.22 -0.64,0.23 -0.65,0.21 -34.12,-101.62 z"
   style="fill:#a6cee3;fill-opacity:1;fill-rule:nonzero;stroke:none"
   id="path24"
   inkscape:connector-curvature="0" /><path
   d="m 505.96,994.12 -0.64,0.22 -0.64,0.21 -0.65,0.2 -0.64,0.2 -0.65,0.2 -0.64,0.19 -0.65,0.19 -0.65,0.18 -0.65,0.19 -0.66,0.17 -0.65,0.17 -0.65,0.17 -0.66,0.17 -0.66,0.16 -0.65,0.15 -0.66,0.15 -0.66,0.15 -0.66,0.14 -0.66,0.14 -0.66,0.14 -0.67,0.13 -0.66,0.12 -0.66,0.13 -0.67,0.12 -0.67,0.11 -0.66,0.11 -0.67,0.1 -0.67,0.11 -0.67,0.09 -0.66,0.1 -0.67,0.09 -0.67,0.08 -0.68,0.08 -0.67,0.08 -0.67,0.07 -0.67,0.07 -0.67,0.06 -0.68,0.06 -0.67,0.05 -0.67,0.05 -0.68,0.05 -0.67,0.04 -0.68,0.04 -0.67,0.03 -0.68,0.03 -0.67,0.03 -0.68,0.02 -0.67,0.02 -0.68,0.01 -0.67,0.01 h -0.68 -0.67 l -0.68,-0.01 h -0.67 l -0.68,-0.02 -0.68,-0.01 -0.67,-0.03 -0.68,-0.02 -0.67,-0.03 -0.68,-0.04 -0.67,-0.04 -0.67,-0.04 -0.68,-0.05 -0.67,-0.05 -0.67,-0.05 -0.68,-0.06 -0.67,-0.07 -0.67,-0.07 -0.67,-0.07 -0.68,-0.08 -0.67,-0.08 -0.67,-0.08 -0.67,-0.09 -0.66,-0.1 -0.67,-0.09 -0.67,-0.11 -0.67,-0.1 -0.66,-0.11 -0.67,-0.12 -0.67,-0.12 -0.66,-0.12 -0.66,-0.13 -0.67,-0.13 -0.66,-0.13 -0.66,-0.14 -0.66,-0.15 -0.66,-0.15 -0.66,-0.15 -0.65,-0.16 -0.66,-0.16 -0.65,-0.16 -0.66,-0.17 -0.65,-0.17 -0.65,-0.18 -0.65,-0.18 -0.65,-0.19 -0.65,-0.19 -0.65,-0.19 -0.65,-0.2 -0.64,-0.2 -0.64,-0.2 -0.65,-0.21 -0.64,-0.22 -0.64,-0.22 -0.63,-0.22 -0.64,-0.22 -0.64,-0.23 -0.63,-0.24 -0.63,-0.23 -0.63,-0.25 -0.63,-0.24 -0.63,-0.25 -0.63,-0.26 -0.62,-0.25 -0.62,-0.27 -0.63,-0.26 -0.61,-0.27 -0.62,-0.27 -0.62,-0.28 -0.61,-0.28 -0.62,-0.29 -0.61,-0.29 -0.6,-0.29 -0.61,-0.29 -0.61,-0.31 -0.6,-0.3 -0.6,-0.31 -0.6,-0.31 -0.6,-0.31 -0.59,-0.32 -0.6,-0.33 -0.59,-0.32 -0.59,-0.33 -0.58,-0.34 -0.59,-0.34 -0.58,-0.34 -0.58,-0.34 -0.58,-0.35 -0.58,-0.35 -0.57,-0.36 -0.57,-0.36 -0.57,-0.36 -0.57,-0.37 -0.57,-0.37 -0.56,-0.37 -0.56,-0.38 -0.56,-0.38 -0.55,-0.39 -0.56,-0.39 -0.55,-0.39 -0.54,-0.39 -0.55,-0.4 -0.54,-0.4 -0.54,-0.41 -0.54,-0.41 -0.54,-0.41 -0.53,-0.41 -0.53,-0.42 -0.53,-0.42 -0.52,-0.43 -0.52,-0.43 -0.52,-0.43 -0.52,-0.44 -0.51,-0.43 -0.51,-0.45 -0.51,-0.44 -0.51,-0.45 -0.5,-0.45 -0.5,-0.46 -0.5,-0.45 -0.49,-0.46 -0.49,-0.47 -0.49,-0.46 -0.49,-0.47 -0.48,-0.48 -0.48,-0.47 -0.47,-0.48 -0.48,-0.49 -0.47,-0.48 -0.46,-0.49 -0.47,-0.49 -0.46,-0.49 -0.46,-0.5 -0.45,-0.5 -0.45,-0.5 -0.45,-0.51 -0.45,-0.51 -0.44,-0.51 -0.44,-0.51 -0.43,-0.52 -0.44,-0.52 -0.42,-0.52 -0.43,-0.52 -0.42,-0.53 -0.42,-0.53 -0.42,-0.53 -0.41,-0.54 -0.41,-0.54 -0.4,-0.54 -0.41,-0.54 -0.39,-0.54 -0.4,-0.55 -0.39,-0.55 -0.39,-0.56 -0.38,-0.55 -0.39,-0.56 -0.37,-0.56 -0.38,-0.56 -0.37,-0.57 -0.37,-0.56 -0.36,-0.57 -0.36,-0.57 -0.36,-0.58 -0.35,-0.57 -0.35,-0.58 -0.34,-0.58 -0.34,-0.59 -0.34,-0.58 -0.34,-0.59 -0.33,-0.59 -0.32,-0.59 -0.33,-0.59 -0.32,-0.6 -0.31,-0.59 -0.31,-0.6 -0.31,-0.6 -0.31,-0.61 -0.3,-0.6 -0.29,-0.61 -0.3,-0.61 -0.29,-0.61 -0.28,-0.61 -0.28,-0.62 -0.28,-0.61 -0.27,-0.62 -0.27,-0.62 -0.27,-0.62 -0.26,-0.62 -0.26,-0.63 -0.25,-0.62 -0.25,-0.63 -0.25,-0.63 -0.24,-0.63 -0.24,-0.63 -0.23,-0.64 -0.23,-0.63 -0.23,-0.64 -0.22,-0.64 -0.22,-0.64 -0.21,-0.64 -0.21,-0.64 -0.21,-0.64 -0.2,-0.65 -0.2,-0.64 -0.19,-0.65 -0.19,-0.65 -0.19,-0.65 -0.18,-0.65 -0.18,-0.65 -0.17,-0.65 -0.17,-0.66 -0.16,-0.65 -0.17,-0.66 -0.15,-0.66 -0.15,-0.65 -0.15,-0.66 -0.15,-0.66 -0.14,-0.66 -0.13,-0.67 -0.14,-0.66 -0.12,-0.66 -0.13,-0.67 -0.12,-0.66 -0.11,-0.67 -0.11,-0.66 -0.11,-0.67 -0.1,-0.67 -0.1,-0.67 -0.09,-0.67 -0.09,-0.66 -0.09,-0.67 -0.08,-0.68 -0.08,-0.67 -0.07,-0.67 -0.07,-0.67 -0.06,-0.67 -0.06,-0.68 -0.06,-0.67 -0.05,-0.67 -0.05,-0.68 -0.04,-0.67 -0.04,-0.68 -0.04,-0.67 -0.03,-0.67 -0.02,-0.68 -0.02,-0.67 -0.02,-0.68 -0.01,-0.68 -0.01,-0.67 -0.01,-0.68 v -0.67 -0.68 l 0.01,-0.67 0.01,-0.68 0.02,-0.67 0.02,-0.68 0.03,-0.67 0.02,-0.68 0.04,-0.67 0.04,-0.68 0.04,-0.67 0.04,-0.68 0.05,-0.67 0.06,-0.67 0.06,-0.68 0.06,-0.67 0.07,-0.67 0.07,-0.67 0.08,-0.68 0.08,-0.67 0.08,-0.67 0.09,-0.67 0.09,-0.67 0.1,-0.66 0.1,-0.67 0.1,-0.67 0.11,-0.67 0.12,-0.66 0.12,-0.67 0.12,-0.66 0.12,-0.66 0.13,-0.67 0.14,-0.66 0.14,-0.66 0.14,-0.66 0.15,-0.66 0.15,-0.66 0.15,-0.66 0.16,-0.65 0.17,-0.66 0.17,-0.65 0.17,-0.66 0.17,-0.65 0.18,-0.65 0.19,-0.65 0.19,-0.65 0.19,-0.65 0.2,-0.64 0.2,-0.65 0.2,-0.64 0.21,-0.64 0.21,-0.64 0.22,-0.64 0.22,-0.64 0.23,-0.64 0.22,-0.64 0.24,-0.63 0.23,-0.63 0.24,-0.63 0.25,-0.63 0.25,-0.63 0.25,-0.63 0.26,-0.62 0.26,-0.63 0.26,-0.62 0.27,-0.62 0.27,-0.62 0.28,-0.61 0.28,-0.62 0.28,-0.61 0.29,-0.61 0.29,-0.61 0.3,-0.61 0.3,-0.6 0.3,-0.61 0.31,-0.6 0.31,-0.6 0.31,-0.6 0.32,-0.59 0.32,-0.6 0.33,-0.59 0.33,-0.59 0.33,-0.59 0.34,-0.58 0.34,-0.59 0.34,-0.58 0.35,-0.58 0.35,-0.57 0.36,-0.58 0.36,-0.57 0.36,-0.57 0.37,-0.57 0.37,-0.56 0.37,-0.57 0.38,-0.56 0.38,-0.56 0.38,-0.55 0.39,-0.56 0.39,-0.55 0.39,-0.55 0.4,-0.54 0.4,-0.54 0.4,-0.55 0.41,-0.53 0.41,-0.54 0.42,-0.53 0.42,-0.53 0.42,-0.53 0.42,-0.53 0.43,-0.52 0.43,-0.52 0.44,-0.52 0.43,-0.51 0.44,-0.52 0.45,-0.5 0.45,-0.51 0.45,-0.5 0.45,-0.5 0.46,-0.5 0.46,-0.5 0.46,-0.49 0.47,-0.49 0.47,-0.48 0.47,-0.49 0.47,-0.48 0.48,-0.47 0.48,-0.48 0.49,-0.47 0.48,-0.47 0.49,-0.46 0.5,-0.46 0.49,-0.46 0.5,-0.46 0.5,-0.45 0.51,-0.45 0.51,-0.44 0.51,-0.45 0.51,-0.44 0.52,-0.43 0.51,-0.44 0.53,-0.43 0.52,-0.42 0.53,-0.43 0.53,-0.42 0.53,-0.41 0.53,-0.42 0.54,-0.41 0.54,-0.4 0.54,-0.4 0.55,-0.4 0.54,-0.4 0.55,-0.39 0.55,-0.39 0.56,-0.39 0.56,-0.38 0.56,-0.38 0.56,-0.37 0.56,-0.37 0.57,-0.37 0.57,-0.37 0.57,-0.36 0.57,-0.36 0.58,-0.35 0.58,-0.35 0.58,-0.35 0.58,-0.34 0.58,-0.34 0.59,-0.33 0.59,-0.33 0.59,-0.33 0.59,-0.33 0.6,-0.32 0.59,-0.31 0.6,-0.32 0.6,-0.3 0.6,-0.31 0.61,-0.3 0.61,-0.3 0.6,-0.29 0.61,-0.29 0.62,-0.29 0.61,-0.28 0.62,-0.28 0.61,-0.27 0.62,-0.28 0.62,-0.26 0.62,-0.27 0.63,-0.25 0.62,-0.26 0.63,-0.25 0.63,-0.25 0.63,-0.24 0.63,-0.24 0.64,-0.23 0.63,-0.24 0.64,-0.22 0.63,-0.23 0.64,-0.21 0.64,-0.22 0.65,-0.21 0.64,-0.21 0.64,-0.2 0.65,-0.2 0.65,-0.19 0.64,-0.2 0.65,-0.18 0.65,-0.18 0.65,-0.18 0.66,-0.18 0.65,-0.17 0.66,-0.16 0.65,-0.17 0.66,-0.15 0.66,-0.16 0.66,-0.15 0.66,-0.14 0.66,-0.14 0.66,-0.14 0.66,-0.13 0.66,-0.13 0.67,-0.13 0.66,-0.12 0.67,-0.11 0.66,-0.11 0.67,-0.11 0.67,-0.11 0.67,-0.09 0.67,-0.1 0.66,-0.09 0.67,-0.09 0.68,-0.08 0.67,-0.08 0.67,-0.07 0.67,-0.07 0.67,-0.07 0.68,-0.06 0.67,-0.06 0.67,-0.05 0.68,-0.05 0.67,-0.04 0.67,-0.04 0.68,-0.04 0.67,-0.03 0.68,-0.03 0.67,-0.02 0.68,-0.02 0.67,-0.01 1.97,107.18 z"
   style="fill:#1f78b4;fill-opacity:1;fill-rule:nonzero;stroke:none"
   id="path26"
   inkscape:connector-curvature="0" /><path
   d="m 469.87,785.32 0.68,-0.01 0.68,-0.01 h 0.68 0.68 l 0.68,0.01 0.68,0.01 0.68,0.02 0.68,0.02 0.68,0.02 0.68,0.03 0.68,0.03 0.68,0.04 0.68,0.04 0.68,0.05 0.68,0.05 0.68,0.05 0.67,0.06 0.68,0.06 0.68,0.07 0.67,0.07 0.68,0.08 0.67,0.08 0.68,0.08 0.67,0.09 0.68,0.09 0.67,0.1 0.67,0.1 0.67,0.11 0.68,0.11 0.67,0.11 0.67,0.12 0.66,0.12 0.67,0.13 0.67,0.13 0.67,0.14 0.66,0.14 0.67,0.14 0.66,0.15 0.66,0.15 0.67,0.16 0.66,0.16 0.66,0.16 0.65,0.17 0.66,0.18 0.66,0.17 0.65,0.18 0.66,0.19 0.65,0.19 0.65,0.19 0.65,0.2 0.65,0.2 0.65,0.21 0.65,0.21 0.64,0.22 0.65,0.21 0.64,0.23 0.64,0.22 0.64,0.24 0.64,0.23 0.64,0.24 0.63,0.24 0.63,0.25 0.64,0.25 0.63,0.26 0.63,0.25 0.62,0.27 0.63,0.27 0.62,0.27 0.62,0.27 0.62,0.28 0.62,0.28 0.62,0.29 0.61,0.29 0.62,0.29 0.61,0.3 0.61,0.31 0.61,0.3 0.6,0.31 0.6,0.32 0.61,0.31 0.59,0.32 0.6,0.33 0.6,0.33 0.59,0.33 0.59,0.34 0.59,0.34 0.59,0.34 0.58,0.35 0.58,0.35 0.58,0.36 0.58,0.36 0.58,0.36 0.57,0.36 0.57,0.37 0.57,0.38 0.56,0.38 0.57,0.38 0.56,0.38 0.56,0.39 0.55,0.39 0.56,0.39 0.55,0.4 0.55,0.4 0.54,0.41 0.55,0.41 0.54,0.41 0.54,0.41 0.53,0.42 0.54,0.43 0.53,0.42 0.52,0.43 0.53,0.43 0.52,0.44 0.52,0.44 0.52,0.44 0.51,0.45 0.51,0.44 0.51,0.46 0.51,0.45 0.5,0.46 0.5,0.46 0.49,0.47 0.5,0.47 0.49,0.47 0.49,0.47 0.48,0.48 0.48,0.48 0.48,0.48 0.48,0.49 0.47,0.49 0.47,0.49 0.46,0.49 0.47,0.5 0.45,0.5 0.46,0.51 0.45,0.51 0.45,0.51 0.45,0.51 0.45,0.51 0.44,0.52 0.43,0.52 0.44,0.53 0.43,0.52 0.42,0.53 0.43,0.53 0.42,0.54 0.41,0.54 0.42,0.54 0.41,0.54 0.4,0.54 0.41,0.55 0.4,0.55 0.39,0.56 0.4,0.55 0.38,0.56 0.39,0.56 0.38,0.56 0.38,0.57 -89.27,59.35 z"
   style="fill:#b2df8a;fill-opacity:1;fill-rule:nonzero;stroke:none"
   id="path28"
   inkscape:connector-curvature="0" /><path
   d="m 561.11,833.15 v 0 l -89.27,59.35 z"
   style="fill:#33a02c;fill-opacity:1;fill-rule:nonzero;stroke:none"
   id="path30"
   inkscape:connector-curvature="0" /><path
   d="m 561.11,833.15 v 0 l -89.27,59.35 z"
   style="fill:#fb9a99;fill-opacity:1;fill-rule:nonzero;stroke:none"
   id="path32"
   inkscape:connector-curvature="0" /><path
   d="m 561.11,833.15 v 0 l -89.27,59.35 z"
   style="fill:#e31a1c;fill-opacity:1;fill-rule:nonzero;stroke:none"
   id="path34"
   inkscape:connector-curvature="0" /><path
   d="m 561.11,833.15 0.38,0.57 0.37,0.57 0.37,0.58 0.36,0.57 0.37,0.58 0.36,0.59 0.35,0.58 0.35,0.59 0.35,0.59 0.34,0.59 0.34,0.59 0.34,0.6 0.33,0.59 0.33,0.6 0.32,0.61 0.32,0.6 0.32,0.61 0.31,0.6 0.31,0.61 0.3,0.62 0.31,0.61 0.29,0.62 0.3,0.61 0.29,0.62 0.28,0.62 0.28,0.63 0.28,0.62 0.27,0.63 0.27,0.63 0.27,0.63 0.26,0.63 0.26,0.63 0.25,0.64 0.25,0.63 0.24,0.64 0.25,0.64 0.23,0.64 0.24,0.65 0.22,0.64 0.23,0.65 0.22,0.64 0.22,0.65 0.21,0.65 0.21,0.65 0.2,0.66 0.2,0.65 0.2,0.65 0.19,0.66 0.18,0.66 0.19,0.66 0.18,0.66 0.17,0.66 0.17,0.66 0.17,0.66 0.16,0.67 0.16,0.66 0.15,0.67 0.15,0.67 0.14,0.66 0.15,0.67 0.13,0.67 0.13,0.67 0.13,0.68 0.13,0.67 0.11,0.67 0.12,0.68 0.11,0.67 0.11,0.68 0.1,0.67 0.1,0.68 0.09,0.68 0.09,0.67 0.08,0.68 0.08,0.68 0.08,0.68 0.07,0.68 0.07,0.68 0.06,0.68 0.06,0.68 0.06,0.68 0.05,0.69 0.04,0.68 0.04,0.68 0.04,0.68 0.03,0.69 0.03,0.68 0.03,0.68 0.02,0.69 0.01,0.68 0.01,0.68 0.01,0.69 v 0.68 h -107.2 z"
   style="fill:#fdbf6f;fill-opacity:1;fill-rule:nonzero;stroke:none"
   id="path36"
   inkscape:connector-curvature="0" /><path
   d="m 579.04,892.5 v 0 h -107.2 z"
   style="fill:#ff7f00;fill-opacity:1;fill-rule:nonzero;stroke:none"
   id="path38"
   inkscape:connector-curvature="0" /><text
   transform="scale(1,-1)"
   style="font-style:normal;font-variant:normal;font-weight:600;font-stretch:normal;font-size:48px;font-family:'URW Gothic L';-inkscape-font-specification:'URW Gothic L, Semi-Bold';font-variant-ligatures:normal;font-variant-caps:normal;font-variant-numeric:normal;font-feature-settings:normal;text-align:start;writing-mode:lr-tb;text-anchor:start;fill:#ffffff;fill-opacity:1;fill-rule:nonzero;stroke:#000000;stroke-width:1.52474999;stroke-miterlimit:4;stroke-dasharray:none;stroke-opacity:1"
   id="text42"
   x="460.72"
   y="-878.29999"><tspan
     x="460.72"
     y="-878.29999"
     id="tspan40"
     style="font-style:normal;font-variant:normal;font-weight:600;font-stretch:normal;font-size:48px;font-family:'URW Gothic L';-inkscape-font-specification:'URW Gothic L, Semi-Bold';font-variant-ligatures:normal;font-variant-caps:normal;font-variant-numeric:normal;font-feature-settings:normal;text-align:start;writing-mode:lr-tb;text-anchor:start;fill:#ffffff;fill-opacity:1;stroke:#000000;stroke-width:1.52474999;stroke-miterlimit:4;stroke-dasharray:none;stroke-opacity:1">1</tspan></text>

<path
   d="m 808.48,892.5 v 0.69 l -0.01,0.69 -0.01,0.69 -0.02,0.69 -0.02,0.69 -0.02,0.69 -0.03,0.69 -0.03,0.69 -0.04,0.69 -0.04,0.69 -0.05,0.69 -0.05,0.69 -0.06,0.69 -0.06,0.69 -0.06,0.69 -0.07,0.68 -0.07,0.69 -0.08,0.69 -0.08,0.68 -0.09,0.69 -0.09,0.68 -0.1,0.69 -0.1,0.68 -0.1,0.68 -0.11,0.69 -0.11,0.68 -0.12,0.68 -0.12,0.68 -0.13,0.68 -0.13,0.68 -0.13,0.67 -0.14,0.68 -0.14,0.68 -0.15,0.67 -0.16,0.67 -0.15,0.68 -0.16,0.67 -0.17,0.67 -0.17,0.67 -0.17,0.67 -0.18,0.67 -0.18,0.66 -0.19,0.67 -0.19,0.66 -0.2,0.66 -0.2,0.66 -0.2,0.66 -0.21,0.66 -0.21,0.66 -0.22,0.66 -0.22,0.65 -0.22,0.65 -0.23,0.66 -0.24,0.65 -0.23,0.64 -0.25,0.65 -0.24,0.65 -0.25,0.64 -0.26,0.64 -0.25,0.64 -0.27,0.64 -0.26,0.64 -0.27,0.64 -0.28,0.63 -0.28,0.63 -97.93,-43.6 z"
   style="fill:#000000;fill-opacity:1;fill-rule:nonzero;stroke:none"
   id="path52"
   inkscape:connector-curvature="0" /><path
   d="m 799.21,936.1 -0.29,0.64 -0.29,0.65 -0.3,0.63 -0.3,0.64 -0.3,0.64 -0.31,0.63 -0.32,0.63 -0.31,0.63 -0.33,0.62 -0.32,0.63 -0.33,0.62 -0.34,0.62 -0.33,0.62 -0.35,0.61 -0.34,0.62 -0.35,0.61 -0.36,0.61 -0.36,0.6 -0.36,0.61 -0.37,0.6 -0.37,0.6 -0.37,0.59 -0.38,0.6 -0.38,0.59 -0.39,0.59 -0.39,0.59 -0.39,0.58 -0.4,0.58 -0.4,0.58 -0.4,0.58 -0.41,0.57 -0.42,0.57 -0.41,0.57 -0.42,0.57 -85.84,-64.22 z"
   style="fill:#a6cee3;fill-opacity:1;fill-rule:nonzero;stroke:none"
   id="path54"
   inkscape:connector-curvature="0" /><path
   d="m 787.12,956.72 -0.42,0.55 -0.42,0.55 -0.42,0.54 -0.43,0.55 -0.42,0.54 -0.44,0.54 -0.43,0.53 -0.44,0.53 -0.45,0.53 -0.45,0.53 -0.45,0.52 -0.45,0.52 -0.46,0.52 -0.46,0.52 -0.46,0.51 -0.47,0.51 -0.47,0.51 -0.47,0.5 -0.48,0.5 -0.48,0.5 -0.48,0.49 -0.49,0.49 -0.49,0.49 -0.49,0.48 -0.49,0.48 -0.5,0.48 -0.5,0.48 -0.51,0.47 -0.51,0.47 -0.51,0.46 -0.51,0.46 -0.52,0.46 -0.52,0.46 -0.52,0.45 -0.53,0.45 -0.53,0.44 -0.53,0.44 -0.53,0.44 -0.54,0.44 -0.54,0.43 -0.54,0.42 -0.55,0.43 -0.54,0.42 -0.55,0.42 -0.56,0.41 -0.55,0.41 -0.56,0.41 -0.56,0.4 -0.57,0.4 -0.56,0.39 -0.57,0.39 -0.57,0.39 -0.58,0.39 -0.57,0.38 -0.58,0.38 -0.59,0.37 -0.58,0.37 -0.58,0.36 -0.59,0.37 -0.59,0.35 -0.6,0.36 -0.59,0.35 -0.6,0.35 -0.6,0.34 -0.6,0.34 -52.3,-93.58 z"
   style="fill:#1f78b4;fill-opacity:1;fill-rule:nonzero;stroke:none"
   id="path56"
   inkscape:connector-curvature="0" /><path
   d="m 753.58,986.08 -0.6,0.33 -0.6,0.33 -0.6,0.32 -0.6,0.32 -0.61,0.31 -0.6,0.32 -0.61,0.3 -0.61,0.31 -0.62,0.3 -0.61,0.29 -0.62,0.3 -0.61,0.29 -0.63,0.28 -0.62,0.28 -0.62,0.28 -0.63,0.27 -0.62,0.27 -0.63,0.26 -0.63,0.26 -0.64,0.26 -0.63,0.25 -0.63,0.25 -0.64,0.25 -0.64,0.24 -0.64,0.23 -0.64,0.23 -0.65,0.23 -0.64,0.23 -0.65,0.22 -0.64,0.21 -0.65,0.21 -0.65,0.21 -0.65,0.21 -0.66,0.19 -0.65,0.2 -0.65,0.19 -0.66,0.19 -0.66,0.18 -0.66,0.18 -0.66,0.17 -0.66,0.17 -0.66,0.17 -0.66,0.16 -0.67,0.16 -0.66,0.15 -0.67,0.15 -0.66,0.14 -0.67,0.14 -0.67,0.14 -0.67,0.13 -0.67,0.13 -0.67,0.12 -0.67,0.12 -0.68,0.12 -0.67,0.11 -0.67,0.1 -0.68,0.11 -0.67,0.09 -0.68,0.1 -0.68,0.09 -0.67,0.08 -0.68,0.08 -0.68,0.08 -0.68,0.07 -0.68,0.07 -0.68,0.06 -0.68,0.06 -0.68,0.05 -0.68,0.05 -0.68,0.05 -0.68,0.04 -0.68,0.04 -0.68,0.03 -0.68,0.03 -0.68,0.02 -0.69,0.02 -0.68,0.02 -0.68,0.01 -0.68,0.01 h -0.69 -0.68 l -0.68,-0.01 -0.68,-0.01 -0.69,-0.01 -0.68,-0.02 -0.68,-0.03 -0.68,-0.02 -0.68,-0.04 -0.68,-0.03 -0.69,-0.04 -0.68,-0.05 -0.68,-0.05 -0.68,-0.05 -0.68,-0.06 -0.68,-0.06 -0.68,-0.07 -0.67,-0.07 -0.68,-0.08 -0.68,-0.08 -0.68,-0.08 -0.67,-0.09 -0.68,-0.09 -0.67,-0.1 -0.68,-0.1 -0.67,-0.11 -0.68,-0.11 -0.67,-0.11 -0.67,-0.12 -0.67,-0.12 -0.67,-0.13 -0.67,-0.13 -0.67,-0.14 -0.67,-0.14 -0.67,-0.14 -0.66,-0.15 -0.67,-0.15 -0.66,-0.16 -0.66,-0.16 -0.67,-0.17 -0.66,-0.16 -0.66,-0.18 -0.66,-0.18 -0.65,-0.18 -0.66,-0.18 -0.66,-0.2 -0.65,-0.19 -0.65,-0.2 -0.65,-0.2 -0.65,-0.21 -0.65,-0.21 -0.65,-0.22 -0.65,-0.21 -0.64,-0.23 -0.64,-0.23 -0.65,-0.23 -0.64,-0.23 37.37,-100.48 z"
   style="fill:#b2df8a;fill-opacity:1;fill-rule:nonzero;stroke:none"
   id="path58"
   inkscape:connector-curvature="0" /><path
   d="m 663.91,992.98 -0.67,-0.26 -0.67,-0.25 -0.67,-0.26 -0.67,-0.27 -0.66,-0.27 -0.67,-0.28 -0.66,-0.28 -0.66,-0.28 -0.66,-0.29 -0.65,-0.29 -0.66,-0.3 -0.65,-0.3 -0.65,-0.31 -0.65,-0.31 -0.64,-0.31 -0.65,-0.32 -0.64,-0.32 -0.64,-0.33 -0.63,-0.33 -0.64,-0.34 -0.63,-0.34 -0.63,-0.34 -0.63,-0.35 -0.63,-0.35 -0.62,-0.36 53.6,-92.84 z"
   style="fill:#33a02c;fill-opacity:1;fill-rule:nonzero;stroke:none"
   id="path60"
   inkscape:connector-curvature="0" /><path
   d="m 647.68,985.34 -0.59,-0.35 -0.59,-0.35 -0.59,-0.35 -0.59,-0.35 -0.58,-0.36 -0.58,-0.37 -0.58,-0.37 -0.58,-0.37 -0.58,-0.37 -0.57,-0.38 -0.57,-0.38 -0.56,-0.39 -0.57,-0.39 -0.56,-0.39 -0.56,-0.4 -0.56,-0.4 -0.55,-0.4 -0.56,-0.41 -0.54,-0.41 -0.55,-0.41 -0.55,-0.42 -0.54,-0.42 -0.54,-0.43 -0.53,-0.42 -0.54,-0.44 -0.53,-0.43 -0.52,-0.44 -0.53,-0.44 -0.52,-0.45 -0.52,-0.45 -0.52,-0.45 -0.51,-0.45 -0.51,-0.46 -0.51,-0.46 -0.5,-0.47 -0.5,-0.46 -0.5,-0.48 -0.5,-0.47 -0.49,-0.48 -0.49,-0.48 -0.49,-0.48 -0.48,-0.49 -0.48,-0.49 -0.48,-0.49 -0.47,-0.5 -0.47,-0.5 -0.47,-0.5 -0.46,-0.5 -0.46,-0.51 -0.46,-0.51 -0.46,-0.52 -0.45,-0.51 -0.44,-0.52 -0.45,-0.53 -0.44,-0.52 -0.44,-0.53 -0.43,-0.53 -0.43,-0.54 -0.43,-0.53 -0.42,-0.54 -0.43,-0.54 -0.41,-0.55 -0.42,-0.54 -0.41,-0.55 -0.4,-0.56 -0.41,-0.55 -0.4,-0.56 -0.39,-0.56 -0.39,-0.56 -0.39,-0.57 -0.39,-0.57 -0.38,-0.57 -0.38,-0.57 -0.37,-0.57 -0.37,-0.58 -0.37,-0.58 -0.36,-0.58 -0.36,-0.59 -0.36,-0.58 -0.35,-0.59 -0.35,-0.59 -0.34,-0.6 -0.34,-0.59 -0.34,-0.6 -0.33,-0.6 -0.33,-0.6 -0.32,-0.61 -0.33,-0.6 -0.31,-0.61 -0.32,-0.61 -0.31,-0.61 -0.3,-0.62 -0.3,-0.61 -0.3,-0.62 -0.29,-0.62 -0.29,-0.62 97.31,-44.97 z"
   style="fill:#fb9a99;fill-opacity:1;fill-rule:nonzero;stroke:none"
   id="path62"
   inkscape:connector-curvature="0" /><path
   d="m 603.97,937.47 -0.29,-0.62 -0.28,-0.63 -0.27,-0.62 -0.28,-0.62 -0.26,-0.63 -0.27,-0.63 -0.26,-0.63 -0.25,-0.63 -0.26,-0.63 -0.24,-0.64 -0.25,-0.64 -0.24,-0.63 -0.23,-0.64 -0.24,-0.65 -0.22,-0.64 -0.23,-0.64 -0.22,-0.65 -0.21,-0.64 -0.21,-0.65 -0.21,-0.65 -0.2,-0.65 -0.2,-0.65 -0.2,-0.66 -0.19,-0.65 -0.19,-0.66 -0.18,-0.65 -0.18,-0.66 -0.17,-0.66 -0.17,-0.66 -0.16,-0.66 -0.17,-0.67 -0.15,-0.66 -0.16,-0.66 -0.14,-0.67 -0.15,-0.66 -0.14,-0.67 -0.13,-0.67 -0.14,-0.67 -0.12,-0.67 -0.13,-0.67 -0.12,-0.67 -0.11,-0.67 -0.11,-0.68 -0.11,-0.67 -0.1,-0.67 -0.1,-0.68 -0.09,-0.67 -0.09,-0.68 -0.08,-0.67 -0.08,-0.68 -0.08,-0.68 -0.07,-0.68 -0.07,-0.68 -0.06,-0.67 -0.06,-0.68 -0.05,-0.68 -0.05,-0.68 -0.05,-0.68 -0.04,-0.68 -0.04,-0.68 -0.03,-0.69 -0.03,-0.68 -0.02,-0.68 -0.02,-0.68 -0.02,-0.68 -0.01,-0.68 -0.01,-0.68 v -0.69 -0.68 l 0.01,-0.68 0.01,-0.68 0.01,-0.68 0.02,-0.68 0.03,-0.68 0.02,-0.69 0.04,-0.68 0.03,-0.68 0.04,-0.68 0.05,-0.68 0.05,-0.68 0.05,-0.68 0.06,-0.68 0.06,-0.68 0.07,-0.67 0.07,-0.68 0.08,-0.68 0.08,-0.68 0.08,-0.67 0.09,-0.68 0.09,-0.67 0.1,-0.68 0.1,-0.67 0.1,-0.68 0.11,-0.67 0.12,-0.67 0.12,-0.67 0.12,-0.67 0.13,-0.67 0.13,-0.67 0.13,-0.67 0.14,-0.67 104.86,22.29 z"
   style="fill:#e31a1c;fill-opacity:1;fill-rule:nonzero;stroke:none"
   id="path64"
   inkscape:connector-curvature="0" /><path
   d="m 596.42,870.21 0.15,-0.66 0.14,-0.66 0.15,-0.66 0.16,-0.65 0.16,-0.66 0.16,-0.65 0.17,-0.66 0.17,-0.65 0.17,-0.65 0.18,-0.66 0.19,-0.65 0.19,-0.64 0.19,-0.65 0.19,-0.65 0.2,-0.64 0.21,-0.65 0.21,-0.64 0.21,-0.64 0.21,-0.64 0.22,-0.64 0.23,-0.64 0.23,-0.63 0.23,-0.63 0.24,-0.64 0.24,-0.63 0.24,-0.63 0.25,-0.63 0.25,-0.62 0.26,-0.63 0.26,-0.62 0.26,-0.62 0.27,-0.62 0.27,-0.62 0.28,-0.62 0.28,-0.61 0.28,-0.62 0.29,-0.61 0.29,-0.61 0.29,-0.6 0.3,-0.61 0.3,-0.6 0.31,-0.6 0.31,-0.6 0.31,-0.6 0.32,-0.6 0.32,-0.59 0.33,-0.59 0.33,-0.59 0.33,-0.59 0.34,-0.59 0.34,-0.58 0.34,-0.58 0.35,-0.58 0.35,-0.58 0.35,-0.57 0.36,-0.58 0.36,-0.57 0.37,-0.56 0.37,-0.57 0.37,-0.56 0.38,-0.56 0.38,-0.56 0.38,-0.56 0.39,-0.55 0.39,-0.55 0.39,-0.55 0.4,-0.55 0.4,-0.54 0.4,-0.54 0.41,-0.54 0.41,-0.54 0.41,-0.53 0.42,-0.53 0.42,-0.53 0.42,-0.53 0.43,-0.52 0.43,-0.52 0.44,-0.52 0.43,-0.51 0.44,-0.51 0.45,-0.51 0.44,-0.51 0.45,-0.5 0.46,-0.5 0.45,-0.5 0.46,-0.5 0.47,-0.49 0.46,-0.49 0.47,-0.49 0.47,-0.48 0.48,-0.48 0.47,-0.48 0.48,-0.47 0.49,-0.47 0.48,-0.47 0.49,-0.47 0.5,-0.46 0.49,-0.46 0.5,-0.45 0.5,-0.45 0.51,-0.45 0.5,-0.45 0.51,-0.44 0.52,-0.44 0.51,-0.44 0.52,-0.43 0.52,-0.43 0.52,-0.43 0.53,-0.42 0.53,-0.42 0.53,-0.42 0.53,-0.41 0.54,-0.41 0.54,-0.41 0.54,-0.4 0.54,-0.4 0.55,-0.4 0.55,-0.39 0.55,-0.39 0.56,-0.39 0.55,-0.38 0.56,-0.38 0.56,-0.38 0.57,-0.37 0.56,-0.37 0.57,-0.36 0.57,-0.36 0.57,-0.36 0.58,-0.35 0.58,-0.36 0.58,-0.34 0.58,-0.34 0.58,-0.34 0.59,-0.34 0.59,-0.33 0.59,-0.33 0.59,-0.33 0.59,-0.32 0.6,-0.31 0.6,-0.32 0.6,-0.31 0.6,-0.3 0.6,-0.3 0.61,-0.3 0.61,-0.3 0.61,-0.29 0.61,-0.28 0.61,-0.29 0.62,-0.28 0.61,-0.27 0.62,-0.27 0.62,-0.27 0.62,-0.26 0.63,-0.26 0.62,-0.26 0.63,-0.25 0.63,-0.25 0.63,-0.24 0.63,-0.24 0.63,-0.24 0.64,-0.23 0.63,-0.23 0.64,-0.22 0.64,-0.22 0.64,-0.21 0.64,-0.22 0.64,-0.2 0.64,-0.21 0.65,-0.2 0.65,-0.19 0.64,-0.19 0.65,-0.19 0.65,-0.18 0.65,-0.18 0.66,-0.18 0.65,-0.17 0.65,-0.17 0.66,-0.16 0.66,-0.16 0.65,-0.15 0.66,-0.15 0.66,-0.15 0.66,-0.14 0.66,-0.14 0.67,-0.13 0.66,-0.13 0.66,-0.12 0.67,-0.13 0.66,-0.11 0.67,-0.11 0.66,-0.11 0.67,-0.11 0.67,-0.1 0.67,-0.09 0.67,-0.09 0.67,-0.09 0.67,-0.09 0.67,-0.07 0.67,-0.08 0.67,-0.07 0.67,-0.07 0.67,-0.06 0.68,-0.06 0.67,-0.05 0.67,-0.05 0.68,-0.04 0.67,-0.04 0.68,-0.04 0.67,-0.03 0.68,-0.03 0.67,-0.02 0.68,-0.02 0.67,-0.02 0.68,-0.01 0.67,-0.01 h 0.68 0.67 l 0.68,0.01 0.67,0.01 0.68,0.01 0.67,0.02 0.68,0.02 0.67,0.03 0.68,0.03 0.67,0.04 0.68,0.04 0.67,0.04 0.67,0.05 0.68,0.05 0.67,0.06 0.67,0.06 0.67,0.07 0.68,0.07 0.67,0.07 0.67,0.08 0.67,0.08 0.67,0.09 0.67,0.09 0.67,0.09 0.66,0.1 0.67,0.11 0.67,0.1 0.66,0.12 0.67,0.11 0.66,0.12 0.67,0.13 0.66,0.13 0.66,0.13 0.66,0.14 0.66,0.14 0.66,0.14 0.66,0.15 0.66,0.15 0.66,0.16 0.65,0.16 0.66,0.17 0.65,0.17 0.65,0.17 0.65,0.18 0.66,0.18 0.64,0.19 0.65,0.19 0.65,0.2 0.64,0.2 0.65,0.2 0.64,0.2 0.64,0.22 0.64,0.21 0.64,0.22 0.64,0.22 0.64,0.23 0.63,0.23 0.63,0.24 0.63,0.23 0.64,0.25 0.62,0.24 0.63,0.25 0.63,0.26 0.62,0.26 0.62,0.26 0.62,0.27 0.62,0.27 0.62,0.27 0.61,0.28 0.62,0.28 0.61,0.29 0.61,0.29 0.61,0.29 0.6,0.3 0.61,0.3 0.6,0.31 0.6,0.31 0.6,0.31 0.6,0.31 0.59,0.32 0.59,0.33 0.59,0.33 0.59,0.33 0.59,0.33 0.58,0.34 0.59,0.34 0.58,0.35 0.57,0.35 0.58,0.35 0.57,0.36 0.57,0.36 0.57,0.36 0.57,0.37 0.56,0.37 0.56,0.38 0.56,0.38 0.56,0.38 0.55,0.38 0.56,0.39 0.55,0.4 0.54,0.39 0.55,0.4 0.54,0.4 0.54,0.41 0.54,0.41 0.53,0.41 0.53,0.42 0.53,0.42 0.53,0.42 0.52,0.43 0.52,0.43 0.52,0.43 0.52,0.43 0.51,0.44 0.51,0.45 0.51,0.44 0.5,0.45 0.51,0.45 0.49,0.46 0.5,0.46 0.49,0.46 0.49,0.46 0.49,0.47 0.49,0.47 0.48,0.47 0.47,0.48 0.48,0.48 0.47,0.48 0.47,0.49 0.47,0.49 0.46,0.49 0.46,0.49 0.46,0.5 0.45,0.5 0.45,0.5 0.45,0.51 0.44,0.51 0.44,0.51 0.44,0.52 0.44,0.51 0.43,0.52 0.43,0.52 0.42,0.53 0.42,0.53 0.42,0.53 0.41,0.53 0.42,0.54 0.4,0.53 0.41,0.55 0.4,0.54 0.4,0.55 0.39,0.54 0.39,0.55 0.39,0.56 0.38,0.55 0.38,0.56 0.38,0.56 0.37,0.56 0.37,0.57 0.37,0.57 0.36,0.57 0.36,0.57 0.36,0.57 0.35,0.58 0.34,0.58 0.35,0.58 0.34,0.58 0.34,0.59 0.33,0.59 0.33,0.59 0.33,0.59 0.32,0.59 0.32,0.6 0.31,0.59 0.31,0.6 0.31,0.6 0.3,0.61 0.3,0.6 0.3,0.61 0.29,0.61 0.29,0.61 0.28,0.61 0.28,0.62 0.28,0.61 0.27,0.62 0.27,0.62 0.26,0.62 0.26,0.63 0.26,0.62 0.25,0.63 0.25,0.62 0.25,0.63 0.24,0.63 0.24,0.64 0.23,0.63 0.23,0.64 0.22,0.63 0.22,0.64 0.22,0.64 0.21,0.64 0.21,0.64 0.21,0.65 0.2,0.64 0.2,0.65 0.19,0.64 0.19,0.65 0.18,0.65 0.18,0.65 0.18,0.66 0.17,0.65 0.17,0.65 0.16,0.66 0.16,0.65 0.16,0.66 0.15,0.66 0.15,0.66 0.14,0.66 0.14,0.66 0.14,0.66 0.13,0.66 0.12,0.67 0.12,0.66 0.12,0.67 0.12,0.66 0.11,0.67 0.1,0.66 0.1,0.67 0.1,0.67 0.09,0.67 0.09,0.67 0.09,0.67 0.08,0.67 0.07,0.67 0.08,0.67 0.06,0.67 0.07,0.68 0.06,0.67 0.05,0.67 0.05,0.68 0.05,0.67 0.04,0.67 0.04,0.68 0.03,0.67 0.03,0.68 0.03,0.67 0.02,0.68 -107.16,2.99 z"
   style="fill:#fdbf6f;fill-opacity:1;fill-rule:nonzero;stroke:none"
   id="path66"
   inkscape:connector-curvature="0" /><path
   d="m 808.44,889.51 0.02,0.99 0.02,1 v 1 h -107.2 z"
   style="fill:#ff7f00;fill-opacity:1;fill-rule:nonzero;stroke:none"
   id="path68"
   inkscape:connector-curvature="0" /><text
   transform="scale(1,-1)"
   style="font-style:normal;font-variant:normal;font-weight:600;font-stretch:normal;font-size:48px;font-family:'URW Gothic L';-inkscape-font-specification:'URW Gothic L, Semi-Bold';font-variant-ligatures:normal;font-variant-caps:normal;font-variant-numeric:normal;font-feature-settings:normal;text-align:start;writing-mode:lr-tb;text-anchor:start;fill:#ffffff;fill-opacity:1;fill-rule:nonzero;stroke:#000000;stroke-width:1.52474999;stroke-miterlimit:4;stroke-dasharray:none;stroke-opacity:1"
   id="text72"
   x="690.15997"
   y="-878.29999"><tspan
     x="690.15997"
     y="-878.29999"
     id="tspan70"
     style="font-style:normal;font-variant:normal;font-weight:600;font-stretch:normal;font-size:48px;font-family:'URW Gothic L';-inkscape-font-specification:'URW Gothic L, Semi-Bold';font-variant-ligatures:normal;font-variant-caps:normal;font-variant-numeric:normal;font-feature-settings:normal;text-align:start;writing-mode:lr-tb;text-anchor:start;fill:#ffffff;fill-opacity:1;stroke:#000000;stroke-width:1.52474999;stroke-miterlimit:4;stroke-dasharray:none;stroke-opacity:1">2</tspan></text>

<path
   d="m 579.04,660 v 0.68 l -0.01,0.68 -0.01,0.68 -0.01,0.68 -0.02,0.68 -0.03,0.68 -0.03,0.68 -0.03,0.68 -0.03,0.68 -0.05,0.68 -0.04,0.68 -0.05,0.67 -0.05,0.68 -0.06,0.68 -0.07,0.68 -0.06,0.67 -0.07,0.68 -0.08,0.68 -0.08,0.67 -0.08,0.68 -0.09,0.67 -0.09,0.68 -0.1,0.67 -0.1,0.67 -0.11,0.67 -0.11,0.67 -0.11,0.67 -0.12,0.67 -0.12,0.67 -0.13,0.67 -0.13,0.67 -0.13,0.67 -0.14,0.66 -0.14,0.67 -0.15,0.66 -0.15,0.66 -0.16,0.67 -0.16,0.66 -0.17,0.66 -0.16,0.66 -0.18,0.65 -0.17,0.66 -0.18,0.66 -0.19,0.65 -0.19,0.65 -0.19,0.66 -0.2,0.65 -0.2,0.65 -0.21,0.64 -0.21,0.65 -0.21,0.65 -0.22,0.64 -0.22,0.64 -0.23,0.64 -0.23,0.64 -0.24,0.64 -0.23,0.64 -0.25,0.63 -0.24,0.64 -0.25,0.63 -0.26,0.63 -0.26,0.63 -0.26,0.63 -0.27,0.62 -0.27,0.63 -0.27,0.62 -0.28,0.62 -0.28,0.62 -0.29,0.62 -0.29,0.61 -0.29,0.61 -0.3,0.62 -0.3,0.61 -0.31,0.6 -0.31,0.61 -0.31,0.6 -0.32,0.6 -0.32,0.6 -0.33,0.6 -0.33,0.6 -0.33,0.59 -0.33,0.59 -0.34,0.59 -0.35,0.59 -0.35,0.58 -0.35,0.58 -0.35,0.58 -0.36,0.58 -0.36,0.58 -0.37,0.57 -0.37,0.57 -0.37,0.57 -0.38,0.57 -0.38,0.56 -0.38,0.56 -0.39,0.56 -0.39,0.56 -0.39,0.55 -0.4,0.55 -0.4,0.55 -0.41,0.55 -0.41,0.54 -0.41,0.55 -0.41,0.53 -0.42,0.54 -0.42,0.53 -0.43,0.53 -0.43,0.53 -0.43,0.53 -0.44,0.52 -0.43,0.52 -0.45,0.52 -0.44,0.51 L 471.84,660 Z"
   style="fill:#000000;fill-opacity:1;fill-rule:nonzero;stroke:none"
   id="path82"
   inkscape:connector-curvature="0" /><path
   d="m 552.65,730.44 -0.62,0.7 -0.62,0.69 -0.63,0.69 L 471.84,660 Z"
   style="fill:#a6cee3;fill-opacity:1;fill-rule:nonzero;stroke:none"
   id="path84"
   inkscape:connector-curvature="0" /><path
   d="m 550.78,732.52 -0.49,0.54 -0.5,0.53 -0.5,0.53 -0.51,0.52 -0.51,0.53 -0.51,0.51 -0.52,0.52 -0.52,0.51 -0.52,0.51 -0.53,0.5 -0.53,0.5 -0.53,0.5 -0.54,0.49 -0.54,0.49 -0.54,0.49 -0.55,0.48 -0.55,0.48 -0.55,0.47 -0.56,0.47 -0.56,0.47 -0.56,0.46 -0.57,0.46 -0.57,0.46 L 471.84,660 Z"
   style="fill:#1f78b4;fill-opacity:1;fill-rule:nonzero;stroke:none"
   id="path86"
   inkscape:connector-curvature="0" /><path
   d="m 538.52,743.94 -0.57,0.45 -0.57,0.44 -0.58,0.45 -0.58,0.43 -0.58,0.44 -0.59,0.43 -0.58,0.43 -0.6,0.42 -0.59,0.42 -0.6,0.41 -0.6,0.41 -0.6,0.41 -0.6,0.4 -0.61,0.4 -0.61,0.39 -0.62,0.39 -0.61,0.39 -0.62,0.38 -0.62,0.38 -0.62,0.37 -0.63,0.37 -0.63,0.36 -0.63,0.36 -0.63,0.36 -0.64,0.35 L 471.84,660 Z"
   style="fill:#b2df8a;fill-opacity:1;fill-rule:nonzero;stroke:none"
   id="path88"
   inkscape:connector-curvature="0" /><path
   d="m 523.41,753.98 -0.74,0.4 -0.74,0.4 -0.74,0.38 -0.74,0.39 -0.75,0.37 L 471.84,660 Z"
   style="fill:#33a02c;fill-opacity:1;fill-rule:nonzero;stroke:none"
   id="path90"
   inkscape:connector-curvature="0" /><path
   d="m 519.7,755.92 -0.61,0.31 -0.61,0.29 -0.61,0.3 -0.62,0.29 -0.62,0.28 -0.61,0.28 -0.62,0.28 -0.62,0.28 -0.63,0.27 -0.62,0.26 -0.63,0.26 -0.63,0.26 -0.63,0.26 -0.63,0.25 -0.63,0.24 -0.64,0.25 -0.63,0.23 -0.64,0.24 -0.64,0.23 -0.64,0.22 -0.64,0.23 -0.64,0.21 -0.65,0.22 -0.64,0.21 -0.65,0.2 -0.65,0.2 -0.65,0.2 -0.65,0.19 -0.65,0.19 -0.66,0.19 -0.65,0.18 -0.66,0.18 -0.65,0.17 -0.66,0.17 -0.66,0.16 -0.66,0.16 -0.66,0.16 -0.66,0.15 -0.67,0.15 -0.66,0.14 -0.66,0.14 -0.67,0.13 -0.67,0.13 -0.66,0.13 -0.67,0.12 -0.67,0.12 -0.67,0.11 -0.67,0.11 -0.67,0.11 -0.67,0.1 -0.68,0.1 -0.67,0.09 -0.67,0.09 -0.68,0.08 -0.67,0.08 -0.67,0.08 -0.68,0.07 -0.68,0.06 -0.67,0.07 -0.68,0.05 -0.68,0.06 -0.67,0.05 -0.68,0.04 -0.68,0.04 -0.68,0.04 -0.68,0.03 -0.67,0.03 -0.68,0.03 -0.68,0.01 -0.68,0.02 -0.68,0.01 -0.68,0.01 h -0.68 -0.68 l -0.68,-0.01 -0.67,-0.01 -0.68,-0.01 -0.68,-0.02 -0.68,-0.03 -0.68,-0.02 -0.68,-0.04 -0.68,-0.03 -0.67,-0.04 -0.68,-0.05 -0.68,-0.05 -0.68,-0.05 -0.67,-0.06 -0.68,-0.06 -0.67,-0.07 -0.68,-0.07 -0.68,-0.07 -0.67,-0.08 -0.67,-0.09 -0.68,-0.08 -0.67,-0.09 -0.67,-0.1 -0.67,-0.1 -0.67,-0.11 -0.68,-0.11 -0.66,-0.11 -0.67,-0.12 -0.67,-0.12 -0.67,-0.12 -0.67,-0.13 -0.66,-0.14 -0.67,-0.14 -0.66,-0.14 -0.66,-0.15 -0.67,-0.15 -0.66,-0.15 -0.66,-0.16 -0.66,-0.17 -0.65,-0.17 -0.66,-0.17 -0.66,-0.17 -0.65,-0.18 -0.65,-0.19 -0.66,-0.19 -0.65,-0.19 -0.65,-0.2 -0.65,-0.2 -0.64,-0.2 -0.65,-0.21 -0.64,-0.22 -0.65,-0.21 -0.64,-0.23 -0.64,-0.22 -0.64,-0.23 -0.64,-0.23 -0.63,-0.24 -0.64,-0.24 -0.63,-0.25 -0.63,-0.25 -0.63,-0.25 -0.63,-0.26 -0.63,-0.26 -0.62,-0.27 -0.63,-0.27 -0.62,-0.27 -0.62,-0.28 -0.62,-0.28 -0.61,-0.29 -0.62,-0.28 -0.61,-0.3 -0.61,-0.3 -0.61,-0.3 -0.61,-0.3 -0.6,-0.31 -0.6,-0.31 -0.6,-0.32 -0.6,-0.32 -0.6,-0.32 -0.6,-0.33 -0.59,-0.33 -0.59,-0.34 -0.59,-0.33 -0.58,-0.35 -0.59,-0.34 -0.58,-0.35 -0.58,-0.36 -0.58,-0.35 -0.57,-0.37 -0.58,-0.36 -0.57,-0.37 -0.56,-0.37 -0.57,-0.38 -0.56,-0.37 -0.56,-0.39 -0.56,-0.38 -0.56,-0.39 -0.55,-0.4 -0.55,-0.39 -0.55,-0.4 -0.55,-0.41 -0.54,-0.4 -0.54,-0.41 -0.54,-0.42 -0.54,-0.41 -0.53,-0.43 -0.53,-0.42 -0.53,-0.43 -0.52,-0.43 -0.53,-0.43 -0.52,-0.44 -0.51,-0.44 -0.52,-0.44 -0.51,-0.45 -0.51,-0.45 -0.5,-0.45 -0.5,-0.46 -0.5,-0.46 -0.5,-0.46 -0.5,-0.47 -0.49,-0.47 -0.48,-0.47 -0.49,-0.48 -0.48,-0.48 -0.48,-0.48 -0.47,-0.48 -0.48,-0.49 -0.47,-0.49 -0.46,-0.49 -0.47,-0.5 -0.46,-0.5 -0.45,-0.5 -0.46,-0.51 -0.45,-0.51 -0.45,-0.51 -0.44,-0.51 -0.44,-0.52 -0.44,-0.52 -0.43,-0.52 -0.43,-0.52 -0.43,-0.53 83.5,-67.23 z"
   style="fill:#fb9a99;fill-opacity:1;fill-rule:nonzero;stroke:none"
   id="path92"
   inkscape:connector-curvature="0" /><path
   d="m 388.34,727.23 -0.43,-0.53 -0.42,-0.54 -0.42,-0.54 -0.41,-0.54 -0.41,-0.54 -0.41,-0.55 -0.41,-0.54 -0.4,-0.55 -0.4,-0.56 -0.39,-0.55 -0.39,-0.56 -0.39,-0.56 -0.38,-0.56 -0.38,-0.57 -0.38,-0.57 -0.37,-0.57 -0.37,-0.57 -0.37,-0.57 -0.36,-0.58 -0.36,-0.58 -0.35,-0.58 -0.36,-0.59 -0.34,-0.58 -0.35,-0.59 -0.34,-0.59 -0.33,-0.6 -0.33,-0.59 -0.33,-0.6 -0.33,-0.6 -0.32,-0.6 -0.32,-0.6 -0.31,-0.61 -0.31,-0.6 -0.3,-0.61 -0.31,-0.61 -0.29,-0.62 -0.3,-0.61 -0.29,-0.62 -0.28,-0.62 -0.28,-0.62 -0.28,-0.62 -0.28,-0.62 -0.27,-0.63 -0.26,-0.62 -0.27,-0.63 -0.25,-0.63 -0.26,-0.64 -0.25,-0.63 -0.24,-0.63 -0.25,-0.64 -0.23,-0.64 -0.24,-0.64 -0.23,-0.64 -0.22,-0.64 -0.23,-0.65 -0.21,-0.64 -0.22,-0.65 -0.21,-0.65 -0.2,-0.65 -0.2,-0.65 -0.2,-0.65 -0.19,-0.66 -0.19,-0.65 -0.19,-0.66 -0.18,-0.65 -0.17,-0.66 -0.17,-0.66 -0.17,-0.66 -0.17,-0.66 -0.16,-0.67 -0.15,-0.66 -0.15,-0.66 -0.15,-0.67 -0.14,-0.67 -0.14,-0.66 -0.13,-0.67 -0.13,-0.67 -0.13,-0.67 -0.12,-0.67 -0.12,-0.67 -0.11,-0.67 -0.11,-0.68 -0.1,-0.67 -0.1,-0.67 -0.1,-0.68 -0.09,-0.67 -0.09,-0.68 -0.08,-0.68 -0.08,-0.67 -0.07,-0.68 -0.07,-0.68 -0.07,-0.68 -0.06,-0.67 -0.05,-0.68 -0.06,-0.68 -0.04,-0.68 -0.05,-0.68 -0.04,-0.68 -0.03,-0.68 -0.03,-0.68 -0.03,-0.69 -0.02,-0.68 -0.02,-0.68 -0.01,-0.68 -0.01,-0.68 -0.01,-0.68 v -0.68 -0.68 l 0.01,-0.69 0.01,-0.68 0.02,-0.68 0.02,-0.68 0.03,-0.68 0.03,-0.68 0.03,-0.68 0.04,-0.68 0.04,-0.68 0.05,-0.68 0.05,-0.68 0.06,-0.68 0.06,-0.68 106.75,9.77 z"
   style="fill:#e31a1c;fill-opacity:1;fill-rule:nonzero;stroke:none"
   id="path94"
   inkscape:connector-curvature="0" /><path
   d="m 365.09,650.23 0.06,-0.67 0.07,-0.67 0.07,-0.67 0.08,-0.68 0.08,-0.67 0.08,-0.67 0.09,-0.67 0.09,-0.66 0.1,-0.67 0.1,-0.67 0.11,-0.67 0.11,-0.66 0.11,-0.67 0.12,-0.67 0.12,-0.66 0.13,-0.66 0.13,-0.67 0.14,-0.66 0.14,-0.66 0.14,-0.66 0.15,-0.66 0.15,-0.66 0.16,-0.65 0.16,-0.66 0.16,-0.65 0.17,-0.66 0.17,-0.65 0.18,-0.65 0.18,-0.65 0.18,-0.65 0.19,-0.65 0.2,-0.65 0.19,-0.65 0.2,-0.64 0.21,-0.64 0.21,-0.65 0.21,-0.64 0.22,-0.64 0.22,-0.64 0.22,-0.63 0.23,-0.64 0.24,-0.63 0.23,-0.63 0.25,-0.63 0.24,-0.63 0.25,-0.63 0.25,-0.63 0.26,-0.62 0.26,-0.63 0.27,-0.62 0.27,-0.62 0.27,-0.61 0.28,-0.62 0.28,-0.62 0.28,-0.61 0.29,-0.61 0.29,-0.61 0.3,-0.6 0.3,-0.61 0.3,-0.6 0.31,-0.61 0.31,-0.59 0.31,-0.6 0.32,-0.6 0.33,-0.59 0.32,-0.59 0.33,-0.59 0.33,-0.59 0.34,-0.58 0.34,-0.59 0.35,-0.58 0.35,-0.58 0.35,-0.57 0.35,-0.58 0.36,-0.57 0.37,-0.57 0.36,-0.57 0.37,-0.56 0.38,-0.57 0.37,-0.56 0.38,-0.55 0.39,-0.56 0.38,-0.55 0.4,-0.55 0.39,-0.55 0.4,-0.55 0.4,-0.54 0.4,-0.54 0.41,-0.54 0.41,-0.54 0.42,-0.53 0.42,-0.53 0.42,-0.53 0.42,-0.52 0.43,-0.52 0.43,-0.52 0.44,-0.52 0.44,-0.52 0.44,-0.51 0.44,-0.51 0.45,-0.5 0.45,-0.5 0.45,-0.5 0.46,-0.5 0.46,-0.5 0.47,-0.49 0.46,-0.49 0.47,-0.48 0.47,-0.48 0.48,-0.48 0.48,-0.48 0.48,-0.47 0.48,-0.47 0.49,-0.47 0.49,-0.47 0.5,-0.46 0.49,-0.46 0.5,-0.45 0.5,-0.45 0.51,-0.45 0.51,-0.45 0.51,-0.44 0.51,-0.44 0.52,-0.43 0.51,-0.44 0.53,-0.43 0.52,-0.42 0.53,-0.42 0.53,-0.42 0.53,-0.42 0.53,-0.41 0.54,-0.41 0.54,-0.41 0.54,-0.4 0.55,-0.4 0.55,-0.4 0.55,-0.39 0.55,-0.39 0.55,-0.38 0.56,-0.38 0.56,-0.38 0.56,-0.38 0.57,-0.37 0.56,-0.36 0.57,-0.37 0.57,-0.36 0.58,-0.36 0.57,-0.35 0.58,-0.35 0.58,-0.34 0.58,-0.35 0.59,-0.33 0.58,-0.34 0.59,-0.33 0.59,-0.33 0.6,-0.32 0.59,-0.32 0.6,-0.32 0.6,-0.31 0.6,-0.31 0.6,-0.3 0.61,-0.3 0.6,-0.3 0.61,-0.3 0.61,-0.29 0.61,-0.28 0.62,-0.28 0.61,-0.28 0.62,-0.27 0.62,-0.27 0.62,-0.27 0.62,-0.26 0.63,-0.26 0.62,-0.26 0.63,-0.25 0.63,-0.24 0.63,-0.25 0.63,-0.23 0.63,-0.24 0.64,-0.23 0.64,-0.23 0.63,-0.22 0.64,-0.22 0.64,-0.21 0.64,-0.21 0.65,-0.21 0.64,-0.2 0.65,-0.2 0.64,-0.2 0.65,-0.19 0.65,-0.18 0.65,-0.18 0.65,-0.18 0.66,-0.18 0.65,-0.17 0.66,-0.16 0.65,-0.16 0.66,-0.16 0.66,-0.15 0.66,-0.15 0.65,-0.15 0.67,-0.14 0.66,-0.13 0.66,-0.14 0.66,-0.12 0.67,-0.13 0.66,-0.12 0.67,-0.11 0.66,-0.12 0.67,-0.1 0.67,-0.11 0.67,-0.09 0.66,-0.1 0.67,-0.09 0.67,-0.09 0.67,-0.08 0.68,-0.08 0.67,-0.07 0.67,-0.07 0.67,-0.06 0.67,-0.06 0.68,-0.06 0.67,-0.05 0.67,-0.05 0.68,-0.05 0.67,-0.03 0.68,-0.04 0.67,-0.03 0.68,-0.03 0.67,-0.02 0.68,-0.02 0.67,-0.01 0.68,-0.01 0.67,-0.01 h 0.68 0.67 l 0.68,0.01 0.67,0.01 0.68,0.02 0.68,0.02 0.67,0.02 0.68,0.03 0.67,0.03 0.67,0.04 0.68,0.04 0.67,0.05 0.68,0.05 0.67,0.05 0.67,0.06 0.68,0.06 0.67,0.07 0.67,0.07 0.67,0.07 0.67,0.08 0.67,0.09 0.67,0.08 0.67,0.1 0.67,0.09 0.67,0.1 0.66,0.11 0.67,0.11 0.67,0.11 0.66,0.12 0.67,0.12 0.66,0.12 0.66,0.13 0.66,0.14 0.67,0.14 0.66,0.14 0.66,0.14 0.65,0.16 0.66,0.15 0.66,0.16 0.65,0.16 0.66,0.17 0.65,0.17 0.65,0.18 0.66,0.18 0.65,0.18 0.64,0.19 0.65,0.19 0.65,0.19 0.64,0.2 0.65,0.21 0.64,0.21 0.64,0.21 0.64,0.21 0.64,0.22 0.64,0.23 0.63,0.23 0.64,0.23 0.63,0.24 0.63,0.24 0.63,0.24 0.63,0.25 0.63,0.25 0.62,0.26 0.62,0.26 0.63,0.26 0.62,0.27 0.61,0.27 0.62,0.27 0.62,0.28 0.61,0.29 0.61,0.28 0.61,0.3 0.61,0.29 0.6,0.3 0.61,0.3 0.6,0.31 0.6,0.31 0.6,0.31 0.59,0.32 0.6,0.32 0.59,0.33 0.59,0.32 0.59,0.34 0.58,0.33 0.59,0.34 0.58,0.35 0.58,0.34 0.58,0.36 0.57,0.35 0.57,0.36 0.57,0.36 0.57,0.36 0.57,0.37 0.56,0.38 0.56,0.37 0.56,0.38 0.56,0.38 0.55,0.39 0.55,0.39 0.55,0.39 0.55,0.4 0.54,0.4 0.54,0.41 0.54,0.4 0.54,0.41 0.53,0.42 0.53,0.42 0.53,0.42 0.53,0.42 0.52,0.43 0.52,0.43 0.52,0.43 0.52,0.44 0.51,0.44 0.51,0.44 0.5,0.45 0.51,0.45 0.5,0.45 0.5,0.46 0.49,0.46 0.49,0.46 0.49,0.47 0.49,0.46 0.48,0.48 0.48,0.47 0.48,0.48 0.48,0.48 0.47,0.48 0.47,0.49 0.46,0.49 0.46,0.49 0.46,0.5 0.46,0.5 0.45,0.5 0.45,0.5 0.45,0.51 0.44,0.51 0.44,0.51 0.44,0.52 0.43,0.51 0.43,0.52 0.43,0.53 0.42,0.52 0.42,0.53 0.42,0.53 0.41,0.54 0.41,0.53 0.41,0.54 0.4,0.55 0.4,0.54 0.4,0.55 0.39,0.55 0.39,0.55 0.39,0.55 0.38,0.56 0.38,0.56 0.38,0.56 0.37,0.56 0.37,0.57 0.36,0.57 0.36,0.57 0.36,0.57 0.36,0.58 0.35,0.57 0.34,0.58 0.35,0.58 0.34,0.59 0.33,0.58 0.33,0.59 0.33,0.59 0.33,0.59 0.32,0.6 0.32,0.6 0.31,0.59 0.31,0.6 0.31,0.61 0.3,0.6 0.3,0.61 0.29,0.6 0.29,0.61 0.29,0.62 0.28,0.61 0.28,0.61 0.28,0.62 0.27,0.62 0.26,0.62 0.27,0.62 0.26,0.62 0.25,0.63 0.25,0.63 0.25,0.63 0.25,0.63 0.24,0.63 0.23,0.63 0.23,0.63 0.23,0.64 0.23,0.64 0.21,0.64 0.22,0.64 0.21,0.64 0.21,0.64 0.2,0.64 0.2,0.65 0.2,0.65 0.19,0.64 0.19,0.65 0.18,0.65 0.18,0.65 0.18,0.66 0.17,0.65 0.16,0.65 0.17,0.66 0.15,0.66 0.16,0.65 0.15,0.66 0.14,0.66 0.15,0.66 -104.88,22.2 z"
   style="fill:#fdbf6f;fill-opacity:1;fill-rule:nonzero;stroke:none"
   id="path96"
   inkscape:connector-curvature="0" /><path
   d="m 576.72,637.8 0.14,0.69 0.14,0.68 0.13,0.69 0.13,0.68 0.12,0.69 0.12,0.69 0.12,0.69 0.11,0.69 0.11,0.69 0.1,0.69 0.1,0.69 0.09,0.7 0.09,0.69 0.08,0.69 0.08,0.7 0.08,0.69 0.07,0.7 0.06,0.69 0.07,0.7 0.05,0.69 0.05,0.7 0.05,0.7 0.05,0.7 0.03,0.69 0.04,0.7 0.03,0.7 0.02,0.7 0.02,0.7 0.02,0.69 0.01,0.7 0.01,0.7 v 0.7 h -107.2 z"
   style="fill:#ff7f00;fill-opacity:1;fill-rule:nonzero;stroke:none"
   id="path98"
   inkscape:connector-curvature="0" /><text
   transform="scale(1,-1)"
   style="font-style:normal;font-variant:normal;font-weight:600;font-stretch:normal;font-size:48px;font-family:'URW Gothic L';-inkscape-font-specification:'URW Gothic L, Semi-Bold';font-variant-ligatures:normal;font-variant-caps:normal;font-variant-numeric:normal;font-feature-settings:normal;text-align:start;writing-mode:lr-tb;text-anchor:start;fill:#ffffff;fill-opacity:1;fill-rule:nonzero;stroke:#000000;stroke-width:1.52474999;stroke-miterlimit:4;stroke-dasharray:none;stroke-opacity:1"
   id="text102"
   x="460.72"
   y="-646.17999"><tspan
     x="460.72"
     y="-646.17999"
     id="tspan100"
     style="font-style:normal;font-variant:normal;font-weight:600;font-stretch:normal;font-size:48px;font-family:'URW Gothic L';-inkscape-font-specification:'URW Gothic L, Semi-Bold';font-variant-ligatures:normal;font-variant-caps:normal;font-variant-numeric:normal;font-feature-settings:normal;text-align:start;writing-mode:lr-tb;text-anchor:start;fill:#ffffff;fill-opacity:1;stroke:#000000;stroke-width:1.52474999;stroke-miterlimit:4;stroke-dasharray:none;stroke-opacity:1">3</tspan></text>

<path
   d="m 808.48,660 v 0.68 l -0.01,0.69 -0.01,0.68 -0.01,0.68 -0.02,0.69 -0.03,0.68 -0.03,0.68 -0.03,0.68 -0.04,0.69 -0.04,0.68 -0.04,0.68 -0.05,0.68 -0.06,0.68 -0.06,0.68 -0.06,0.69 -0.07,0.68 -0.07,0.67 -0.07,0.68 -0.09,0.68 -0.08,0.68 -0.09,0.68 -0.09,0.68 -0.1,0.67 -0.1,0.68 -0.11,0.67 -0.11,0.68 -0.11,0.67 -0.12,0.67 -0.13,0.68 -0.12,0.67 -0.14,0.67 -0.13,0.67 -0.14,0.67 -0.15,0.66 -0.15,0.67 -0.15,0.67 -0.16,0.66 -0.16,0.67 -0.17,0.66 -0.17,0.66 -0.17,0.66 -0.18,0.66 -0.18,0.66 -0.19,0.66 -0.19,0.65 -0.2,0.66 -0.2,0.65 -0.2,0.65 -0.21,0.65 -0.21,0.65 -0.22,0.65 -0.22,0.65 -0.22,0.64 -0.23,0.65 -0.23,0.64 -0.24,0.64 -0.24,0.64 -0.24,0.64 -0.25,0.64 -0.26,0.63 -0.25,0.63 -0.26,0.64 -0.27,0.62 -0.27,0.63 -0.27,0.63 -0.28,0.62 -0.28,0.63 -0.29,0.62 -0.28,0.62 -0.3,0.61 -0.29,0.62 -0.31,0.61 -0.3,0.62 -0.31,0.61 -0.31,0.6 -0.32,0.61 -0.32,0.6 -0.32,0.6 -0.33,0.6 -0.33,0.6 -0.34,0.6 -0.34,0.59 -0.34,0.59 -0.35,0.59 -0.35,0.59 -0.35,0.58 -0.36,0.58 -0.36,0.58 -0.37,0.58 -0.36,0.58 -0.38,0.57 -0.37,0.57 -0.38,0.57 -0.39,0.56 -0.38,0.56 L 701.28,660 Z"
   style="fill:#000000;fill-opacity:1;fill-rule:nonzero;stroke:none"
   id="path112"
   inkscape:connector-curvature="0" /><path
   d="m 789.42,721.02 -0.43,0.61 -0.42,0.6 -0.43,0.6 -0.44,0.6 -0.44,0.59 -0.44,0.59 -0.45,0.59 -0.45,0.58 -0.45,0.58 -0.46,0.58 -0.46,0.58 L 701.28,660 Z"
   style="fill:#a6cee3;fill-opacity:1;fill-rule:nonzero;stroke:none"
   id="path114"
   inkscape:connector-curvature="0" /><path
   d="m 784.55,727.52 v 0 L 701.28,660 Z"
   style="fill:#1f78b4;fill-opacity:1;fill-rule:nonzero;stroke:none"
   id="path116"
   inkscape:connector-curvature="0" /><path
   d="m 784.55,727.52 -0.47,0.57 -0.47,0.57 -0.47,0.56 -0.48,0.56 -0.48,0.56 -0.49,0.56 -0.49,0.55 -0.49,0.55 -0.5,0.54 -0.5,0.54 -0.51,0.54 L 701.28,660 Z"
   style="fill:#b2df8a;fill-opacity:1;fill-rule:nonzero;stroke:none"
   id="path118"
   inkscape:connector-curvature="0" /><path
   d="m 779.2,733.62 -0.47,0.5 -0.48,0.49 -0.47,0.49 -0.49,0.49 -0.48,0.48 -0.49,0.49 -0.49,0.47 -0.5,0.48 -0.49,0.47 -0.5,0.47 -0.51,0.47 -0.5,0.46 -0.51,0.46 -0.51,0.45 -0.52,0.46 -0.52,0.45 -0.52,0.44 -0.52,0.45 -0.53,0.43 -0.53,0.44 -0.53,0.43 -0.53,0.43 -0.54,0.43 -0.54,0.42 -0.55,0.42 -0.54,0.41 -0.55,0.42 -0.55,0.41 -0.55,0.4 -0.56,0.4 -0.56,0.4 -0.56,0.39 -0.56,0.39 -0.57,0.39 -0.57,0.38 -0.57,0.38 -0.57,0.38 -0.58,0.37 -0.58,0.37 -0.58,0.37 -0.58,0.36 -0.59,0.35 -0.58,0.36 -0.59,0.35 -0.6,0.34 -0.59,0.35 -0.6,0.33 -0.59,0.34 -0.61,0.33 -0.6,0.33 -0.6,0.32 -0.61,0.32 -0.61,0.32 -0.61,0.31 -0.61,0.3 -0.62,0.31 -0.61,0.3 -0.62,0.29 -0.62,0.3 -0.63,0.28 -0.62,0.29 -0.63,0.28 -0.62,0.27 -0.63,0.27 -0.64,0.27 -0.63,0.27 -0.63,0.26 -0.64,0.25 -0.64,0.25 -0.64,0.25 L 739,760.34 701.28,660 Z"
   style="fill:#33a02c;fill-opacity:1;fill-rule:nonzero;stroke:none"
   id="path120"
   inkscape:connector-curvature="0" /><path
   d="m 739,760.34 -0.64,0.24 -0.64,0.24 -0.64,0.23 -0.65,0.22 -0.65,0.23 -0.64,0.21 -0.65,0.22 -0.65,0.21 -0.65,0.2 -0.66,0.2 -0.65,0.2 -0.66,0.19 -0.65,0.19 -0.66,0.19 -0.66,0.18 -0.66,0.17 -0.66,0.18 -0.67,0.16 -0.66,0.17 -0.66,0.16 -0.67,0.15 -0.67,0.15 -0.66,0.15 -0.67,0.14 -0.67,0.14 -0.67,0.13 -0.67,0.13 -0.67,0.13 -0.68,0.12 -0.67,0.11 -0.67,0.12 -0.68,0.11 -0.67,0.1 -0.68,0.1 -0.68,0.09 -0.67,0.09 -0.68,0.09 -0.68,0.08 -0.68,0.08 -0.68,0.07 -0.68,0.07 -0.68,0.07 -0.68,0.06 -0.68,0.05 -0.68,0.06 -0.68,0.04 -0.69,0.05 -0.68,0.04 -0.68,0.03 -0.68,0.03 -0.69,0.03 -0.68,0.02 -0.68,0.01 -0.69,0.02 -0.68,0.01 h -0.68 -0.69 l -0.68,-0.01 h -0.68 l -0.69,-0.02 -0.68,-0.02 -0.68,-0.02 -0.68,-0.02 -0.69,-0.04 -0.68,-0.03 -0.68,-0.04 -0.68,-0.04 -0.69,-0.05 -0.68,-0.06 -0.68,-0.05 -0.68,-0.06 -0.68,-0.07 -0.68,-0.07 -0.68,-0.07 -0.68,-0.08 -0.68,-0.09 -0.67,-0.08 -0.68,-0.09 -0.68,-0.1 -0.67,-0.1 -0.68,-0.1 -0.67,-0.11 -0.68,-0.12 -0.67,-0.11 -0.67,-0.13 -0.67,-0.12 -0.67,-0.13 -0.67,-0.14 -0.67,-0.14 -0.67,-0.14 -0.67,-0.15 -0.67,-0.15 -0.66,-0.15 -0.67,-0.16 -0.66,-0.17 L 701.28,660 Z"
   style="fill:#fb9a99;fill-opacity:1;fill-rule:nonzero;stroke:none"
   id="path122"
   inkscape:connector-curvature="0" /><path
   d="m 675.17,763.97 -0.66,-0.17 -0.66,-0.17 -0.65,-0.17 -0.66,-0.18 -0.65,-0.19 -0.66,-0.19 -0.65,-0.19 -0.65,-0.2 -0.65,-0.2 -0.65,-0.2 -0.64,-0.21 -0.65,-0.21 -0.64,-0.22 -0.65,-0.22 -0.64,-0.23 -0.64,-0.23 -0.64,-0.23 -0.64,-0.24 -0.63,-0.24 -0.64,-0.25 -0.63,-0.25 -0.63,-0.25 -0.63,-0.26 -0.63,-0.26 -0.62,-0.27 -0.63,-0.27 -0.62,-0.27 -0.62,-0.28 -0.62,-0.28 -0.62,-0.28 -0.61,-0.29 -0.61,-0.3 -0.62,-0.29 -0.61,-0.3 -0.6,-0.31 -0.61,-0.31 -0.6,-0.31 -0.61,-0.32 -0.6,-0.32 -0.59,-0.32 -0.6,-0.33 -0.59,-0.33 -0.59,-0.34 -0.59,-0.34 -0.59,-0.34 -0.59,-0.34 -0.58,-0.35 -0.58,-0.36 -0.58,-0.36 -0.57,-0.36 -0.58,-0.36 -0.57,-0.37 -0.57,-0.37 -0.57,-0.38 -0.56,-0.38 -0.56,-0.38 -0.56,-0.39 -0.56,-0.39 -0.55,-0.39 -0.56,-0.4 -0.55,-0.4 -0.54,-0.4 -0.55,-0.41 -0.54,-0.41 -0.54,-0.42 -0.53,-0.41 -0.54,-0.42 -0.53,-0.43 -0.53,-0.43 -0.52,-0.43 -0.53,-0.43 -0.52,-0.44 -0.51,-0.44 -0.52,-0.45 -0.51,-0.44 -0.51,-0.45 -0.51,-0.46 -0.5,-0.46 -0.5,-0.46 -0.5,-0.46 -0.49,-0.47 -0.49,-0.47 -0.49,-0.47 -0.49,-0.48 -0.48,-0.48 -0.48,-0.48 -0.48,-0.48 -0.47,-0.49 -0.47,-0.49 -0.47,-0.5 -0.46,-0.5 -0.46,-0.5 -0.46,-0.5 -0.45,-0.5 -0.45,-0.51 -0.45,-0.51 -0.45,-0.52 -0.44,-0.52 -0.44,-0.52 -0.43,-0.52 -0.43,-0.53 -0.43,-0.52 -0.42,-0.54 -0.43,-0.53 -0.41,-0.54 -0.42,-0.53 -0.41,-0.55 -0.41,-0.54 -0.4,-0.55 -0.4,-0.55 -0.4,-0.55 -0.39,-0.55 -0.39,-0.56 -0.39,-0.56 -0.38,-0.56 -0.38,-0.57 -0.38,-0.56 -0.37,-0.57 -0.37,-0.57 -0.36,-0.58 -0.37,-0.57 -0.35,-0.58 -0.36,-0.58 -0.35,-0.58 -0.34,-0.59 -0.35,-0.59 -0.34,-0.59 -0.33,-0.59 -0.33,-0.59 -0.33,-0.6 -0.33,-0.59 -0.32,-0.6 -0.31,-0.61 -0.32,-0.6 -0.3,-0.61 -0.31,-0.6 -0.3,-0.61 -0.3,-0.62 -0.29,-0.61 -0.29,-0.61 -0.29,-0.62 -0.28,-0.62 -0.28,-0.62 -0.27,-0.62 -0.27,-0.63 -0.27,-0.62 -0.26,-0.63 -0.26,-0.63 -0.25,-0.63 -0.25,-0.63 -0.25,-0.64 -0.24,-0.63 -0.24,-0.64 -0.23,-0.64 -0.23,-0.64 -0.23,-0.64 -0.22,-0.64 -0.21,-0.65 -0.22,-0.64 -0.21,-0.65 -0.2,-0.65 -0.2,-0.65 -0.2,-0.65 -0.19,-0.65 -0.19,-0.65 -0.19,-0.66 -0.18,-0.65 -0.17,-0.66 -0.18,-0.66 -0.16,-0.66 -0.17,-0.66 -0.16,-0.66 -0.15,-0.66 -0.15,-0.66 -0.15,-0.67 -0.14,-0.66 -0.14,-0.67 -0.14,-0.67 -0.13,-0.66 L 701.28,660 Z"
   style="fill:#e31a1c;fill-opacity:1;fill-rule:nonzero;stroke:none"
   id="path124"
   inkscape:connector-curvature="0" /><path
   d="m 595.99,680.17 -0.12,-0.67 -0.12,-0.66 -0.12,-0.67 -0.11,-0.66 -0.11,-0.67 -0.1,-0.66 -0.1,-0.67 -0.1,-0.67 -0.09,-0.67 -0.09,-0.67 -0.08,-0.67 -0.08,-0.67 -0.07,-0.67 -0.07,-0.67 -0.07,-0.67 -0.06,-0.67 -0.06,-0.68 -0.05,-0.67 -0.05,-0.67 -0.05,-0.68 -0.04,-0.67 -0.03,-0.67 -0.03,-0.68 -0.03,-0.67 -0.03,-0.68 -0.02,-0.67 -0.01,-0.68 -0.01,-0.67 -0.01,-0.68 v -0.67 -0.68 l 0.01,-0.67 0.01,-0.68 0.01,-0.67 0.02,-0.68 0.03,-0.67 0.02,-0.68 0.03,-0.67 0.04,-0.67 0.04,-0.68 0.04,-0.67 0.05,-0.67 0.06,-0.68 0.05,-0.67 0.06,-0.67 0.07,-0.67 0.07,-0.67 0.07,-0.68 0.08,-0.67 0.08,-0.67 0.09,-0.67 0.09,-0.66 0.1,-0.67 0.1,-0.67 0.1,-0.67 0.11,-0.66 0.11,-0.67 0.11,-0.66 0.13,-0.67 0.12,-0.66 0.13,-0.66 0.13,-0.67 0.14,-0.66 0.14,-0.66 0.14,-0.66 0.15,-0.65 0.16,-0.66 0.15,-0.66 0.17,-0.65 0.16,-0.66 0.17,-0.65 0.18,-0.65 0.17,-0.65 0.19,-0.65 0.18,-0.65 0.19,-0.65 0.2,-0.65 0.2,-0.64 0.2,-0.65 0.21,-0.64 0.21,-0.64 0.21,-0.64 0.22,-0.64 0.22,-0.63 0.23,-0.64 0.23,-0.63 0.24,-0.64 0.24,-0.63 0.24,-0.63 0.25,-0.63 0.25,-0.62 0.25,-0.63 0.26,-0.62 0.26,-0.62 0.27,-0.62 0.27,-0.62 0.27,-0.62 0.28,-0.61 0.28,-0.62 0.29,-0.61 0.29,-0.61 0.29,-0.61 0.3,-0.6 0.3,-0.61 0.31,-0.6 0.3,-0.6 0.32,-0.6 0.31,-0.59 0.32,-0.6 0.33,-0.59 0.32,-0.59 0.34,-0.59 0.33,-0.58 0.34,-0.59 0.34,-0.58 0.35,-0.58 0.35,-0.58 0.35,-0.57 0.36,-0.58 0.36,-0.57 0.36,-0.57 0.37,-0.56 0.37,-0.57 0.37,-0.56 0.38,-0.56 0.38,-0.55 0.39,-0.56 0.39,-0.55 0.39,-0.55 0.39,-0.54 0.4,-0.55 0.41,-0.54 0.4,-0.54 0.41,-0.54 0.41,-0.53 0.42,-0.53 0.42,-0.53 0.42,-0.53 0.43,-0.52 0.43,-0.52 0.43,-0.52 0.43,-0.52 0.44,-0.51 0.45,-0.51 0.44,-0.51 0.45,-0.5 0.45,-0.5 0.46,-0.5 0.45,-0.5 0.47,-0.49 0.46,-0.49 0.47,-0.49 0.47,-0.48 0.47,-0.48 0.48,-0.48 0.48,-0.48 0.48,-0.47 0.48,-0.47 0.49,-0.46 0.49,-0.47 0.5,-0.46 0.49,-0.45 0.5,-0.46 0.51,-0.45 0.5,-0.44 0.51,-0.45 0.51,-0.44 0.52,-0.44 0.51,-0.43 0.52,-0.43 0.52,-0.43 0.53,-0.42 0.53,-0.43 0.53,-0.41 0.53,-0.42 0.53,-0.41 0.54,-0.41 0.54,-0.4 0.55,-0.4 0.54,-0.4 0.55,-0.39 0.55,-0.39 0.55,-0.39 0.56,-0.39 0.56,-0.38 0.56,-0.37 0.56,-0.38 0.56,-0.37 0.57,-0.36 0.57,-0.36 0.57,-0.36 0.58,-0.36 0.57,-0.35 0.58,-0.35 0.58,-0.34 0.58,-0.34 0.59,-0.34 0.58,-0.33 0.59,-0.33 0.6,-0.33 0.59,-0.32 0.59,-0.32 0.6,-0.31 0.6,-0.31 0.6,-0.31 0.6,-0.31 0.61,-0.29 0.61,-0.3 0.6,-0.29 0.61,-0.29 0.62,-0.28 0.61,-0.28 0.62,-0.28 0.61,-0.27 0.62,-0.27 0.62,-0.27 0.63,-0.26 0.62,-0.26 0.63,-0.25 0.62,-0.25 0.63,-0.24 0.63,-0.24 0.63,-0.24 0.64,-0.23 0.63,-0.23 0.64,-0.23 0.64,-0.22 0.64,-0.22 0.64,-0.21 0.64,-0.21 0.64,-0.2 0.65,-0.21 0.64,-0.19 0.65,-0.2 0.65,-0.18 0.65,-0.19 0.65,-0.18 0.65,-0.18 0.65,-0.17 0.65,-0.17 0.66,-0.16 0.65,-0.16 0.66,-0.16 0.66,-0.15 0.66,-0.15 0.66,-0.14 0.66,-0.14 0.66,-0.13 0.66,-0.14 0.66,-0.12 0.67,-0.13 0.66,-0.11 0.67,-0.12 0.66,-0.11 0.67,-0.1 0.67,-0.11 0.66,-0.09 0.67,-0.1 0.67,-0.09 0.67,-0.08 0.67,-0.08 0.67,-0.08 0.67,-0.07 0.68,-0.07 0.67,-0.06 0.67,-0.06 0.67,-0.06 0.68,-0.05 0.67,-0.04 0.67,-0.05 0.68,-0.04 0.67,-0.03 0.67,-0.03 0.68,-0.03 0.67,-0.02 0.68,-0.01 0.67,-0.02 0.68,-0.01 h 0.67 0.68 0.67 l 0.68,0.01 0.67,0.02 0.68,0.01 0.67,0.02 0.68,0.03 0.67,0.03 0.68,0.03 0.67,0.04 0.67,0.04 0.68,0.05 0.67,0.05 0.67,0.06 0.67,0.05 0.68,0.07 0.67,0.07 0.67,0.07 0.67,0.07 0.67,0.08 0.67,0.09 0.67,0.09 0.67,0.09 0.67,0.1 0.66,0.1 0.67,0.11 0.67,0.11 0.66,0.11 0.67,0.12 0.66,0.12 0.66,0.13 0.66,0.13 0.67,0.13 0.66,0.14 0.66,0.15 0.65,0.14 0.66,0.15 0.66,0.16 0.65,0.16 0.66,0.16 0.65,0.17 0.66,0.17 0.65,0.18 0.65,0.18 0.65,0.19 0.64,0.18 0.65,0.2 0.65,0.19 0.64,0.2 0.65,0.21 0.64,0.21 0.64,0.21 0.64,0.22 0.63,0.22 0.64,0.22 0.64,0.23 0.63,0.24 0.63,0.23 0.63,0.24 0.63,0.25 0.63,0.25 0.62,0.25 0.63,0.26 0.62,0.26 0.62,0.26 0.62,0.27 0.62,0.27 0.61,0.28 0.62,0.28 0.61,0.28 0.61,0.29 0.61,0.29 0.61,0.3 0.6,0.3 0.61,0.3 0.6,0.31 0.6,0.31 0.59,0.31 0.6,0.32 0.59,0.32 0.59,0.33 0.59,0.33 0.59,0.33 0.58,0.34 0.59,0.34 0.58,0.34 0.58,0.35 0.57,0.35 0.58,0.36 0.57,0.36 0.57,0.36 0.56,0.36 0.57,0.37 0.56,0.38 0.56,0.37 0.56,0.38 0.56,0.39 0.55,0.38 0.55,0.39 0.55,0.4 0.54,0.4 0.55,0.4 0.54,0.4 0.53,0.41 0.54,0.41 0.53,0.41 0.53,0.42 0.53,0.42 0.53,0.43 0.52,0.42 0.52,0.43 0.51,0.44 0.52,0.44 0.51,0.44 0.51,0.44 0.5,0.45 0.51,0.45 0.5,0.45 0.49,0.46 0.5,0.46 0.49,0.46 0.49,0.47 0.48,0.47 0.49,0.47 0.48,0.47 0.47,0.48 0.48,0.48 0.47,0.49 0.46,0.48 0.47,0.49 0.46,0.49 0.46,0.5 0.45,0.5 0.45,0.5 0.45,0.5 0.45,0.51 0.44,0.51 0.44,0.51 0.44,0.52 0.43,0.52 0.43,0.52 0.42,0.52 0.43,0.53 0.42,0.53 0.41,0.53 0.42,0.53 0.4,0.54 0.41,0.54 0.4,0.54 0.4,0.54 0.4,0.55 0.39,0.55 0.39,0.55 0.38,0.56 0.39,0.55 0.38,0.56 0.37,0.56 0.37,0.57 0.37,0.56 0.36,0.57 0.36,0.57 0.36,0.57 0.35,0.58 0.35,0.58 0.35,0.58 0.34,0.58 0.34,0.58 0.34,0.59 0.33,0.59 0.33,0.59 0.32,0.59 0.32,0.59 0.32,0.6 0.31,0.6 0.31,0.6 0.3,0.6 0.3,0.6 0.3,0.61 0.3,0.61 0.28,0.61 0.29,0.61 0.28,0.61 0.28,0.62 0.28,0.61 0.27,0.62 0.26,0.62 0.27,0.62 0.25,0.63 0.26,0.62 0.25,0.63 0.25,0.63 0.24,0.63 0.24,0.63 0.23,0.63 0.24,0.63 0.22,0.64 0.23,0.64 0.22,0.63 0.21,0.64 0.21,0.65 0.21,0.64 0.2,0.64 0.2,0.65 0.19,0.64 0.2,0.65 0.18,0.65 0.18,0.65 0.18,0.65 0.18,0.65 0.17,0.66 0.16,0.65 0.17,0.65 0.15,0.66 0.16,0.66 0.15,0.66 0.14,0.66 0.14,0.66 0.14,0.66 0.13,0.66 0.13,0.66 0.13,0.66 0.12,0.67 0.11,0.66 0.12,0.67 0.1,0.66 0.11,0.67 0.1,0.67 0.09,0.67 0.09,0.67 0.09,0.67 0.08,0.67 0.08,0.67 0.08,0.67 0.07,0.67 0.06,0.67 0.06,0.67 0.06,0.68 0.05,0.67 0.05,0.67 0.05,0.67 0.04,0.68 0.03,0.67 0.04,0.68 0.02,0.67 0.03,0.68 0.02,0.67 0.01,0.68 0.01,0.67 0.01,0.68 V 660 h -107.2 z"
   style="fill:#fdbf6f;fill-opacity:1;fill-rule:nonzero;stroke:none"
   id="path126"
   inkscape:connector-curvature="0" /><path
   d="m 808.48,660 v 0 h -107.2 z"
   style="fill:#ff7f00;fill-opacity:1;fill-rule:nonzero;stroke:none"
   id="path128"
   inkscape:connector-curvature="0" /><text
   transform="scale(1,-1)"
   style="font-style:normal;font-variant:normal;font-weight:600;font-stretch:normal;font-size:48px;font-family:'URW Gothic L';-inkscape-font-specification:'URW Gothic L, Semi-Bold';font-variant-ligatures:normal;font-variant-caps:normal;font-variant-numeric:normal;font-feature-settings:normal;text-align:start;writing-mode:lr-tb;text-anchor:start;fill:#ffffff;fill-opacity:1;fill-rule:nonzero;stroke:#000000;stroke-width:1.52474999;stroke-miterlimit:4;stroke-dasharray:none;stroke-opacity:1"
   id="text132"
   x="690.15997"
   y="-645.79999"><tspan
     x="690.15997"
     y="-645.79999"
     id="tspan130"
     style="font-style:normal;font-variant:normal;font-weight:600;font-stretch:normal;font-size:48px;font-family:'URW Gothic L';-inkscape-font-specification:'URW Gothic L, Semi-Bold';font-variant-ligatures:normal;font-variant-caps:normal;font-variant-numeric:normal;font-feature-settings:normal;text-align:start;writing-mode:lr-tb;text-anchor:start;fill:#ffffff;fill-opacity:1;stroke:#000000;stroke-width:1.52474999;stroke-miterlimit:4;stroke-dasharray:none;stroke-opacity:1">4</tspan></text>

<path
   d="m 579.04,429 v 0.7 l -0.01,0.69 -0.01,0.7 -0.02,0.7 -0.02,0.7 -0.02,0.69 -0.03,0.7 -0.04,0.7 -0.03,0.69 -0.05,0.7 -0.04,0.69 -0.06,0.7 -0.05,0.69 -0.06,0.7 -0.07,0.69 -0.07,0.7 -0.07,0.69 -0.08,0.69 -0.09,0.69 -0.09,0.7 -0.09,0.69 -0.1,0.69 -0.1,0.69 -0.1,0.69 -0.11,0.68 -0.12,0.69 -0.12,0.69 -0.12,0.69 -0.13,0.68 -0.13,0.69 -0.14,0.68 -0.14,0.68 -0.15,0.68 -0.15,0.68 -0.16,0.68 -0.16,0.68 -0.16,0.68 -0.17,0.68 -0.17,0.67 -0.18,0.68 -0.18,0.67 -0.19,0.67 -0.19,0.67 -0.19,0.67 -0.2,0.67 -0.2,0.67 L 471.84,429 Z"
   style="fill:#000000;fill-opacity:1;fill-rule:nonzero;stroke:none"
   id="path142"
   inkscape:connector-curvature="0" /><path
   d="m 574.28,460.6 -0.2,0.65 -0.21,0.64 -0.21,0.65 -0.22,0.64 -0.21,0.64 -0.23,0.64 -0.22,0.64 -0.23,0.64 -0.24,0.64 -0.24,0.63 -0.24,0.64 -0.25,0.63 -0.25,0.63 -0.25,0.63 -0.26,0.63 -0.26,0.62 -0.27,0.63 -0.27,0.62 -0.27,0.62 -0.28,0.62 -0.28,0.61 -0.29,0.62 -0.29,0.61 -0.29,0.61 -0.3,0.61 -0.3,0.61 -0.31,0.61 -0.31,0.6 -0.31,0.6 -0.32,0.6 -0.32,0.6 -0.32,0.6 -0.33,0.59 -0.33,0.59 -0.34,0.59 -0.34,0.59 -0.34,0.59 -0.35,0.58 -0.35,0.58 -0.35,0.58 -0.36,0.57 -0.36,0.58 -0.37,0.57 -0.37,0.57 -0.37,0.57 -0.37,0.56 -0.38,0.56 -0.39,0.56 -0.38,0.56 -0.39,0.56 -0.4,0.55 -0.39,0.55 -0.4,0.55 -0.41,0.54 -0.41,0.55 -0.41,0.54 -0.41,0.53 -0.42,0.54 -0.42,0.53 -0.42,0.53 -0.43,0.53 -0.43,0.52 -0.44,0.52 -0.43,0.52 -0.45,0.52 -0.44,0.51 -0.45,0.51 -0.45,0.51 -0.45,0.5 -0.46,0.5 -0.46,0.5 -0.46,0.5 -0.47,0.49 -0.47,0.49 -0.47,0.48 -0.48,0.49 -0.48,0.48 -0.48,0.48 -0.48,0.47 -0.49,0.47 -0.49,0.47 -0.49,0.47 -0.5,0.46 -0.5,0.46 -0.5,0.45 -0.51,0.46 -0.51,0.45 -0.51,0.44 -0.51,0.45 -0.52,0.44 -0.52,0.43 -0.52,0.43 -0.53,0.43 -0.52,0.43 -0.53,0.42 -0.54,0.42 -0.53,0.42 -0.54,0.41 -0.54,0.41 -0.54,0.41 -0.55,0.4 -0.55,0.4 -0.55,0.4 -0.55,0.39 -0.56,0.39 -0.56,0.38 -0.56,0.39 -0.56,0.37 -0.57,0.38 -0.57,0.37 -0.57,0.37 -0.57,0.36 -0.57,0.36 -0.58,0.36 -0.58,0.35 -0.58,0.35 -0.59,0.34 -0.58,0.35 -0.59,0.33 -0.59,0.34 -0.59,0.33 -0.6,0.33 -0.6,0.32 -0.59,0.32 -0.6,0.31 -0.61,0.32 -0.6,0.3 -0.61,0.31 -0.61,0.3 -0.61,0.29 -0.61,0.3 -0.61,0.28 -0.62,0.29 -0.62,0.28 -0.62,0.28 -0.62,0.27 -0.62,0.27 -0.63,0.26 -0.62,0.27 -0.63,0.25 -0.63,0.26 -0.63,0.24 -0.63,0.25 -0.64,0.24 -0.63,0.24 -0.64,0.23 -0.64,0.23 -0.64,0.23 -0.64,0.22 -0.64,0.21 -0.65,0.22 -0.64,0.2 -0.65,0.21 -0.65,0.2 -0.65,0.2 -0.65,0.19 -0.65,0.19 -0.65,0.18 -0.66,0.18 -0.65,0.18 -0.66,0.17 -0.66,0.17 -0.66,0.16 -0.65,0.16 -0.67,0.15 -0.66,0.15 -0.66,0.15 -0.66,0.14 -0.67,0.14 -0.66,0.14 -0.67,0.12 -0.66,0.13 -0.67,0.12 -0.67,0.12 -0.67,0.11 -0.67,0.11 -0.67,0.1 -0.67,0.11 -0.67,0.09 -0.67,0.09 -0.68,0.09 -0.67,0.08 -0.67,0.08 -0.68,0.08 -0.67,0.07 -0.68,0.06 -0.67,0.06 -0.68,0.06 -0.68,0.06 -0.67,0.04 -0.68,0.05 -0.68,0.04 -0.68,0.04 -0.67,0.03 -0.68,0.03 -0.68,0.02 -0.68,0.02 -0.68,0.01 -0.67,0.01 -0.68,0.01 h -0.68 -0.68 l -0.68,-0.01 -0.68,-0.01 -0.68,-0.02 -0.67,-0.02 -0.68,-0.02 -0.68,-0.03 -0.68,-0.03 -0.67,-0.04 -0.68,-0.04 -0.68,-0.04 -0.68,-0.05 -0.67,-0.06 -0.68,-0.06 -0.67,-0.06 -0.68,-0.07 -0.67,-0.07 -0.68,-0.07 -0.67,-0.08 -0.67,-0.09 -0.68,-0.08 -0.67,-0.1 -0.67,-0.09 -0.67,-0.1 -0.67,-0.11 -0.67,-0.11 -0.67,-0.11 -0.67,-0.12 -0.67,-0.12 -0.66,-0.13 -0.67,-0.13 -0.66,-0.13 -0.67,-0.14 -0.66,-0.15 -0.66,-0.14 -0.66,-0.15 -0.67,-0.16 -0.65,-0.16 -0.66,-0.16 -0.66,-0.17 -0.66,-0.18 -0.65,-0.17 -0.66,-0.18 -0.65,-0.19 -0.65,-0.19 -0.65,-0.19 -0.65,-0.2 -0.65,-0.2 -0.64,-0.2 -0.65,-0.21 -0.64,-0.22 -0.65,-0.21 -0.64,-0.23 -0.64,-0.22 -0.64,-0.23 -0.63,-0.23 -0.64,-0.24 -0.63,-0.24 -0.63,-0.25 39.16,-99.79 z"
   style="fill:#a6cee3;fill-opacity:1;fill-rule:nonzero;stroke:none"
   id="path144"
   inkscape:connector-curvature="0" /><path
   d="m 432.68,528.79 -0.63,-0.25 -0.63,-0.25 -0.63,-0.26 -0.62,-0.26 -0.62,-0.27 -0.62,-0.26 -0.62,-0.28 -0.62,-0.27 -0.62,-0.29 -0.61,-0.28 -0.61,-0.29 -0.61,-0.29 -0.61,-0.3 -0.61,-0.3 -0.6,-0.3 -0.61,-0.31 -0.6,-0.31 -0.6,-0.31 -0.59,-0.32 -0.6,-0.33 -0.59,-0.32 -0.59,-0.33 -0.59,-0.34 -0.59,-0.33 -0.58,-0.35 -0.58,-0.34 -0.58,-0.35 -0.58,-0.35 -0.58,-0.36 -0.57,-0.36 -0.57,-0.36 -0.57,-0.37 -0.56,-0.37 -0.57,-0.37 -0.56,-0.38 -0.56,-0.38 -0.56,-0.38 -0.55,-0.39 -0.55,-0.39 -0.55,-0.4 -0.55,-0.4 -0.54,-0.4 -0.54,-0.4 -0.54,-0.41 -0.54,-0.41 -0.53,-0.42 -0.54,-0.42 -0.53,-0.42 -0.52,-0.43 -0.52,-0.43 -0.53,-0.43 -0.51,-0.43 -0.52,-0.44 -0.51,-0.44 -0.51,-0.45 -0.51,-0.45 -0.5,-0.45 -0.5,-0.45 -0.5,-0.46 -0.5,-0.46 -0.49,-0.47 -0.49,-0.46 -0.48,-0.47 -0.49,-0.48 -0.48,-0.47 -0.48,-0.48 -0.47,-0.49 -0.47,-0.48 -0.47,-0.49 -0.46,-0.49 -0.47,-0.5 -0.46,-0.49 -0.45,-0.5 -0.45,-0.51 -0.45,-0.5 -0.45,-0.51 -0.44,-0.51 -0.44,-0.52 -0.44,-0.51 -0.43,-0.52 -0.43,-0.53 -0.43,-0.52 -0.42,-0.53 -0.42,-0.53 -0.42,-0.53 -0.41,-0.54 -0.41,-0.54 -0.41,-0.54 -0.4,-0.54 -0.4,-0.55 -0.4,-0.55 -0.39,-0.55 -0.39,-0.55 -0.39,-0.56 -0.38,-0.55 -0.38,-0.56 -0.37,-0.57 -0.37,-0.56 -0.37,-0.57 -0.37,-0.57 -0.36,-0.57 -0.35,-0.58 -0.36,-0.58 -0.35,-0.57 -0.34,-0.59 -0.35,-0.58 -0.34,-0.59 -0.33,-0.58 -0.33,-0.59 -0.33,-0.59 -0.32,-0.6 -0.32,-0.6 -0.32,-0.59 -0.31,-0.6 -0.31,-0.61 -0.31,-0.6 -0.3,-0.61 -0.3,-0.6 -0.29,-0.61 -0.29,-0.61 -0.29,-0.62 -0.28,-0.61 -0.28,-0.62 -0.27,-0.62 -0.27,-0.62 -0.27,-0.62 -0.26,-0.62 -0.26,-0.63 -0.25,-0.63 -0.25,-0.63 -0.25,-0.63 -0.24,-0.63 -0.24,-0.63 -0.24,-0.63 -0.23,-0.64 -0.22,-0.64 -0.23,-0.64 -0.21,-0.64 -0.22,-0.64 -0.21,-0.64 -0.21,-0.65 -0.2,-0.64 -0.2,-0.65 -0.19,-0.65 -0.19,-0.65 -0.19,-0.65 -0.18,-0.65 -0.18,-0.65 -0.17,-0.66 -0.17,-0.65 -0.16,-0.66 -0.16,-0.66 -0.16,-0.65 -0.15,-0.66 -0.15,-0.66 -0.15,-0.66 -0.14,-0.67 -0.13,-0.66 -0.14,-0.66 -0.12,-0.67 -0.13,-0.66 -0.12,-0.67 -0.11,-0.67 -0.11,-0.66 -0.11,-0.67 -0.1,-0.67 -0.1,-0.67 -0.1,-0.67 -0.08,-0.67 -0.09,-0.67 -0.08,-0.67 -0.08,-0.68 -0.07,-0.67 -0.07,-0.67 -0.07,-0.67 -0.06,-0.68 -0.05,-0.67 -0.05,-0.68 -0.05,-0.67 -0.04,-0.68 -0.04,-0.67 -0.04,-0.68 -0.03,-0.68 -0.02,-0.67 -0.02,-0.68 -0.02,-0.67 -0.02,-0.68 v -0.68 l -0.01,-0.67 v -0.68 -0.68 l 0.01,-0.67 0.01,-0.68 0.02,-0.68 0.02,-0.67 0.03,-0.68 0.03,-0.68 0.03,-0.67 0.04,-0.68 0.04,-0.67 0.05,-0.68 0.05,-0.67 0.05,-0.68 0.06,-0.67 0.07,-0.67 0.06,-0.68 0.08,-0.67 0.07,-0.67 0.08,-0.67 0.09,-0.68 0.09,-0.67 0.09,-0.67 0.1,-0.67 0.1,-0.67 0.1,-0.66 0.12,-0.67 0.11,-0.67 0.12,-0.66 0.12,-0.67 0.13,-0.66 0.13,-0.67 0.13,-0.66 0.14,-0.66 0.15,-0.66 0.15,-0.67 0.15,-0.65 0.15,-0.66 0.16,-0.66 0.17,-0.66 0.17,-0.65 0.17,-0.66 0.18,-0.65 0.18,-0.65 0.18,-0.65 0.19,-0.65 0.2,-0.65 0.19,-0.65 102.44,31.6 z"
   style="fill:#1f78b4;fill-opacity:1;fill-rule:nonzero;stroke:none"
   id="path146"
   inkscape:connector-curvature="0" /><path
   d="m 369.4,397.4 0.21,-0.65 0.2,-0.65 0.21,-0.64 0.22,-0.65 0.22,-0.64 0.22,-0.65 0.23,-0.64 0.23,-0.64 0.23,-0.64 0.24,-0.64 0.25,-0.63 0.25,-0.64 0.25,-0.63 0.25,-0.63 0.26,-0.63 0.27,-0.63 0.26,-0.62 0.28,-0.63 0.27,-0.62 0.28,-0.62 0.28,-0.62 0.29,-0.62 0.29,-0.61 0.3,-0.61 0.3,-0.62 0.3,-0.61 0.31,-0.6 0.31,-0.61 0.31,-0.6 0.32,-0.61 0.32,-0.6 0.33,-0.59 0.33,-0.6 0.33,-0.59 0.34,-0.59 0.34,-0.59 0.34,-0.59 0.35,-0.58 0.36,-0.59 0.35,-0.58 0.36,-0.58 0.36,-0.57 0.37,-0.58 0.37,-0.57 0.38,-0.56 0.37,-0.57 0.38,-0.57 0.39,-0.56 0.39,-0.56 0.39,-0.55 0.4,-0.56 0.39,-0.55 0.41,-0.55 0.4,-0.54 0.41,-0.55 0.42,-0.54 0.41,-0.54 0.42,-0.53 0.42,-0.54 0.43,-0.53 0.43,-0.53 0.43,-0.52 0.44,-0.52 0.44,-0.52 0.44,-0.52 0.45,-0.51 0.45,-0.51 0.45,-0.51 0.46,-0.51 0.46,-0.5 0.46,-0.5 0.47,-0.5 0.47,-0.49 0.47,-0.49 0.47,-0.49 0.48,-0.48 0.48,-0.49 0.49,-0.47 0.48,-0.48 0.49,-0.47 0.5,-0.47 0.49,-0.47 0.5,-0.46 0.51,-0.46 0.5,-0.46 0.51,-0.45 0.51,-0.45 0.51,-0.45 0.52,-0.44 0.52,-0.44 0.52,-0.44 0.53,-0.43 0.52,-0.43 0.53,-0.43 0.54,-0.42 0.53,-0.42 0.54,-0.42 0.54,-0.41 0.55,-0.41 0.54,-0.41 0.55,-0.4 0.55,-0.4 0.56,-0.4 0.55,-0.39 0.56,-0.39 0.56,-0.38 60.39,88.57 z"
   style="fill:#b2df8a;fill-opacity:1;fill-rule:nonzero;stroke:none"
   id="path148"
   inkscape:connector-curvature="0" /><path
   d="m 411.45,340.43 v 0 L 471.84,429 Z"
   style="fill:#33a02c;fill-opacity:1;fill-rule:nonzero;stroke:none"
   id="path150"
   inkscape:connector-curvature="0" /><path
   d="m 411.45,340.43 0.67,-0.45 0.66,-0.45 0.67,-0.44 0.68,-0.43 0.68,-0.43 0.68,-0.42 0.68,-0.42 0.69,-0.42 0.69,-0.4 0.69,-0.41 53.6,92.84 z"
   style="fill:#fb9a99;fill-opacity:1;fill-rule:nonzero;stroke:none"
   id="path152"
   inkscape:connector-curvature="0" /><path
   d="m 418.24,336.16 0.63,-0.36 0.64,-0.36 0.63,-0.35 0.64,-0.35 0.65,-0.35 0.64,-0.34 0.65,-0.33 0.65,-0.33 0.65,-0.33 0.65,-0.33 0.66,-0.31 0.66,-0.32 0.66,-0.31 0.66,-0.3 0.66,-0.3 0.67,-0.3 0.67,-0.29 0.67,-0.29 0.67,-0.28 0.67,-0.28 0.68,-0.27 0.68,-0.27 39.16,99.79 z"
   style="fill:#e31a1c;fill-opacity:1;fill-rule:nonzero;stroke:none"
   id="path154"
   inkscape:connector-curvature="0" /><path
   d="m 432.68,329.21 0.63,-0.25 0.63,-0.24 0.63,-0.23 0.64,-0.24 0.64,-0.23 0.64,-0.22 0.64,-0.22 0.64,-0.22 0.64,-0.21 0.64,-0.21 0.65,-0.21 0.65,-0.2 0.64,-0.2 0.65,-0.19 0.65,-0.19 0.66,-0.18 0.65,-0.18 0.65,-0.18 0.66,-0.17 0.65,-0.17 0.66,-0.16 0.66,-0.16 0.66,-0.16 0.66,-0.15 0.66,-0.15 0.66,-0.14 0.66,-0.14 0.67,-0.13 0.66,-0.13 0.67,-0.13 0.66,-0.12 0.67,-0.12 0.67,-0.11 0.67,-0.11 0.66,-0.11 0.67,-0.1 0.67,-0.1 0.68,-0.09 0.67,-0.09 0.67,-0.08 0.67,-0.08 0.67,-0.08 0.68,-0.07 0.67,-0.07 0.68,-0.06 0.67,-0.06 0.68,-0.05 0.67,-0.05 0.68,-0.05 0.67,-0.04 0.68,-0.04 0.68,-0.03 0.67,-0.03 0.68,-0.02 0.68,-0.02 0.67,-0.02 0.68,-0.01 0.68,-0.01 h 0.67 0.68 l 0.68,0.01 0.68,0.01 0.67,0.01 0.68,0.02 0.68,0.02 0.67,0.03 0.68,0.03 0.68,0.04 0.67,0.04 0.68,0.04 0.67,0.05 0.68,0.05 0.67,0.06 0.68,0.06 0.67,0.06 0.68,0.07 0.67,0.08 0.67,0.08 0.67,0.08 0.68,0.08 0.67,0.1 0.67,0.09 0.67,0.1 0.67,0.1 0.67,0.11 0.66,0.11 0.67,0.12 0.67,0.12 0.66,0.12 0.67,0.13 0.66,0.14 0.66,0.13 0.67,0.14 0.66,0.15 0.66,0.15 0.66,0.15 0.66,0.16 0.65,0.16 0.66,0.17 0.66,0.17 0.65,0.18 0.65,0.17 0.66,0.19 0.65,0.18 0.65,0.2 0.65,0.19 0.64,0.2 0.65,0.2 0.64,0.21 0.65,0.21 0.64,0.22 0.64,0.22 0.64,0.22 0.64,0.23 0.63,0.23 0.64,0.24 0.63,0.24 0.63,0.24 0.63,0.25 0.63,0.25 0.63,0.26 0.62,0.26 0.63,0.26 0.62,0.27 0.62,0.27 0.62,0.28 0.62,0.27 0.61,0.29 0.61,0.28 0.62,0.3 0.61,0.29 0.6,0.3 0.61,0.3 0.6,0.31 0.61,0.31 0.6,0.31 0.59,0.32 0.6,0.32 0.59,0.33 0.6,0.33 0.59,0.33 0.58,0.33 0.59,0.35 0.58,0.34 0.58,0.35 0.58,0.35 0.58,0.35 0.57,0.36 0.58,0.36 0.57,0.37 0.56,0.37 0.57,0.37 0.56,0.38 0.56,0.38 0.56,0.38 0.56,0.39 0.55,0.39 0.55,0.39 0.55,0.4 0.54,0.4 0.55,0.41 0.54,0.4 0.54,0.42 0.53,0.41 0.53,0.42 0.54,0.42 0.52,0.42 0.53,0.43 0.52,0.43 0.52,0.44 0.52,0.44 0.51,0.44 0.51,0.44 0.51,0.45 0.5,0.45 0.51,0.45 0.5,0.46 0.49,0.46 0.5,0.46 0.49,0.47 0.49,0.47 0.48,0.47 0.48,0.48 0.48,0.48 0.48,0.48 0.47,0.49 0.47,0.48 0.47,0.49 0.46,0.5 0.46,0.49 0.46,0.5 0.45,0.51 0.45,0.5 0.45,0.51 0.45,0.51 0.44,0.51 0.43,0.52 0.44,0.52 0.43,0.52 0.43,0.53 0.42,0.52 0.43,0.53 0.41,0.54 0.42,0.53 0.41,0.54 0.41,0.54 0.4,0.54 0.4,0.55 0.4,0.55 0.4,0.55 0.39,0.55 0.38,0.56 0.39,0.55 0.38,0.57 0.37,0.56 0.38,0.56 0.37,0.57 0.36,0.57 0.36,0.57 0.36,0.58 0.36,0.57 0.35,0.58 0.35,0.58 0.34,0.59 0.34,0.58 0.34,0.59 0.33,0.59 0.33,0.59 0.33,0.6 0.32,0.59 0.32,0.6 0.31,0.6 0.31,0.6 0.31,0.61 0.3,0.6 0.3,0.61 0.29,0.61 0.29,0.61 0.29,0.61 0.28,0.62 0.28,0.62 0.28,0.62 0.27,0.62 0.27,0.62 0.26,0.62 0.26,0.63 0.26,0.62 0.25,0.63 0.25,0.63 0.24,0.63 0.24,0.64 0.24,0.63 0.23,0.64 0.23,0.64 0.22,0.64 0.22,0.64 0.22,0.64 0.21,0.64 0.21,0.65 0.2,0.64 0.2,0.65 0.2,0.65 0.19,0.65 0.18,0.65 0.19,0.65 0.18,0.65 0.17,0.66 0.17,0.65 0.17,0.66 0.16,0.66 0.16,0.66 0.15,0.65 0.15,0.66 0.15,0.67 0.14,0.66 0.14,0.66 0.13,0.67 0.13,0.66 0.13,0.67 0.12,0.66 0.11,0.67 0.11,0.67 0.11,0.67 0.11,0.67 0.1,0.67 0.09,0.67 0.09,0.67 0.09,0.67 0.08,0.67 0.08,0.67 0.07,0.68 0.07,0.67 0.07,0.67 0.06,0.68 0.06,0.67 0.05,0.68 -106.9,8.01 z"
   style="fill:#fdbf6f;fill-opacity:1;fill-rule:nonzero;stroke:none"
   id="path156"
   inkscape:connector-curvature="0" /><path
   d="m 578.74,420.99 0.06,0.8 0.05,0.8 0.04,0.8 0.04,0.8 0.04,0.8 0.02,0.8 0.02,0.8 0.02,0.81 0.01,0.8 v 0.8 h -107.2 z"
   style="fill:#ff7f00;fill-opacity:1;fill-rule:nonzero;stroke:none"
   id="path158"
   inkscape:connector-curvature="0" /><text
   transform="scale(1,-1)"
   style="font-style:normal;font-variant:normal;font-weight:600;font-stretch:normal;font-size:48px;font-family:'URW Gothic L';-inkscape-font-specification:'URW Gothic L, Semi-Bold';font-variant-ligatures:normal;font-variant-caps:normal;font-variant-numeric:normal;font-feature-settings:normal;text-align:start;writing-mode:lr-tb;text-anchor:start;fill:#ffffff;fill-opacity:1;fill-rule:nonzero;stroke:#000000;stroke-width:1.52474999;stroke-miterlimit:4;stroke-dasharray:none;stroke-opacity:1"
   id="text162"
   x="460.72"
   y="-415.42001"><tspan
     x="460.72"
     y="-415.42001"
     id="tspan160"
     style="font-style:normal;font-variant:normal;font-weight:600;font-stretch:normal;font-size:48px;font-family:'URW Gothic L';-inkscape-font-specification:'URW Gothic L, Semi-Bold';font-variant-ligatures:normal;font-variant-caps:normal;font-variant-numeric:normal;font-feature-settings:normal;text-align:start;writing-mode:lr-tb;text-anchor:start;fill:#ffffff;fill-opacity:1;stroke:#000000;stroke-width:1.52474999;stroke-miterlimit:4;stroke-dasharray:none;stroke-opacity:1">5</tspan></text>

<path
   d="m 808.48,429 v 0.68 l -0.01,0.69 -0.01,0.68 -0.01,0.68 -0.02,0.69 -0.03,0.68 -0.03,0.68 -0.03,0.69 -0.04,0.68 -0.04,0.68 -0.04,0.68 -0.05,0.69 -0.06,0.68 -0.06,0.68 -0.06,0.68 -0.07,0.68 -0.07,0.68 -0.08,0.68 -0.08,0.68 -0.08,0.68 -0.09,0.67 -0.09,0.68 -0.1,0.68 -0.1,0.67 -0.11,0.68 -0.11,0.67 -0.12,0.68 -0.11,0.67 -0.13,0.67 -0.13,0.67 -0.13,0.67 -0.13,0.67 -0.15,0.67 -0.14,0.67 -0.15,0.67 -0.15,0.67 -0.16,0.66 -0.16,0.66 -0.17,0.67 -0.17,0.66 -0.17,0.66 -0.18,0.66 -0.19,0.66 -0.18,0.66 -0.19,0.65 -0.2,0.66 -0.2,0.65 -0.2,0.65 -0.21,0.66 -0.21,0.65 -0.22,0.64 -0.22,0.65 -0.23,0.65 -0.22,0.64 -0.24,0.64 -0.23,0.64 -0.24,0.64 -0.25,0.64 -0.25,0.64 -0.25,0.63 -0.26,0.64 -0.26,0.63 -0.27,0.63 -0.27,0.63 -0.27,0.62 -0.28,0.63 -0.28,0.62 -0.28,0.62 -0.29,0.62 -0.29,0.62 -0.3,0.62 -0.3,0.61 -0.31,0.61 -0.31,0.61 -0.31,0.61 -0.32,0.61 -0.32,0.6 -0.32,0.6 -0.33,0.6 -0.33,0.6 -0.34,0.59 -0.34,0.6 -0.34,0.59 -0.35,0.59 -0.35,0.58 -0.35,0.59 -0.36,0.58 -0.36,0.58 -0.37,0.58 -0.37,0.57 -0.37,0.58 -0.38,0.57 -0.38,0.57 -0.38,0.56 -0.39,0.56 -0.39,0.57 -0.39,0.55 -0.4,0.56 -0.4,0.55 -0.41,0.55 -0.41,0.55 -0.41,0.55 -0.42,0.54 -0.42,0.54 -0.42,0.54 -0.42,0.53 -0.43,0.53 -0.44,0.53 -0.43,0.53 -0.44,0.52 -0.44,0.52 -0.45,0.52 -0.45,0.52 -0.45,0.51 -0.46,0.51 -0.46,0.5 L 780,501.77 701.28,429 Z"
   style="fill:#000000;fill-opacity:1;fill-rule:nonzero;stroke:none"
   id="path172"
   inkscape:connector-curvature="0" /><path
   d="m 780,501.77 v 0 L 701.28,429 Z"
   style="fill:#a6cee3;fill-opacity:1;fill-rule:nonzero;stroke:none"
   id="path174"
   inkscape:connector-curvature="0" /><path
   d="m 780,501.77 v 0 L 701.28,429 Z"
   style="fill:#1f78b4;fill-opacity:1;fill-rule:nonzero;stroke:none"
   id="path176"
   inkscape:connector-curvature="0" /><path
   d="m 780,501.77 -0.52,0.56 -0.53,0.55 -0.53,0.56 -0.53,0.55 -0.54,0.54 -0.54,0.54 -0.54,0.54 -0.55,0.53 -0.56,0.53 -0.55,0.53 -0.56,0.52 L 701.28,429 Z"
   style="fill:#b2df8a;fill-opacity:1;fill-rule:nonzero;stroke:none"
   id="path178"
   inkscape:connector-curvature="0" /><path
   d="m 774.05,507.72 v 0 L 701.28,429 Z"
   style="fill:#33a02c;fill-opacity:1;fill-rule:nonzero;stroke:none"
   id="path180"
   inkscape:connector-curvature="0" /><path
   d="m 774.05,507.72 -0.5,0.46 -0.51,0.46 -0.5,0.45 -0.51,0.45 -0.52,0.45 -0.51,0.44 -0.52,0.44 -0.52,0.44 -0.53,0.44 -0.52,0.43 -0.53,0.42 -0.53,0.43 -0.54,0.42 -0.53,0.42 -0.54,0.41 -0.55,0.41 -0.54,0.41 -0.55,0.4 -0.55,0.4 -0.55,0.4 -0.56,0.39 -0.56,0.39 -0.56,0.39 -0.56,0.38 -0.56,0.38 -0.57,0.37 -0.57,0.37 -0.57,0.37 -0.58,0.37 -0.58,0.36 -0.57,0.36 -0.59,0.35 -0.58,0.35 -0.59,0.34 -0.58,0.35 -0.59,0.34 -0.6,0.33 -0.59,0.33 -0.6,0.33 -0.6,0.32 -0.6,0.32 -0.6,0.32 -0.6,0.31 -0.61,0.31 -0.61,0.3 -0.61,0.3 -0.61,0.3 -0.61,0.29 -0.62,0.29 -0.62,0.28 -0.62,0.29 -0.62,0.27 -0.62,0.28 -0.63,0.26 -0.62,0.27 -0.63,0.26 -0.63,0.26 -0.63,0.25 -0.64,0.25 -0.63,0.25 -0.64,0.24 -0.64,0.23 -0.64,0.24 -0.64,0.23 -0.64,0.22 -0.64,0.22 -0.65,0.22 -0.64,0.21 -0.65,0.21 -0.65,0.2 -0.65,0.2 -0.65,0.2 -0.65,0.19 -0.66,0.19 -0.65,0.18 -0.66,0.18 -0.66,0.18 -0.66,0.17 -0.65,0.17 -0.67,0.16 -0.66,0.16 -0.66,0.15 -0.66,0.15 -0.67,0.15 -0.66,0.14 -0.67,0.14 -0.67,0.13 -0.66,0.13 -0.67,0.12 -0.67,0.12 -0.67,0.12 -0.67,0.11 -0.68,0.11 -0.67,0.1 -0.67,0.1 -0.68,0.1 -0.67,0.09 -0.67,0.08 -0.68,0.09 L 701.28,429 Z"
   style="fill:#fb9a99;fill-opacity:1;fill-rule:nonzero;stroke:none"
   id="path182"
   inkscape:connector-curvature="0" /><path
   d="m 713.88,535.46 -0.7,0.08 -0.69,0.07 -0.7,0.07 -0.7,0.07 -0.7,0.06 -0.7,0.06 -0.7,0.05 -0.7,0.05 -0.7,0.04 -0.7,0.04 -0.7,0.04 -0.7,0.03 -0.7,0.02 -0.7,0.02 -0.71,0.02 -0.7,0.01 -0.7,0.01 h -0.7 -0.7 l -0.7,-0.01 -0.7,-0.01 -0.71,-0.02 -0.7,-0.02 -0.7,-0.02 -0.7,-0.03 -0.7,-0.04 -0.7,-0.04 -0.7,-0.04 -0.7,-0.05 -0.7,-0.05 -0.7,-0.06 -0.7,-0.06 -0.7,-0.07 -0.7,-0.07 -0.69,-0.07 -0.7,-0.08 -0.7,-0.09 -0.69,-0.09 -0.7,-0.09 -0.69,-0.1 -0.7,-0.1 -0.69,-0.11 L 701.28,429 Z"
   style="fill:#e31a1c;fill-opacity:1;fill-rule:nonzero;stroke:none"
   id="path184"
   inkscape:connector-curvature="0" /><path
   d="m 684.51,534.88 -0.67,-0.11 -0.66,-0.11 -0.67,-0.12 -0.66,-0.12 -0.67,-0.12 -0.66,-0.13 -0.66,-0.13 -0.66,-0.14 -0.66,-0.14 -0.66,-0.15 -0.66,-0.15 -0.66,-0.15 -0.66,-0.16 -0.65,-0.16 -0.66,-0.16 -0.65,-0.17 -0.65,-0.18 -0.65,-0.18 -0.65,-0.18 -0.65,-0.19 -0.65,-0.19 -0.65,-0.19 -0.64,-0.2 -0.65,-0.2 -0.64,-0.21 -0.64,-0.21 -0.64,-0.22 -0.64,-0.22 -0.64,-0.22 -0.63,-0.23 -0.64,-0.23 -0.63,-0.23 -0.63,-0.24 -0.63,-0.24 -0.63,-0.25 -0.63,-0.25 -0.63,-0.26 -0.62,-0.26 -0.62,-0.26 -0.62,-0.27 -0.62,-0.27 -0.62,-0.27 -0.61,-0.28 -0.62,-0.28 -0.61,-0.29 -0.61,-0.29 -0.61,-0.29 -0.6,-0.3 -0.61,-0.3 -0.6,-0.31 -0.6,-0.3 -0.6,-0.32 -0.6,-0.31 -0.59,-0.32 -0.59,-0.33 -0.59,-0.33 -0.59,-0.33 -0.59,-0.33 -0.58,-0.34 -0.58,-0.34 -0.58,-0.35 -0.58,-0.35 -0.58,-0.35 -0.57,-0.36 -0.57,-0.36 -0.57,-0.37 -0.57,-0.36 -0.56,-0.38 -0.56,-0.37 -0.56,-0.38 -0.56,-0.38 -0.55,-0.39 -0.56,-0.39 -0.54,-0.39 -0.55,-0.39 -0.55,-0.4 -0.54,-0.41 -0.54,-0.4 -0.54,-0.41 -0.53,-0.42 -0.53,-0.41 -0.53,-0.42 -0.53,-0.42 -0.52,-0.43 -0.52,-0.43 -0.52,-0.43 -0.52,-0.44 -0.51,-0.44 -0.51,-0.44 -0.51,-0.45 -0.5,-0.45 -0.5,-0.45 -0.5,-0.45 -0.5,-0.46 -0.49,-0.46 -0.49,-0.47 -0.49,-0.47 -0.48,-0.47 -0.48,-0.47 -0.48,-0.48 -0.48,-0.48 -0.47,-0.48 -0.47,-0.49 -0.46,-0.49 -0.47,-0.49 -0.46,-0.49 -0.45,-0.5 -0.46,-0.5 -0.45,-0.5 -0.45,-0.51 -0.44,-0.51 -0.44,-0.51 -0.44,-0.51 -0.43,-0.52 -0.43,-0.52 -0.43,-0.52 -0.43,-0.53 -0.42,-0.53 -0.41,-0.53 -0.42,-0.53 -0.41,-0.54 -0.41,-0.53 -0.4,-0.55 -0.4,-0.54 -0.4,-0.55 -0.4,-0.54 -0.39,-0.55 -0.38,-0.56 -0.39,-0.55 -0.38,-0.56 -0.37,-0.56 -0.38,-0.57 -0.37,-0.56 -0.36,-0.57 -0.36,-0.57 -0.36,-0.57 -0.36,-0.58 -0.35,-0.57 -0.35,-0.58 -0.34,-0.58 -0.34,-0.59 -0.34,-0.58 -0.33,-0.59 -0.33,-0.59 -0.33,-0.59 -0.32,-0.59 -0.32,-0.6 -0.31,-0.6 -0.31,-0.6 -0.31,-0.6 -0.3,-0.6 -0.3,-0.61 -0.3,-0.6 -0.29,-0.61 -0.29,-0.61 -0.28,-0.62 -0.28,-0.61 -0.28,-0.62 -0.27,-0.62 -0.27,-0.62 -0.26,-0.62 -0.26,-0.62 -0.26,-0.62 -0.25,-0.63 -0.25,-0.63 -0.25,-0.63 -0.24,-0.63 -0.24,-0.63 -0.23,-0.64 -0.23,-0.63 -0.22,-0.64 -0.22,-0.64 -0.22,-0.64 -0.21,-0.64 -0.21,-0.64 -0.21,-0.64 -0.2,-0.65 -0.19,-0.64 -0.2,-0.65 -0.19,-0.65 -0.18,-0.65 -0.18,-0.65 -0.18,-0.65 -0.17,-0.66 -0.17,-0.65 -0.16,-0.65 -0.16,-0.66 -0.16,-0.66 -0.15,-0.66 -0.14,-0.66 -0.15,-0.66 -0.14,-0.66 -0.13,-0.66 -0.13,-0.66 -0.13,-0.66 -0.12,-0.67 -0.12,-0.66 -0.11,-0.67 -0.11,-0.67 -0.11,-0.66 -0.1,-0.67 -0.1,-0.67 -0.09,-0.67 -0.09,-0.67 -0.08,-0.67 -0.08,-0.67 -0.08,-0.67 -0.07,-0.67 -0.07,-0.67 -0.06,-0.68 -0.06,-0.67 -0.05,-0.67 -0.05,-0.67 -0.05,-0.68 -0.04,-0.67 -0.04,-0.68 -0.03,-0.67 -0.03,-0.68 -0.03,-0.67 -0.02,-0.68 -0.02,-0.67 -0.01,-0.68 -0.01,-0.67 v -0.68 -0.67 l 0.01,-0.68 v -0.67 l 0.02,-0.68 0.02,-0.67 0.02,-0.68 0.02,-0.67 0.03,-0.68 0.04,-0.67 0.04,-0.68 0.04,-0.67 0.05,-0.68 0.05,-0.67 0.05,-0.67 0.06,-0.67 0.07,-0.68 0.07,-0.67 0.07,-0.67 0.08,-0.67 0.08,-0.67 0.08,-0.67 0.09,-0.67 0.1,-0.67 0.09,-0.67 0.11,-0.67 0.1,-0.66 0.11,-0.67 0.12,-0.66 0.12,-0.67 0.12,-0.66 0.13,-0.67 0.13,-0.66 0.13,-0.66 0.14,-0.66 0.15,-0.66 0.15,-0.66 0.15,-0.66 0.16,-0.66 0.16,-0.65 0.16,-0.66 0.17,-0.65 0.17,-0.65 0.18,-0.66 0.18,-0.65 0.19,-0.65 0.19,-0.64 0.19,-0.65 0.2,-0.65 0.2,-0.64 0.2,-0.64 0.21,-0.65 0.22,-0.64 0.22,-0.64 0.22,-0.63 0.22,-0.64 0.23,-0.64 0.24,-0.63 0.23,-0.63 0.25,-0.63 0.24,-0.63 0.25,-0.63 0.26,-0.62 0.25,-0.63 0.26,-0.62 0.27,-0.62 0.27,-0.62 0.27,-0.62 0.28,-0.62 0.28,-0.61 0.29,-0.61 0.28,-0.61 0.3,-0.61 0.29,-0.61 0.3,-0.6 0.31,-0.61 0.31,-0.6 0.31,-0.6 0.31,-0.59 0.32,-0.6 0.32,-0.59 0.33,-0.59 0.33,-0.59 0.34,-0.59 0.33,-0.59 0.34,-0.58 0.35,-0.58 0.35,-0.58 0.35,-0.57 0.36,-0.58 0.36,-0.57 0.36,-0.57 0.37,-0.57 0.37,-0.56 0.37,-0.56 0.38,-0.56 0.38,-0.56 0.38,-0.56 0.39,-0.55 0.39,-0.55 0.4,-0.55 0.4,-0.54 0.4,-0.55 0.4,-0.54 0.41,-0.53 0.41,-0.54 0.42,-0.53 0.42,-0.53 0.42,-0.53 0.42,-0.52 0.43,-0.53 0.43,-0.51 0.44,-0.52 0.44,-0.51 0.44,-0.52 0.44,-0.5 0.45,-0.51 0.45,-0.5 0.46,-0.5 0.46,-0.5 0.46,-0.49 0.46,-0.49 0.47,-0.49 0.47,-0.49 0.47,-0.48 0.47,-0.48 0.48,-0.47 0.49,-0.48 0.48,-0.47 0.49,-0.47 0.49,-0.46 0.49,-0.46 0.5,-0.46 0.5,-0.45 0.5,-0.45 0.51,-0.45 0.5,-0.45 0.52,-0.44 0.51,-0.44 0.52,-0.43 0.51,-0.44 0.53,-0.42 0.52,-0.43 0.53,-0.42 0.53,-0.42 0.53,-0.42 0.53,-0.41 0.54,-0.41 0.54,-0.4 0.54,-0.41 0.55,-0.39 0.55,-0.4 0.55,-0.39 0.55,-0.39 0.56,-0.38 0.55,-0.39 0.56,-0.37 0.57,-0.38 0.56,-0.37 0.57,-0.37 0.57,-0.36 0.57,-0.36 0.57,-0.36 0.58,-0.35 0.58,-0.35 0.58,-0.34 0.58,-0.34 0.58,-0.34 0.59,-0.34 0.59,-0.33 0.59,-0.32 0.59,-0.33 0.6,-0.32 0.59,-0.31 0.6,-0.31 0.6,-0.31 0.61,-0.31 0.6,-0.3 0.61,-0.29 0.61,-0.3 0.61,-0.29 0.61,-0.28 0.61,-0.28 0.62,-0.28 0.62,-0.27 0.62,-0.27 0.62,-0.27 0.62,-0.26 0.62,-0.26 0.63,-0.25 0.63,-0.25 0.63,-0.25 0.63,-0.24 0.63,-0.24 0.63,-0.23 0.64,-0.23 0.63,-0.23 0.64,-0.22 0.64,-0.22 0.64,-0.22 0.64,-0.21 0.65,-0.2 0.64,-0.2 0.65,-0.2 0.64,-0.2 0.65,-0.19 0.65,-0.18 0.65,-0.18 0.65,-0.18 0.66,-0.17 0.65,-0.17 0.65,-0.17 0.66,-0.16 0.66,-0.16 0.66,-0.15 0.65,-0.15 0.66,-0.14 0.66,-0.14 0.67,-0.14 0.66,-0.13 0.66,-0.13 0.67,-0.12 0.66,-0.12 0.67,-0.12 0.66,-0.11 0.67,-0.1 0.67,-0.11 0.66,-0.09 0.67,-0.1 0.67,-0.09 0.67,-0.08 0.67,-0.09 0.67,-0.07 0.68,-0.08 0.67,-0.07 0.67,-0.06 0.67,-0.06 0.68,-0.06 0.67,-0.05 0.67,-0.05 0.68,-0.04 0.67,-0.04 0.68,-0.03 0.67,-0.03 0.68,-0.03 0.67,-0.02 0.68,-0.02 0.67,-0.01 0.68,-0.01 0.67,-0.01 h 0.68 0.67 l 0.68,0.01 0.67,0.01 0.68,0.02 0.67,0.02 0.68,0.02 0.67,0.03 0.68,0.04 0.67,0.03 0.68,0.05 0.67,0.04 0.67,0.05 0.68,0.06 0.67,0.05 0.67,0.07 0.67,0.06 0.68,0.08 0.67,0.07 0.67,0.08 0.67,0.08 0.67,0.09 0.67,0.1 0.66,0.09 0.67,0.1 0.67,0.11 0.67,0.11 0.66,0.11 0.67,0.12 0.66,0.12 0.66,0.13 0.67,0.13 0.66,0.13 0.66,0.14 0.66,0.14 0.66,0.15 0.66,0.15 0.66,0.16 0.65,0.15 0.66,0.17 0.65,0.17 0.65,0.17 0.66,0.17 0.65,0.18 0.65,0.19 0.65,0.18 0.64,0.2 0.65,0.19 0.64,0.2 0.65,0.21 0.64,0.21 0.64,0.21 0.64,0.22 0.64,0.22 0.64,0.22 0.63,0.23 0.64,0.23 0.63,0.24 0.63,0.24 0.63,0.24 0.63,0.25 0.62,0.25 0.63,0.26 0.62,0.26 0.62,0.26 0.62,0.27 0.62,0.27 0.62,0.28 0.61,0.28 0.62,0.28 0.61,0.29 0.61,0.29 0.6,0.3 0.61,0.3 0.6,0.3 0.61,0.31 0.6,0.31 0.59,0.31 0.6,0.32 0.59,0.32 0.59,0.33 0.59,0.33 0.59,0.33 0.59,0.33 0.58,0.34 0.58,0.35 0.58,0.35 0.58,0.35 0.57,0.35 0.58,0.36 0.57,0.36 0.56,0.37 0.57,0.37 0.56,0.37 0.56,0.38 0.56,0.38 0.56,0.38 0.55,0.39 0.55,0.39 0.55,0.39 0.55,0.4 0.54,0.4 0.54,0.4 0.54,0.41 0.54,0.41 0.53,0.41 0.53,0.42 0.53,0.42 0.53,0.43 0.52,0.42 0.52,0.44 0.52,0.43 0.51,0.44 0.51,0.44 0.51,0.44 0.51,0.45 0.5,0.45 0.5,0.45 0.5,0.46 0.49,0.46 0.5,0.46 0.49,0.47 0.48,0.47 0.49,0.47 0.48,0.47 0.47,0.48 0.48,0.48 0.47,0.49 0.47,0.48 0.46,0.49 0.46,0.49 0.46,0.5 0.46,0.5 0.45,0.5 0.45,0.5 0.45,0.51 0.44,0.51 0.44,0.51 0.43,0.52 0.44,0.52 0.43,0.52 0.42,0.52 0.43,0.53 0.42,0.53 0.41,0.53 0.42,0.53 0.41,0.54 0.4,0.54 0.41,0.54 0.4,0.55 0.39,0.54 0.4,0.55 0.39,0.55 0.38,0.56 0.38,0.55 0.38,0.56 0.38,0.56 0.37,0.57 0.37,0.56 0.36,0.57 0.36,0.57 0.36,0.58 0.36,0.57 0.35,0.58 0.34,0.58 0.34,0.58 0.34,0.59 0.34,0.58 0.33,0.59 -93.53,52.38 z"
   style="fill:#fdbf6f;fill-opacity:1;fill-rule:nonzero;stroke:none"
   id="path186"
   inkscape:connector-curvature="0" /><path
   d="m 794.81,376.62 0.33,0.6 0.33,0.6 0.33,0.6 0.32,0.6 0.31,0.61 0.32,0.61 0.31,0.61 0.3,0.61 0.3,0.61 0.3,0.62 0.3,0.62 0.28,0.62 0.29,0.62 0.28,0.62 0.28,0.63 0.27,0.63 0.27,0.62 0.27,0.63 0.26,0.64 0.26,0.63 0.25,0.64 0.25,0.63 0.25,0.64 0.24,0.64 0.23,0.64 0.24,0.65 0.23,0.64 0.22,0.65 0.22,0.64 0.22,0.65 0.21,0.65 0.21,0.66 0.2,0.65 0.2,0.65 0.2,0.66 0.19,0.65 0.19,0.66 0.18,0.66 0.18,0.66 0.18,0.66 0.17,0.67 0.16,0.66 0.17,0.66 0.15,0.67 0.16,0.67 0.15,0.66 0.14,0.67 0.14,0.67 0.14,0.67 0.13,0.67 0.13,0.67 0.12,0.68 0.12,0.67 0.12,0.68 0.11,0.67 0.11,0.68 0.1,0.67 0.1,0.68 0.09,0.68 0.09,0.68 0.08,0.67 0.08,0.68 0.08,0.68 0.07,0.68 0.07,0.68 0.06,0.69 0.06,0.68 0.06,0.68 0.05,0.68 0.04,0.68 0.04,0.69 0.04,0.68 0.03,0.68 0.03,0.69 0.03,0.68 0.02,0.68 0.01,0.69 0.01,0.68 0.01,0.69 V 429 h -107.2 z"
   style="fill:#ff7f00;fill-opacity:1;fill-rule:nonzero;stroke:none"
   id="path188"
   inkscape:connector-curvature="0" /><text
   transform="scale(1,-1)"
   style="font-style:normal;font-variant:normal;font-weight:600;font-stretch:normal;font-size:48px;font-family:'URW Gothic L';-inkscape-font-specification:'URW Gothic L, Semi-Bold';font-variant-ligatures:normal;font-variant-caps:normal;font-variant-numeric:normal;font-feature-settings:normal;text-align:start;writing-mode:lr-tb;text-anchor:start;fill:#ffffff;fill-opacity:1;fill-rule:nonzero;stroke:#000000;stroke-width:1.52474999;stroke-miterlimit:4;stroke-dasharray:none;stroke-opacity:1"
   id="text192"
   x="690.15997"
   y="-415.17999"><tspan
     x="690.15997"
     y="-415.17999"
     id="tspan190"
     style="font-style:normal;font-variant:normal;font-weight:600;font-stretch:normal;font-size:48px;font-family:'URW Gothic L';-inkscape-font-specification:'URW Gothic L, Semi-Bold';font-variant-ligatures:normal;font-variant-caps:normal;font-variant-numeric:normal;font-feature-settings:normal;text-align:start;writing-mode:lr-tb;text-anchor:start;fill:#ffffff;fill-opacity:1;stroke:#000000;stroke-width:1.52474999;stroke-miterlimit:4;stroke-dasharray:none;stroke-opacity:1">6</tspan></text>

<g
   id="g194"
   transform="translate(-19.358706,-159.06434)"><g
     id="g1323"><g
       transform="translate(0,13.27168)"
       id="g1205"><text
   transform="scale(1,-1)"
   style="font-variant:normal;font-weight:normal;font-size:29.48176575px;font-family:ZapfDingbats;-inkscape-font-specification:ZapfDingbats;writing-mode:lr-tb;fill:#e31a1c;fill-opacity:1;fill-rule:nonzero;stroke:none;stroke-width:1.31380415"
   id="text222"
   x="23.124905"
   y="-727.39899"><tspan
     x="23.124905"
     y="-727.39899"
     id="tspan220"
     style="stroke-width:1.31380415"></tspan></text>

<text
   xml:space="preserve"
   style="font-style:normal;font-variant:normal;font-weight:normal;font-stretch:normal;font-size:30px;line-height:2ex;font-family:'URW Gothic L';-inkscape-font-specification:'URW Gothic L, Normal';font-variant-ligatures:normal;font-variant-caps:normal;font-variant-numeric:normal;font-feature-settings:normal;text-align:start;letter-spacing:0px;word-spacing:0px;writing-mode:lr-tb;text-anchor:start;fill:#000000;fill-opacity:1;stroke:none;stroke-width:0.75"
   x="65.234474"
   y="-726.82355"
   id="text1137"
   transform="scale(1,-1)"><tspan
     sodipodi:role="line"
     id="tspan1135"
     x="65.234474"
     y="-726.82355"
     style="stroke-width:0.75">separated hamlets</tspan></text>

</g><g
       id="g1270"><g
         id="g1156"
         transform="translate(0,1.5399763e-5)"><text
   y="-1065.3303"
   x="23.124905"
   id="text198"
   style="font-variant:normal;font-weight:normal;font-size:29.48176575px;font-family:ZapfDingbats;-inkscape-font-specification:ZapfDingbats;writing-mode:lr-tb;fill:#000000;fill-opacity:1;fill-rule:nonzero;stroke:none;stroke-width:1.31380415"
   transform="scale(1,-1)"><tspan
     style="stroke-width:1.31380415"
     id="tspan196"
     y="-1065.3303"
     x="23.124905"></tspan></text>

<text
   transform="scale(1,-1)"
   id="text1107"
   y="-1077.0698"
   x="64.514473"
   style="font-style:normal;font-variant:normal;font-weight:normal;font-stretch:normal;font-size:30px;line-height:2ex;font-family:'URW Gothic L';-inkscape-font-specification:'URW Gothic L, Normal';font-variant-ligatures:normal;font-variant-caps:normal;font-variant-numeric:normal;font-feature-settings:normal;text-align:start;letter-spacing:0px;word-spacing:0px;writing-mode:lr-tb;text-anchor:start;fill:#000000;fill-opacity:1;stroke:none;stroke-width:0.75"
   xml:space="preserve"><tspan
     style="stroke-width:0.75"
     y="-1077.0698"
     x="64.514473"
     id="tspan1105"
     sodipodi:role="line">data not</tspan><tspan
     id="tspan1109"
     style="stroke-width:0.75"
     y="-1047.0698"
     x="64.514473"
     sodipodi:role="line">available</tspan></text>

</g><g
         id="g1163"
         transform="translate(0,-6.0542465)"><text
   y="-1007.0121"
   x="23.124905"
   id="text202"
   style="font-variant:normal;font-weight:normal;font-size:29.48176575px;font-family:ZapfDingbats;-inkscape-font-specification:ZapfDingbats;writing-mode:lr-tb;fill:#a6cee3;fill-opacity:1;fill-rule:nonzero;stroke:none;stroke-width:1.31380415"
   transform="scale(1,-1)"><tspan
     style="stroke-width:1.31380415"
     id="tspan200"
     y="-1007.0121"
     x="23.124905"></tspan></text>

<text
   transform="scale(1,-1)"
   id="text1113"
   y="-1018.7517"
   x="65.294472"
   style="font-style:normal;font-variant:normal;font-weight:normal;font-stretch:normal;font-size:30px;line-height:2ex;font-family:'URW Gothic L';-inkscape-font-specification:'URW Gothic L, Normal';font-variant-ligatures:normal;font-variant-caps:normal;font-variant-numeric:normal;font-feature-settings:normal;text-align:start;letter-spacing:0px;word-spacing:0px;writing-mode:lr-tb;text-anchor:start;fill:#000000;fill-opacity:1;stroke:none;stroke-width:0.75"
   xml:space="preserve"><tspan
     style="stroke-width:0.75"
     y="-1018.7517"
     x="65.294472"
     id="tspan1111"
     sodipodi:role="line">fully migratory</tspan><tspan
     id="tspan1115"
     style="stroke-width:0.75"
     y="-988.75171"
     x="65.294472"
     sodipodi:role="line">or nomadic</tspan></text>

</g><g
         id="g1228"><text
   y="-951.58545"
   x="23.124905"
   id="text206"
   style="font-variant:normal;font-weight:normal;font-size:29.48176575px;font-family:ZapfDingbats;-inkscape-font-specification:ZapfDingbats;writing-mode:lr-tb;fill:#1f78b4;fill-opacity:1;fill-rule:nonzero;stroke:none;stroke-width:1.31380415"
   transform="scale(1,-1)"><tspan
     style="stroke-width:1.31380415"
     id="tspan204"
     y="-951.58545"
     x="23.124905"></tspan></text>

<text
   transform="scale(1,-1)"
   id="text1119"
   y="-948.32501"
   x="65.234474"
   style="font-style:normal;font-variant:normal;font-weight:normal;font-stretch:normal;font-size:30px;line-height:2ex;font-family:'URW Gothic L';-inkscape-font-specification:'URW Gothic L, Normal';font-variant-ligatures:normal;font-variant-caps:normal;font-variant-numeric:normal;font-feature-settings:normal;text-align:start;letter-spacing:0px;word-spacing:0px;writing-mode:lr-tb;text-anchor:start;fill:#000000;fill-opacity:1;stroke:none;stroke-width:0.75"
   xml:space="preserve"><tspan
     style="stroke-width:0.75"
     y="-948.32501"
     x="65.234474"
     id="tspan1117"
     sodipodi:role="line">seminomadic</tspan></text>

</g><g
         id="g1185"
         transform="translate(0,12.807756)"><text
   y="-901.72028"
   x="23.124905"
   id="text210"
   style="font-variant:normal;font-weight:normal;font-size:29.48176575px;font-family:ZapfDingbats;-inkscape-font-specification:ZapfDingbats;writing-mode:lr-tb;fill:#b2df8a;fill-opacity:1;fill-rule:nonzero;stroke:none;stroke-width:1.31380415"
   transform="scale(1,-1)"><tspan
     style="stroke-width:1.31380415"
     id="tspan208"
     y="-901.72028"
     x="23.124905"></tspan></text>

<text
   transform="scale(1,-1)"
   id="text1123"
   y="-901.14484"
   x="65.234474"
   style="font-style:normal;font-variant:normal;font-weight:normal;font-stretch:normal;font-size:30px;line-height:2ex;font-family:'URW Gothic L';-inkscape-font-specification:'URW Gothic L, Normal';font-variant-ligatures:normal;font-variant-caps:normal;font-variant-numeric:normal;font-feature-settings:normal;text-align:start;letter-spacing:0px;word-spacing:0px;writing-mode:lr-tb;text-anchor:start;fill:#000000;fill-opacity:1;stroke:none;stroke-width:0.75"
   xml:space="preserve"><tspan
     style="stroke-width:0.75"
     y="-901.14484"
     x="65.234474"
     id="tspan1121"
     sodipodi:role="line">semisedentary</tspan></text>

</g><g
         id="g1192"
         transform="translate(0,22.309448)"><text
   y="-837.47614"
   x="23.124905"
   id="text214"
   style="font-variant:normal;font-weight:normal;font-size:29.48176575px;font-family:ZapfDingbats;-inkscape-font-specification:ZapfDingbats;writing-mode:lr-tb;fill:#33a02c;fill-opacity:1;fill-rule:nonzero;stroke:none;stroke-width:1.31380415"
   transform="scale(1,-1)"><tspan
     style="stroke-width:1.31380415"
     id="tspan212"
     y="-837.47614"
     x="23.124905"></tspan></text>

<text
   transform="scale(1,-1)"
   id="text1127"
   y="-851.9007"
   x="64.514473"
   style="font-style:normal;font-variant:normal;font-weight:normal;font-stretch:normal;font-size:30px;line-height:2ex;font-family:'URW Gothic L';-inkscape-font-specification:'URW Gothic L, Normal';font-variant-ligatures:normal;font-variant-caps:normal;font-variant-numeric:normal;font-feature-settings:normal;text-align:start;letter-spacing:0px;word-spacing:0px;writing-mode:lr-tb;text-anchor:start;fill:#000000;fill-opacity:1;stroke:none;stroke-width:0.75"
   xml:space="preserve"><tspan
     style="stroke-width:0.75"
     y="-851.9007"
     x="64.514473"
     id="tspan1125"
     sodipodi:role="line">compact but</tspan><tspan
     id="tspan1129"
     style="stroke-width:0.75"
     y="-821.9007"
     x="64.514473"
     sodipodi:role="line">impermanent</tspan></text>

</g><g
         id="g1199"
         transform="translate(0,24.309594)"><text
   y="-768.41852"
   x="23.124905"
   id="text218"
   style="font-variant:normal;font-weight:normal;font-size:29.48176575px;font-family:ZapfDingbats;-inkscape-font-specification:ZapfDingbats;writing-mode:lr-tb;fill:#fb9a99;fill-opacity:1;fill-rule:nonzero;stroke:none;stroke-width:1.31380415"
   transform="scale(1,-1)"><tspan
     style="stroke-width:1.31380415"
     id="tspan216"
     y="-768.41852"
     x="23.124905"></tspan></text>

<text
   transform="scale(1,-1)"
   id="text1133"
   y="-780.15808"
   x="64.514473"
   style="font-style:normal;font-variant:normal;font-weight:normal;font-stretch:normal;font-size:30px;line-height:2ex;font-family:'URW Gothic L';-inkscape-font-specification:'URW Gothic L, Normal';font-variant-ligatures:normal;font-variant-caps:normal;font-variant-numeric:normal;font-feature-settings:normal;text-align:start;letter-spacing:0px;word-spacing:0px;writing-mode:lr-tb;text-anchor:start;fill:#000000;fill-opacity:1;stroke:none;stroke-width:0.75"
   xml:space="preserve"><tspan
     style="stroke-width:0.75"
     y="-780.15808"
     x="64.514473"
     id="tspan1131"
     sodipodi:role="line">dispersed</tspan><tspan
     id="tspan1149"
     style="stroke-width:0.75"
     y="-750.15808"
     x="64.514473"
     sodipodi:role="line">homesteads</tspan></text>

</g><g
         id="g1212"
         transform="translate(0,14.13586)"><text
   y="-671.79236"
   x="23.124905"
   id="text226"
   style="font-variant:normal;font-weight:normal;font-size:29.48176575px;font-family:ZapfDingbats;-inkscape-font-specification:ZapfDingbats;writing-mode:lr-tb;fill:#fdbf6f;fill-opacity:1;fill-rule:nonzero;stroke:none;stroke-width:1.31380415"
   transform="scale(1,-1)"><tspan
     style="stroke-width:1.31380415"
     id="tspan224"
     y="-671.79236"
     x="23.124905"></tspan></text>

<text
   transform="scale(1,-1)"
   id="text1141"
   y="-686.21692"
   x="64.514473"
   style="font-style:normal;font-variant:normal;font-weight:normal;font-stretch:normal;font-size:30px;line-height:2ex;font-family:'URW Gothic L';-inkscape-font-specification:'URW Gothic L, Normal';font-variant-ligatures:normal;font-variant-caps:normal;font-variant-numeric:normal;font-feature-settings:normal;text-align:start;letter-spacing:0px;word-spacing:0px;writing-mode:lr-tb;text-anchor:start;fill:#000000;fill-opacity:1;stroke:none;stroke-width:0.75"
   xml:space="preserve"><tspan
     style="stroke-width:0.75"
     y="-686.21692"
     x="64.514473"
     id="tspan1139"
     sodipodi:role="line">compact and</tspan><tspan
     id="tspan1143"
     style="stroke-width:0.75"
     y="-656.21692"
     x="64.514473"
     sodipodi:role="line">permanent</tspan></text>

</g></g><g
       transform="translate(0,16.499979)"
       id="g1218"><text
   transform="scale(1,-1)"
   style="font-variant:normal;font-weight:normal;font-size:29.48176575px;font-family:ZapfDingbats;-inkscape-font-specification:ZapfDingbats;writing-mode:lr-tb;fill:#ff7f00;fill-opacity:1;fill-rule:nonzero;stroke:none;stroke-width:1.31380415"
   id="text230"
   x="23.124905"
   y="-614.68579"><tspan
     x="23.124905"
     y="-614.68579"
     id="tspan228"
     style="stroke-width:1.31380415"></tspan></text>

<text
   xml:space="preserve"
   style="font-style:normal;font-variant:normal;font-weight:normal;font-stretch:normal;font-size:30px;line-height:2ex;font-family:'URW Gothic L';-inkscape-font-specification:'URW Gothic L, Normal';font-variant-ligatures:normal;font-variant-caps:normal;font-variant-numeric:normal;font-feature-settings:normal;text-align:start;letter-spacing:0px;word-spacing:0px;writing-mode:lr-tb;text-anchor:start;fill:#000000;fill-opacity:1;stroke:none;stroke-width:0.75"
   x="64.514473"
   y="-614.11035"
   id="text1147"
   transform="scale(1,-1)"><tspan
     sodipodi:role="line"
     id="tspan1145"
     x="64.514473"
     y="-614.11035"
     style="stroke-width:0.75">complex settlements</tspan></text>

</g></g></g><text
   xml:space="preserve"
   style="font-style:normal;font-variant:normal;font-weight:normal;font-stretch:normal;font-size:30px;line-height:0;font-family:sans-serif;-inkscape-font-specification:'sans-serif, Normal';font-variant-ligatures:normal;font-variant-position:normal;font-variant-caps:normal;font-variant-numeric:normal;font-variant-alternates:normal;font-feature-settings:normal;text-indent:0;text-align:center;text-decoration:none;text-decoration-line:none;text-decoration-style:solid;text-decoration-color:#000000;letter-spacing:0px;word-spacing:0px;text-transform:none;writing-mode:lr-tb;direction:ltr;text-orientation:mixed;dominant-baseline:auto;baseline-shift:baseline;text-anchor:middle;white-space:normal;shape-padding:0;opacity:1;vector-effect:none;fill:#000000;fill-opacity:1;stroke:none;stroke-width:0.75;stroke-linecap:butt;stroke-linejoin:miter;stroke-miterlimit:4;stroke-dasharray:none;stroke-dashoffset:0;stroke-opacity:1"
   x="4.362483"
   y="-979.96924"
   id="text1075"
   transform="scale(1,-1)"><tspan
     sodipodi:role="line"
     x="4.362483"
     y="-979.96924"
     style="font-style:normal;font-variant:normal;font-weight:600;font-stretch:normal;font-size:30px;line-height:2ex;font-family:'URW Gothic L';-inkscape-font-specification:'URW Gothic L, Semi-Bold';font-variant-ligatures:normal;font-variant-position:normal;font-variant-caps:normal;font-variant-numeric:normal;font-variant-alternates:normal;font-feature-settings:normal;text-indent:0;text-align:start;text-decoration:none;text-decoration-line:none;text-decoration-style:solid;text-decoration-color:#000000;letter-spacing:0px;word-spacing:0px;text-transform:none;writing-mode:lr-tb;direction:ltr;text-orientation:mixed;dominant-baseline:auto;baseline-shift:baseline;text-anchor:start;white-space:normal;shape-padding:0;vector-effect:none;fill:#000000;fill-opacity:1;stroke:none;stroke-width:0.75;stroke-linecap:butt;stroke-linejoin:miter;stroke-miterlimit:4;stroke-dasharray:none;stroke-dashoffset:0;stroke-opacity:1"
     id="tspan1077">Settlement pattern</tspan><tspan
     sodipodi:role="line"
     x="4.362483"
     y="-949.96924"
     style="font-style:normal;font-variant:normal;font-weight:600;font-stretch:normal;font-size:30px;line-height:2ex;font-family:'URW Gothic L';-inkscape-font-specification:'URW Gothic L, Semi-Bold';font-variant-ligatures:normal;font-variant-position:normal;font-variant-caps:normal;font-variant-numeric:normal;font-variant-alternates:normal;font-feature-settings:normal;text-indent:0;text-align:start;text-decoration:none;text-decoration-line:none;text-decoration-style:solid;text-decoration-color:#000000;letter-spacing:0px;word-spacing:0px;text-transform:none;writing-mode:lr-tb;direction:ltr;text-orientation:mixed;dominant-baseline:auto;baseline-shift:baseline;text-anchor:start;white-space:normal;shape-padding:0;vector-effect:none;fill:#000000;fill-opacity:1;stroke:none;stroke-width:0.75;stroke-linecap:butt;stroke-linejoin:miter;stroke-miterlimit:4;stroke-dasharray:none;stroke-dashoffset:0;stroke-opacity:1"
     id="tspan1095">and size (v30)</tspan></text>

</g></svg>