<?xml version="1.0" encoding="UTF-8" standalone="no"?>
<!-- Created with Inkscape (http://www.inkscape.org/) -->

<svg
   xmlns:dc="http://purl.org/dc/elements/1.1/"
   xmlns:cc="http://creativecommons.org/ns#"
   xmlns:rdf="http://www.w3.org/1999/02/22-rdf-syntax-ns#"
   xmlns:svg="http://www.w3.org/2000/svg"
   xmlns="http://www.w3.org/2000/svg"
   xmlns:sodipodi="http://sodipodi.sourceforge.net/DTD/sodipodi-0.dtd"
   xmlns:inkscape="http://www.inkscape.org/namespaces/inkscape"
   version="1.1"
   id="svg2"
   xml:space="preserve"
   width="1150.7329"
   height="903.2132"
   viewBox="0 0 1150.7329 903.2132"
   sodipodi:docname="ward.D_k6_v31.svg"
   inkscape:version="0.92.4 (unknown)"><metadata
     id="metadata8"><rdf:RDF><cc:Work
         rdf:about=""><dc:format>image/svg+xml</dc:format><dc:type
           rdf:resource="http://purl.org/dc/dcmitype/StillImage" /><dc:title /></cc:Work></rdf:RDF></metadata><defs
     id="defs6"><clipPath
       clipPathUnits="userSpaceOnUse"
       id="clipPath20"><path
         d="m 285.12,672 h 289.44 v 336 H 285.12 Z"
         id="path18"
         inkscape:connector-curvature="0" /></clipPath><clipPath
       clipPathUnits="userSpaceOnUse"
       id="clipPath50"><path
         d="M 574.56,672 H 864 v 336 H 574.56 Z"
         id="path48"
         inkscape:connector-curvature="0" /></clipPath><clipPath
       clipPathUnits="userSpaceOnUse"
       id="clipPath80"><path
         d="M 285.12,336 H 574.56 V 672 H 285.12 Z"
         id="path78"
         inkscape:connector-curvature="0" /></clipPath><clipPath
       clipPathUnits="userSpaceOnUse"
       id="clipPath110"><path
         d="M 574.56,336 H 864 V 672 H 574.56 Z"
         id="path108"
         inkscape:connector-curvature="0" /></clipPath><clipPath
       clipPathUnits="userSpaceOnUse"
       id="clipPath140"><path
         d="M 285.12,0 H 574.56 V 336 H 285.12 Z"
         id="path138"
         inkscape:connector-curvature="0" /></clipPath><clipPath
       clipPathUnits="userSpaceOnUse"
       id="clipPath170"><path
         d="M 574.56,0 H 864 V 336 H 574.56 Z"
         id="path168"
         inkscape:connector-curvature="0" /></clipPath></defs><sodipodi:namedview
     pagecolor="#ffffff"
     bordercolor="#666666"
     borderopacity="1"
     objecttolerance="10"
     gridtolerance="10"
     guidetolerance="10"
     inkscape:pageopacity="0"
     inkscape:pageshadow="2"
     inkscape:window-width="1278"
     inkscape:window-height="1357"
     id="namedview4"
     showgrid="false"
     inkscape:zoom="0.49665834"
     inkscape:cx="203.5455"
     inkscape:cy="327.53912"
     inkscape:window-x="1280"
     inkscape:window-y="31"
     inkscape:window-maximized="0"
     inkscape:current-layer="g1225" /><g
     id="g10"
     inkscape:groupmode="layer"
     inkscape:label="ward.D_k6_v31"
     transform="matrix(1.3333333,0,0,-1.3333333,-7.2403695,1334.2799)"><g
   id="g12" /><path
   d="m 640.54,892.5 v 0.68 l -0.01,0.67 -0.01,0.68 -0.01,0.67 -0.02,0.68 -0.03,0.67 -0.02,0.68 -0.04,0.67 -0.03,0.68 -0.04,0.67 -0.05,0.68 -0.05,0.67 -0.05,0.67 -0.06,0.68 -0.06,0.67 -0.06,0.67 -0.07,0.67 -0.08,0.68 -0.08,0.67 -0.08,0.67 -0.09,0.67 -0.09,0.67 -0.09,0.67 -0.1,0.66 -0.11,0.67 -0.11,0.67 -0.11,0.67 -0.12,0.66 -0.12,0.67 -0.12,0.66 -0.13,0.66 -0.13,0.67 -0.14,0.66 -0.14,0.66 -0.15,0.66 -0.15,0.66 -0.15,0.65 -0.16,0.66 -0.16,0.66 -0.17,0.65 -0.17,0.66 -0.17,0.65 -0.18,0.65 -0.19,0.65 -0.18,0.65 -0.19,0.65 -0.2,0.64 -0.2,0.65 -0.2,0.64 -0.21,0.65 -0.21,0.64 -0.22,0.64 -0.22,0.64 -0.22,0.64 -0.23,0.63 -0.23,0.64 -0.23,0.63 -0.24,0.63 -0.25,0.63 -0.25,0.63 -0.25,0.63 -0.25,0.62 -0.26,0.63 -0.26,0.62 -0.27,0.62 -0.27,0.62 -0.28,0.62 -0.28,0.61 -0.28,0.62 -0.29,0.61 -0.29,0.61 -0.29,0.61 -0.3,0.6 -0.3,0.61 -0.31,0.6 -0.31,0.6 -0.31,0.6 -0.32,0.6 -0.32,0.59 -0.32,0.59 -0.33,0.59 -0.33,0.59 -0.34,0.59 -0.34,0.58 -0.34,0.58 -0.35,0.58 -0.35,0.58 -0.35,0.58 -0.36,0.57 -0.36,0.57 -0.37,0.57 -0.36,0.57 -0.38,0.56 -0.37,0.56 -0.38,0.56 -0.38,0.56 -0.39,0.55 -0.39,0.56 -0.39,0.55 -0.4,0.54 -0.4,0.55 -0.4,0.54 -0.41,0.54 -0.41,0.54 -0.41,0.53 -0.42,0.53 -0.42,0.53 -0.42,0.53 -0.43,0.52 -0.43,0.52 -0.43,0.52 -0.44,0.52 -0.44,0.51 -0.44,0.51 -0.45,0.51 -0.45,0.5 -0.45,0.5 -0.46,0.5 -0.46,0.5 -0.46,0.49 -0.46,0.49 -0.47,0.49 -0.47,0.48 -0.48,0.48 -0.48,0.48 -0.48,0.47 -0.48,0.48 -0.49,0.47 -0.49,0.46 -0.49,0.46 -0.49,0.46 -0.5,0.46 -0.5,0.45 -0.51,0.45 -0.5,0.45 -0.51,0.45 -0.51,0.44 -0.52,0.43 -0.52,0.44 -0.52,0.43 -0.52,0.43 -0.53,0.42 -0.53,0.42 -0.53,0.42 -0.53,0.41 -0.54,0.41 -0.54,0.41 -0.54,0.41 -0.54,0.4 -0.55,0.39 -0.55,0.4 -0.55,0.39 -0.55,0.38 -0.56,0.39 -0.56,0.38 -0.56,0.37 -0.56,0.38 -0.57,0.37 -0.57,0.36 -0.57,0.36 -0.57,0.36 -0.58,0.36 -0.57,0.35 -0.58,0.35 -0.58,0.34 -0.59,0.34 -0.58,0.34 -0.59,0.33 -0.59,0.33 -0.59,0.32 -0.6,0.33 -0.59,0.31 -0.6,0.32 -0.6,0.31 -0.6,0.3 -0.61,0.31 -0.6,0.3 -0.61,0.29 -0.61,0.29 -0.61,0.29 -0.62,0.28 -0.61,0.28 -0.62,0.28 -0.62,0.27 -0.62,0.27 -0.62,0.26 -0.62,0.26 -0.63,0.26 -0.63,0.25 -0.62,0.25 -0.63,0.24 -0.63,0.25 -0.64,0.23 -0.63,0.23 -0.64,0.23 -0.64,0.23 -0.63,0.22 -0.64,0.21 -0.65,0.22 -0.64,0.2 -0.64,0.21 -0.65,0.2 -0.64,0.19 -0.65,0.2 -0.65,0.18 -0.65,0.19 -0.65,0.18 -0.66,0.17 -0.65,0.18 -0.65,0.16 -0.66,0.17 -0.66,0.15 -0.65,0.16 -0.66,0.15 -0.66,0.15 -0.66,0.14 -0.66,0.14 -0.67,0.13 -0.66,0.13 -0.66,0.13 -0.67,0.12 -0.66,0.12 -0.67,0.11 -0.67,0.11 -0.66,0.1 -0.67,0.1 -0.67,0.1 -0.67,0.09 -0.67,0.09 -0.67,0.08 -0.67,0.08 -0.67,0.08 -0.67,0.07 -0.68,0.07 -0.67,0.06 -0.67,0.06 -0.68,0.05 -0.67,0.05 -0.67,0.05 -0.68,0.04 -0.67,0.04 -0.68,0.03 -0.67,0.03 -0.68,0.02 -0.67,0.02 -0.68,0.02 -0.68,0.01 -0.67,0.01 h -0.68 -0.67 l -0.68,-0.01 -0.67,-0.01 -0.68,-0.01 -0.67,-0.02 -0.68,-0.02 -0.68,-0.03 -0.67,-0.03 -0.67,-0.03 -0.68,-0.04 -0.67,-0.05 -0.68,-0.05 -0.67,-0.05 -0.67,-0.05 -0.68,-0.07 -0.67,-0.06 -0.67,-0.07 -0.67,-0.07 -0.68,-0.08 -0.67,-0.08 -0.67,-0.09 -0.67,-0.09 -0.66,-0.09 -0.67,-0.1 -0.67,-0.11 -0.67,-0.1 -0.66,-0.11 -0.67,-0.12 -0.67,-0.12 -0.66,-0.12 -0.66,-0.13 -0.67,-0.13 -0.66,-0.14 -0.66,-0.14 -0.66,-0.15 -0.66,-0.15 -0.65,-0.15 -0.66,-0.16 -0.66,-0.16 -0.65,-0.16 -0.66,-0.17 -0.65,-0.18 -0.65,-0.18 -0.65,-0.18 -0.65,-0.18 -0.65,-0.19 -0.65,-0.2 -0.64,-0.2 -0.65,-0.2 -0.64,-0.21 -0.64,-0.21 -0.64,-0.21 -0.64,-0.22 -0.64,-0.22 -0.64,-0.23 -0.63,-0.23 -0.64,-0.23 -0.63,-0.24 -0.63,-0.25 -0.63,-0.24 -0.63,-0.25 -0.62,-0.26 -0.63,-0.26 -0.62,-0.26 -0.62,-0.26 -0.62,-0.28 -0.62,-0.27 -0.61,-0.28 -0.62,-0.28 -0.61,-0.28 -0.61,-0.29 -0.61,-0.3 -0.6,-0.3 -0.61,-0.3 -0.6,-0.3 -0.6,-0.31 -0.6,-0.31 -0.6,-0.32 -0.59,-0.32 -0.6,-0.32 -0.59,-0.33 -0.59,-0.33 -0.58,-0.34 -0.59,-0.34 -0.58,-0.34 -0.58,-0.34 -0.58,-0.35 -0.58,-0.36 -0.57,-0.35 -0.57,-0.36 -0.57,-0.37 -0.57,-0.37 -0.56,-0.37 -0.56,-0.37 -0.56,-0.38 -0.56,-0.38 -0.56,-0.39 -0.55,-0.39 -0.55,-0.39 -0.55,-0.39 -0.54,-0.4 -0.54,-0.41 -0.54,-0.4 -0.54,-0.41 -0.54,-0.41 -0.53,-0.42 -0.53,-0.42 -0.53,-0.42 -0.52,-0.43 -0.52,-0.43 -0.52,-0.43 -0.52,-0.44 -0.51,-0.44 -0.51,-0.44 -0.51,-0.45 -0.5,-0.44 -0.51,-0.46 -0.5,-0.45 -0.49,-0.46 -0.5,-0.46 -0.49,-0.47 -0.48,-0.46 -0.49,-0.47 -0.48,-0.48 -0.48,-0.48 -0.47,-0.47 -0.48,-0.49 -0.47,-0.48 -0.46,-0.49 -0.47,-0.49 -0.46,-0.5 -0.45,-0.5 -0.46,-0.5 -0.45,-0.5 -0.45,-0.51 80.51,-70.78 z"
   style="fill:#000000;fill-opacity:1;fill-rule:nonzero;stroke:none"
   id="path22"
   inkscape:connector-curvature="0" /><path
   d="m 452.83,963.28 -0.44,-0.5 -0.44,-0.52 -0.44,-0.51 -0.44,-0.52 -0.43,-0.52 -0.43,-0.52 -0.42,-0.53 -0.42,-0.53 -0.42,-0.53 -0.42,-0.53 -0.41,-0.54 -0.41,-0.54 -0.4,-0.54 -0.41,-0.54 -0.39,-0.55 -0.4,-0.55 -0.39,-0.55 -0.39,-0.55 -0.38,-0.56 -0.38,-0.56 -0.38,-0.56 -0.37,-0.56 -0.37,-0.57 -0.37,-0.56 -0.36,-0.57 -0.36,-0.58 -0.36,-0.57 -0.35,-0.58 -0.35,-0.58 -0.34,-0.58 -0.34,-0.58 -0.34,-0.59 -0.34,-0.59 -0.33,-0.59 -0.32,-0.59 -0.32,-0.59 -0.32,-0.6 -0.32,-0.6 -0.31,-0.6 -0.31,-0.6 -0.3,-0.6 -0.3,-0.61 -0.3,-0.61 -0.29,-0.61 -0.29,-0.61 -0.28,-0.61 -0.28,-0.62 -0.28,-0.61 -0.27,-0.62 -0.27,-0.62 -0.27,-0.63 -0.26,-0.62 -0.25,-0.62 -0.26,-0.63 -0.25,-0.63 -0.24,-0.63 -0.24,-0.63 -0.24,-0.63 -0.23,-0.64 -0.23,-0.64 -0.23,-0.63 -0.22,-0.64 -0.22,-0.64 -0.21,-0.64 -0.21,-0.65 -0.2,-0.64 -0.2,-0.65 -0.2,-0.64 -0.19,-0.65 -0.19,-0.65 -0.19,-0.65 -0.18,-0.65 -0.17,-0.65 -0.18,-0.66 -0.16,-0.65 -0.17,-0.66 -0.16,-0.66 -0.15,-0.65 -0.16,-0.66 -0.14,-0.66 -0.15,-0.66 -0.14,-0.66 -0.13,-0.67 -0.13,-0.66 -0.13,-0.66 -0.12,-0.67 -0.12,-0.67 -0.11,-0.66 -0.11,-0.67 -0.11,-0.67 -0.1,-0.67 -0.1,-0.66 -0.09,-0.67 -0.09,-0.67 -0.08,-0.67 -0.08,-0.68 -0.08,-0.67 -0.07,-0.67 -0.07,-0.67 -0.06,-0.68 -0.06,-0.67 -0.05,-0.67 -0.06,-0.68 -0.04,-0.67 -0.04,-0.68 -0.04,-0.67 -0.03,-0.68 -0.03,-0.67 -0.03,-0.68 -0.02,-0.67 -0.02,-0.68 -0.01,-0.68 -0.01,-0.67 v -0.68 -0.67 l 0.01,-0.68 v -0.68 l 0.02,-0.67 0.02,-0.68 0.02,-0.67 0.02,-0.68 0.03,-0.67 0.04,-0.68 0.04,-0.67 0.04,-0.68 0.05,-0.67 0.05,-0.68 0.06,-0.67 0.06,-0.68 0.06,-0.67 0.07,-0.67 0.07,-0.67 0.08,-0.67 0.08,-0.68 0.09,-0.67 0.09,-0.67 0.09,-0.67 0.1,-0.66 0.1,-0.67 0.11,-0.67 0.11,-0.67 0.11,-0.66 0.12,-0.67 0.13,-0.66 0.13,-0.67 0.13,-0.66 0.13,-0.66 0.14,-0.66 0.15,-0.66 0.15,-0.66 0.15,-0.66 0.16,-0.66 0.16,-0.66 0.16,-0.65 0.17,-0.66 0.18,-0.65 0.17,-0.65 0.18,-0.65 0.19,-0.65 0.19,-0.65 0.19,-0.65 0.2,-0.65 0.2,-0.64 0.21,-0.65 0.21,-0.64 0.22,-0.64 0.21,-0.64 0.23,-0.64 0.22,-0.64 0.23,-0.63 0.24,-0.64 0.24,-0.63 0.24,-0.63 0.24,-0.63 0.25,-0.63 0.26,-0.62 0.26,-0.63 0.26,-0.62 0.27,-0.62 0.27,-0.62 0.27,-0.62 0.28,-0.62 0.28,-0.61 0.28,-0.61 0.29,-0.62 0.3,-0.6 0.29,-0.61 0.31,-0.61 0.3,-0.6 0.31,-0.6 0.31,-0.6 0.32,-0.6 0.32,-0.59 0.32,-0.6 0.33,-0.59 0.33,-0.59 0.33,-0.59 0.34,-0.58 0.34,-0.59 0.35,-0.58 0.35,-0.57 0.35,-0.58 0.36,-0.58 0.36,-0.57 0.36,-0.57 0.37,-0.56 0.37,-0.57 0.38,-0.56 0.38,-0.56 0.38,-0.56 0.38,-0.56 0.39,-0.55 0.39,-0.55 0.4,-0.55 0.4,-0.54 0.4,-0.55 0.41,-0.54 0.41,-0.54 0.41,-0.53 0.42,-0.53 0.41,-0.53 0.43,-0.53 0.42,-0.53 0.43,-0.52 0.44,-0.52 0.43,-0.52 0.44,-0.51 0.44,-0.51 0.45,-0.51 0.45,-0.5 0.45,-0.51 0.46,-0.5 0.45,-0.49 0.47,-0.5 0.46,-0.49 0.47,-0.49 0.47,-0.48 0.47,-0.48 0.48,-0.48 0.48,-0.48 0.48,-0.47 0.49,-0.47 0.49,-0.47 0.49,-0.46 0.49,-0.46 0.5,-0.46 0.5,-0.46 0.5,-0.45 0.51,-0.45 0.51,-0.44 0.51,-0.44 0.52,-0.44 0.51,-0.44 0.52,-0.43 0.53,-0.43 0.52,-0.42 0.53,-0.43 0.53,-0.41 0.53,-0.42 0.54,-0.41 0.54,-0.41 0.54,-0.41 0.54,-0.4 0.55,-0.4 0.55,-0.39 0.55,-0.39 0.55,-0.39 0.56,-0.39 0.56,-0.38 0.56,-0.37 0.56,-0.38 0.57,-0.37 0.57,-0.37 0.57,-0.36 0.57,-0.36 0.57,-0.35 0.58,-0.36 0.58,-0.34 0.58,-0.35 0.58,-0.34 0.59,-0.34 0.59,-0.33 0.59,-0.33 0.59,-0.33 0.59,-0.32 0.6,-0.32 0.6,-0.32 0.6,-0.31 0.6,-0.31 0.6,-0.3 0.61,-0.3 0.61,-0.3 0.61,-0.29 0.61,-0.29 0.61,-0.28 0.62,-0.28 0.61,-0.28 0.62,-0.27 0.62,-0.27 0.62,-0.27 0.63,-0.26 0.62,-0.26 0.63,-0.25 0.63,-0.25 0.63,-0.24 0.63,-0.25 0.63,-0.23 0.64,-0.24 0.63,-0.23 0.64,-0.22 0.64,-0.22 0.64,-0.22 0.64,-0.21 0.64,-0.21 32.88,102.03 z"
   style="fill:#a6cee3;fill-opacity:1;fill-rule:nonzero;stroke:none"
   id="path24"
   inkscape:connector-curvature="0" /><path
   d="m 500.46,790.47 0.65,-0.21 0.65,-0.2 0.65,-0.2 0.66,-0.2 0.65,-0.19 0.66,-0.18 0.65,-0.18 0.66,-0.18 0.66,-0.18 0.66,-0.17 0.66,-0.16 0.66,-0.16 0.66,-0.16 0.67,-0.15 0.66,-0.15 0.67,-0.14 0.66,-0.14 0.67,-0.14 0.67,-0.13 0.67,-0.13 0.67,-0.12 0.67,-0.12 0.67,-0.11 0.67,-0.11 0.68,-0.11 0.67,-0.1 0.67,-0.1 0.68,-0.09 0.67,-0.09 0.68,-0.08 0.68,-0.09 0.67,-0.07 0.68,-0.07 0.68,-0.07 0.68,-0.06 0.67,-0.06 0.68,-0.06 0.68,-0.05 0.68,-0.04 0.68,-0.04 0.68,-0.04 0.68,-0.03 0.68,-0.03 0.68,-0.02 0.69,-0.02 0.68,-0.02 0.68,-0.01 0.68,-0.01 h 0.68 0.68 l 0.68,0.01 0.68,0.01 0.68,0.01 0.68,0.02 0.69,0.03 0.68,0.02 0.68,0.04 0.68,0.03 0.68,0.04 0.68,0.05 0.67,0.05 0.68,0.05 0.68,0.06 0.68,0.06 0.68,0.07 0.68,0.07 0.67,0.08 0.68,0.08 0.68,0.08 0.67,0.09 0.68,0.09 0.67,0.1 0.67,0.1 0.68,0.1 0.67,0.11 0.67,0.12 0.67,0.11 0.67,0.13 0.67,0.12 0.67,0.13 0.67,0.14 0.66,0.14 0.67,0.14 0.66,0.15 0.67,0.15 0.66,0.16 0.66,0.16 0.66,0.16 0.66,0.17 0.66,0.18 0.66,0.17 0.66,0.19 0.65,0.18 0.66,0.19 0.65,0.19 0.65,0.2 0.65,0.2 0.65,0.21 0.65,0.21 0.64,0.22 0.65,0.21 0.64,0.23 0.64,0.22 0.65,0.24 0.64,0.23 0.63,0.24 0.64,0.24 0.63,0.25 0.64,0.25 0.63,0.26 0.63,0.26 0.63,0.26 0.62,0.27 0.63,0.27 0.62,0.27 0.62,0.28 0.62,0.28 0.62,0.29 0.62,0.29 0.61,0.3 0.61,0.3 0.61,0.3 0.61,0.3 0.61,0.31 0.6,0.32 0.6,0.32 0.6,0.32 0.6,0.32 0.6,0.33 0.59,0.34 0.59,0.33 0.59,0.34 0.59,0.35 0.59,0.35 0.58,0.35 0.58,0.35 0.58,0.36 0.58,0.37 0.57,0.36 0.57,0.37 0.57,0.38 0.57,0.37 0.56,0.39 0.56,0.38 0.56,0.39 0.56,0.39 0.56,0.4 0.55,0.39 0.55,0.41 0.55,0.4 0.54,0.41 0.54,0.41 0.54,0.42 0.54,0.42 0.53,0.42 0.53,0.43 0.53,0.43 0.53,0.43 0.52,0.44 0.52,0.44 0.52,0.44 0.51,0.45 0.51,0.45 0.51,0.45 0.51,0.45 0.5,0.46 0.5,0.47 0.5,0.46 0.49,0.47 0.49,0.47 0.49,0.48 0.49,0.48 0.48,0.48 0.48,0.48 0.48,0.49 0.47,0.49 0.47,0.49 -77.86,73.69 z"
   style="fill:#1f78b4;fill-opacity:1;fill-rule:nonzero;stroke:none"
   id="path26"
   inkscape:connector-curvature="0" /><path
   d="m 611.2,818.81 0.47,0.5 0.47,0.5 0.46,0.51 0.46,0.51 0.46,0.51 0.45,0.52 0.45,0.51 0.45,0.52 0.44,0.53 0.44,0.52 0.44,0.53 0.43,0.54 0.43,0.53 0.43,0.54 0.43,0.54 0.42,0.54 0.41,0.55 0.42,0.54 0.41,0.55 0.4,0.56 0.4,0.55 0.4,0.56 0.4,0.56 0.39,0.57 0.39,0.56 0.38,0.57 0.38,0.57 0.38,0.58 0.37,0.57 0.37,0.58 0.37,0.58 0.36,0.58 0.36,0.59 0.36,0.59 0.35,0.59 0.34,0.59 0.35,0.59 0.34,0.6 0.33,0.6 0.34,0.6 0.32,0.6 0.33,0.61 0.32,0.6 0.32,0.61 0.31,0.61 0.31,0.62 0.3,0.61 0.3,0.62 0.3,0.62 0.29,0.62 0.29,0.62 0.29,0.63 0.28,0.62 0.27,0.63 0.28,0.63 0.27,0.63 0.26,0.63 0.26,0.64 0.26,0.64 0.25,0.63 0.25,0.64 0.24,0.65 0.24,0.64 0.24,0.64 0.23,0.65 0.23,0.65 0.22,0.65 0.22,0.65 0.22,0.65 0.21,0.65 0.21,0.66 0.2,0.65 0.2,0.66 0.19,0.66 0.19,0.66 0.19,0.66 0.18,0.66 0.18,0.66 0.17,0.67 0.17,0.66 0.17,0.67 0.16,0.66 0.15,0.67 0.16,0.67 -104.62,23.4 z"
   style="fill:#b2df8a;fill-opacity:1;fill-rule:nonzero;stroke:none"
   id="path28"
   inkscape:connector-curvature="0" /><path
   d="m 637.96,869.1 0.14,0.68 0.15,0.68 0.14,0.68 0.14,0.68 0.13,0.68 0.12,0.68 0.13,0.68 0.12,0.69 0.11,0.68 0.11,0.69 0.1,0.68 0.11,0.69 0.09,0.69 0.09,0.68 0.09,0.69 0.08,0.69 0.08,0.69 0.08,0.69 0.07,0.69 0.06,0.69 0.06,0.69 0.06,0.69 0.05,0.7 0.05,0.69 0.04,0.69 0.04,0.69 0.03,0.7 0.03,0.69 0.02,0.69 0.02,0.7 0.02,0.69 0.01,0.69 0.01,0.7 v 0.69 h -107.2 z"
   style="fill:#33a02c;fill-opacity:1;fill-rule:nonzero;stroke:none"
   id="path30"
   inkscape:connector-curvature="0" /><path
   d="m 640.54,892.5 v 0 h -107.2 z"
   style="fill:#fb9a99;fill-opacity:1;fill-rule:nonzero;stroke:none"
   id="path32"
   inkscape:connector-curvature="0" /><path
   d="m 640.54,892.5 v 0 h -107.2 z"
   style="fill:#e31a1c;fill-opacity:1;fill-rule:nonzero;stroke:none"
   id="path34"
   inkscape:connector-curvature="0" /><path
   d="m 640.54,892.5 v 0 h -107.2 z"
   style="fill:#fdbf6f;fill-opacity:1;fill-rule:nonzero;stroke:none"
   id="path36"
   inkscape:connector-curvature="0" /><path
   d="m 640.54,892.5 v 0 h -107.2 z"
   style="fill:#ff7f00;fill-opacity:1;fill-rule:nonzero;stroke:none"
   id="path38"
   inkscape:connector-curvature="0" /><text
   transform="scale(1,-1)"
   style="font-style:normal;font-variant:normal;font-weight:600;font-stretch:normal;font-size:48px;font-family:'URW Gothic L';-inkscape-font-specification:'URW Gothic L, Semi-Bold';font-variant-ligatures:normal;font-variant-caps:normal;font-variant-numeric:normal;font-feature-settings:normal;text-align:start;writing-mode:lr-tb;text-anchor:start;fill:#ffffff;fill-opacity:1;fill-rule:nonzero;stroke:#000000;stroke-width:1.52474999;stroke-miterlimit:4;stroke-dasharray:none;stroke-opacity:1"
   id="text42"
   x="522.21997"
   y="-878.29999"><tspan
     x="522.21997"
     y="-878.29999"
     id="tspan40"
     style="font-style:normal;font-variant:normal;font-weight:600;font-stretch:normal;font-size:48px;font-family:'URW Gothic L';-inkscape-font-specification:'URW Gothic L, Semi-Bold';font-variant-ligatures:normal;font-variant-caps:normal;font-variant-numeric:normal;font-feature-settings:normal;text-align:start;writing-mode:lr-tb;text-anchor:start;fill:#ffffff;fill-opacity:1;stroke:#000000;stroke-width:1.52474999;stroke-miterlimit:4;stroke-dasharray:none;stroke-opacity:1">1</tspan></text>

<path
   d="m 868.48,892.5 v 0.68 l -0.01,0.67 -0.01,0.68 -0.01,0.67 -0.02,0.68 -0.03,0.68 -0.02,0.67 -0.04,0.68 -0.03,0.67 -0.04,0.68 -0.05,0.67 -0.05,0.68 -0.05,0.67 -0.06,0.67 -0.06,0.68 -0.07,0.67 -0.07,0.67 -0.07,0.67 -0.08,0.68 -0.08,0.67 -0.09,0.67 -0.09,0.67 -0.1,0.67 -0.1,0.67 -0.1,0.66 -0.11,0.67 -0.11,0.67 -0.12,0.66 -0.12,0.67 -0.12,0.66 -0.13,0.67 -0.14,0.66 -0.13,0.66 -0.15,0.66 -0.14,0.66 -0.15,0.66 -0.16,0.66 -0.15,0.66 -0.17,0.66 -0.16,0.65 -0.17,0.65 -0.18,0.66 -0.18,0.65 -0.18,0.65 -0.19,0.65 -0.19,0.65 -0.2,0.65 -0.2,0.64 -0.2,0.65 -0.21,0.64 -0.21,0.64 -0.21,0.64 -0.22,0.64 -0.23,0.64 -0.23,0.64 -0.23,0.63 -0.23,0.64 -0.24,0.63 -0.25,0.63 -0.25,0.63 -0.25,0.63 -0.25,0.62 -0.26,0.63 -0.27,0.62 -0.26,0.62 -0.28,0.62 -0.27,0.62 -0.28,0.61 -0.28,0.62 -0.29,0.61 -0.29,0.61 -0.3,0.61 -0.29,0.6 -0.31,0.61 -0.3,0.6 -0.31,0.6 -0.32,0.6 -0.31,0.6 -0.33,0.59 -0.32,0.6 -0.33,0.59 -0.33,0.59 -0.34,0.58 -0.34,0.59 -0.34,0.58 -0.35,0.58 -0.35,0.58 -0.35,0.57 -0.36,0.58 -0.36,0.57 -0.37,0.57 -0.37,0.56 -0.37,0.57 -0.38,0.56 -0.38,0.56 -0.38,0.56 -0.39,0.55 -0.39,0.55 -0.39,0.55 -0.4,0.55 -0.4,0.55 -0.4,0.54 -0.41,0.54 -0.41,0.54 -0.41,0.53 -0.42,0.53 -0.42,0.53 -0.43,0.53 -0.42,0.52 -0.43,0.52 -0.44,0.52 -0.44,0.52 -0.44,0.51 -0.44,0.51 -0.45,0.51 -0.45,0.5 -0.45,0.5 -0.46,0.5 -0.46,0.5 -0.46,0.49 -0.47,0.49 -0.46,0.49 -0.48,0.48 -0.47,0.48 -0.48,0.48 -0.48,0.48 -0.48,0.47 -0.49,0.47 -0.49,0.46 -0.49,0.47 -0.5,0.46 -0.5,0.45 -0.5,0.46 -0.51,0.45 -0.5,0.44 -0.51,0.45 -0.52,0.44 -0.51,0.44 -0.52,0.43 -0.52,0.43 -0.52,0.43 -0.53,0.42 -0.53,0.42 -0.53,0.42 -0.54,0.42 -0.53,0.41 -0.54,0.4 -0.54,0.41 -0.55,0.4 -0.55,0.4 -0.55,0.39 -0.55,0.39 -0.55,0.39 -0.56,0.38 -0.56,0.38 -0.56,0.38 -0.57,0.37 -0.56,0.37 -0.57,0.36 -0.57,0.37 -0.58,0.35 -0.57,0.36 -0.58,0.35 -0.58,0.35 -0.58,0.34 -0.59,0.34 -0.58,0.34 -0.59,0.33 -0.59,0.33 -0.6,0.32 -0.59,0.32 -0.6,0.32 -0.6,0.32 -0.6,0.31 -0.6,0.3 -0.6,0.31 -0.61,0.29 -0.61,0.3 -0.61,0.29 -0.61,0.29 -0.62,0.28 -0.61,0.28 -0.62,0.27 -0.62,0.28 -0.62,0.26 -0.62,0.27 -0.63,0.26 -0.62,0.25 -0.63,0.26 -0.63,0.24 -0.63,0.25 -0.63,0.24 -0.64,0.23 -0.63,0.24 -0.64,0.22 -0.64,0.23 -0.63,0.22 -0.65,0.21 -0.64,0.22 -0.64,0.2 -0.65,0.21 -0.64,0.2 -0.65,0.19 -0.65,0.19 -0.65,0.19 -0.65,0.18 -0.65,0.18 -0.65,0.18 -0.66,0.17 -0.65,0.17 -0.66,0.16 -0.66,0.16 -0.65,0.15 -0.66,0.15 -0.66,0.15 -0.66,0.14 -0.67,0.14 -0.66,0.13 -0.66,0.13 -0.67,0.13 -0.66,0.12 -0.67,0.12 -0.67,0.11 -0.66,0.11 -0.67,0.1 -0.67,0.1 -0.67,0.1 -0.67,0.09 -0.67,0.09 -0.67,0.08 -0.67,0.08 -0.67,0.07 -0.68,0.07 -0.67,0.07 -0.67,0.06 -0.68,0.06 -0.67,0.05 -0.68,0.05 -0.67,0.05 -0.67,0.04 -0.68,0.03 -0.68,0.03 -0.67,0.03 -0.68,0.03 -0.67,0.02 -0.68,0.01 -0.67,0.01 -0.68,0.01 h -0.68 -0.67 l -0.68,-0.01 -0.68,-0.01 -0.67,-0.01 -0.68,-0.02 -0.67,-0.03 -0.68,-0.02 -0.67,-0.04 -0.68,-0.03 -0.67,-0.04 -0.68,-0.05 -0.67,-0.05 -0.68,-0.05 -0.67,-0.06 -0.67,-0.06 -0.68,-0.06 -0.67,-0.07 -0.67,-0.08 -0.67,-0.08 -0.67,-0.08 -0.68,-0.09 -0.67,-0.09 -0.66,-0.09 -0.67,-0.1 -0.67,-0.11 -0.67,-0.1 -0.67,-0.12 -0.66,-0.11 -0.67,-0.12 -0.66,-0.13 -0.67,-0.13 -0.66,-0.13 -0.66,-0.14 -0.66,-0.14 -0.66,-0.15 -0.66,-0.15 -0.66,-0.15 -0.66,-0.16 -0.65,-0.16 -0.66,-0.17 -0.65,-0.17 -0.66,-0.17 -0.65,-0.18 -0.65,-0.19 -0.65,-0.18 -0.65,-0.19 -0.64,-0.2 -0.65,-0.2 -0.65,-0.2 -0.64,-0.21 -0.64,-0.21 -0.64,-0.22 -0.64,-0.22 -0.64,-0.22 -0.64,-0.23 -0.63,-0.23 -0.64,-0.24 -0.63,-0.24 -0.63,-0.24 -0.63,-0.25 -0.62,-0.25 -0.63,-0.25 -0.63,-0.26 -0.62,-0.27 -0.62,-0.27 -0.62,-0.27 -0.62,-0.27 -0.61,-0.28 -0.62,-0.28 -0.61,-0.29 -0.61,-0.29 -0.61,-0.3 -0.6,-0.29 -0.61,-0.31 -0.6,-0.3 -0.6,-0.31 -0.6,-0.32 -0.6,-0.31 -0.59,-0.32 -0.6,-0.33 -0.59,-0.33 -0.59,-0.33 -0.58,-0.34 -0.59,-0.34 -0.58,-0.34 -0.58,-0.35 -0.58,-0.35 -0.57,-0.35 -0.58,-0.36 -0.57,-0.36 -0.57,-0.37 -0.57,-0.37 -0.56,-0.37 -0.56,-0.37 -0.56,-0.38 -0.56,-0.39 -0.55,-0.38 -0.56,-0.39 -0.55,-0.4 -0.54,-0.39 -0.55,-0.4 -0.54,-0.41 -0.54,-0.41 -0.54,-0.41 -0.53,-0.41 -0.53,-0.42 -0.53,-0.42 -0.53,-0.42 -0.52,-0.43 -0.53,-0.43 -0.51,-0.43 -0.52,-0.44 -0.51,-0.44 -0.51,-0.44 -0.51,-0.45 -0.51,-0.45 -0.5,-0.46 -0.5,-0.45 -0.49,-0.46 -0.49,-0.46 -0.5,-0.47 -0.48,-0.47 -0.49,-0.47 -0.48,-0.48 -0.48,-0.47 -0.47,-0.48 -0.47,-0.49 -0.47,-0.48 -0.47,-0.49 -0.46,-0.5 -0.46,-0.49 -0.46,-0.5 -0.45,-0.5 -0.45,-0.51 -0.45,-0.5 -0.44,-0.51 -0.44,-0.52 -0.44,-0.51 -0.44,-0.52 -0.43,-0.52 -0.42,-0.53 -0.43,-0.52 -0.42,-0.53 -0.42,-0.53 -0.41,-0.54 -0.41,-0.53 -0.41,-0.54 -0.4,-0.55 -0.41,-0.54 -0.39,-0.55 -0.4,-0.55 -0.39,-0.55 -0.38,-0.55 -0.39,-0.56 -0.38,-0.56 -0.37,-0.56 -0.38,-0.57 -0.37,-0.56 -0.36,-0.57 -0.36,-0.57 -0.36,-0.58 -0.36,-0.57 -0.35,-0.58 -0.34,-0.58 -0.35,-0.58 -0.34,-0.59 -0.34,-0.58 -0.33,-0.59 -0.33,-0.59 -0.32,-0.6 -0.32,-0.59 -0.32,-0.6 -0.32,-0.6 -0.31,-0.6 -0.3,-0.6 -0.3,-0.6 -0.3,-0.61 -0.3,-0.61 -0.29,-0.61 -0.29,-0.61 -0.28,-0.62 -0.28,-0.61 -0.28,-0.62 -0.27,-0.62 -0.27,-0.62 -0.26,-0.62 -0.26,-0.63 -0.26,-0.62 -0.25,-0.63 -0.25,-0.63 -0.24,-0.63 -0.24,-0.63 -0.24,-0.63 -0.23,-0.64 -0.23,-0.64 -0.22,-0.63 -0.22,-0.64 -0.22,-0.64 -0.21,-0.65 -0.21,-0.64 -0.2,-0.64 -0.2,-0.65 -0.2,-0.65 -0.19,-0.65 -0.19,-0.64 -0.18,-0.66 -0.18,-0.65 -0.17,-0.65 -0.17,-0.65 -0.17,-0.66 -0.16,-0.66 -0.16,-0.65 -0.16,-0.66 -0.15,-0.66 -0.14,-0.66 -0.15,-0.66 -0.13,-0.66 -0.14,-0.67 -0.13,-0.66 -0.12,-0.66 -0.12,-0.67 -0.12,-0.67 -0.11,-0.66 -0.11,-0.67 -0.11,-0.67 -0.1,-0.67 -0.09,-0.67 -0.09,-0.67 -0.09,-0.67 -0.09,-0.67 -0.07,-0.67 -0.08,-0.67 -0.07,-0.67 -0.07,-0.68 -0.06,-0.67 -0.06,-0.67 -0.05,-0.68 -0.05,-0.67 106.94,-7.48 z"
   style="fill:#000000;fill-opacity:1;fill-rule:nonzero;stroke:none"
   id="path52"
   inkscape:connector-curvature="0" /><path
   d="m 654.34,899.98 -0.04,-0.68 -0.05,-0.69 -0.03,-0.68 -0.03,-0.68 -0.03,-0.69 -0.03,-0.68 -0.02,-0.69 -0.01,-0.68 -0.01,-0.68 -0.01,-0.69 v -0.68 -0.69 l 0.01,-0.68 0.01,-0.69 0.02,-0.68 0.02,-0.68 0.02,-0.69 0.03,-0.68 0.03,-0.68 0.04,-0.69 0.04,-0.68 0.05,-0.68 0.05,-0.69 0.05,-0.68 0.06,-0.68 0.07,-0.68 0.06,-0.68 0.08,-0.68 0.07,-0.68 0.08,-0.68 0.09,-0.68 0.09,-0.68 0.09,-0.68 0.1,-0.67 0.1,-0.68 0.11,-0.68 0.11,-0.67 0.12,-0.68 0.12,-0.67 0.12,-0.67 0.13,-0.67 0.13,-0.68 0.14,-0.67 0.14,-0.67 0.14,-0.66 0.15,-0.67 0.16,-0.67 0.16,-0.66 0.16,-0.67 0.16,-0.66 0.18,-0.66 0.17,-0.67 0.18,-0.66 0.18,-0.66 0.19,-0.65 0.19,-0.66 0.2,-0.66 0.2,-0.65 0.21,-0.65 0.2,-0.65 0.22,-0.66 0.21,-0.64 0.22,-0.65 0.23,-0.65 0.23,-0.64 0.23,-0.65 0.24,-0.64 0.24,-0.64 0.25,-0.64 0.25,-0.63 0.25,-0.64 0.26,-0.63 0.26,-0.63 0.27,-0.63 0.27,-0.63 0.27,-0.63 0.28,-0.63 0.28,-0.62 0.29,-0.62 0.29,-0.62 0.29,-0.62 0.3,-0.61 0.3,-0.62 0.31,-0.61 0.31,-0.61 0.31,-0.61 0.32,-0.61 0.32,-0.6 0.32,-0.6 0.33,-0.6 0.34,-0.6 0.33,-0.59 0.34,-0.6 0.35,-0.59 0.34,-0.59 0.36,-0.59 0.35,-0.58 0.36,-0.58 0.36,-0.58 0.37,-0.58 0.37,-0.58 0.37,-0.57 0.38,-0.57 0.38,-0.57 0.39,-0.56 88.45,60.56 z"
   style="fill:#a6cee3;fill-opacity:1;fill-rule:nonzero;stroke:none"
   id="path54"
   inkscape:connector-curvature="0" /><path
   d="m 672.83,831.94 0.39,-0.57 0.39,-0.56 0.39,-0.56 0.4,-0.55 0.4,-0.55 0.41,-0.55 0.41,-0.55 0.41,-0.55 0.42,-0.54 0.42,-0.54 0.42,-0.53 0.43,-0.54 0.43,-0.53 0.43,-0.53 0.44,-0.53 0.44,-0.52 0.44,-0.52 0.45,-0.52 0.45,-0.51 0.45,-0.51 0.46,-0.51 0.46,-0.51 0.46,-0.5 0.46,-0.5 0.47,-0.5 0.48,-0.49 0.47,-0.49 0.48,-0.49 0.48,-0.49 0.49,-0.48 0.48,-0.48 0.5,-0.47 0.49,-0.47 0.5,-0.47 0.5,-0.47 0.5,-0.46 0.51,-0.46 0.5,-0.46 0.52,-0.45 0.51,-0.45 0.52,-0.45 0.52,-0.44 0.52,-0.44 0.53,-0.44 0.53,-0.43 0.53,-0.43 0.53,-0.43 0.54,-0.42 0.54,-0.42 0.54,-0.42 0.54,-0.41 0.55,-0.41 0.55,-0.41 0.56,-0.4 0.55,-0.4 0.56,-0.39 0.56,-0.39 0.56,-0.39 0.57,-0.39 0.56,-0.38 0.57,-0.37 0.58,-0.38 0.57,-0.37 0.58,-0.36 0.58,-0.37 0.58,-0.36 0.58,-0.35 0.59,-0.35 0.59,-0.35 0.59,-0.34 0.59,-0.34 0.6,-0.34 0.59,-0.33 0.6,-0.33 0.61,-0.33 0.6,-0.32 0.6,-0.32 0.61,-0.31 0.61,-0.31 0.61,-0.3 0.62,-0.31 0.61,-0.29 0.62,-0.3 0.62,-0.29 0.62,-0.28 0.62,-0.28 0.63,-0.28 0.62,-0.28 0.63,-0.27 0.63,-0.26 0.63,-0.26 0.63,-0.26 0.64,-0.26 0.63,-0.25 0.64,-0.24 0.64,-0.24 0.64,-0.24 0.65,-0.24 0.64,-0.22 0.64,-0.23 0.65,-0.22 0.65,-0.22 0.65,-0.21 0.65,-0.21 0.65,-0.2 0.66,-0.21 0.65,-0.19 0.66,-0.19 0.65,-0.19 0.66,-0.19 0.66,-0.18 0.66,-0.17 0.66,-0.17 0.67,-0.17 0.66,-0.16 0.67,-0.16 0.66,-0.15 0.67,-0.15 0.67,-0.15 0.67,-0.14 0.67,-0.14 0.67,-0.13 0.67,-0.13 0.67,-0.12 0.67,-0.12 0.68,-0.12 0.67,-0.11 17.14,105.82 z"
   style="fill:#1f78b4;fill-opacity:1;fill-rule:nonzero;stroke:none"
   id="path56"
   inkscape:connector-curvature="0" /><path
   d="m 744.14,786.68 0.68,-0.11 0.67,-0.1 0.68,-0.1 0.68,-0.09 0.68,-0.09 0.67,-0.09 0.68,-0.08 0.68,-0.08 0.68,-0.07 0.69,-0.07 0.68,-0.06 0.68,-0.06 0.68,-0.06 0.68,-0.05 0.69,-0.04 0.68,-0.05 0.68,-0.03 0.69,-0.04 0.68,-0.03 0.68,-0.02 0.69,-0.02 0.68,-0.02 0.68,-0.01 0.69,-0.01 h 0.68 0.69 l 0.68,0.01 0.69,0.01 0.68,0.01 0.68,0.02 0.69,0.02 0.68,0.03 0.68,0.03 0.69,0.04 0.68,0.04 0.68,0.05 0.69,0.05 0.68,0.05 0.68,0.06 0.68,0.06 0.68,0.07 0.68,0.07 0.68,0.07 0.68,0.08 0.68,0.09 0.68,0.09 0.68,0.09 0.68,0.1 0.67,0.1 0.68,0.11 0.67,0.11 0.68,0.11 0.67,0.12 0.67,0.12 0.68,0.13 0.67,0.13 0.67,0.14 0.67,0.14 0.67,0.14 0.67,0.15 0.66,0.15 0.67,0.16 0.66,0.16 0.67,0.17 0.66,0.17 0.66,0.17 0.66,0.18 0.66,0.18 0.66,0.19 0.66,0.19 0.65,0.2 0.66,0.2 0.65,0.2 0.65,0.21 0.65,0.21 0.65,0.22 0.65,0.22 0.65,0.22 0.64,0.23 0.65,0.23 0.64,0.24 0.64,0.24 0.64,0.24 0.63,0.25 0.64,0.26 0.63,0.25 0.64,0.26 0.63,0.27 0.63,0.27 0.62,0.27 0.63,0.28 0.62,0.28 0.62,0.29 0.62,0.28 0.62,0.3 0.62,0.29 0.61,0.31 0.62,0.3 0.61,0.31 0.61,0.31 0.6,0.32 0.61,0.32 0.6,0.32 0.6,0.33 0.6,0.33 -52.3,93.58 z"
   style="fill:#b2df8a;fill-opacity:1;fill-rule:nonzero;stroke:none"
   id="path58"
   inkscape:connector-curvature="0" /><path
   d="m 813.58,798.92 0.59,0.34 0.59,0.33 0.59,0.35 0.59,0.34 0.58,0.35 0.58,0.35 0.58,0.36 0.58,0.36 0.58,0.36 0.57,0.37 0.57,0.37 0.57,0.37 0.56,0.38 0.57,0.38 0.56,0.39 0.56,0.39 0.55,0.39 0.55,0.39 0.56,0.4 0.54,0.41 0.55,0.4 0.54,0.41 0.54,0.42 0.54,0.41 0.54,0.42 0.53,0.42 0.53,0.43 0.53,0.43 0.52,0.43 0.52,0.44 0.52,0.44 0.52,0.44 0.51,0.45 0.51,0.45 0.51,0.45 0.5,0.46 0.51,0.46 0.5,0.46 0.49,0.47 0.49,0.47 0.49,0.47 0.49,0.47 0.49,0.48 0.48,0.48 0.47,0.49 0.48,0.48 0.47,0.5 0.47,0.49 0.46,0.49 0.47,0.5 0.46,0.51 0.45,0.5 0.45,0.51 0.45,0.51 0.45,0.51 0.44,0.52 0.44,0.52 0.44,0.52 0.43,0.53 0.43,0.52 0.43,0.53 0.42,0.54 0.42,0.53 0.42,0.54 0.41,0.54 0.41,0.54 0.4,0.55 0.41,0.55 0.4,0.55 0.39,0.55 0.39,0.56 0.39,0.56 0.39,0.56 0.38,0.56 0.37,0.57 0.38,0.57 0.37,0.57 0.37,0.57 0.36,0.58 0.36,0.57 0.35,0.58 0.36,0.59 0.34,0.58 0.35,0.59 0.34,0.59 0.34,0.59 0.33,0.59 0.33,0.6 0.33,0.59 0.32,0.6 0.32,0.6 0.31,0.61 0.31,0.6 0.31,0.61 0.3,0.61 0.3,0.61 0.3,0.61 0.29,0.62 0.28,0.61 0.29,0.62 0.28,0.62 0.27,0.63 0.27,0.62 0.27,0.62 0.27,0.63 0.25,0.63 0.26,0.63 0.25,0.63 0.25,0.64 0.24,0.63 -100.21,38.07 z"
   style="fill:#33a02c;fill-opacity:1;fill-rule:nonzero;stroke:none"
   id="path60"
   inkscape:connector-curvature="0" /><path
   d="m 861.49,854.43 0.25,0.66 0.24,0.66 0.24,0.65 0.23,0.67 0.23,0.66 0.23,0.66 0.22,0.67 0.22,0.66 0.21,0.67 0.21,0.67 0.2,0.67 0.2,0.67 0.19,0.67 0.19,0.68 0.19,0.67 0.18,0.68 0.18,0.68 0.17,0.68 0.17,0.68 0.16,0.68 0.16,0.68 0.15,0.68 0.15,0.69 0.15,0.68 0.14,0.69 0.14,0.69 0.13,0.69 0.13,0.68 0.12,0.69 0.12,0.7 0.11,0.69 0.11,0.69 0.11,0.69 0.1,0.69 0.09,0.7 0.1,0.69 0.08,0.7 0.09,0.69 0.07,0.7 0.08,0.7 0.07,0.69 0.06,0.7 0.06,0.7 0.05,0.7 0.06,0.7 0.04,0.7 0.04,0.7 -107.03,5.98 z"
   style="fill:#fb9a99;fill-opacity:1;fill-rule:nonzero;stroke:none"
   id="path62"
   inkscape:connector-curvature="0" /><path
   d="m 868.31,886.52 0.05,0.85 0.03,0.85 0.04,0.86 0.02,0.85 0.02,0.86 0.01,0.85 v 0.86 h -107.2 z"
   style="fill:#e31a1c;fill-opacity:1;fill-rule:nonzero;stroke:none"
   id="path64"
   inkscape:connector-curvature="0" /><path
   d="m 868.48,892.5 v 0 h -107.2 z"
   style="fill:#fdbf6f;fill-opacity:1;fill-rule:nonzero;stroke:none"
   id="path66"
   inkscape:connector-curvature="0" /><path
   d="m 868.48,892.5 v 0 h -107.2 z"
   style="fill:#ff7f00;fill-opacity:1;fill-rule:nonzero;stroke:none"
   id="path68"
   inkscape:connector-curvature="0" /><text
   transform="scale(1,-1)"
   style="font-style:normal;font-variant:normal;font-weight:600;font-stretch:normal;font-size:48px;font-family:'URW Gothic L';-inkscape-font-specification:'URW Gothic L, Semi-Bold';font-variant-ligatures:normal;font-variant-caps:normal;font-variant-numeric:normal;font-feature-settings:normal;text-align:start;writing-mode:lr-tb;text-anchor:start;fill:#ffffff;fill-opacity:1;fill-rule:nonzero;stroke:#000000;stroke-width:1.52474999;stroke-miterlimit:4;stroke-dasharray:none;stroke-opacity:1"
   id="text72"
   x="750.15997"
   y="-878.29999"><tspan
     x="750.15997"
     y="-878.29999"
     id="tspan70"
     style="font-style:normal;font-variant:normal;font-weight:600;font-stretch:normal;font-size:48px;font-family:'URW Gothic L';-inkscape-font-specification:'URW Gothic L, Semi-Bold';font-variant-ligatures:normal;font-variant-caps:normal;font-variant-numeric:normal;font-feature-settings:normal;text-align:start;writing-mode:lr-tb;text-anchor:start;fill:#ffffff;fill-opacity:1;stroke:#000000;stroke-width:1.52474999;stroke-miterlimit:4;stroke-dasharray:none;stroke-opacity:1">2</tspan></text>

<path
   d="m 640.54,663 v 0.68 l -0.01,0.67 -0.01,0.68 -0.01,0.67 -0.02,0.68 -0.03,0.67 -0.02,0.68 -0.04,0.67 -0.03,0.68 -0.04,0.67 -0.05,0.68 -0.05,0.67 -0.05,0.67 -0.06,0.68 -0.06,0.67 -0.06,0.67 -0.07,0.67 -0.08,0.67 -0.08,0.68 -0.08,0.67 -0.09,0.67 -0.09,0.66 -0.09,0.67 -0.1,0.67 -0.11,0.67 -0.11,0.67 -0.11,0.66 -0.11,0.67 -0.13,0.66 -0.12,0.67 -0.13,0.66 -0.13,0.66 -0.14,0.66 -0.14,0.66 -0.15,0.66 -0.15,0.66 -0.15,0.66 -0.16,0.66 -0.16,0.65 -0.17,0.66 -0.17,0.65 -0.17,0.65 -0.18,0.65 -0.18,0.66 -0.19,0.64 -0.19,0.65 -0.2,0.65 -0.2,0.64 -0.2,0.65 -0.21,0.64 -0.21,0.64 -0.21,0.64 -0.22,0.64 -0.23,0.64 -0.22,0.64 -0.24,0.63 -0.23,0.63 -0.24,0.64 -0.24,0.63 -0.25,0.62 -0.25,0.63 -0.26,0.63 -0.26,0.62 -0.26,0.62 -0.27,0.62 -0.27,0.62 -0.27,0.62 -0.28,0.62 -0.29,0.61 -0.28,0.61 -0.29,0.61 -0.3,0.61 -0.29,0.6 -0.31,0.61 -0.3,0.6 -0.31,0.6 -0.32,0.6 -0.31,0.6 -0.32,0.59 -0.33,0.59 -0.33,0.59 -0.33,0.59 -0.33,0.59 -0.34,0.58 -0.35,0.59 -0.34,0.58 -0.35,0.57 -0.36,0.58 -0.35,0.57 -0.36,0.57 -0.37,0.57 -0.37,0.57 -0.37,0.56 -0.38,0.56 -0.37,0.56 -0.39,0.56 -0.38,0.55 -0.39,0.56 -0.39,0.55 -0.4,0.54 -0.4,0.55 -0.4,0.54 -0.41,0.54 -0.41,0.54 -0.41,0.53 -0.42,0.53 -0.42,0.53 -0.42,0.53 -0.43,0.52 -0.43,0.52 -0.43,0.52 -0.44,0.52 -0.44,0.51 -0.44,0.51 -0.45,0.51 -0.45,0.5 -0.45,0.5 -0.46,0.5 -0.46,0.5 -0.46,0.49 -0.46,0.49 -0.47,0.49 -0.47,0.48 -0.48,0.48 -0.48,0.48 -0.48,0.47 -0.48,0.48 -0.49,0.46 -0.48,0.47 -0.5,0.46 -0.49,0.46 -0.5,0.46 -0.5,0.45 -0.5,0.45 -0.51,0.45 -0.51,0.44 -0.51,0.45 -0.52,0.43 -0.51,0.44 -0.52,0.43 -0.53,0.43 -0.52,0.42 -0.53,0.42 -0.53,0.42 -0.54,0.41 -0.53,0.41 -0.54,0.41 -0.54,0.4 -0.55,0.41 -0.54,0.39 -0.55,0.4 -0.55,0.39 -0.56,0.38 -0.55,0.39 -0.56,0.38 -0.56,0.37 -0.57,0.38 -0.56,0.37 -0.57,0.36 -0.57,0.36 -0.57,0.36 -0.58,0.36 -0.57,0.35 -0.58,0.35 -0.59,0.34 -0.58,0.34 -0.58,0.34 -0.59,0.33 -0.59,0.33 -0.59,0.32 -0.6,0.33 -0.59,0.31 -0.6,0.32 -0.6,0.31 -0.6,0.3 -0.61,0.31 -0.6,0.3 -0.61,0.29 -0.61,0.29 -0.61,0.29 -0.62,0.28 -0.61,0.28 -0.62,0.28 -0.62,0.27 -0.62,0.27 -0.62,0.26 -0.62,0.26 -0.63,0.26 -0.62,0.25 -0.63,0.25 -0.63,0.25 -0.63,0.24 -0.64,0.23 -0.63,0.24 -0.64,0.22 -0.63,0.23 -0.64,0.22 -0.64,0.22 -0.64,0.21 -0.64,0.21 -0.65,0.2 -0.64,0.2 -0.65,0.2 -0.65,0.19 -0.65,0.19 -0.65,0.18 -0.65,0.18 -0.65,0.18 -0.65,0.17 -0.66,0.17 -0.65,0.16 -0.66,0.16 -0.66,0.15 -0.66,0.15 -0.66,0.15 -0.66,0.14 -0.66,0.14 -0.66,0.14 -0.66,0.13 -0.67,0.12 -0.66,0.12 -0.67,0.12 -0.66,0.12 -0.67,0.1 -0.67,0.11 -0.66,0.1 -0.67,0.1 -0.67,0.09 -0.67,0.09 -0.67,0.08 -0.67,0.08 -0.67,0.08 -0.68,0.07 -0.67,0.06 -0.67,0.07 -0.67,0.06 -0.68,0.05 -0.67,0.05 -0.67,0.05 -0.68,0.04 -0.67,0.03 -0.68,0.04 -0.67,0.03 -0.68,0.02 -0.67,0.02 -0.68,0.02 -0.67,0.01 -0.68,0.01 h -0.68 -0.67 l -0.68,-0.01 -0.67,-0.01 -0.68,-0.01 -0.67,-0.02 -0.68,-0.02 -0.67,-0.03 -0.68,-0.03 -0.67,-0.03 -0.68,-0.04 -0.67,-0.05 -0.67,-0.04 -0.68,-0.06 -0.67,-0.05 -0.67,-0.06 -0.68,-0.07 -0.67,-0.07 -0.67,-0.07 -0.67,-0.08 -0.67,-0.08 -0.67,-0.08 -0.67,-0.09 -0.67,-0.1 -0.67,-0.1 -0.67,-0.1 -0.66,-0.11 -0.67,-0.11 -0.67,-0.11 -0.66,-0.12 -0.66,-0.13 -0.67,-0.13 -0.66,-0.13 -0.66,-0.13 -0.66,-0.14 -0.66,-0.15 -0.66,-0.15 -0.66,-0.15 -0.66,-0.16 -0.65,-0.16 -0.66,-0.16 -0.65,-0.17 -0.65,-0.18 -0.66,-0.18 -0.65,-0.18 -0.65,-0.18 -0.64,-0.19 -0.65,-0.2 -0.65,-0.2 -0.64,-0.2 -0.65,-0.2 -0.64,-0.21 -0.64,-0.22 -0.64,-0.22 -0.64,-0.22 -0.63,-0.23 -0.64,-0.23 -0.63,-0.23 -0.63,-0.24 -0.63,-0.24 -0.63,-0.25 -0.63,-0.25 -0.63,-0.25 -0.62,-0.26 -0.62,-0.26 -0.62,-0.27 -0.62,-0.27 -0.62,-0.27 -0.62,-0.28 -0.61,-0.28 -0.61,-0.29 -0.61,-0.29 -0.61,-0.29 -0.61,-0.3 -0.6,-0.3 -0.61,-0.3 -0.6,-0.31 -0.6,-0.31 -0.59,-0.32 -0.6,-0.32 -0.59,-0.32 -0.59,-0.33 -0.59,-0.33 -0.59,-0.34 -0.58,-0.33 -0.59,-0.35 -0.58,-0.34 -0.57,-0.35 -0.58,-0.35 -0.57,-0.36 -0.58,-0.36 -0.56,-0.36 -0.57,-0.37 -0.57,-0.37 -0.56,-0.38 -0.56,-0.38 -0.56,-0.38 -0.55,-0.38 -0.55,-0.39 -0.55,-0.39 -0.55,-0.4 -0.55,-0.4 -0.54,-0.4 -0.54,-0.41 -0.54,-0.4 -0.53,-0.42 -0.53,-0.41 -0.53,-0.42 -0.53,-0.43 -0.53,-0.42 -0.52,-0.43 -0.52,-0.43 -0.51,-0.44 -0.52,-0.44 -0.51,-0.44 -0.5,-0.44 -0.51,-0.45 -0.5,-0.46 -0.5,-0.45 -0.5,-0.46 -0.49,-0.46 -0.49,-0.46 -0.49,-0.47 -0.48,-0.47 -0.49,-0.48 -0.48,-0.47 -0.47,-0.48 -0.47,-0.48 -0.47,-0.49 -0.47,-0.49 -0.46,-0.49 -0.46,-0.49 -0.46,-0.5 -0.46,-0.5 -0.45,-0.5 -0.45,-0.51 -0.44,-0.51 -0.44,-0.51 -0.44,-0.51 -0.43,-0.52 -0.44,-0.52 -0.42,-0.52 -0.43,-0.53 -0.42,-0.52 -0.42,-0.53 -0.42,-0.54 -0.41,-0.53 -0.41,-0.54 -0.4,-0.54 -0.4,-0.55 -0.4,-0.54 -0.4,-0.55 -0.39,-0.55 -0.38,-0.55 -0.39,-0.56 -0.38,-0.56 -0.38,-0.56 -0.37,-0.56 -0.37,-0.57 -0.37,-0.56 -0.36,-0.57 -0.36,-0.57 -0.36,-0.58 -0.35,-0.58 -0.35,-0.57 -0.34,-0.59 -0.34,-0.58 -0.34,-0.58 -0.33,-0.59 -0.33,-0.59 -0.33,-0.59 -0.32,-0.59 -0.32,-0.6 -0.32,-0.6 -0.31,-0.6 -0.31,-0.6 -0.3,-0.6 -0.3,-0.61 -0.3,-0.6 -0.29,-0.61 -0.29,-0.61 -0.28,-0.62 -0.28,-0.61 -0.28,-0.62 -0.27,-0.62 -0.27,-0.62 -0.27,-0.62 -0.26,-0.62 -0.25,-0.62 -0.26,-0.63 -0.25,-0.63 -0.24,-0.63 -0.24,-0.63 -0.24,-0.63 -0.24,-0.64 -0.23,-0.63 -0.22,-0.64 -0.22,-0.64 -0.22,-0.64 -0.21,-0.64 -0.21,-0.64 -0.21,-0.64 -0.2,-0.65 -0.2,-0.64 -0.19,-0.65 -0.19,-0.65 -0.18,-0.65 -0.18,-0.65 -0.18,-0.65 -0.17,-0.65 -0.17,-0.66 -0.17,-0.65 -0.16,-0.66 -0.15,-0.66 -0.16,-0.66 -0.14,-0.66 -0.15,-0.66 -0.14,-0.66 -0.13,-0.66 -0.13,-0.66 -0.13,-0.66 -0.12,-0.67 -0.12,-0.66 -0.12,-0.67 -0.11,-0.67 -0.1,-0.66 -0.1,-0.67 -0.1,-0.67 -0.1,-0.67 -0.09,-0.67 -0.08,-0.67 -0.08,-0.67 -0.08,-0.67 -0.07,-0.67 -0.07,-0.67 -0.06,-0.68 -0.06,-0.67 -0.06,-0.67 -0.05,-0.68 -0.04,-0.67 -0.05,-0.67 -0.04,-0.68 -0.03,-0.67 -0.03,-0.68 -0.03,-0.67 -0.02,-0.68 -0.01,-0.67 -0.02,-0.68 -0.01,-0.68 v -0.67 -0.68 -0.67 l 0.01,-0.68 0.02,-0.67 0.01,-0.68 0.02,-0.67 0.03,-0.68 0.03,-0.67 0.03,-0.68 0.04,-0.67 0.04,-0.68 0.05,-0.67 0.05,-0.67 0.06,-0.68 0.06,-0.67 0.06,-0.67 0.07,-0.68 0.07,-0.67 0.08,-0.67 0.08,-0.67 0.08,-0.67 0.09,-0.67 0.09,-0.67 0.1,-0.67 0.1,-0.66 0.11,-0.67 0.11,-0.67 0.11,-0.66 0.12,-0.67 0.12,-0.66 0.13,-0.67 0.13,-0.66 0.14,-0.66 0.14,-0.66 0.14,-0.66 0.15,-0.66 0.15,-0.66 0.16,-0.66 0.16,-0.65 0.16,-0.66 0.17,-0.65 0.17,-0.66 0.18,-0.65 0.18,-0.65 0.18,-0.65 0.19,-0.65 0.2,-0.64 0.19,-0.65 0.2,-0.65 0.21,-0.64 0.21,-0.64 0.21,-0.64 0.22,-0.64 0.22,-0.64 0.23,-0.64 0.23,-0.63 0.23,-0.64 0.24,-0.63 0.24,-0.63 0.24,-0.63 0.25,-0.63 0.26,-0.62 0.25,-0.63 0.26,-0.62 0.27,-0.62 0.27,-0.62 0.27,-0.62 0.28,-0.62 0.28,-0.61 0.28,-0.61 0.29,-0.62 0.29,-0.6 0.3,-0.61 0.3,-0.61 0.3,-0.6 0.31,-0.6 0.31,-0.6 0.32,-0.6 0.32,-0.59 0.32,-0.6 0.33,-0.59 0.33,-0.59 0.33,-0.59 0.34,-0.58 0.34,-0.59 0.34,-0.58 0.35,-0.57 0.35,-0.58 0.36,-0.58 0.36,-0.57 0.36,-0.57 0.37,-0.57 0.37,-0.56 0.37,-0.56 0.38,-0.56 0.38,-0.56 0.38,-0.56 0.39,-0.55 0.39,-0.55 0.4,-0.55 0.39,-0.55 0.41,-0.54 0.4,-0.54 0.41,-0.54 0.41,-0.53 0.42,-0.54 0.41,-0.53 0.43,-0.52 0.42,-0.53 0.43,-0.52 0.43,-0.52 0.44,-0.52 0.43,-0.51 0.44,-0.51 0.45,-0.51 0.45,-0.51 0.45,-0.5 0.45,-0.5 0.46,-0.5 0.46,-0.49 0.46,-0.5 0.47,-0.48 0.47,-0.49 0.47,-0.48 0.48,-0.48 0.48,-0.48 0.48,-0.47 0.48,-0.47 0.49,-0.47 0.49,-0.46 0.5,-0.47 0.49,-0.45 0.5,-0.46 0.5,-0.45 0.51,-0.45 0.51,-0.45 0.51,-0.44 0.51,-0.44 0.52,-0.43 0.52,-0.44 0.52,-0.42 0.52,-0.43 0.53,-0.42 0.53,-0.42 0.53,-0.42 0.53,-0.41 0.54,-0.41 0.54,-0.41 0.54,-0.4 0.55,-0.4 0.55,-0.39 0.55,-0.4 0.55,-0.38 0.56,-0.39 0.55,-0.38 0.56,-0.38 0.56,-0.37 0.57,-0.38 0.57,-0.36 0.57,-0.37 0.57,-0.36 0.57,-0.35 0.58,-0.36 0.57,-0.35 0.58,-0.34 0.59,-0.34 54,92.6 z"
   style="fill:#000000;fill-opacity:1;fill-rule:nonzero;stroke:none"
   id="path82"
   inkscape:connector-curvature="0" /><path
   d="m 479.34,570.4 0.69,-0.4 0.69,-0.4 0.7,-0.39 0.7,-0.38 0.7,-0.38 0.71,-0.37 0.71,-0.37 49.1,95.29 z"
   style="fill:#a6cee3;fill-opacity:1;fill-rule:nonzero;stroke:none"
   id="path84"
   inkscape:connector-curvature="0" /><path
   d="m 484.24,567.71 0.62,-0.32 0.62,-0.31 0.63,-0.31 0.63,-0.31 0.63,-0.3 0.63,-0.3 0.63,-0.29 0.64,-0.29 0.64,-0.29 0.64,-0.28 0.64,-0.28 0.64,-0.27 0.65,-0.27 0.64,-0.26 0.65,-0.26 0.65,-0.26 0.66,-0.25 0.65,-0.25 0.65,-0.24 0.66,-0.24 0.66,-0.23 0.66,-0.23 0.66,-0.23 0.66,-0.22 0.67,-0.22 0.66,-0.21 0.67,-0.21 0.67,-0.2 0.67,-0.2 0.67,-0.2 0.67,-0.19 0.67,-0.19 0.68,-0.18 0.67,-0.18 0.68,-0.17 0.68,-0.17 0.68,-0.16 0.68,-0.16 0.68,-0.16 0.68,-0.15 0.68,-0.15 0.69,-0.14 21.51,105.02 z"
   style="fill:#1f78b4;fill-opacity:1;fill-rule:nonzero;stroke:none"
   id="path86"
   inkscape:connector-curvature="0" /><path
   d="m 511.83,557.98 0.67,-0.14 0.68,-0.13 0.68,-0.12 0.67,-0.13 0.68,-0.12 0.68,-0.11 0.68,-0.11 0.68,-0.11 0.69,-0.1 0.68,-0.09 0.68,-0.1 0.68,-0.08 0.69,-0.09 0.68,-0.08 0.69,-0.07 0.68,-0.07 0.69,-0.07 0.69,-0.06 0.68,-0.06 0.69,-0.05 0.69,-0.05 0.69,-0.04 0.68,-0.04 0.69,-0.04 0.69,-0.03 0.69,-0.02 0.69,-0.03 0.69,-0.01 0.69,-0.02 0.68,-0.01 h 0.69 0.69 l 0.69,0.01 h 0.69 l 0.69,0.02 0.69,0.02 0.69,0.02 0.69,0.03 0.68,0.03 0.69,0.03 0.69,0.04 0.69,0.05 0.69,0.05 0.68,0.05 0.69,0.06 0.69,0.06 0.68,0.07 0.69,0.07 0.68,0.07 0.69,0.08 0.68,0.09 0.68,0.09 0.69,0.09 0.68,0.1 0.68,0.1 0.68,0.1 0.68,0.11 0.68,0.12 0.68,0.12 0.68,0.12 0.67,0.13 0.68,0.13 0.68,0.14 0.67,0.14 0.67,0.15 0.68,0.15 0.67,0.15 0.67,0.16 0.67,0.16 0.67,0.17 0.67,0.17 0.66,0.18 0.67,0.17 -28.31,103.4 z"
   style="fill:#b2df8a;fill-opacity:1;fill-rule:nonzero;stroke:none"
   id="path88"
   inkscape:connector-curvature="0" /><path
   d="m 561.65,559.6 0.66,0.19 0.66,0.19 0.67,0.19 0.66,0.2 0.66,0.2 0.65,0.2 0.66,0.21 0.66,0.22 0.65,0.21 0.65,0.23 0.65,0.22 0.65,0.23 0.65,0.24 0.65,0.24 0.64,0.24 0.64,0.25 0.65,0.25 0.64,0.25 0.63,0.26 0.64,0.27 0.64,0.27 0.63,0.27 0.63,0.27 0.63,0.28 0.63,0.29 0.62,0.29 0.63,0.29 0.62,0.29 0.62,0.3 0.62,0.31 0.62,0.31 0.61,0.31 0.61,0.31 0.61,0.32 0.61,0.33 0.61,0.32 0.6,0.34 0.6,0.33 0.6,0.34 0.6,0.34 0.6,0.35 0.59,0.35 0.59,0.36 0.59,0.35 0.59,0.37 0.58,0.36 0.58,0.37 0.58,0.38 0.58,0.37 0.57,0.38 0.57,0.39 0.57,0.39 0.57,0.39 0.56,0.39 0.57,0.4 0.56,0.4 0.55,0.41 0.56,0.41 0.55,0.41 0.55,0.42 0.54,0.42 0.55,0.43 0.54,0.42 0.53,0.43 0.54,0.44 0.53,0.44 0.53,0.44 0.53,0.44 0.52,0.45 0.52,0.45 0.52,0.46 0.52,0.45 0.51,0.46 -72.01,79.42 z"
   style="fill:#33a02c;fill-opacity:1;fill-rule:nonzero;stroke:none"
   id="path90"
   inkscape:connector-curvature="0" /><path
   d="m 605.35,583.58 0.5,0.47 0.51,0.46 0.5,0.47 0.5,0.47 0.49,0.48 0.49,0.48 0.49,0.48 0.49,0.48 0.48,0.49 0.48,0.49 0.47,0.5 0.48,0.49 0.47,0.5 0.46,0.51 0.47,0.5 0.46,0.51 0.45,0.51 0.46,0.52 0.45,0.51 0.44,0.53 0.45,0.52 0.44,0.52 0.44,0.53 0.43,0.54 0.43,0.53 0.43,0.54 0.42,0.54 0.42,0.54 0.41,0.54 0.42,0.55 0.41,0.55 0.4,0.56 0.4,0.55 0.4,0.56 0.4,0.56 0.39,0.57 0.39,0.56 0.38,0.57 0.38,0.57 0.38,0.57 0.37,0.58 0.37,0.58 0.37,0.58 0.36,0.58 0.36,0.59 0.35,0.58 0.35,0.59 0.35,0.59 0.34,0.6 0.34,0.59 0.34,0.6 0.33,0.6 0.33,0.61 0.32,0.6 0.32,0.61 -94.97,49.72 z"
   style="fill:#fb9a99;fill-opacity:1;fill-rule:nonzero;stroke:none"
   id="path92"
   inkscape:connector-curvature="0" /><path
   d="m 628.31,613.28 0.35,0.66 0.34,0.67 0.34,0.68 0.33,0.67 0.33,0.68 0.32,0.68 0.32,0.68 0.31,0.69 0.31,0.68 0.3,0.69 0.3,0.69 0.3,0.69 0.29,0.7 -99.11,40.86 z"
   style="fill:#e31a1c;fill-opacity:1;fill-rule:nonzero;stroke:none"
   id="path94"
   inkscape:connector-curvature="0" /><path
   d="m 632.45,622.14 0.26,0.64 0.26,0.65 0.26,0.65 0.25,0.66 0.25,0.65 0.24,0.65 0.24,0.66 0.23,0.66 0.23,0.66 0.23,0.66 0.22,0.66 0.22,0.67 0.21,0.66 0.21,0.67 0.2,0.67 0.2,0.67 0.2,0.67 0.19,0.67 0.19,0.67 0.18,0.68 0.18,0.67 0.17,0.68 0.17,0.68 0.16,0.68 0.16,0.68 0.16,0.68 0.15,0.68 0.15,0.68 0.14,0.69 0.14,0.68 0.13,0.69 0.13,0.68 0.12,0.69 0.12,0.69 0.12,0.69 0.11,0.69 0.11,0.69 0.1,0.69 0.1,0.69 0.09,0.7 0.09,0.69 0.08,0.69 0.08,0.7 0.08,0.69 L 533.34,663 Z"
   style="fill:#fdbf6f;fill-opacity:1;fill-rule:nonzero;stroke:none"
   id="path96"
   inkscape:connector-curvature="0" /><path
   d="m 639.96,651.84 0.07,0.74 0.07,0.74 0.07,0.75 0.06,0.74 0.05,0.74 0.05,0.75 0.04,0.74 0.04,0.75 0.04,0.74 0.03,0.74 0.02,0.75 0.02,0.74 0.01,0.75 0.01,0.74 V 663 h -107.2 z"
   style="fill:#ff7f00;fill-opacity:1;fill-rule:nonzero;stroke:none"
   id="path98"
   inkscape:connector-curvature="0" /><text
   transform="scale(1,-1)"
   style="font-style:normal;font-variant:normal;font-weight:600;font-stretch:normal;font-size:48px;font-family:'URW Gothic L';-inkscape-font-specification:'URW Gothic L, Semi-Bold';font-variant-ligatures:normal;font-variant-caps:normal;font-variant-numeric:normal;font-feature-settings:normal;text-align:start;writing-mode:lr-tb;text-anchor:start;fill:#ffffff;fill-opacity:1;fill-rule:nonzero;stroke:#000000;stroke-width:1.52474999;stroke-miterlimit:4;stroke-dasharray:none;stroke-opacity:1"
   id="text102"
   x="522.21997"
   y="-649.17999"><tspan
     x="522.21997"
     y="-649.17999"
     id="tspan100"
     style="font-style:normal;font-variant:normal;font-weight:600;font-stretch:normal;font-size:48px;font-family:'URW Gothic L';-inkscape-font-specification:'URW Gothic L, Semi-Bold';font-variant-ligatures:normal;font-variant-caps:normal;font-variant-numeric:normal;font-feature-settings:normal;text-align:start;writing-mode:lr-tb;text-anchor:start;fill:#ffffff;fill-opacity:1;stroke:#000000;stroke-width:1.52474999;stroke-miterlimit:4;stroke-dasharray:none;stroke-opacity:1">3</tspan></text>

<path
   d="m 868.48,663 v 0.68 l -0.01,0.67 -0.01,0.68 -0.01,0.67 -0.02,0.68 -0.03,0.67 -0.02,0.68 -0.04,0.67 -0.03,0.67 -0.04,0.68 -0.05,0.67 -0.05,0.68 -0.05,0.67 -0.06,0.67 -0.06,0.67 -0.06,0.68 -0.07,0.67 -0.08,0.67 -0.08,0.67 -0.08,0.67 -0.09,0.67 -0.09,0.67 -0.09,0.67 -0.1,0.66 -0.11,0.67 -0.1,0.67 -0.12,0.66 -0.11,0.67 -0.12,0.66 -0.13,0.67 -0.13,0.66 -0.13,0.66 -0.14,0.66 -0.14,0.66 -0.14,0.66 -0.15,0.66 -0.16,0.66 -0.16,0.66 -0.16,0.65 -0.16,0.66 -0.18,0.65 -0.17,0.65 -0.18,0.65 -0.18,0.65 -0.19,0.65 -0.19,0.65 -0.19,0.65 -0.2,0.64 -0.21,0.64 -0.2,0.65 -0.21,0.64 -0.22,0.64 -0.22,0.64 -0.22,0.63 -0.23,0.64 -0.23,0.64 -0.24,0.63 -0.24,0.63 -0.24,0.63 -0.25,0.63 -0.25,0.62 -0.25,0.63 -0.26,0.62 -0.26,0.63 -0.27,0.62 -0.27,0.61 -0.28,0.62 -0.27,0.62 -0.29,0.61 -0.28,0.61 -0.29,0.61 -0.3,0.61 -0.3,0.6 -0.3,0.61 -0.3,0.6 -0.31,0.6 -0.31,0.6 -0.32,0.6 -0.32,0.59 -0.33,0.59 -0.32,0.59 -0.34,0.59 -0.33,0.59 -0.34,0.58 -0.34,0.58 -0.35,0.58 -0.35,0.58 -0.35,0.58 -0.36,0.57 -0.36,0.57 -0.36,0.57 -0.37,0.56 -0.37,0.57 -0.38,0.56 -0.38,0.56 -0.38,0.56 -0.39,0.55 -0.38,0.55 -0.4,0.55 -0.39,0.55 -0.4,0.54 -0.41,0.54 -0.4,0.54 -0.41,0.54 -0.41,0.53 -0.42,0.54 -0.42,0.53 -0.42,0.52 -0.43,0.52 -0.43,0.53 -0.43,0.51 -0.44,0.52 -0.44,0.51 -0.44,0.51 -0.45,0.51 -0.45,0.5 -0.45,0.5 -0.45,0.5 -0.46,0.5 -0.46,0.49 -0.47,0.49 -0.47,0.49 -0.47,0.48 -0.47,0.48 -0.48,0.48 -0.48,0.48 -0.48,0.47 -0.49,0.47 -0.49,0.46 -0.49,0.47 -0.49,0.46 -0.5,0.45 -0.5,0.46 -0.5,0.45 -0.51,0.44 -0.51,0.45 -0.51,0.44 -0.51,0.44 -0.52,0.43 -0.52,0.43 -0.52,0.43 -0.53,0.42 -0.53,0.42 -0.53,0.42 -0.53,0.42 -0.54,0.41 -0.54,0.4 -0.54,0.41 -0.54,0.4 -0.55,0.4 -0.54,0.39 -0.56,0.39 -0.55,0.39 -0.55,0.38 -0.56,0.38 -0.56,0.38 -0.57,0.37 -0.56,0.37 -0.57,0.37 -0.57,0.36 -0.57,0.36 -0.58,0.35 -0.57,0.35 -0.58,0.35 -0.58,0.34 -0.59,0.34 -0.58,0.34 -0.59,0.33 -0.59,0.33 -0.59,0.33 -0.59,0.32 -0.6,0.32 -0.6,0.31 -0.6,0.31 -0.6,0.31 -0.6,0.3 -0.61,0.3 -0.6,0.3 -0.61,0.29 -0.61,0.29 -0.62,0.28 -0.61,0.28 -0.62,0.28 -0.61,0.27 -0.62,0.27 -0.63,0.26 -0.62,0.26 -0.62,0.26 -0.63,0.25 -0.63,0.25 -0.63,0.25 -0.63,0.24 -0.63,0.23 -0.63,0.24 -0.64,0.22 -0.64,0.23 -0.63,0.22 -0.64,0.22 -0.64,0.21 -0.65,0.21 -0.64,0.2 -0.65,0.2 -0.64,0.2 -0.65,0.19 -0.65,0.19 -0.65,0.18 -0.65,0.18 -0.65,0.18 -0.65,0.17 -0.66,0.17 -0.65,0.16 -0.66,0.16 -0.65,0.16 -0.66,0.15 -0.66,0.15 -0.66,0.14 -0.66,0.14 -0.66,0.13 -0.67,0.13 -0.66,0.13 -0.66,0.12 -0.67,0.12 -0.66,0.11 -0.67,0.11 -0.67,0.11 -0.67,0.1 -0.66,0.1 -0.67,0.09 -0.67,0.09 -0.67,0.08 -0.67,0.08 -0.67,0.08 -0.68,0.07 -0.67,0.07 -0.67,0.06 -0.67,0.06 -0.68,0.05 -0.67,0.06 -0.67,0.04 -0.68,0.04 -0.67,0.04 -0.67,0.03 -0.68,0.03 -0.67,0.03 -0.68,0.02 -0.67,0.02 -0.68,0.01 -0.67,0.01 h -0.68 -0.68 l -0.67,-0.01 h -0.68 l -0.67,-0.02 -0.68,-0.02 -0.67,-0.02 -0.68,-0.02 -0.67,-0.03 -0.67,-0.04 -0.68,-0.04 -0.67,-0.04 -0.68,-0.05 -0.67,-0.05 -0.67,-0.05 -0.67,-0.06 -0.68,-0.07 -0.67,-0.07 -0.67,-0.07 -0.67,-0.08 -0.67,-0.08 -0.67,-0.08 -0.67,-0.09 -0.67,-0.1 -0.67,-0.1 -0.66,-0.1 -0.67,-0.1 -0.67,-0.11 -0.66,-0.12 -0.67,-0.12 -0.66,-0.12 -0.66,-0.13 -0.67,-0.13 -0.66,-0.14 -0.66,-0.14 -0.66,-0.14 -0.66,-0.15 -0.66,-0.15 -0.65,-0.16 -0.66,-0.16 -0.65,-0.16 -0.66,-0.17 -0.65,-0.17 -0.65,-0.18 -0.65,-0.18 -0.65,-0.19 -0.65,-0.19 -0.65,-0.19 -0.64,-0.2 -0.65,-0.2 -0.64,-0.21 -0.64,-0.21 -0.64,-0.21 -0.64,-0.22 -0.64,-0.22 -0.64,-0.22 -0.63,-0.23 -0.63,-0.24 -0.64,-0.24 -0.63,-0.24 -0.63,-0.24 -0.62,-0.25 -0.63,-0.26 -0.62,-0.25 -0.63,-0.27 -0.62,-0.26 -0.62,-0.27 -0.61,-0.27 -0.62,-0.28 -0.61,-0.28 -0.61,-0.29 -0.62,-0.29 -0.6,-0.29 -0.61,-0.29 -0.61,-0.3 -0.6,-0.31 -0.6,-0.31 -0.6,-0.31 -0.6,-0.31 -0.59,-0.32 -0.59,-0.32 -0.59,-0.33 -0.59,-0.33 -0.59,-0.34 -0.59,-0.33 -0.58,-0.34 -0.58,-0.35 -0.58,-0.35 -0.57,-0.35 -0.58,-0.36 -0.57,-0.36 -0.57,-0.36 -0.56,-0.37 -0.57,-0.37 -0.56,-0.37 -0.56,-0.38 -0.56,-0.38 -0.55,-0.38 -0.56,-0.39 -0.55,-0.39 -0.55,-0.4 -0.54,-0.39 -0.54,-0.41 -0.54,-0.4 -0.54,-0.41 -0.54,-0.41 -0.53,-0.42 -0.53,-0.42 -0.53,-0.42 -0.52,-0.42 -0.52,-0.43 -0.52,-0.43 -0.52,-0.44 -0.51,-0.44 -0.51,-0.44 -0.51,-0.44 -0.51,-0.45 -0.5,-0.45 -0.5,-0.46 -0.5,-0.45 -0.49,-0.46 -0.49,-0.47 -0.49,-0.46 -0.48,-0.47 -0.49,-0.48 -0.48,-0.47 -0.47,-0.48 -0.47,-0.48 -0.47,-0.49 -0.47,-0.48 -0.47,-0.5 -0.46,-0.49 -0.45,-0.5 -0.46,-0.49 -0.45,-0.51 -0.45,-0.5 -0.44,-0.51 -0.45,-0.51 -0.43,-0.51 -0.44,-0.52 -0.43,-0.52 -0.43,-0.52 -0.43,-0.52 -0.42,-0.53 -0.42,-0.53 -0.41,-0.53 -0.41,-0.54 -0.41,-0.54 -0.41,-0.54 -0.4,-0.54 -0.4,-0.54 -0.39,-0.55 -0.4,-0.55 -0.38,-0.55 -0.39,-0.56 -0.38,-0.56 -0.38,-0.56 -0.37,-0.56 -0.37,-0.56 -0.37,-0.57 -0.36,-0.57 -0.36,-0.57 -0.36,-0.57 -0.35,-0.58 -0.35,-0.58 -0.35,-0.58 -0.34,-0.58 -0.34,-0.58 -0.33,-0.59 -0.33,-0.59 -0.33,-0.59 -0.32,-0.59 -0.32,-0.6 -0.32,-0.59 -0.31,-0.6 -0.31,-0.6 -0.3,-0.61 -0.3,-0.6 -0.3,-0.61 -0.29,-0.61 -0.29,-0.61 -0.29,-0.61 -0.28,-0.61 -0.28,-0.62 -0.27,-0.62 -0.27,-0.61 -0.26,-0.63 -0.27,-0.62 -0.25,-0.62 -0.26,-0.63 -0.25,-0.62 -0.25,-0.63 -0.24,-0.63 -0.24,-0.64 -0.23,-0.63 -0.23,-0.63 -0.23,-0.64 -0.22,-0.64 -0.22,-0.64 -0.21,-0.64 -0.21,-0.64 -0.21,-0.64 -0.2,-0.65 -0.2,-0.64 -0.19,-0.65 -0.19,-0.65 -0.19,-0.65 -0.18,-0.65 -0.18,-0.65 -0.17,-0.65 -0.17,-0.65 -0.16,-0.66 -0.16,-0.65 -0.16,-0.66 -0.15,-0.66 -0.15,-0.66 -0.15,-0.66 -0.14,-0.66 -0.13,-0.66 -0.14,-0.66 -0.12,-0.66 -0.13,-0.67 -0.12,-0.66 -0.11,-0.67 -0.11,-0.66 -0.11,-0.67 -0.1,-0.67 -0.1,-0.67 -0.1,-0.67 -0.09,-0.66 -0.08,-0.67 -0.08,-0.67 -0.08,-0.68 -0.07,-0.67 -0.07,-0.67 -0.07,-0.67 -0.06,-0.67 -0.05,-0.68 -0.06,-0.67 -0.04,-0.67 -0.05,-0.68 -0.04,-0.67 -0.03,-0.67 -0.03,-0.68 -0.03,-0.67 -0.02,-0.68 -0.02,-0.67 -0.01,-0.68 -0.01,-0.67 -0.01,-0.68 v -0.67 -0.68 l 0.01,-0.68 0.01,-0.67 0.02,-0.68 0.02,-0.67 0.02,-0.68 0.03,-0.67 0.04,-0.67 0.03,-0.68 0.04,-0.67 0.05,-0.68 0.05,-0.67 0.05,-0.67 0.06,-0.68 0.06,-0.67 0.07,-0.67 0.07,-0.67 0.08,-0.67 0.08,-0.67 0.08,-0.67 0.09,-0.67 0.09,-0.67 0.1,-0.67 0.1,-0.67 0.1,-0.66 0.11,-0.67 0.12,-0.67 0.11,-0.66 0.13,-0.67 0.12,-0.66 0.13,-0.66 0.14,-0.66 0.13,-0.66 0.15,-0.66 0.14,-0.66 0.15,-0.66 0.16,-0.66 0.16,-0.66 0.16,-0.65 0.17,-0.65 0.17,-0.66 0.18,-0.65 0.18,-0.65 0.18,-0.65 0.19,-0.65 0.19,-0.65 0.19,-0.64 0.2,-0.65 0.21,-0.64 0.21,-0.64 0.21,-0.64 0.22,-0.64 0.22,-0.64 0.22,-0.64 0.23,-0.64 0.23,-0.63 0.24,-0.63 0.24,-0.63 0.24,-0.63 0.25,-0.63 0.25,-0.63 0.26,-0.62 0.26,-0.62 0.26,-0.63 0.27,-0.62 0.27,-0.61 0.28,-0.62 0.28,-0.62 0.28,-0.61 0.29,-0.61 0.29,-0.61 0.29,-0.61 0.3,-0.6 0.31,-0.61 0.3,-0.6 0.31,-0.6 0.32,-0.59 0.31,-0.6 0.32,-0.59 0.33,-0.6 0.33,-0.59 0.33,-0.58 0.34,-0.59 0.34,-0.58 0.34,-0.58 0.35,-0.58 0.35,-0.58 0.35,-0.57 0.36,-0.58 0.36,-0.57 0.37,-0.57 0.37,-0.56 0.37,-0.56 0.38,-0.56 0.38,-0.56 0.38,-0.56 0.39,-0.55 0.39,-0.55 0.39,-0.55 0.4,-0.55 0.4,-0.54 0.4,-0.54 0.41,-0.54 0.41,-0.54 0.41,-0.53 0.42,-0.53 0.42,-0.53 0.42,-0.53 0.43,-0.52 0.43,-0.52 0.44,-0.52 0.43,-0.51 0.44,-0.51 0.45,-0.51 0.44,-0.51 0.45,-0.5 0.46,-0.5 0.45,-0.5 0.46,-0.5 0.46,-0.49 0.47,-0.49 0.47,-0.48 0.47,-0.49 0.47,-0.48 0.48,-0.48 0.48,-0.47 0.49,-0.47 0.48,-0.47 0.49,-0.46 0.5,-0.47 0.49,-0.45 0.5,-0.46 0.5,-0.45 0.5,-0.45 0.51,-0.45 0.51,-0.44 0.51,-0.44 0.52,-0.44 0.52,-0.43 0.52,-0.43 0.52,-0.43 0.53,-0.42 0.52,-0.42 0.54,-0.42 0.53,-0.41 0.54,-0.41 0.54,-0.41 0.54,-0.4 0.54,-0.4 0.55,-0.4 0.55,-0.39 0.55,-0.39 0.55,-0.39 0.56,-0.38 0.56,-0.38 0.56,-0.37 0.56,-0.38 0.57,-0.36 0.57,-0.37 0.57,-0.36 0.57,-0.36 0.57,-0.35 0.58,-0.35 0.58,-0.35 0.58,-0.34 0.59,-0.34 0.58,-0.34 0.59,-0.33 0.59,-0.33 0.59,-0.32 0.6,-0.32 0.59,-0.32 0.6,-0.31 0.6,-0.31 48.85,95.42 z"
   style="fill:#000000;fill-opacity:1;fill-rule:nonzero;stroke:none"
   id="path112"
   inkscape:connector-curvature="0" /><path
   d="m 712.43,567.58 0.62,-0.32 0.62,-0.31 0.63,-0.31 0.62,-0.3 0.63,-0.3 0.63,-0.29 0.63,-0.29 0.64,-0.29 0.63,-0.28 0.64,-0.28 0.64,-0.27 0.64,-0.27 0.64,-0.27 0.65,-0.26 0.65,-0.26 0.64,-0.25 0.65,-0.25 0.65,-0.25 0.66,-0.24 0.65,-0.23 0.66,-0.23 0.65,-0.23 0.66,-0.23 0.66,-0.22 0.66,-0.21 0.67,-0.21 0.66,-0.21 0.67,-0.2 0.66,-0.2 0.67,-0.19 0.67,-0.19 0.67,-0.18 0.67,-0.18 0.68,-0.18 0.67,-0.17 26.11,103.97 z"
   style="fill:#a6cee3;fill-opacity:1;fill-rule:nonzero;stroke:none"
   id="path114"
   inkscape:connector-curvature="0" /><path
   d="m 735.17,559.03 0.66,-0.17 0.67,-0.16 0.66,-0.15 0.67,-0.15 0.66,-0.15 0.67,-0.14 0.67,-0.14 0.67,-0.14 0.67,-0.13 0.67,-0.12 0.67,-0.12 0.67,-0.12 0.68,-0.11 0.67,-0.11 0.68,-0.11 0.67,-0.1 0.68,-0.09 0.67,-0.1 0.68,-0.08 0.68,-0.09 0.68,-0.07 0.67,-0.08 0.68,-0.07 0.68,-0.06 0.68,-0.07 0.68,-0.05 0.68,-0.06 0.68,-0.04 0.68,-0.05 0.69,-0.04 0.68,-0.03 0.68,-0.03 0.68,-0.03 0.68,-0.02 0.69,-0.02 0.68,-0.01 0.68,-0.01 0.68,-0.01 h 0.69 0.68 l 0.68,0.01 0.68,0.01 0.69,0.02 0.68,0.02 0.68,0.03 0.68,0.03 0.68,0.03 0.69,0.04 0.68,0.04 0.68,0.05 0.68,0.05 0.68,0.06 0.68,0.06 0.68,0.06 0.68,0.07 0.68,0.07 0.67,0.08 0.68,0.08 0.68,0.09 0.68,0.09 0.67,0.09 0.68,0.1 0.67,0.11 0.68,0.1 0.67,0.12 0.67,0.11 0.67,0.12 0.67,0.13 0.68,0.13 0.66,0.13 0.67,0.14 0.67,0.14 0.67,0.15 0.66,0.15 0.67,0.15 0.66,0.16 0.67,0.16 0.66,0.17 0.66,0.17 0.66,0.18 0.66,0.18 0.65,0.18 0.66,0.19 0.65,0.19 0.66,0.2 0.65,0.2 0.65,0.2 0.65,0.21 0.65,0.21 0.65,0.22 0.64,0.22 0.65,0.23 0.64,0.23 0.64,0.23 0.64,0.24 0.64,0.24 0.64,0.25 0.63,0.25 0.63,0.25 0.64,0.26 0.63,0.26 0.63,0.27 0.62,0.27 0.63,0.27 0.62,0.28 0.62,0.28 0.62,0.29 -45.2,97.2 z"
   style="fill:#1f78b4;fill-opacity:1;fill-rule:nonzero;stroke:none"
   id="path116"
   inkscape:connector-curvature="0" /><path
   d="m 806.48,565.8 0.62,0.29 0.62,0.29 0.61,0.3 0.61,0.3 0.61,0.3 0.61,0.31 0.61,0.32 0.6,0.31 0.61,0.32 0.6,0.33 0.59,0.33 0.6,0.33 0.59,0.34 0.6,0.34 0.59,0.34 0.58,0.35 0.59,0.35 0.58,0.35 0.58,0.36 0.58,0.36 0.58,0.37 0.57,0.37 0.57,0.37 0.57,0.38 0.57,0.38 0.56,0.38 0.57,0.39 0.55,0.39 0.56,0.4 0.56,0.4 0.55,0.4 0.55,0.4 0.54,0.41 0.55,0.41 0.54,0.42 0.54,0.42 0.53,0.42 0.54,0.43 0.53,0.43 0.52,0.43 0.53,0.44 0.52,0.44 0.52,0.44 0.52,0.45 0.51,0.44 0.51,0.46 0.51,0.45 0.51,0.46 0.5,0.46 0.5,0.47 0.49,0.47 0.5,0.47 0.49,0.48 0.48,0.47 0.49,0.48 0.48,0.49 0.48,0.49 0.47,0.49 0.47,0.49 0.47,0.5 0.47,0.5 0.46,0.5 0.46,0.5 0.46,0.51 0.45,0.51 0.45,0.52 0.44,0.51 0.45,0.52 0.44,0.52 0.43,0.53 0.43,0.53 0.43,0.53 0.43,0.53 0.42,0.54 0.42,0.54 0.42,0.54 0.41,0.54 0.41,0.55 0.4,0.55 0.4,0.55 0.4,0.55 0.4,0.56 0.39,0.56 0.39,0.56 0.38,0.57 0.38,0.56 0.38,0.57 0.37,0.57 0.37,0.58 0.37,0.57 0.36,0.58 0.36,0.58 0.35,0.59 0.35,0.58 0.35,0.59 0.34,0.59 0.34,0.59 0.34,0.6 0.33,0.59 0.33,0.6 0.32,0.6 0.32,0.6 0.32,0.61 0.31,0.6 0.31,0.61 0.31,0.61 0.3,0.62 -96.33,47.03 z"
   style="fill:#b2df8a;fill-opacity:1;fill-rule:nonzero;stroke:none"
   id="path118"
   inkscape:connector-curvature="0" /><path
   d="m 857.61,615.97 0.3,0.62 0.3,0.63 0.3,0.63 0.29,0.63 0.29,0.64 0.28,0.63 0.28,0.64 0.27,0.64 0.27,0.64 0.27,0.64 0.26,0.65 0.26,0.64 0.25,0.65 0.25,0.65 0.25,0.65 0.24,0.65 0.23,0.66 0.24,0.65 0.22,0.66 0.23,0.66 0.22,0.66 0.21,0.66 0.21,0.66 0.21,0.67 0.2,0.66 0.2,0.67 0.19,0.67 0.19,0.67 0.19,0.67 0.18,0.67 0.18,0.67 0.17,0.67 0.17,0.68 0.16,0.68 0.16,0.67 L 761.28,663 Z"
   style="fill:#33a02c;fill-opacity:1;fill-rule:nonzero;stroke:none"
   id="path120"
   inkscape:connector-curvature="0" /><path
   d="m 865.73,638.86 0.15,0.69 0.16,0.69 0.14,0.69 0.15,0.69 0.14,0.69 0.13,0.7 0.13,0.69 0.12,0.69 0.12,0.7 0.12,0.7 0.11,0.69 0.11,0.7 0.1,0.7 0.1,0.7 0.09,0.7 0.09,0.7 0.08,0.7 0.08,0.7 0.07,0.7 0.07,0.7 0.07,0.71 0.06,0.7 0.05,0.7 -106.89,8.11 z"
   style="fill:#fb9a99;fill-opacity:1;fill-rule:nonzero;stroke:none"
   id="path122"
   inkscape:connector-curvature="0" /><path
   d="m 868.17,654.89 v 0 L 761.28,663 Z"
   style="fill:#e31a1c;fill-opacity:1;fill-rule:nonzero;stroke:none"
   id="path124"
   inkscape:connector-curvature="0" /><path
   d="m 868.17,654.89 0.06,0.74 0.04,0.73 0.05,0.74 0.04,0.74 0.03,0.73 0.03,0.74 0.02,0.74 0.02,0.74 0.01,0.73 0.01,0.74 V 663 h -107.2 z"
   style="fill:#fdbf6f;fill-opacity:1;fill-rule:nonzero;stroke:none"
   id="path126"
   inkscape:connector-curvature="0" /><path
   d="m 868.48,663 v 0 h -107.2 z"
   style="fill:#ff7f00;fill-opacity:1;fill-rule:nonzero;stroke:none"
   id="path128"
   inkscape:connector-curvature="0" /><text
   transform="scale(1,-1)"
   style="font-style:normal;font-variant:normal;font-weight:600;font-stretch:normal;font-size:48px;font-family:'URW Gothic L';-inkscape-font-specification:'URW Gothic L, Semi-Bold';font-variant-ligatures:normal;font-variant-caps:normal;font-variant-numeric:normal;font-feature-settings:normal;text-align:start;writing-mode:lr-tb;text-anchor:start;fill:#ffffff;fill-opacity:1;fill-rule:nonzero;stroke:#000000;stroke-width:1.52474999;stroke-miterlimit:4;stroke-dasharray:none;stroke-opacity:1"
   id="text132"
   x="750.15997"
   y="-648.79999"><tspan
     x="750.15997"
     y="-648.79999"
     id="tspan130"
     style="font-style:normal;font-variant:normal;font-weight:600;font-stretch:normal;font-size:48px;font-family:'URW Gothic L';-inkscape-font-specification:'URW Gothic L, Semi-Bold';font-variant-ligatures:normal;font-variant-caps:normal;font-variant-numeric:normal;font-feature-settings:normal;text-align:start;writing-mode:lr-tb;text-anchor:start;fill:#ffffff;fill-opacity:1;stroke:#000000;stroke-width:1.52474999;stroke-miterlimit:4;stroke-dasharray:none;stroke-opacity:1">4</tspan></text>

<path
   d="m 640.54,430.5 v 0.68 l -0.01,0.67 -0.01,0.68 -0.01,0.67 -0.02,0.67 -0.03,0.68 -0.02,0.67 -0.04,0.68 -0.03,0.67 -0.04,0.68 -0.05,0.67 -0.05,0.67 -0.05,0.68 -0.06,0.67 -0.06,0.67 -0.06,0.67 -0.07,0.67 -0.08,0.68 -0.08,0.67 -0.08,0.67 -0.09,0.67 -0.09,0.66 -0.09,0.67 -0.1,0.67 -0.11,0.67 -0.1,0.66 -0.12,0.67 -0.11,0.67 -0.12,0.66 -0.13,0.66 -0.13,0.67 -0.13,0.66 -0.14,0.66 -0.14,0.66 -0.14,0.66 -0.15,0.66 -0.16,0.65 -0.15,0.66 -0.17,0.66 -0.16,0.65 -0.17,0.65 -0.18,0.65 -0.18,0.66 -0.18,0.65 -0.19,0.64 -0.19,0.65 -0.19,0.65 -0.2,0.64 -0.2,0.65 -0.21,0.64 -0.21,0.64 -0.22,0.64 -0.22,0.64 -0.22,0.64 -0.23,0.63 -0.23,0.64 -0.23,0.63 -0.24,0.63 -0.24,0.63 -0.25,0.63 -0.25,0.63 -0.26,0.62 -0.26,0.62 -0.26,0.63 -0.27,0.62 -0.27,0.61 -0.27,0.62 -0.28,0.62 -0.28,0.61 -0.29,0.61 -0.29,0.61 -0.29,0.61 -0.3,0.6 -0.3,0.61 -0.31,0.6 -0.31,0.6 -0.31,0.6 -0.32,0.6 -0.32,0.59 -0.32,0.59 -0.33,0.59 -0.33,0.59 -0.33,0.59 -0.34,0.58 -0.35,0.58 -0.34,0.58 -0.35,0.58 -0.35,0.57 -0.36,0.58 -0.36,0.57 -0.37,0.57 -0.36,0.56 -0.38,0.57 -0.37,0.56 -0.38,0.56 -0.38,0.55 -0.39,0.56 -0.39,0.55 -0.39,0.55 -0.39,0.55 -0.4,0.54 -0.41,0.54 -0.4,0.54 -0.41,0.54 -0.41,0.53 -0.42,0.53 -0.42,0.53 -0.42,0.53 -0.43,0.52 -0.43,0.52 -0.43,0.52 -0.44,0.52 -0.44,0.51 -0.44,0.51 -0.45,0.51 -0.44,0.5 -0.46,0.5 -0.45,0.5 -0.46,0.5 -0.46,0.49 -0.47,0.49 -0.46,0.49 -0.47,0.48 -0.48,0.48 -0.47,0.48 -0.48,0.47 -0.49,0.48 -0.48,0.46 -0.49,0.47 -0.49,0.46 -0.5,0.46 -0.49,0.46 -0.5,0.45 -0.51,0.45 -0.5,0.45 -0.51,0.44 -0.51,0.44 -0.52,0.44 -0.52,0.44 -0.51,0.43 -0.53,0.42 -0.52,0.43 -0.53,0.42 -0.53,0.42 -0.53,0.41 -0.54,0.41 -0.54,0.41 -0.54,0.4 -0.54,0.41 -0.55,0.39 -0.55,0.4 -0.55,0.39 -0.55,0.38 -0.55,0.39 -0.56,0.38 -0.56,0.37 -0.57,0.38 -0.56,0.37 -0.57,0.36 -0.57,0.36 -0.57,0.36 -0.57,0.36 -0.58,0.35 -0.58,0.35 -0.58,0.34 -0.58,0.34 -0.59,0.34 -0.59,0.33 -0.58,0.33 -0.6,0.33 -0.59,0.32 -0.59,0.32 -0.6,0.31 -0.6,0.31 -0.6,0.31 -0.61,0.3 -0.6,0.3 -0.61,0.3 -0.61,0.29 -0.61,0.29 -0.61,0.28 -0.61,0.28 -0.62,0.28 -0.62,0.27 -0.62,0.27 -0.62,0.26 -0.62,0.26 -0.63,0.26 -0.62,0.25 -0.63,0.25 -0.63,0.24 -0.63,0.25 -0.63,0.23 -0.64,0.24 -0.63,0.22 -0.64,0.23 -0.64,0.22 -0.63,0.22 -0.65,0.21 -0.64,0.21 -0.64,0.2 -0.64,0.2 -0.65,0.2 -0.65,0.19 -0.65,0.19 -0.65,0.19 -0.65,0.18 -0.65,0.17 -0.65,0.17 -0.65,0.17 -0.66,0.17 -0.66,0.16 -0.65,0.15 -0.66,0.15 -0.66,0.15 -0.66,0.14 -0.66,0.14 -0.66,0.14 -0.66,0.13 -0.67,0.12 -0.66,0.13 -0.66,0.11 -0.67,0.12 -0.67,0.11 -0.66,0.1 -0.67,0.11 -0.67,0.09 -0.67,0.1 -0.67,0.08 -0.67,0.09 -0.67,0.08 -0.67,0.07 -0.67,0.08 -0.67,0.06 -0.67,0.07 -0.68,0.06 -0.67,0.05 -0.67,0.05 -0.67,0.05 -0.68,0.04 -0.67,0.04 -0.68,0.03 -0.67,0.03 -0.68,0.03 -0.67,0.02 -0.68,0.02 -0.67,0.01 -0.68,0.01 h -0.67 -0.68 l -0.67,-0.01 h -0.68 l -0.67,-0.02 -0.68,-0.01 -0.67,-0.03 -0.68,-0.02 -0.67,-0.03 -0.67,-0.04 -0.68,-0.03 -0.67,-0.05 -0.67,-0.04 -0.68,-0.06 -0.67,-0.05 -0.67,-0.06 -0.68,-0.07 -0.67,-0.06 -0.67,-0.08 -0.67,-0.07 -0.67,-0.08 -0.67,-0.09 -0.67,-0.09 -0.67,-0.09 -0.66,-0.1 -0.67,-0.1 -0.67,-0.11 -0.66,-0.11 -0.67,-0.11 -0.66,-0.12 -0.67,-0.12 -0.66,-0.13 -0.66,-0.13 -0.67,-0.14 -0.66,-0.14 -0.66,-0.14 -0.65,-0.15 -0.66,-0.15 -0.66,-0.16 -0.65,-0.16 -0.66,-0.16 -0.65,-0.17 -0.66,-0.17 -0.65,-0.18 -0.65,-0.18 -0.65,-0.19 -0.64,-0.18 -0.65,-0.2 -0.65,-0.19 -0.64,-0.21 -0.64,-0.2 -0.65,-0.21 -0.64,-0.21 -0.64,-0.22 -0.63,-0.22 -0.64,-0.23 -0.64,-0.23 -0.63,-0.23 -0.63,-0.24 -0.63,-0.24 -0.63,-0.25 -0.63,-0.25 -0.62,-0.25 -0.63,-0.26 -0.62,-0.26 -0.62,-0.26 -0.62,-0.27 -0.62,-0.27 -0.61,-0.28 -0.62,-0.28 -0.61,-0.29 -0.61,-0.28 -0.61,-0.3 -0.61,-0.29 -0.6,-0.3 -0.6,-0.31 -0.6,-0.3 -0.6,-0.31 -0.6,-0.32 -0.6,-0.32 -0.59,-0.32 -0.59,-0.33 -0.59,-0.33 -0.59,-0.33 -0.58,-0.34 -0.58,-0.34 -0.58,-0.34 -0.58,-0.35 -0.58,-0.35 -0.57,-0.36 -0.57,-0.36 -0.57,-0.36 -0.57,-0.37 -0.56,-0.37 -0.57,-0.37 -0.56,-0.38 -0.55,-0.38 -0.56,-0.38 -0.55,-0.39 -0.55,-0.39 -0.55,-0.39 -0.55,-0.4 -0.54,-0.4 -0.54,-0.41 -0.54,-0.41 -0.53,-0.41 -0.54,-0.41 -0.53,-0.42 -0.52,-0.42 -0.53,-0.43 -0.52,-0.42 -0.52,-0.44 -0.52,-0.43 -0.51,-0.44 -0.51,-0.44 -0.51,-0.44 -0.5,-0.45 -0.51,-0.45 -0.5,-0.46 -0.49,-0.45 -0.5,-0.46 -0.49,-0.47 -0.49,-0.46 -0.48,-0.47 -0.48,-0.47 -0.48,-0.48 -0.48,-0.48 -0.47,-0.48 -0.47,-0.48 -0.47,-0.49 -0.46,-0.49 -0.47,-0.5 -0.45,-0.49 -0.46,-0.5 -0.45,-0.5 -0.45,-0.51 -0.44,-0.5 -0.45,-0.51 -0.43,-0.52 -0.44,-0.51 -0.43,-0.52 -0.43,-0.52 -0.43,-0.53 -0.42,-0.52 -0.42,-0.53 -0.41,-0.53 -0.42,-0.54 -0.41,-0.54 -0.4,-0.54 -0.4,-0.54 -0.4,-0.54 -0.4,-0.55 -0.39,-0.55 -0.39,-0.55 -0.38,-0.56 -0.38,-0.55 -0.38,-0.56 -0.38,-0.56 -0.37,-0.57 -0.37,-0.56 -0.36,-0.57 -0.36,-0.57 -0.36,-0.58 -0.35,-0.57 -0.35,-0.58 -0.34,-0.58 -0.35,-0.58 -0.33,-0.59 -0.34,-0.58 -0.33,-0.59 -0.33,-0.59 -0.32,-0.59 -0.32,-0.6 -0.32,-0.6 -0.31,-0.59 -0.31,-0.61 -0.3,-0.6 -0.3,-0.6 -0.3,-0.61 -0.29,-0.61 -0.29,-0.61 -0.29,-0.61 -0.28,-0.61 -0.28,-0.62 -0.27,-0.61 -0.27,-0.62 -0.27,-0.62 -0.26,-0.62 -0.26,-0.63 -0.25,-0.62 -0.25,-0.63 -0.25,-0.63 -0.24,-0.63 -0.24,-0.63 -0.24,-0.63 -0.23,-0.64 -0.22,-0.63 -0.23,-0.64 -0.21,-0.64 -0.22,-0.64 -0.21,-0.64 -0.21,-0.64 -0.2,-0.65 -0.2,-0.64 -0.19,-0.65 -0.19,-0.65 -0.19,-0.65 -0.18,-0.65 -0.18,-0.65 -0.17,-0.65 -0.17,-0.65 -0.17,-0.66 -0.16,-0.65 -0.16,-0.66 -0.15,-0.66 -0.15,-0.66 -0.14,-0.66 -0.14,-0.66 -0.14,-0.66 -0.13,-0.66 -0.13,-0.66 -0.12,-0.67 -0.12,-0.66 -0.12,-0.67 -0.11,-0.66 -0.11,-0.67 -0.1,-0.66 -0.1,-0.67 -0.1,-0.67 -0.09,-0.67 -0.08,-0.67 -0.08,-0.67 -0.08,-0.67 -0.08,-0.67 -0.07,-0.67 -0.06,-0.67 -0.06,-0.68 -0.06,-0.67 -0.05,-0.67 -0.05,-0.68 -0.04,-0.67 -0.04,-0.67 -0.04,-0.68 -0.03,-0.67 -0.03,-0.68 -0.02,-0.67 -0.02,-0.68 -0.01,-0.67 -0.01,-0.68 -0.01,-0.67 v -0.68 -0.67 l 0.01,-0.68 0.01,-0.67 0.02,-0.68 0.02,-0.67 0.02,-0.68 0.03,-0.67 0.03,-0.67 0.04,-0.68 0.04,-0.67 0.04,-0.68 0.05,-0.67 0.06,-0.67 0.05,-0.68 0.07,-0.67 0.06,-0.67 0.07,-0.67 0.08,-0.67 0.08,-0.67 0.08,-0.67 0.09,-0.67 0.09,-0.67 0.1,-0.67 0.1,-0.67 0.1,-0.66 0.11,-0.67 0.11,-0.67 0.12,-0.66 0.12,-0.66 0.13,-0.67 0.13,-0.66 0.13,-0.66 0.14,-0.66 0.14,-0.66 0.14,-0.66 0.15,-0.66 0.16,-0.66 0.16,-0.65 0.16,-0.66 0.17,-0.65 0.17,-0.66 0.17,-0.65 0.18,-0.65 0.19,-0.65 0.18,-0.65 0.19,-0.64 0.2,-0.65 0.2,-0.65 0.2,-0.64 0.21,-0.64 0.21,-0.64 0.22,-0.64 0.22,-0.64 0.22,-0.64 0.23,-0.63 0.23,-0.64 0.24,-0.63 0.24,-0.63 0.24,-0.63 0.25,-0.63 0.25,-0.63 0.25,-0.62 0.26,-0.62 0.27,-0.62 0.27,-0.62 0.27,-0.62 0.27,-0.62 0.28,-0.61 0.28,-0.62 0.29,-0.61 0.29,-0.61 0.29,-0.61 0.3,-0.6 0.3,-0.6 0.31,-0.61 0.31,-0.6 0.31,-0.59 0.32,-0.6 0.32,-0.59 0.33,-0.6 0.32,-0.59 0.34,-0.58 0.33,-0.59 92.84,53.6 z"
   style="fill:#000000;fill-opacity:1;fill-rule:nonzero;stroke:none"
   id="path142"
   inkscape:connector-curvature="0" /><path
   d="m 440.5,376.9 0.36,-0.61 0.36,-0.61 0.36,-0.61 0.37,-0.6 0.37,-0.6 0.38,-0.6 0.38,-0.6 0.38,-0.59 0.39,-0.6 0.39,-0.59 0.39,-0.58 0.4,-0.59 0.41,-0.58 0.4,-0.58 0.41,-0.57 0.42,-0.58 0.42,-0.57 0.42,-0.57 0.42,-0.56 0.43,-0.56 0.44,-0.56 0.43,-0.56 0.44,-0.55 0.45,-0.55 0.45,-0.55 0.45,-0.55 0.45,-0.54 0.46,-0.54 0.46,-0.53 0.47,-0.53 0.47,-0.53 0.47,-0.53 0.48,-0.52 0.48,-0.52 78.58,72.91 z"
   style="fill:#a6cee3;fill-opacity:1;fill-rule:nonzero;stroke:none"
   id="path144"
   inkscape:connector-curvature="0" /><path
   d="m 454.76,357.59 0.46,-0.5 0.47,-0.5 0.48,-0.5 0.47,-0.49 0.48,-0.49 0.49,-0.48 0.48,-0.48 0.49,-0.48 0.49,-0.48 0.5,-0.47 0.5,-0.47 0.5,-0.47 0.5,-0.46 0.51,-0.46 0.51,-0.46 0.51,-0.45 0.52,-0.45 0.52,-0.45 0.52,-0.44 0.52,-0.44 0.53,-0.44 0.53,-0.43 0.53,-0.43 0.54,-0.43 0.54,-0.42 0.54,-0.42 0.54,-0.41 0.55,-0.42 0.55,-0.41 0.55,-0.4 0.55,-0.4 0.56,-0.4 0.56,-0.4 0.56,-0.39 0.56,-0.39 0.57,-0.38 0.57,-0.38 0.57,-0.38 0.57,-0.37 0.58,-0.37 0.58,-0.37 0.58,-0.36 0.58,-0.36 0.59,-0.35 0.58,-0.36 0.59,-0.34 0.59,-0.35 0.6,-0.34 0.6,-0.33 0.59,-0.33 0.6,-0.33 0.61,-0.33 0.6,-0.32 0.61,-0.32 0.61,-0.31 0.61,-0.31 0.61,-0.3 0.62,-0.3 0.61,-0.3 0.62,-0.29 0.62,-0.29 0.62,-0.29 0.63,-0.28 0.62,-0.28 0.63,-0.27 0.63,-0.27 0.63,-0.27 0.63,-0.26 0.64,-0.25 0.63,-0.26 0.64,-0.25 0.64,-0.24 0.64,-0.24 0.64,-0.24 0.65,-0.23 0.64,-0.23 0.65,-0.23 0.65,-0.22 0.65,-0.21 0.65,-0.22 0.65,-0.2 0.65,-0.21 31.6,102.44 z"
   style="fill:#1f78b4;fill-opacity:1;fill-rule:nonzero;stroke:none"
   id="path146"
   inkscape:connector-curvature="0" /><path
   d="m 501.74,328.06 0.67,-0.2 0.67,-0.2 0.67,-0.19 0.67,-0.19 0.67,-0.19 0.67,-0.18 0.68,-0.18 0.67,-0.17 0.68,-0.17 0.68,-0.16 0.68,-0.16 0.68,-0.16 0.68,-0.15 0.68,-0.15 0.68,-0.14 0.68,-0.14 0.69,-0.13 0.68,-0.13 0.69,-0.12 0.69,-0.12 0.69,-0.12 0.68,-0.11 0.69,-0.1 0.69,-0.1 0.69,-0.1 0.69,-0.09 0.7,-0.09 0.69,-0.09 0.69,-0.08 0.69,-0.07 0.7,-0.07 0.69,-0.07 0.7,-0.06 0.69,-0.05 0.7,-0.06 0.69,-0.04 0.7,-0.05 0.69,-0.03 0.7,-0.04 0.7,-0.03 0.69,-0.02 0.7,-0.02 0.7,-0.02 0.7,-0.01 0.69,-0.01 h 0.7 v 107.2 z"
   style="fill:#b2df8a;fill-opacity:1;fill-rule:nonzero;stroke:none"
   id="path148"
   inkscape:connector-curvature="0" /><path
   d="m 533.34,323.3 h 0.8 l 0.8,0.01 0.81,0.02 0.8,0.02 0.8,0.02 0.8,0.04 0.8,0.04 0.8,0.04 0.8,0.05 0.8,0.06 -8.01,106.9 z"
   style="fill:#33a02c;fill-opacity:1;fill-rule:nonzero;stroke:none"
   id="path150"
   inkscape:connector-curvature="0" /><path
   d="m 541.35,323.6 0.69,0.05 0.69,0.06 0.69,0.06 0.69,0.07 0.68,0.07 0.69,0.08 0.69,0.08 0.68,0.09 0.69,0.08 0.68,0.1 0.69,0.1 0.68,0.1 0.68,0.11 0.69,0.11 0.68,0.11 0.68,0.12 0.68,0.13 0.68,0.13 0.68,0.13 0.67,0.14 0.68,0.14 0.67,0.15 0.68,0.15 0.67,0.15 0.68,0.16 0.67,0.17 0.67,0.16 0.67,0.18 0.67,0.17 0.66,0.18 0.67,0.19 0.66,0.19 0.67,0.19 0.66,0.2 0.66,0.2 0.66,0.21 0.66,0.21 0.65,0.22 0.66,0.22 0.65,0.22 0.66,0.23 0.65,0.23 0.65,0.24 0.65,0.24 0.64,0.24 0.65,0.25 0.64,0.25 0.64,0.26 0.64,0.26 0.64,0.27 0.64,0.27 0.63,0.27 0.63,0.28 0.64,0.28 0.63,0.28 0.62,0.29 0.63,0.3 0.62,0.3 -46.51,96.58 z"
   style="fill:#fb9a99;fill-opacity:1;fill-rule:nonzero;stroke:none"
   id="path152"
   inkscape:connector-curvature="0" /><path
   d="m 579.85,333.92 0.72,0.35 0.72,0.35 0.72,0.36 0.71,0.37 0.71,0.37 0.71,0.38 0.7,0.38 0.71,0.39 0.69,0.39 0.7,0.4 -53.6,92.84 z"
   style="fill:#e31a1c;fill-opacity:1;fill-rule:nonzero;stroke:none"
   id="path154"
   inkscape:connector-curvature="0" /><path
   d="m 586.94,337.66 0.6,0.35 0.59,0.35 0.6,0.36 0.59,0.36 0.58,0.36 0.59,0.36 0.58,0.38 0.59,0.37 0.57,0.38 0.58,0.38 0.57,0.38 0.58,0.39 0.57,0.4 0.56,0.39 0.57,0.4 0.56,0.41 0.55,0.4 0.56,0.41 0.55,0.42 0.55,0.42 0.55,0.42 0.55,0.42 0.54,0.43 0.54,0.43 0.54,0.44 0.53,0.44 0.53,0.44 0.53,0.45 0.53,0.45 0.52,0.45 0.52,0.45 0.51,0.46 0.52,0.47 0.51,0.46 0.51,0.47 0.5,0.47 0.5,0.48 0.5,0.48 0.5,0.48 0.49,0.49 0.49,0.48 0.48,0.5 0.49,0.49 0.48,0.5 0.47,0.5 0.47,0.5 0.47,0.51 0.47,0.51 0.46,0.51 0.46,0.52 0.46,0.52 0.45,0.52 0.45,0.52 0.45,0.53 0.44,0.53 0.44,0.54 0.44,0.53 0.43,0.54 -83.81,66.84 z"
   style="fill:#fdbf6f;fill-opacity:1;fill-rule:nonzero;stroke:none"
   id="path156"
   inkscape:connector-curvature="0" /><path
   d="m 617.15,363.66 0.43,0.54 0.41,0.53 0.42,0.54 0.41,0.54 0.41,0.55 0.41,0.54 0.4,0.55 0.4,0.55 0.39,0.56 0.4,0.56 0.38,0.56 0.39,0.56 0.38,0.56 0.38,0.57 0.37,0.57 0.37,0.57 0.37,0.57 0.36,0.58 0.36,0.58 0.35,0.58 0.36,0.58 0.34,0.59 0.35,0.58 0.34,0.59 0.34,0.59 0.33,0.6 0.33,0.59 0.32,0.6 0.33,0.6 0.31,0.6 0.32,0.61 0.31,0.6 0.3,0.61 0.31,0.61 0.3,0.61 0.29,0.62 0.29,0.61 0.29,0.62 0.28,0.62 0.28,0.62 0.27,0.62 0.28,0.63 0.26,0.62 0.27,0.63 0.26,0.63 0.25,0.63 0.25,0.64 0.25,0.63 0.24,0.64 0.24,0.63 0.24,0.64 0.23,0.64 0.22,0.64 0.23,0.65 0.22,0.64 0.21,0.65 0.21,0.65 0.21,0.64 0.2,0.65 0.2,0.66 0.19,0.65 0.19,0.65 0.19,0.66 0.18,0.65 0.18,0.66 0.17,0.66 0.17,0.66 0.16,0.66 0.16,0.66 0.16,0.66 0.15,0.67 0.15,0.66 0.14,0.67 0.14,0.66 0.14,0.67 0.13,0.67 0.13,0.67 0.12,0.67 0.12,0.67 0.11,0.67 0.11,0.67 0.11,0.67 0.1,0.68 0.1,0.67 0.09,0.68 0.09,0.67 0.08,0.68 0.08,0.67 0.08,0.68 0.07,0.68 0.06,0.67 0.07,0.68 0.05,0.68 0.06,0.68 0.05,0.68 0.04,0.68 0.04,0.68 0.04,0.68 0.03,0.68 0.03,0.68 0.03,0.68 0.02,0.68 0.01,0.68 0.01,0.68 0.01,0.68 v 0.68 h -107.2 z"
   style="fill:#ff7f00;fill-opacity:1;fill-rule:nonzero;stroke:none"
   id="path158"
   inkscape:connector-curvature="0" /><text
   transform="scale(1,-1)"
   style="font-style:normal;font-variant:normal;font-weight:600;font-stretch:normal;font-size:48px;font-family:'URW Gothic L';-inkscape-font-specification:'URW Gothic L, Semi-Bold';font-variant-ligatures:normal;font-variant-caps:normal;font-variant-numeric:normal;font-feature-settings:normal;text-align:start;writing-mode:lr-tb;text-anchor:start;fill:#ffffff;fill-opacity:1;fill-rule:nonzero;stroke:#000000;stroke-width:1.52474999;stroke-miterlimit:4;stroke-dasharray:none;stroke-opacity:1"
   id="text162"
   x="522.21997"
   y="-416.92001"><tspan
     x="522.21997"
     y="-416.92001"
     id="tspan160"
     style="font-style:normal;font-variant:normal;font-weight:600;font-stretch:normal;font-size:48px;font-family:'URW Gothic L';-inkscape-font-specification:'URW Gothic L, Semi-Bold';font-variant-ligatures:normal;font-variant-caps:normal;font-variant-numeric:normal;font-feature-settings:normal;text-align:start;writing-mode:lr-tb;text-anchor:start;fill:#ffffff;fill-opacity:1;stroke:#000000;stroke-width:1.52474999;stroke-miterlimit:4;stroke-dasharray:none;stroke-opacity:1">5</tspan></text>

<path
   d="m 868.48,430.5 v 0.68 l -0.01,0.67 -0.01,0.68 -0.01,0.68 -0.02,0.67 -0.03,0.68 -0.02,0.67 -0.04,0.68 -0.03,0.68 -0.04,0.67 -0.05,0.68 -0.05,0.67 -0.05,0.68 -0.06,0.67 -0.06,0.67 -0.07,0.68 -0.07,0.67 -0.07,0.67 -0.08,0.67 -0.08,0.68 -0.09,0.67 -0.09,0.67 -0.1,0.67 -0.1,0.67 -0.1,0.66 -0.11,0.67 -0.11,0.67 -0.12,0.67 -0.12,0.66 -0.13,0.67 -0.13,0.66 -0.13,0.66 -0.14,0.67 -0.14,0.66 -0.14,0.66 -0.16,0.66 -0.15,0.66 -0.16,0.65 -0.16,0.66 -0.17,0.66 -0.17,0.65 -0.17,0.65 -0.18,0.66 -0.19,0.65 -0.18,0.65 -0.2,0.65 -0.19,0.64 -0.2,0.65 -0.21,0.65 -0.2,0.64 -0.22,0.64 -0.21,0.64 -0.22,0.64 -0.23,0.64 -0.22,0.64 -0.24,0.63 -0.23,0.64 -0.24,0.63 -0.25,0.63 -0.24,0.63 -0.26,0.63 -0.25,0.62 -0.26,0.63 -0.27,0.62 -0.26,0.62 -0.28,0.62 -0.27,0.62 -0.28,0.62 -0.29,0.61 -0.28,0.61 -0.29,0.61 -0.3,0.61 -0.3,0.61 -0.3,0.61 -0.31,0.6 -0.31,0.6 -0.31,0.6 -0.32,0.6 -0.32,0.59 -0.33,0.59 -0.33,0.6 -0.33,0.58 -0.33,0.59 -0.34,0.59 -0.35,0.58 -0.35,0.58 -0.35,0.58 -0.35,0.57 -0.36,0.58 -0.36,0.57 -0.37,0.57 -0.37,0.56 -0.37,0.57 -0.38,0.56 -0.38,0.56 -0.38,0.56 -0.39,0.55 -0.39,0.56 -0.39,0.55 -0.4,0.54 -0.4,0.55 -0.41,0.54 -0.4,0.54 -0.41,0.54 -0.42,0.53 -0.42,0.53 -0.42,0.53 -0.42,0.53 -0.43,0.53 -0.43,0.52 -0.44,0.51 -0.43,0.52 -0.45,0.51 -0.44,0.51 -0.45,0.51 -0.45,0.51 -0.45,0.5 -0.46,0.5 -0.46,0.49 -0.46,0.5 -0.47,0.49 -0.47,0.48 -0.47,0.49 -0.48,0.48 -0.47,0.48 -0.49,0.47 -0.48,0.47 -0.49,0.47 -0.49,0.47 -0.49,0.46 -0.5,0.46 -0.5,0.46 -0.5,0.45 -0.5,0.45 -0.51,0.45 -0.51,0.44 -0.52,0.44 -0.51,0.44 -0.52,0.44 -0.52,0.43 -0.53,0.42 -0.52,0.43 -0.53,0.42 -0.54,0.42 -0.53,0.41 -0.54,0.41 -0.54,0.41 -0.54,0.4 -0.55,0.4 -0.54,0.4 -0.56,0.39 -0.55,0.39 -0.55,0.39 -0.56,0.38 -0.56,0.38 -0.56,0.38 -0.57,0.37 -0.57,0.37 -0.56,0.37 -0.58,0.36 -0.57,0.36 -0.58,0.35 -0.57,0.35 -0.59,0.35 -0.58,0.34 -0.58,0.34 -0.59,0.34 -0.59,0.33 -0.59,0.33 -0.59,0.33 -0.6,0.32 -0.6,0.31 -0.6,0.32 -0.6,0.31 -0.6,0.3 -0.61,0.31 -0.6,0.29 -0.61,0.3 -0.61,0.29 -0.62,0.29 -0.61,0.28 -0.62,0.28 -0.62,0.27 -0.62,0.28 -0.62,0.26 -0.62,0.27 -0.62,0.26 -0.63,0.25 -0.63,0.25 -0.63,0.25 -0.63,0.24 -0.63,0.24 -0.64,0.24 -0.63,0.23 -0.64,0.23 -0.64,0.22 -0.64,0.22 -0.64,0.22 -0.64,0.21 -0.65,0.21 -0.64,0.2 -0.65,0.2 -0.65,0.2 -0.64,0.19 -0.65,0.18 -0.66,0.19 -0.65,0.18 -0.65,0.17 -0.66,0.17 -0.65,0.17 -0.66,0.16 -0.66,0.16 -0.66,0.15 -0.66,0.15 -0.66,0.15 -0.66,0.14 -0.66,0.14 -0.66,0.13 -0.67,0.13 -0.66,0.12 -0.67,0.12 -0.67,0.12 -0.66,0.11 -0.67,0.11 -0.67,0.1 -0.67,0.1 -0.67,0.1 -0.67,0.09 -0.67,0.09 -0.67,0.08 -0.67,0.08 -0.68,0.07 -0.67,0.07 -0.67,0.07 -0.68,0.06 -0.67,0.06 -0.67,0.05 -0.68,0.05 -0.67,0.04 -0.68,0.04 -0.67,0.04 -0.68,0.03 -0.68,0.03 -0.67,0.02 -0.68,0.02 -0.68,0.01 -0.67,0.01 -0.68,0.01 h -0.68 -0.67 l -0.68,-0.01 -0.67,-0.01 -0.68,-0.02 -0.68,-0.02 -0.67,-0.02 -0.68,-0.03 -0.68,-0.03 -0.67,-0.04 -0.68,-0.04 -0.67,-0.04 -0.68,-0.05 -0.67,-0.06 -0.67,-0.05 -0.68,-0.07 -0.67,-0.06 -0.67,-0.07 -0.68,-0.08 -0.67,-0.08 -0.67,-0.08 -0.67,-0.09 -0.67,-0.09 -0.67,-0.1 -0.67,-0.1 -0.67,-0.1 -0.67,-0.11 -0.66,-0.12 -0.67,-0.11 -0.66,-0.12 -0.67,-0.13 -0.66,-0.13 20.91,-105.14 z"
   style="fill:#000000;fill-opacity:1;fill-rule:nonzero;stroke:none"
   id="path172"
   inkscape:connector-curvature="0" /><path
   d="m 740.37,535.64 -0.73,-0.15 -0.73,-0.15 -0.72,-0.16 -0.73,-0.16 -0.72,-0.17 -0.73,-0.17 -0.72,-0.18 -0.72,-0.18 -0.72,-0.19 -0.71,-0.19 -0.72,-0.2 -0.71,-0.2 -0.72,-0.21 -0.71,-0.21 -0.71,-0.22 -0.71,-0.22 -0.71,-0.23 33.13,-101.95 z"
   style="fill:#a6cee3;fill-opacity:1;fill-rule:nonzero;stroke:none"
   id="path174"
   inkscape:connector-curvature="0" /><path
   d="m 728.15,532.45 -0.66,-0.22 -0.67,-0.22 -0.66,-0.23 -0.66,-0.23 -0.66,-0.24 -0.66,-0.24 -0.66,-0.24 -0.66,-0.25 -0.65,-0.25 -0.65,-0.26 -0.65,-0.26 -0.65,-0.27 -0.65,-0.27 -0.65,-0.28 -0.64,-0.27 -0.64,-0.29 -0.64,-0.29 -0.64,-0.29 -0.64,-0.29 -0.63,-0.3 -0.63,-0.31 -0.63,-0.31 -0.63,-0.31 -0.63,-0.31 -0.62,-0.32 -0.62,-0.33 -0.62,-0.33 -0.62,-0.33 -0.62,-0.34 -0.61,-0.34 -0.61,-0.34 -0.61,-0.35 -0.61,-0.35 -0.6,-0.36 -0.6,-0.36 -0.6,-0.37 -0.6,-0.37 -0.59,-0.37 -0.6,-0.37 -0.59,-0.38 -0.58,-0.39 -0.59,-0.39 59.56,-89.13 z"
   style="fill:#1f78b4;fill-opacity:1;fill-rule:nonzero;stroke:none"
   id="path176"
   inkscape:connector-curvature="0" /><path
   d="m 701.72,519.63 -0.57,-0.38 -0.57,-0.39 -0.57,-0.4 -0.57,-0.39 -0.56,-0.4 -0.56,-0.41 -0.56,-0.4 -0.55,-0.42 -0.56,-0.41 -0.55,-0.42 -0.54,-0.42 -0.55,-0.43 -0.54,-0.43 -0.54,-0.43 -0.54,-0.43 -0.53,-0.44 -0.53,-0.45 -0.53,-0.44 -0.52,-0.45 -0.52,-0.45 -0.52,-0.46 -0.52,-0.46 -0.51,-0.46 -0.51,-0.47 -0.51,-0.47 -0.5,-0.47 -0.5,-0.48 -0.5,-0.48 -0.5,-0.48 -0.49,-0.49 -0.49,-0.49 -0.48,-0.49 -0.49,-0.49 -0.47,-0.5 -0.48,-0.5 -0.47,-0.51 -0.47,-0.5 -0.47,-0.51 -0.46,-0.52 -0.46,-0.51 -0.46,-0.52 -0.45,-0.53 -0.45,-0.52 -0.44,-0.53 -0.45,-0.53 -0.44,-0.53 -0.43,-0.54 -0.43,-0.54 -0.43,-0.54 -0.43,-0.55 -0.42,-0.54 -0.42,-0.55 -0.41,-0.56 -0.41,-0.55 -0.41,-0.56 -0.4,-0.56 -0.4,-0.57 -0.4,-0.56 -0.39,-0.57 -0.39,-0.57 -0.39,-0.58 -0.38,-0.57 -0.38,-0.58 -0.37,-0.58 -0.37,-0.58 -0.37,-0.59 -0.36,-0.59 91.4,-56.01 z"
   style="fill:#b2df8a;fill-opacity:1;fill-rule:nonzero;stroke:none"
   id="path178"
   inkscape:connector-curvature="0" /><path
   d="m 669.88,486.51 -0.36,-0.58 -0.35,-0.59 -0.35,-0.58 -0.34,-0.59 -0.34,-0.6 -0.34,-0.59 -0.33,-0.6 -0.33,-0.6 -0.32,-0.6 -0.32,-0.6 -0.32,-0.6 -0.31,-0.61 -0.31,-0.61 -0.31,-0.61 -0.3,-0.61 -0.3,-0.62 -0.29,-0.61 -0.29,-0.62 -0.29,-0.62 -0.28,-0.62 -0.28,-0.63 -0.27,-0.62 -0.27,-0.63 -0.26,-0.63 -0.27,-0.63 -0.25,-0.63 -0.26,-0.63 -0.25,-0.64 -0.24,-0.63 -0.25,-0.64 -0.23,-0.64 -0.24,-0.64 -0.23,-0.65 -0.22,-0.64 -0.22,-0.65 -0.22,-0.64 -0.21,-0.65 -0.21,-0.65 -0.21,-0.65 -0.2,-0.66 -0.19,-0.65 -0.2,-0.66 -0.18,-0.65 -0.19,-0.66 -0.18,-0.66 -0.17,-0.66 -0.17,-0.66 -0.17,-0.66 -0.16,-0.66 -0.16,-0.67 -0.16,-0.66 -0.15,-0.67 -0.14,-0.67 -0.15,-0.66 -0.13,-0.67 -0.14,-0.67 -0.13,-0.67 -0.12,-0.67 -0.12,-0.67 -0.12,-0.68 -0.11,-0.67 -0.11,-0.68 -0.1,-0.67 -0.1,-0.68 -0.09,-0.67 -0.09,-0.68 -0.09,-0.68 -0.08,-0.67 -0.08,-0.68 -0.07,-0.68 -0.07,-0.68 -0.06,-0.68 -0.06,-0.68 -0.06,-0.68 106.87,-8.41 z"
   style="fill:#33a02c;fill-opacity:1;fill-rule:nonzero;stroke:none"
   id="path180"
   inkscape:connector-curvature="0" /><path
   d="m 654.41,438.91 -0.05,-0.68 -0.05,-0.68 -0.04,-0.68 -0.04,-0.67 -0.03,-0.68 -0.03,-0.68 -0.03,-0.68 -0.02,-0.68 -0.02,-0.68 -0.01,-0.68 -0.01,-0.68 v -0.68 -0.69 l 0.01,-0.68 v -0.68 l 0.02,-0.68 0.02,-0.68 0.02,-0.68 0.02,-0.68 0.04,-0.68 0.03,-0.68 0.04,-0.67 0.04,-0.68 0.05,-0.68 0.05,-0.68 0.06,-0.68 0.06,-0.68 0.07,-0.67 0.07,-0.68 0.07,-0.68 0.08,-0.67 0.08,-0.68 0.09,-0.67 0.09,-0.68 0.09,-0.67 0.1,-0.67 0.11,-0.68 0.1,-0.67 0.12,-0.67 0.11,-0.67 0.12,-0.67 0.13,-0.67 0.13,-0.67 0.13,-0.66 0.14,-0.67 0.14,-0.66 0.15,-0.67 0.15,-0.66 0.15,-0.66 0.16,-0.67 0.16,-0.66 0.17,-0.66 0.17,-0.65 0.18,-0.66 0.18,-0.66 0.18,-0.65 0.19,-0.66 0.19,-0.65 0.2,-0.65 0.2,-0.65 0.2,-0.65 0.21,-0.65 0.22,-0.64 0.21,-0.65 0.22,-0.64 0.23,-0.64 0.23,-0.64 0.23,-0.64 0.24,-0.64 0.24,-0.64 0.25,-0.63 0.24,-0.64 0.26,-0.63 0.26,-0.63 0.26,-0.62 0.26,-0.63 0.27,-0.63 0.27,-0.62 0.28,-0.62 0.28,-0.62 0.29,-0.62 0.29,-0.61 0.29,-0.62 0.3,-0.61 0.3,-0.61 0.3,-0.61 0.31,-0.6 0.31,-0.61 0.32,-0.6 0.32,-0.6 0.32,-0.6 0.33,-0.6 0.33,-0.59 0.34,-0.59 0.33,-0.59 0.35,-0.59 0.34,-0.59 0.35,-0.58 0.36,-0.58 91.4,56.01 z"
   style="fill:#fb9a99;fill-opacity:1;fill-rule:nonzero;stroke:none"
   id="path182"
   inkscape:connector-curvature="0" /><path
   d="m 669.88,374.49 0.37,-0.6 0.37,-0.59 0.37,-0.6 0.38,-0.59 0.39,-0.58 0.39,-0.59 0.39,-0.58 0.39,-0.58 0.4,-0.58 0.41,-0.57 0.4,-0.57 0.41,-0.57 0.42,-0.57 0.42,-0.56 0.42,-0.56 0.42,-0.56 0.43,-0.55 0.43,-0.56 0.44,-0.55 0.44,-0.54 0.44,-0.55 0.45,-0.54 0.45,-0.54 0.45,-0.53 0.46,-0.53 0.46,-0.53 0.47,-0.53 0.46,-0.52 0.48,-0.52 0.47,-0.52 0.48,-0.51 0.48,-0.51 0.48,-0.51 0.49,-0.5 0.49,-0.5 0.5,-0.5 0.5,-0.5 0.5,-0.49 0.5,-0.49 0.51,-0.48 0.51,-0.48 0.51,-0.48 72.77,78.72 z"
   style="fill:#e31a1c;fill-opacity:1;fill-rule:nonzero;stroke:none"
   id="path184"
   inkscape:connector-curvature="0" /><path
   d="m 688.51,351.78 0.51,-0.47 0.51,-0.46 0.52,-0.46 0.51,-0.46 0.52,-0.45 0.53,-0.45 0.52,-0.45 0.53,-0.44 0.53,-0.44 0.54,-0.44 0.53,-0.43 0.54,-0.43 0.55,-0.43 0.54,-0.42 0.55,-0.42 0.55,-0.41 0.56,-0.42 0.55,-0.4 0.56,-0.41 0.56,-0.4 0.57,-0.4 0.56,-0.39 0.57,-0.39 0.57,-0.39 0.58,-0.38 0.57,-0.38 0.58,-0.38 0.58,-0.37 0.59,-0.37 0.58,-0.36 0.59,-0.36 0.59,-0.36 0.6,-0.35 0.59,-0.35 0.6,-0.35 0.6,-0.34 0.6,-0.34 0.6,-0.33 0.61,-0.33 0.61,-0.33 0.61,-0.32 0.61,-0.32 0.62,-0.31 0.61,-0.31 0.62,-0.31 0.62,-0.3 0.62,-0.3 0.63,-0.29 0.63,-0.29 0.62,-0.29 0.63,-0.28 0.63,-0.28 0.64,-0.27 0.63,-0.27 0.64,-0.27 0.64,-0.26 0.64,-0.26 0.64,-0.25 0.64,-0.25 0.65,-0.24 0.65,-0.24 37.1,100.57 z"
   style="fill:#fdbf6f;fill-opacity:1;fill-rule:nonzero;stroke:none"
   id="path186"
   inkscape:connector-curvature="0" /><path
   d="m 724.18,329.93 0.63,-0.24 0.64,-0.22 0.64,-0.23 0.64,-0.22 0.64,-0.21 0.64,-0.22 0.64,-0.2 0.65,-0.21 0.64,-0.2 0.65,-0.19 0.65,-0.19 0.65,-0.19 0.65,-0.19 0.65,-0.17 0.66,-0.18 0.65,-0.17 0.66,-0.17 0.65,-0.16 0.66,-0.16 0.66,-0.15 0.66,-0.15 0.66,-0.15 0.66,-0.14 0.66,-0.14 0.66,-0.13 0.67,-0.13 0.66,-0.13 0.67,-0.12 0.66,-0.12 0.67,-0.11 0.67,-0.11 0.67,-0.1 0.67,-0.1 0.67,-0.1 0.67,-0.09 0.67,-0.09 0.67,-0.08 0.67,-0.08 0.67,-0.07 0.67,-0.07 0.68,-0.07 0.67,-0.06 0.67,-0.06 0.68,-0.05 0.67,-0.05 0.68,-0.05 0.67,-0.04 0.68,-0.03 0.67,-0.03 0.68,-0.03 0.68,-0.03 0.67,-0.02 0.68,-0.01 0.67,-0.01 0.68,-0.01 h 0.68 0.67 l 0.68,0.01 0.68,0.01 0.67,0.01 0.68,0.02 0.67,0.03 0.68,0.02 0.67,0.04 0.68,0.03 0.67,0.04 0.68,0.05 0.67,0.05 0.68,0.05 0.67,0.06 0.68,0.06 0.67,0.06 0.67,0.07 0.67,0.08 0.68,0.08 0.67,0.08 0.67,0.09 0.67,0.09 0.67,0.09 0.67,0.1 0.66,0.11 0.67,0.11 0.67,0.11 0.66,0.12 0.67,0.12 0.67,0.12 0.66,0.13 0.66,0.13 0.66,0.14 0.67,0.14 0.66,0.15 0.66,0.15 0.65,0.15 0.66,0.16 0.66,0.17 0.65,0.16 0.66,0.17 0.65,0.18 0.65,0.18 0.65,0.18 0.65,0.19 0.65,0.19 0.65,0.19 0.65,0.2 0.64,0.21 0.64,0.21 0.65,0.21 0.64,0.21 0.64,0.22 0.64,0.23 0.63,0.22 0.64,0.24 0.63,0.23 0.63,0.24 0.63,0.25 0.63,0.24 0.63,0.26 0.63,0.25 0.62,0.26 0.63,0.27 0.62,0.26 0.62,0.27 0.61,0.28 0.62,0.28 0.61,0.28 0.62,0.29 0.61,0.29 0.61,0.29 0.6,0.3 0.61,0.31 0.6,0.3 0.6,0.31 0.6,0.32 0.6,0.31 0.59,0.32 0.6,0.33 0.59,0.33 0.59,0.33 0.58,0.34 0.59,0.34 0.58,0.34 0.58,0.35 0.58,0.35 0.57,0.35 0.58,0.36 0.57,0.36 0.57,0.37 0.56,0.37 0.57,0.37 0.56,0.38 0.56,0.38 0.56,0.38 0.55,0.39 0.56,0.39 0.55,0.39 0.54,0.4 0.55,0.4 0.54,0.4 0.54,0.41 0.54,0.41 0.53,0.41 0.53,0.42 0.53,0.42 0.53,0.43 0.52,0.43 0.52,0.43 0.52,0.43 0.52,0.44 0.51,0.44 0.51,0.44 0.51,0.45 0.5,0.45 0.51,0.45 0.5,0.46 0.49,0.46 0.49,0.46 0.49,0.47 0.49,0.47 0.49,0.47 0.48,0.47 0.48,0.48 0.47,0.48 0.47,0.49 0.47,0.49 0.47,0.49 0.46,0.49 0.46,0.49 0.46,0.5 0.45,0.5 0.45,0.51 0.45,0.51 0.44,0.51 0.44,0.51 0.44,0.52 0.44,0.51 0.43,0.53 0.42,0.52 0.43,0.53 0.42,0.53 0.42,0.53 0.41,0.53 0.41,0.54 0.41,0.54 0.4,0.54 0.4,0.55 0.4,0.54 0.4,0.55 0.39,0.56 0.38,0.55 0.39,0.56 0.38,0.56 0.37,0.56 0.37,0.56 0.37,0.57 0.37,0.57 0.36,0.57 0.36,0.57 0.35,0.58 0.35,0.58 0.35,0.58 0.35,0.58 0.34,0.59 0.33,0.58 0.33,0.59 0.33,0.59 0.33,0.6 0.32,0.59 0.32,0.6 0.31,0.6 0.31,0.6 0.31,0.6 0.3,0.61 0.3,0.6 0.29,0.61 0.3,0.61 0.28,0.61 0.29,0.62 0.27,0.61 0.28,0.62 0.27,0.62 0.27,0.62 0.26,0.62 0.26,0.63 0.26,0.63 0.25,0.62 0.25,0.63 0.24,0.63 0.24,0.64 0.24,0.63 0.23,0.63 0.23,0.64 0.22,0.64 0.22,0.64 0.22,0.64 0.21,0.64 0.21,0.65 0.2,0.64 0.2,0.65 0.2,0.64 0.19,0.65 0.19,0.65 0.18,0.65 0.18,0.66 0.17,0.65 0.17,0.65 0.17,0.66 0.16,0.66 0.16,0.65 0.16,0.66 0.15,0.66 0.14,0.66 0.15,0.66 0.13,0.66 0.14,0.67 0.13,0.66 0.12,0.67 0.12,0.66 0.12,0.67 0.11,0.66 0.11,0.67 0.1,0.67 0.1,0.67 0.1,0.67 0.09,0.67 0.09,0.67 0.08,0.67 0.08,0.67 0.07,0.67 0.07,0.68 0.07,0.67 0.06,0.67 0.06,0.68 0.05,0.67 0.05,0.68 0.05,0.67 0.04,0.68 0.03,0.67 0.04,0.68 0.02,0.67 0.03,0.68 0.02,0.68 0.01,0.67 0.01,0.68 0.01,0.67 v 0.68 h -107.2 z"
   style="fill:#ff7f00;fill-opacity:1;fill-rule:nonzero;stroke:none"
   id="path188"
   inkscape:connector-curvature="0" /><text
   transform="scale(1,-1)"
   style="font-style:normal;font-variant:normal;font-weight:600;font-stretch:normal;font-size:48px;font-family:'URW Gothic L';-inkscape-font-specification:'URW Gothic L, Semi-Bold';font-variant-ligatures:normal;font-variant-caps:normal;font-variant-numeric:normal;font-feature-settings:normal;text-align:start;writing-mode:lr-tb;text-anchor:start;fill:#ffffff;fill-opacity:1;fill-rule:nonzero;stroke:#000000;stroke-width:1.52474999;stroke-miterlimit:4;stroke-dasharray:none;stroke-opacity:1"
   id="text192"
   x="750.15997"
   y="-416.67999"><tspan
     x="750.15997"
     y="-416.67999"
     id="tspan190"
     style="font-style:normal;font-variant:normal;font-weight:600;font-stretch:normal;font-size:48px;font-family:'URW Gothic L';-inkscape-font-specification:'URW Gothic L, Semi-Bold';font-variant-ligatures:normal;font-variant-caps:normal;font-variant-numeric:normal;font-feature-settings:normal;text-align:start;writing-mode:lr-tb;text-anchor:start;fill:#ffffff;fill-opacity:1;stroke:#000000;stroke-width:1.52474999;stroke-miterlimit:4;stroke-dasharray:none;stroke-opacity:1">6</tspan></text>

<text
   xml:space="preserve"
   style="font-style:normal;font-variant:normal;font-weight:normal;font-stretch:normal;font-size:30px;line-height:2ex;font-family:'URW Gothic L';-inkscape-font-specification:'URW Gothic L, Normal';font-variant-ligatures:normal;font-variant-caps:normal;font-variant-numeric:normal;font-feature-settings:normal;text-align:start;letter-spacing:0px;word-spacing:0px;writing-mode:lr-tb;text-anchor:start;fill:#000000;fill-opacity:1;stroke:none;stroke-width:0.75"
   x="4.5302773"
   y="-978.53992"
   id="text1075"
   transform="scale(1,-1)"><tspan
     sodipodi:role="line"
     x="4.5302773"
     y="-978.53992"
     style="font-style:normal;font-variant:normal;font-weight:600;font-stretch:normal;font-size:30px;font-family:'URW Gothic L';-inkscape-font-specification:'URW Gothic L, Semi-Bold';font-variant-ligatures:normal;font-variant-caps:normal;font-variant-numeric:normal;font-feature-settings:normal;text-align:start;writing-mode:lr-tb;text-anchor:start;stroke-width:0.75"
     id="tspan1077">Mean size of local</tspan><tspan
     sodipodi:role="line"
     x="4.5302773"
     y="-948.51636"
     style="font-style:normal;font-variant:normal;font-weight:600;font-stretch:normal;font-size:30px;font-family:'URW Gothic L';-inkscape-font-specification:'URW Gothic L, Semi-Bold';font-variant-ligatures:normal;font-variant-caps:normal;font-variant-numeric:normal;font-feature-settings:normal;text-align:start;writing-mode:lr-tb;text-anchor:start;stroke-width:0.75"
     id="tspan1081">communities (v31)</tspan></text>

<g
   id="g1178"
   transform="translate(-9.0605549,19.909278)"><text
   y="-829.02679"
   x="20.104717"
   transform="scale(1,-1)"
   style="font-variant:normal;font-weight:normal;font-size:29.48176575px;font-family:ZapfDingbats;-inkscape-font-specification:ZapfDingbats;writing-mode:lr-tb;fill:#a6cee3;fill-opacity:1;fill-rule:nonzero;stroke:none;stroke-width:1.31380415"
   id="text202"><tspan
     style="stroke-width:1.31380415"
     x="20.104717"
     y="-829.02679"
     id="tspan200"></tspan></text>

<text
   transform="scale(1,-1)"
   id="text1085"
   y="-825.57135"
   x="61.913792"
   style="font-style:normal;font-variant:normal;font-weight:normal;font-stretch:normal;font-size:30px;line-height:2ex;font-family:'URW Gothic L';-inkscape-font-specification:'URW Gothic L, Normal';font-variant-ligatures:normal;font-variant-caps:normal;font-variant-numeric:normal;font-feature-settings:normal;text-align:start;letter-spacing:0px;word-spacing:0px;writing-mode:lr-tb;text-anchor:start;fill:#000000;fill-opacity:1;stroke:none;stroke-width:0.75"
   xml:space="preserve"><tspan
     style="stroke-width:0.75"
     y="-825.57135"
     x="61.913792"
     id="tspan1083"
     sodipodi:role="line">less than 50</tspan></text>

</g><g
   id="g1184"
   transform="translate(-9.0605549,35.078893)"><text
   y="-775.73206"
   x="20.104717"
   transform="scale(1,-1)"
   style="font-variant:normal;font-weight:normal;font-size:29.48176575px;font-family:ZapfDingbats;-inkscape-font-specification:ZapfDingbats;writing-mode:lr-tb;fill:#1f78b4;fill-opacity:1;fill-rule:nonzero;stroke:none;stroke-width:1.31380415"
   id="text206"><tspan
     style="stroke-width:1.31380415"
     x="20.104717"
     y="-775.73206"
     id="tspan204"></tspan></text>

<text
   transform="scale(1,-1)"
   id="text1089"
   y="-772.27661"
   x="63.023792"
   style="font-style:normal;font-variant:normal;font-weight:normal;font-stretch:normal;font-size:30px;line-height:2ex;font-family:'URW Gothic L';-inkscape-font-specification:'URW Gothic L, Normal';font-variant-ligatures:normal;font-variant-caps:normal;font-variant-numeric:normal;font-feature-settings:normal;text-align:start;letter-spacing:0px;word-spacing:0px;writing-mode:lr-tb;text-anchor:start;fill:#000000;fill-opacity:1;stroke:none;stroke-width:0.75"
   xml:space="preserve"><tspan
     style="stroke-width:0.75"
     y="-772.27661"
     x="63.023792"
     id="tspan1087"
     sodipodi:role="line">50 to 99</tspan></text>

</g><g
   id="g1190"
   transform="translate(-9.0605549,53.26859)"><text
   y="-719.41724"
   x="20.104717"
   transform="scale(1,-1)"
   style="font-variant:normal;font-weight:normal;font-size:29.48176575px;font-family:ZapfDingbats;-inkscape-font-specification:ZapfDingbats;writing-mode:lr-tb;fill:#b2df8a;fill-opacity:1;fill-rule:nonzero;stroke:none;stroke-width:1.31380415"
   id="text210"><tspan
     style="stroke-width:1.31380415"
     x="20.104717"
     y="-719.41724"
     id="tspan208"></tspan></text>

<text
   transform="scale(1,-1)"
   id="text1093"
   y="-715.96179"
   x="59.153793"
   style="font-style:normal;font-variant:normal;font-weight:normal;font-stretch:normal;font-size:30px;line-height:2ex;font-family:'URW Gothic L';-inkscape-font-specification:'URW Gothic L, Normal';font-variant-ligatures:normal;font-variant-caps:normal;font-variant-numeric:normal;font-feature-settings:normal;text-align:start;letter-spacing:0px;word-spacing:0px;writing-mode:lr-tb;text-anchor:start;fill:#000000;fill-opacity:1;stroke:none;stroke-width:0.75"
   xml:space="preserve"><tspan
     style="stroke-width:0.75"
     y="-715.96179"
     x="59.153793"
     id="tspan1091"
     sodipodi:role="line">100 to 199</tspan></text>

</g><g
   id="g1196"
   transform="translate(-9.0605549,75.233616)"><text
   y="-659.32709"
   x="20.104717"
   transform="scale(1,-1)"
   style="font-variant:normal;font-weight:normal;font-size:29.48176575px;font-family:ZapfDingbats;-inkscape-font-specification:ZapfDingbats;writing-mode:lr-tb;fill:#33a02c;fill-opacity:1;fill-rule:nonzero;stroke:none;stroke-width:1.31380415"
   id="text214"><tspan
     style="stroke-width:1.31380415"
     x="20.104717"
     y="-659.32709"
     id="tspan212"></tspan></text>

<text
   transform="scale(1,-1)"
   id="text1097"
   y="-655.87164"
   x="62.813793"
   style="font-style:normal;font-variant:normal;font-weight:normal;font-stretch:normal;font-size:30px;line-height:2ex;font-family:'URW Gothic L';-inkscape-font-specification:'URW Gothic L, Normal';font-variant-ligatures:normal;font-variant-caps:normal;font-variant-numeric:normal;font-feature-settings:normal;text-align:start;letter-spacing:0px;word-spacing:0px;writing-mode:lr-tb;text-anchor:start;fill:#000000;fill-opacity:1;stroke:none;stroke-width:0.75"
   xml:space="preserve"><tspan
     style="stroke-width:0.75"
     y="-655.87164"
     x="62.813793"
     id="tspan1095"
     sodipodi:role="line">200 to 399</tspan></text>

</g><g
   id="g1202"
   transform="translate(-9.0605549,96.661349)"><text
   y="-599.77423"
   x="20.104717"
   transform="scale(1,-1)"
   style="font-variant:normal;font-weight:normal;font-size:29.48176575px;font-family:ZapfDingbats;-inkscape-font-specification:ZapfDingbats;writing-mode:lr-tb;fill:#fb9a99;fill-opacity:1;fill-rule:nonzero;stroke:none;stroke-width:1.31380415"
   id="text218"><tspan
     style="stroke-width:1.31380415"
     x="20.104717"
     y="-599.77423"
     id="tspan216"></tspan></text>

<text
   transform="scale(1,-1)"
   id="text1101"
   y="-596.31879"
   x="63.44379"
   style="font-style:normal;font-variant:normal;font-weight:normal;font-stretch:normal;font-size:30px;line-height:2ex;font-family:'URW Gothic L';-inkscape-font-specification:'URW Gothic L, Normal';font-variant-ligatures:normal;font-variant-caps:normal;font-variant-numeric:normal;font-feature-settings:normal;text-align:start;letter-spacing:0px;word-spacing:0px;writing-mode:lr-tb;text-anchor:start;fill:#000000;fill-opacity:1;stroke:none;stroke-width:0.75"
   xml:space="preserve"><tspan
     style="stroke-width:0.75"
     y="-596.31879"
     x="63.44379"
     id="tspan1099"
     sodipodi:role="line">400 to 1000</tspan></text>

</g><g
   id="g1209"
   transform="translate(-9.0605549,93.100604)"><text
   y="-547.17981"
   x="20.104717"
   transform="scale(1,-1)"
   style="font-variant:normal;font-weight:normal;font-size:29.48176575px;font-family:ZapfDingbats;-inkscape-font-specification:ZapfDingbats;writing-mode:lr-tb;fill:#e31a1c;fill-opacity:1;fill-rule:nonzero;stroke:none;stroke-width:1.31380415"
   id="text222"><tspan
     style="stroke-width:1.31380415"
     x="20.104717"
     y="-547.17981"
     id="tspan220"></tspan></text>

<text
   transform="scale(1,-1)"
   id="text1105"
   y="-561.75439"
   x="61.913792"
   style="font-style:normal;font-variant:normal;font-weight:normal;font-stretch:normal;font-size:30px;line-height:2ex;font-family:'URW Gothic L';-inkscape-font-specification:'URW Gothic L, Normal';font-variant-ligatures:normal;font-variant-caps:normal;font-variant-numeric:normal;font-feature-settings:normal;text-align:start;letter-spacing:0px;word-spacing:0px;writing-mode:lr-tb;text-anchor:start;fill:#000000;fill-opacity:1;stroke:none;stroke-width:0.75"
   xml:space="preserve"><tspan
     style="stroke-width:0.75"
     y="-561.75439"
     x="61.913792"
     id="tspan1103"
     sodipodi:role="line">more than 1000 but</tspan><tspan
     id="tspan1107"
     style="stroke-width:0.75"
     y="-531.75439"
     x="61.913792"
     sodipodi:role="line">no urban aggregations</tspan></text>

</g><g
   id="g1217"
   transform="translate(-9.0605549,84.239409)"><text
   y="-470.08087"
   x="20.104717"
   transform="scale(1,-1)"
   style="font-variant:normal;font-weight:normal;font-size:29.48176575px;font-family:ZapfDingbats;-inkscape-font-specification:ZapfDingbats;writing-mode:lr-tb;fill:#fdbf6f;fill-opacity:1;fill-rule:nonzero;stroke:none;stroke-width:1.31380415"
   id="text226"><tspan
     style="stroke-width:1.31380415"
     x="20.104717"
     y="-470.08087"
     id="tspan224"></tspan></text>

<text
   transform="scale(1,-1)"
   id="text1111"
   y="-496.82043"
   x="63.593792"
   style="font-style:normal;font-variant:normal;font-weight:normal;font-stretch:normal;font-size:30px;line-height:2ex;font-family:'URW Gothic L';-inkscape-font-specification:'URW Gothic L, Normal';font-variant-ligatures:normal;font-variant-caps:normal;font-variant-numeric:normal;font-feature-settings:normal;text-align:start;letter-spacing:0px;word-spacing:0px;writing-mode:lr-tb;text-anchor:start;fill:#000000;fill-opacity:1;stroke:none;stroke-width:0.75"
   xml:space="preserve"><tspan
     style="stroke-width:0.75"
     y="-496.82043"
     x="63.593792"
     id="tspan1109"
     sodipodi:role="line">one or more towns</tspan><tspan
     id="tspan1113"
     style="stroke-width:0.75"
     y="-466.82043"
     x="63.593792"
     sodipodi:role="line">with population</tspan><tspan
     id="tspan1115"
     style="stroke-width:0.75"
     y="-436.82043"
     x="63.593792"
     sodipodi:role="line">between 5 000 and 50 000</tspan></text>

</g><g
   id="g1225"
   transform="translate(-9.0605549,66.131221)"><text
   y="-390.25891"
   x="20.104717"
   transform="scale(1,-1)"
   style="font-variant:normal;font-weight:normal;font-size:29.48176575px;font-family:ZapfDingbats;-inkscape-font-specification:ZapfDingbats;writing-mode:lr-tb;fill:#ff7f00;fill-opacity:1;fill-rule:nonzero;stroke:none;stroke-width:1.31380415"
   id="text230"><tspan
     style="stroke-width:1.31380415"
     x="20.104717"
     y="-390.25891"
     id="tspan228"></tspan></text>

<text
   transform="scale(1,-1)"
   id="text1119"
   y="-416.8035"
   x="63.023792"
   style="font-style:normal;font-variant:normal;font-weight:normal;font-stretch:normal;font-size:30px;line-height:2ex;font-family:'URW Gothic L';-inkscape-font-specification:'URW Gothic L, Normal';font-variant-ligatures:normal;font-variant-caps:normal;font-variant-numeric:normal;font-feature-settings:normal;text-align:start;letter-spacing:0px;word-spacing:0px;writing-mode:lr-tb;text-anchor:start;fill:#000000;fill-opacity:1;stroke:none;stroke-width:0.75"
   xml:space="preserve"><tspan
     style="stroke-width:0.75"
     y="-416.8035"
     x="63.023792"
     id="tspan1117"
     sodipodi:role="line">one or more cities with</tspan><tspan
     id="tspan1121"
     style="stroke-width:0.75"
     y="-386.8035"
     x="63.023792"
     sodipodi:role="line">population more than</tspan><tspan
     id="tspan1123"
     style="stroke-width:0.75"
     y="-356.8035"
     x="63.023792"
     sodipodi:role="line">50 000</tspan></text>

</g><g
   id="g1172"
   transform="translate(-9.0605549,19.631019)"><text
   y="-882.23517"
   x="20.104717"
   transform="scale(1,-1)"
   style="font-variant:normal;font-weight:normal;font-size:29.48176575px;font-family:ZapfDingbats;-inkscape-font-specification:ZapfDingbats;writing-mode:lr-tb;fill:#000000;fill-opacity:1;fill-rule:nonzero;stroke:none;stroke-width:1.31380415"
   id="text198"><tspan
     style="stroke-width:1.31380415"
     x="20.104717"
     y="-882.23517"
     id="tspan196"></tspan></text>

<text
   transform="scale(1,-1)"
   id="text1127"
   y="-893.97473"
   x="62.543793"
   style="font-style:normal;font-variant:normal;font-weight:normal;font-stretch:normal;font-size:30px;line-height:2ex;font-family:'URW Gothic L';-inkscape-font-specification:'URW Gothic L, Normal';font-variant-ligatures:normal;font-variant-caps:normal;font-variant-numeric:normal;font-feature-settings:normal;text-align:start;letter-spacing:0px;word-spacing:0px;writing-mode:lr-tb;text-anchor:start;fill:#000000;fill-opacity:1;stroke:none;stroke-width:0.75"
   xml:space="preserve"><tspan
     style="stroke-width:0.75"
     y="-893.97473"
     x="62.543793"
     id="tspan1125"
     sodipodi:role="line">data not</tspan><tspan
     id="tspan1129"
     style="stroke-width:0.75"
     y="-863.97473"
     x="62.543793"
     sodipodi:role="line">available</tspan></text>

</g></g></svg>