<?xml version="1.0" encoding="UTF-8" standalone="no"?>
<!-- Created with Inkscape (http://www.inkscape.org/) -->

<svg
   xmlns:dc="http://purl.org/dc/elements/1.1/"
   xmlns:cc="http://creativecommons.org/ns#"
   xmlns:rdf="http://www.w3.org/1999/02/22-rdf-syntax-ns#"
   xmlns:svg="http://www.w3.org/2000/svg"
   xmlns="http://www.w3.org/2000/svg"
   xmlns:sodipodi="http://sodipodi.sourceforge.net/DTD/sodipodi-0.dtd"
   xmlns:inkscape="http://www.inkscape.org/namespaces/inkscape"
   version="1.1"
   id="svg2"
   xml:space="preserve"
   width="1076.7195"
   height="905.21313"
   viewBox="0 0 1076.7195 905.21313"
   sodipodi:docname="ward.D_k6_v42.svg"
   inkscape:version="0.92.4 (unknown)"><metadata
     id="metadata8"><rdf:RDF><cc:Work
         rdf:about=""><dc:format>image/svg+xml</dc:format><dc:type
           rdf:resource="http://purl.org/dc/dcmitype/StillImage" /><dc:title /></cc:Work></rdf:RDF></metadata><defs
     id="defs6"><clipPath
       clipPathUnits="userSpaceOnUse"
       id="clipPath20"><path
         d="m 285.12,672 h 289.44 v 336 H 285.12 Z"
         id="path18"
         inkscape:connector-curvature="0" /></clipPath><clipPath
       clipPathUnits="userSpaceOnUse"
       id="clipPath50"><path
         d="M 574.56,672 H 864 v 336 H 574.56 Z"
         id="path48"
         inkscape:connector-curvature="0" /></clipPath><clipPath
       clipPathUnits="userSpaceOnUse"
       id="clipPath80"><path
         d="M 285.12,336 H 574.56 V 672 H 285.12 Z"
         id="path78"
         inkscape:connector-curvature="0" /></clipPath><clipPath
       clipPathUnits="userSpaceOnUse"
       id="clipPath110"><path
         d="M 574.56,336 H 864 V 672 H 574.56 Z"
         id="path108"
         inkscape:connector-curvature="0" /></clipPath><clipPath
       clipPathUnits="userSpaceOnUse"
       id="clipPath140"><path
         d="M 285.12,0 H 574.56 V 336 H 285.12 Z"
         id="path138"
         inkscape:connector-curvature="0" /></clipPath><clipPath
       clipPathUnits="userSpaceOnUse"
       id="clipPath170"><path
         d="M 574.56,0 H 864 V 336 H 574.56 Z"
         id="path168"
         inkscape:connector-curvature="0" /></clipPath></defs><sodipodi:namedview
     pagecolor="#ffffff"
     bordercolor="#666666"
     borderopacity="1"
     objecttolerance="10"
     gridtolerance="10"
     guidetolerance="10"
     inkscape:pageopacity="0"
     inkscape:pageshadow="2"
     inkscape:window-width="1278"
     inkscape:window-height="1357"
     id="namedview4"
     showgrid="false"
     inkscape:zoom="0.49665833"
     inkscape:cx="273.07069"
     inkscape:cy="685.57524"
     inkscape:window-x="1280"
     inkscape:window-y="31"
     inkscape:window-maximized="0"
     inkscape:current-layer="g10" /><g
     id="g10"
     inkscape:groupmode="layer"
     inkscape:label="ward.D_k6_v42"
     transform="matrix(1.3333333,0,0,-1.3333333,-9.2538283,1334.2798)"><g
   id="g12" /><path
   d="m 586.54,886.5 v 0 h -107.2 z"
   style="fill:#000000;fill-opacity:1;fill-rule:nonzero;stroke:none"
   id="path22"
   inkscape:connector-curvature="0" /><path
   d="m 586.54,886.5 v 0.68 l -0.01,0.67 -0.01,0.68 -0.01,0.68 -0.02,0.67 -0.03,0.68 -0.02,0.67 -0.04,0.68 -0.03,0.67 -0.04,0.68 -0.05,0.67 -0.05,0.68 -0.05,0.67 -0.06,0.68 -0.06,0.67 -0.07,0.67 -0.07,0.68 -0.07,0.67 -0.08,0.67 -0.08,0.67 -0.09,0.67 -0.09,0.67 -0.1,0.67 -0.1,0.67 -0.1,0.67 -0.11,0.67 -0.11,0.66 -0.12,0.67 -0.12,0.66 -0.12,0.67 -0.13,0.66 -0.14,0.67 -0.14,0.66 -0.14,0.66 -0.14,0.66 -0.15,0.66 -0.16,0.66 -0.16,0.66 -0.16,0.65 -0.17,0.66 -0.17,0.65 -0.17,0.66 -0.18,0.65 -0.18,0.65 -0.19,0.65 -0.19,0.65 -0.2,0.64 -0.2,0.65 -0.2,0.65 -0.21,0.64 -0.21,0.64 -0.22,0.64 -0.22,0.64 -0.22,0.64 -0.23,0.64 -0.23,0.63 -0.24,0.64 -0.24,0.63 -0.24,0.63 -0.25,0.63 -0.25,0.63 -0.26,0.62 -0.26,0.63 -0.26,0.62 -0.27,0.62 -0.27,0.62 -0.28,0.62 -0.28,0.61 -0.28,0.62 -0.29,0.61 -0.29,0.61 -0.29,0.61 -0.3,0.61 -0.3,0.6 -0.31,0.6 -0.31,0.61 -0.31,0.59 -0.32,0.6 -0.32,0.6 -0.33,0.59 -0.33,0.59 -0.33,0.59 -0.34,0.59 -0.34,0.58 -0.34,0.58 -0.35,0.58 -0.35,0.58 -0.35,0.58 -0.36,0.57 -0.36,0.57 -0.37,0.57 -0.37,0.57 -0.37,0.56 -0.38,0.56 -0.38,0.56 -0.38,0.56 -0.39,0.56 -0.39,0.55 -0.39,0.55 -0.4,0.55 -0.4,0.54 -0.4,0.54 -0.41,0.54 -0.41,0.54 -0.42,0.53 -0.41,0.54 -0.42,0.53 -0.43,0.52 -0.43,0.53 -0.43,0.52 -0.43,0.52 -0.44,0.51 -0.44,0.52 -0.44,0.51 -0.45,0.5 -0.45,0.51 -0.45,0.5 -0.46,0.5 -0.46,0.49 -0.46,0.5 -0.47,0.49 -0.47,0.48 -0.47,0.49 -0.48,0.48 -0.48,0.48 -0.48,0.47 -0.48,0.48 -0.49,0.46 -0.49,0.47 -0.49,0.46 -0.5,0.46 -0.5,0.46 -0.5,0.45 -0.5,0.45 -0.51,0.45 -0.51,0.44 -0.51,0.45 -0.52,0.43 -0.52,0.44 -0.52,0.43 -0.52,0.43 -0.53,0.42 -0.53,0.42 -0.53,0.42 -0.54,0.41 -0.53,0.41 -0.54,0.41 -0.55,0.4 -0.54,0.4 -0.55,0.4 -0.55,0.4 -0.55,0.39 -0.56,0.38 -0.55,0.39 -0.56,0.38 -0.56,0.37 -0.57,0.37 -0.57,0.37 -0.57,0.37 -0.57,0.36 -0.57,0.36 -0.58,0.35 -0.57,0.35 -0.58,0.35 -0.59,0.35 -0.58,0.33 -0.59,0.34 -0.59,0.33 -0.59,0.33 -0.59,0.33 -0.6,0.32 -0.59,0.32 -0.6,0.31 -0.6,0.31 -0.61,0.31 -0.6,0.3 -0.61,0.3 -0.61,0.29 -0.61,0.29 -0.61,0.29 -0.62,0.28 -0.61,0.28 -0.62,0.28 -0.62,0.27 -0.62,0.27 -0.62,0.26 -0.63,0.26 -0.62,0.26 -0.63,0.25 -0.63,0.25 -0.63,0.24 -0.63,0.24 -0.64,0.24 -0.63,0.23 -0.64,0.23 -0.64,0.22 -0.64,0.22 -0.64,0.21 -0.64,0.22 -0.64,0.2 -0.65,0.21 -0.65,0.2 -0.64,0.19 -0.65,0.19 -0.65,0.19 -0.65,0.18 -0.66,0.18 -0.65,0.18 -0.65,0.17 -0.66,0.17 -0.65,0.16 -0.66,0.16 -0.66,0.15 -0.66,0.15 -0.66,0.15 -0.66,0.14 -0.66,0.14 -0.67,0.13 -0.66,0.13 -0.67,0.12 -0.66,0.13 -0.67,0.11 -0.66,0.11 -0.67,0.11 -0.67,0.11 -0.67,0.1 -0.67,0.09 -0.67,0.09 -0.67,0.09 -0.67,0.08 -0.67,0.08 -0.68,0.08 -0.67,0.07 -0.67,0.06 -0.67,0.06 -0.68,0.06 -0.67,0.05 -0.68,0.05 -0.67,0.05 -0.68,0.04 -0.67,0.03 -0.68,0.04 -0.67,0.02 -0.68,0.03 -0.68,0.02 -0.67,0.01 -0.68,0.01 -0.67,0.01 h -0.68 -0.68 l -0.67,-0.01 -0.68,-0.01 -0.68,-0.01 -0.67,-0.02 -0.68,-0.03 -0.67,-0.03 -0.68,-0.03 -0.67,-0.03 -0.68,-0.04 -0.67,-0.05 -0.68,-0.05 -0.67,-0.05 -0.68,-0.06 -0.67,-0.06 -0.67,-0.07 -0.68,-0.07 -0.67,-0.07 -0.67,-0.08 -0.67,-0.08 -0.67,-0.09 -0.67,-0.09 -0.67,-0.1 -0.67,-0.1 -0.67,-0.1 -0.67,-0.11 -0.66,-0.12 -0.67,-0.11 -0.67,-0.12 -0.66,-0.13 -0.66,-0.13 -0.67,-0.13 -0.66,-0.14 -0.66,-0.14 -0.66,-0.15 -0.66,-0.15 -0.66,-0.15 -0.66,-0.16 -0.65,-0.16 -0.66,-0.17 -0.65,-0.17 -0.66,-0.18 -0.65,-0.18 -0.65,-0.18 -0.65,-0.19 -0.65,-0.19 -0.64,-0.19 -0.65,-0.2 -0.65,-0.21 -0.64,-0.21 -0.64,-0.21 -0.64,-0.21 -0.64,-0.22 -0.64,-0.23 -0.64,-0.23 -0.63,-0.23 -0.64,-0.24 -0.63,-0.24 -0.63,-0.24 -0.63,-0.25 -0.63,-0.25 -0.62,-0.26 -0.63,-0.26 -0.62,-0.26 -0.62,-0.27 -0.62,-0.27 -0.62,-0.27 -0.61,-0.28 -0.62,-0.29 -0.61,-0.28 -0.61,-0.3 -0.61,-0.29 -0.61,-0.3 -0.6,-0.3 -0.6,-0.31 -0.6,-0.31 -0.6,-0.31 -0.6,-0.32 -0.59,-0.32 -0.6,-0.33 -0.59,-0.33 -0.59,-0.33 -0.58,-0.34 -0.59,-0.34 -0.58,-0.34 -0.58,-0.35 -0.58,-0.35 -0.58,-0.35 -0.57,-0.36 -0.57,-0.36 -0.57,-0.37 -0.57,-0.37 58.81,-89.63 z"
   style="fill:#a6cee3;fill-opacity:1;fill-rule:nonzero;stroke:none"
   id="path24"
   inkscape:connector-curvature="0" /><path
   d="m 420.53,976.13 -0.56,-0.37 -0.56,-0.38 -0.56,-0.38 -0.56,-0.38 -0.55,-0.39 -0.55,-0.39 -0.55,-0.39 -0.55,-0.4 -0.54,-0.4 -0.54,-0.4 -0.54,-0.41 -0.54,-0.41 -0.53,-0.41 -0.54,-0.42 -0.52,-0.42 -0.53,-0.42 -0.52,-0.43 -0.52,-0.43 -0.52,-0.44 -0.52,-0.43 -0.51,-0.44 -0.51,-0.45 -0.51,-0.44 -0.5,-0.45 -0.5,-0.46 -0.5,-0.45 -0.5,-0.46 -0.49,-0.46 -0.49,-0.47 -0.48,-0.47 -0.49,-0.47 -0.48,-0.48 -0.48,-0.47 -0.47,-0.48 -0.47,-0.49 -0.47,-0.48 -0.47,-0.49 -0.46,-0.5 -0.46,-0.49 -0.45,-0.5 -0.46,-0.5 -0.45,-0.51 -0.44,-0.5 -0.45,-0.51 -0.44,-0.52 -0.43,-0.51 -0.44,-0.52 -0.43,-0.52 -0.43,-0.52 -0.42,-0.53 -0.42,-0.53 -0.42,-0.53 -0.41,-0.53 -0.41,-0.54 -0.41,-0.54 -0.4,-0.54 -0.4,-0.54 -0.4,-0.55 -0.39,-0.55 -0.39,-0.55 -0.39,-0.56 -0.38,-0.55 -0.38,-0.56 -0.38,-0.56 -0.37,-0.57 -0.37,-0.56 -0.36,-0.57 -0.37,-0.57 -0.35,-0.58 -0.36,-0.57 -0.35,-0.58 -0.35,-0.58 -0.34,-0.58 -0.34,-0.58 -0.34,-0.59 -0.33,-0.59 -0.33,-0.59 -0.32,-0.59 -0.32,-0.6 -0.32,-0.59 -0.31,-0.6 -0.31,-0.6 -0.31,-0.6 -0.3,-0.61 -0.3,-0.6 -0.29,-0.61 -0.3,-0.61 -0.28,-0.61 -0.29,-0.62 -0.27,-0.61 -0.28,-0.62 -0.27,-0.62 -0.27,-0.62 -0.26,-0.62 -0.26,-0.62 -0.26,-0.63 -0.25,-0.63 -0.25,-0.62 -0.24,-0.63 -0.24,-0.64 -0.24,-0.63 -0.23,-0.63 -0.23,-0.64 -0.22,-0.64 -0.22,-0.64 -0.22,-0.64 -0.21,-0.64 -0.21,-0.64 -0.2,-0.64 -0.2,-0.65 -0.2,-0.65 -0.19,-0.64 -0.19,-0.65 -0.18,-0.65 -0.18,-0.66 -0.17,-0.65 -0.17,-0.65 -0.17,-0.66 -0.16,-0.65 -0.16,-0.66 -0.16,-0.66 -0.15,-0.66 -0.14,-0.66 -0.15,-0.66 -0.13,-0.66 -0.14,-0.66 -0.13,-0.66 -0.12,-0.67 -0.12,-0.66 -0.12,-0.67 -0.11,-0.66 -0.11,-0.67 -0.11,-0.67 -0.1,-0.67 -0.09,-0.66 -0.09,-0.67 -0.09,-0.67 -0.08,-0.67 -0.08,-0.67 -0.08,-0.68 -0.07,-0.67 -0.06,-0.67 -0.07,-0.67 -0.05,-0.68 -0.06,-0.67 -0.05,-0.67 -0.04,-0.68 -0.04,-0.67 -0.04,-0.68 -0.03,-0.67 -0.03,-0.68 -0.02,-0.67 -0.02,-0.68 -0.02,-0.67 -0.01,-0.68 -0.01,-0.67 v -0.68 -0.68 l 0.01,-0.67 0.01,-0.68 0.01,-0.67 0.02,-0.68 0.02,-0.67 0.03,-0.68 0.03,-0.67 0.04,-0.68 0.04,-0.67 0.04,-0.68 0.05,-0.67 0.05,-0.67 0.06,-0.68 0.06,-0.67 0.07,-0.67 0.07,-0.67 0.07,-0.68 0.08,-0.67 0.08,-0.67 0.09,-0.67 0.09,-0.67 0.09,-0.67 0.1,-0.66 0.11,-0.67 0.1,-0.67 0.12,-0.66 0.11,-0.67 0.12,-0.66 0.13,-0.67 0.13,-0.66 0.13,-0.66 0.14,-0.67 0.14,-0.66 0.14,-0.66 0.15,-0.66 0.16,-0.65 0.15,-0.66 0.16,-0.66 0.17,-0.65 0.17,-0.66 0.18,-0.65 0.17,-0.65 0.19,-0.65 0.18,-0.65 0.19,-0.65 0.2,-0.64 0.2,-0.65 0.2,-0.64 0.21,-0.65 0.21,-0.64 0.21,-0.64 0.22,-0.64 0.23,-0.64 0.22,-0.63 0.23,-0.64 0.24,-0.63 0.24,-0.63 0.24,-0.63 0.25,-0.63 0.25,-0.63 0.25,-0.63 0.26,-0.62 0.27,-0.62 0.26,-0.62 0.27,-0.62 0.28,-0.62 0.28,-0.62 0.28,-0.61 0.28,-0.61 0.29,-0.61 0.3,-0.61 0.3,-0.61 0.3,-0.6 0.3,-0.6 0.31,-0.6 0.31,-0.6 0.32,-0.6 0.32,-0.59 0.33,-0.6 0.32,-0.59 0.34,-0.59 0.33,-0.58 0.34,-0.59 0.34,-0.58 0.35,-0.58 0.35,-0.58 0.35,-0.57 0.36,-0.58 0.36,-0.57 0.36,-0.57 0.37,-0.56 0.37,-0.57 0.38,-0.56 0.38,-0.56 0.38,-0.56 0.39,-0.55 0.39,-0.55 0.39,-0.55 0.39,-0.55 0.4,-0.55 0.41,-0.54 0.4,-0.54 0.41,-0.54 0.42,-0.53 0.41,-0.53 0.42,-0.53 0.43,-0.53 0.42,-0.52 0.43,-0.52 0.43,-0.52 0.44,-0.52 0.44,-0.51 0.44,-0.51 0.45,-0.51 0.45,-0.5 0.45,-0.5 0.46,-0.5 0.45,-0.5 0.47,-0.49 0.46,-0.49 0.47,-0.49 0.47,-0.49 0.47,-0.48 0.48,-0.47 0.48,-0.48 0.48,-0.47 0.49,-0.47 0.49,-0.47 0.49,-0.46 0.5,-0.46 0.49,-0.46 0.5,-0.45 0.51,-0.45 0.5,-0.45 0.51,-0.44 0.52,-0.45 0.51,-0.43 0.52,-0.44 0.52,-0.43 0.52,-0.43 0.53,-0.42 0.52,-0.42 0.53,-0.42 0.54,-0.42 0.53,-0.41 0.54,-0.4 0.54,-0.41 0.55,-0.4 0.54,-0.4 0.55,-0.39 0.55,-0.39 0.56,-0.39 0.55,-0.38 0.56,-0.38 0.56,-0.38 0.57,-0.37 0.56,-0.37 0.57,-0.37 0.57,-0.36 0.57,-0.36 0.58,-0.36 0.57,-0.35 0.58,-0.35 0.58,-0.34 0.59,-0.34 0.58,-0.34 0.59,-0.33 0.59,-0.33 0.59,-0.33 0.6,-0.32 0.59,-0.32 0.6,-0.31 0.6,-0.31 0.6,-0.31 0.61,-0.3 0.6,-0.3 0.61,-0.3 0.61,-0.29 0.61,-0.29 0.61,-0.28 0.62,-0.28 0.61,-0.28 0.62,-0.27 0.62,-0.27 0.62,-0.26 0.63,-0.26 0.62,-0.26 0.63,-0.25 0.63,-0.25 0.63,-0.25 0.63,-0.24 0.63,-0.23 0.64,-0.24 0.63,-0.22 0.64,-0.23 35.36,101.2 z"
   style="fill:#1f78b4;fill-opacity:1;fill-rule:nonzero;stroke:none"
   id="path26"
   inkscape:connector-curvature="0" /><path
   d="m 443.98,785.3 0.64,-0.22 0.64,-0.22 0.64,-0.21 0.65,-0.21 0.64,-0.21 0.65,-0.2 0.65,-0.2 0.65,-0.19 0.65,-0.19 0.65,-0.18 0.66,-0.18 0.65,-0.18 0.66,-0.17 0.65,-0.17 0.66,-0.16 0.66,-0.16 0.66,-0.16 0.66,-0.15 0.66,-0.15 0.66,-0.14 0.67,-0.14 0.66,-0.14 0.67,-0.13 0.66,-0.12 0.67,-0.12 0.67,-0.12 0.66,-0.12 0.67,-0.11 0.67,-0.1 0.67,-0.1 0.67,-0.1 0.68,-0.09 0.67,-0.09 0.67,-0.08 0.67,-0.08 0.68,-0.08 0.67,-0.07 0.68,-0.07 0.67,-0.06 0.68,-0.06 0.67,-0.05 0.68,-0.05 0.67,-0.05 0.68,-0.04 0.68,-0.04 0.67,-0.03 0.68,-0.03 0.68,-0.02 0.68,-0.02 0.67,-0.02 0.68,-0.01 0.68,-0.01 h 0.68 0.67 l 0.68,0.01 0.68,0.01 0.68,0.01 0.68,0.02 0.67,0.02 0.68,0.03 0.68,0.03 0.67,0.04 0.68,0.04 0.68,0.04 0.67,0.05 0.68,0.05 0.67,0.06 0.68,0.06 0.67,0.07 0.68,0.07 0.67,0.07 0.68,0.08 0.67,0.08 0.67,0.09 0.67,0.09 0.67,0.1 0.67,0.09 0.67,0.11 0.67,0.11 0.67,0.11 0.67,0.12 0.67,0.12 0.66,0.12 0.67,0.13 0.66,0.13 0.67,0.14 0.66,0.14 0.66,0.15 0.66,0.15 0.66,0.15 0.66,0.16 0.66,0.17 0.65,0.16 0.66,0.17 0.66,0.18 0.65,0.18 0.65,0.18 0.65,0.19 0.65,0.19 0.65,0.2 0.65,0.2 0.65,0.2 0.64,0.21 0.64,0.21 0.65,0.22 0.64,0.22 0.64,0.22 0.64,0.23 0.63,0.23 0.64,0.24 0.63,0.24 0.63,0.24 0.63,0.25 0.63,0.25 0.63,0.26 0.63,0.26 0.62,0.26 0.62,0.27 0.62,0.27 0.62,0.28 0.62,0.28 0.62,0.28 0.61,0.29 0.61,0.29 0.61,0.3 0.61,0.3 0.61,0.3 0.6,0.31 0.6,0.31 0.6,0.31 0.6,0.32 0.6,0.32 0.59,0.33 0.59,0.33 0.6,0.33 0.58,0.34 0.59,0.34 0.58,0.34 0.58,0.35 0.58,0.36 0.58,0.35 0.58,0.36 0.57,0.36 0.57,0.37 0.57,0.37 0.56,0.37 0.56,0.38 0.57,0.38 0.55,0.38 0.56,0.39 0.55,0.39 0.55,0.4 0.55,0.4 0.55,0.4 0.54,0.4 0.54,0.41 0.54,0.41 0.54,0.42 0.53,0.42 0.53,0.42 0.53,0.43 0.52,0.43 0.52,0.43 0.52,0.43 0.52,0.44 0.51,0.44 0.52,0.45 0.5,0.45 0.51,0.45 0.5,0.45 0.5,0.46 0.5,0.46 0.49,0.47 0.49,0.46 0.49,0.47 0.49,0.48 0.48,0.47 0.48,0.48 0.47,0.49 0.48,0.48 0.47,0.49 0.46,0.49 0.47,0.5 0.46,0.49 0.45,0.51 0.46,0.5 0.45,0.5 0.45,0.51 0.44,0.52 0.44,0.51 0.44,0.52 0.43,0.52 0.44,0.52 0.42,0.53 0.43,0.52 0.42,0.53 0.42,0.54 0.41,0.53 0.41,0.54 0.41,0.54 0.41,0.55 0.4,0.55 0.39,0.54 0.4,0.56 0.39,0.55 0.39,0.56 0.38,0.56 0.38,0.56 0.37,0.56 0.38,0.57 0.37,0.56 0.36,0.58 0.36,0.57 0.36,0.57 0.36,0.58 0.35,0.58 0.35,0.58 0.34,0.59 0.34,0.58 0.34,0.59 0.33,0.59 0.33,0.6 0.32,0.59 0.32,0.6 0.32,0.6 0.31,0.6 0.31,0.6 0.31,0.6 0.3,0.61 0.3,0.61 0.3,0.61 0.29,0.61 -96.99,45.67 z"
   style="fill:#b2df8a;fill-opacity:1;fill-rule:nonzero;stroke:none"
   id="path28"
   inkscape:connector-curvature="0" /><path
   d="m 576.33,840.83 0.3,0.65 0.3,0.65 0.29,0.65 0.29,0.66 0.28,0.65 0.29,0.66 0.27,0.66 0.27,0.66 0.27,0.66 0.26,0.67 0.26,0.66 0.26,0.67 0.25,0.67 0.24,0.67 0.24,0.67 0.24,0.68 0.23,0.68 0.23,0.67 0.22,0.68 0.22,0.68 0.21,0.69 0.21,0.68 -102.62,31 z"
   style="fill:#33a02c;fill-opacity:1;fill-rule:nonzero;stroke:none"
   id="path30"
   inkscape:connector-curvature="0" /><path
   d="m 581.96,855.5 v 0 l -102.62,31 z"
   style="fill:#e31a1c;fill-opacity:1;fill-rule:nonzero;stroke:none"
   id="path32"
   inkscape:connector-curvature="0" /><path
   d="m 581.96,855.5 v 0 l -102.62,31 z"
   style="fill:#fdbf6f;fill-opacity:1;fill-rule:nonzero;stroke:none"
   id="path34"
   inkscape:connector-curvature="0" /><path
   d="m 581.96,855.5 0.2,0.67 0.2,0.67 0.19,0.67 0.18,0.68 0.19,0.67 0.17,0.68 0.18,0.67 0.17,0.68 0.16,0.68 0.16,0.68 0.16,0.68 0.15,0.68 0.15,0.69 0.14,0.68 0.14,0.69 0.13,0.68 0.13,0.69 0.12,0.69 0.12,0.69 0.12,0.68 0.11,0.69 0.11,0.7 0.1,0.69 0.1,0.69 0.09,0.69 0.09,0.69 0.08,0.7 0.08,0.69 0.08,0.7 0.07,0.69 0.06,0.7 0.07,0.7 0.05,0.69 0.05,0.7 0.05,0.7 0.05,0.69 0.03,0.7 0.04,0.7 0.03,0.7 0.02,0.7 0.02,0.69 0.02,0.7 0.01,0.7 0.01,0.7 v 0.7 h -107.2 z"
   style="fill:#ff7f00;fill-opacity:1;fill-rule:nonzero;stroke:none"
   id="path36"
   inkscape:connector-curvature="0" /><path
   d="m 586.54,886.5 v 0 h -107.2 z"
   style="fill:#cab2d6;fill-opacity:1;fill-rule:nonzero;stroke:none"
   id="path38"
   inkscape:connector-curvature="0" /><text
   transform="scale(1,-1)"
   style="font-style:normal;font-variant:normal;font-weight:600;font-stretch:normal;font-size:48px;font-family:'URW Gothic L';-inkscape-font-specification:'URW Gothic L, Semi-Bold';font-variant-ligatures:normal;font-variant-caps:normal;font-variant-numeric:normal;font-feature-settings:normal;text-align:start;writing-mode:lr-tb;text-anchor:start;fill:#ffffff;fill-opacity:1;fill-rule:nonzero;stroke:#000000;stroke-width:1.52474999;stroke-miterlimit:4;stroke-dasharray:none;stroke-opacity:1"
   id="text42"
   x="468.22"
   y="-872.29999"><tspan
     x="468.22"
     y="-872.29999"
     id="tspan40"
     style="font-style:normal;font-variant:normal;font-weight:600;font-stretch:normal;font-size:48px;font-family:'URW Gothic L';-inkscape-font-specification:'URW Gothic L, Semi-Bold';font-variant-ligatures:normal;font-variant-caps:normal;font-variant-numeric:normal;font-feature-settings:normal;text-align:start;writing-mode:lr-tb;text-anchor:start;fill:#ffffff;fill-opacity:1;stroke:#000000;stroke-width:1.52474999;stroke-miterlimit:4;stroke-dasharray:none;stroke-opacity:1">1</tspan></text>

<path
   d="m 814.48,886.5 v 0 h -107.2 z"
   style="fill:#000000;fill-opacity:1;fill-rule:nonzero;stroke:none"
   id="path52"
   inkscape:connector-curvature="0" /><path
   d="m 814.48,886.5 v 0.69 l -0.01,0.68 -0.01,0.69 -0.02,0.69 -0.02,0.68 -0.02,0.69 -0.03,0.69 -0.03,0.68 -0.04,0.69 -0.04,0.69 -0.05,0.68 -0.05,0.69 -0.05,0.68 -0.06,0.69 -0.06,0.68 -0.07,0.68 -0.08,0.69 -0.07,0.68 -0.08,0.68 -0.09,0.68 -0.09,0.68 -0.09,0.69 -0.1,0.68 -0.11,0.67 -0.1,0.68 -0.11,0.68 -0.12,0.68 -0.12,0.67 -0.13,0.68 -0.13,0.67 -0.13,0.68 -0.14,0.67 -0.14,0.67 -0.15,0.68 -0.15,0.67 -0.15,0.67 -0.16,0.66 -0.16,0.67 -0.17,0.67 -0.17,0.66 -0.18,0.67 -0.18,0.66 -0.19,0.66 -0.18,0.66 -0.2,0.66 -0.2,0.66 -0.2,0.66 -0.2,0.65 -0.21,0.65 -0.22,0.66 -0.22,0.65 -0.22,0.65 -0.23,0.65 -0.23,0.64 -0.23,0.65 -0.24,0.64 -0.24,0.65 -0.25,0.64 -0.25,0.64 -0.26,0.63 -0.26,0.64 -99.11,-40.85 z"
   style="fill:#a6cee3;fill-opacity:1;fill-rule:nonzero;stroke:none"
   id="path54"
   inkscape:connector-curvature="0" /><path
   d="m 806.39,927.35 -0.26,0.63 -0.27,0.63 -0.27,0.63 -0.27,0.62 -0.28,0.62 -0.28,0.62 -0.29,0.62 -0.29,0.62 -0.29,0.62 -0.3,0.61 -0.3,0.61 -0.3,0.61 -0.31,0.61 -0.32,0.61 -0.31,0.6 -0.32,0.6 -0.33,0.6 -0.33,0.6 -0.33,0.6 -0.33,0.59 -0.34,0.59 -0.35,0.59 -0.34,0.59 -0.36,0.58 -0.35,0.58 -0.36,0.58 -0.36,0.58 -0.37,0.58 -0.37,0.57 -0.37,0.57 -0.38,0.57 -0.38,0.57 -0.38,0.56 -0.39,0.56 -0.39,0.56 -0.39,0.56 -0.4,0.55 -0.4,0.55 -0.41,0.55 -0.41,0.55 -0.41,0.54 -0.41,0.54 -0.42,0.54 -0.43,0.54 -0.42,0.53 -0.43,0.53 -0.43,0.53 -0.44,0.52 -0.44,0.52 -0.44,0.52 -0.45,0.52 -0.44,0.51 -0.46,0.51 -0.45,0.51 -0.46,0.51 -0.46,0.5 -0.47,0.5 -0.47,0.49 -0.47,0.49 -0.47,0.49 -0.48,0.49 -0.48,0.49 -0.49,0.48 -0.48,0.47 -0.49,0.48 -0.5,0.47 -0.49,0.47 -0.5,0.46 -0.5,0.46 -0.51,0.46 -0.5,0.46 -0.51,0.45 -0.52,0.45 -0.51,0.45 -0.52,0.44 -0.53,0.44 -0.52,0.43 -0.53,0.44 -0.53,0.43 -67.17,-83.55 z"
   style="fill:#1f78b4;fill-opacity:1;fill-rule:nonzero;stroke:none"
   id="path56"
   inkscape:connector-curvature="0" /><path
   d="m 774.45,970.05 -0.54,0.42 -0.54,0.43 -0.54,0.42 -0.54,0.42 -0.55,0.42 -0.55,0.41 -0.56,0.41 -0.55,0.4 -0.56,0.4 -0.56,0.4 -0.57,0.39 -0.56,0.39 -0.57,0.39 -0.57,0.38 -0.58,0.38 -0.57,0.38 -0.58,0.37 -0.58,0.37 -0.58,0.36 -0.59,0.36 -0.59,0.36 -0.59,0.35 -0.59,0.35 -0.6,0.35 -0.59,0.34 -0.6,0.34 -0.6,0.33 -0.61,0.33 -0.6,0.33 -0.61,0.32 -0.61,0.32 -0.61,0.31 -0.61,0.31 -0.62,0.31 -0.62,0.3 -0.62,0.3 -0.62,0.3 -0.62,0.29 -0.62,0.29 -0.63,0.28 -0.63,0.28 -0.63,0.27 -0.63,0.27 -0.64,0.27 -0.63,0.26 -0.64,0.26 -0.64,0.25 -0.64,0.25 -0.64,0.25 -0.65,0.24 -0.64,0.24 -0.65,0.23 -0.65,0.23 -0.65,0.23 -0.65,0.22 -0.65,0.22 -0.65,0.21 -0.66,0.21 -0.65,0.2 -0.66,0.2 -0.66,0.2 -0.66,0.19 -0.66,0.19 -0.67,0.18 -0.66,0.18 -0.67,0.18 -0.66,0.17 -0.67,0.16 -0.67,0.17 -0.67,0.15 -0.67,0.16 -0.67,0.15 -0.67,0.14 -0.67,0.14 -21.56,-105.01 z"
   style="fill:#b2df8a;fill-opacity:1;fill-rule:nonzero;stroke:none"
   id="path58"
   inkscape:connector-curvature="0" /><path
   d="m 728.84,991.51 v 0 L 707.28,886.5 Z"
   style="fill:#33a02c;fill-opacity:1;fill-rule:nonzero;stroke:none"
   id="path60"
   inkscape:connector-curvature="0" /><path
   d="m 728.84,991.51 -0.67,0.13 -0.66,0.13 -0.66,0.13 -0.66,0.12 -0.67,0.12 -0.66,0.11 -0.67,0.11 -0.67,0.1 -0.66,0.1 -0.67,0.1 -0.67,0.09 -0.67,0.09 -0.67,0.08 -0.67,0.08 -0.67,0.07 -0.67,0.08 -0.67,0.06 -0.67,0.06 -0.68,0.06 -0.67,0.06 -0.67,0.05 -0.68,0.04 -0.67,0.04 -0.67,0.04 -0.68,0.03 -0.67,0.03 -0.68,0.02 -0.67,0.02 -0.67,0.02 -0.68,0.01 -0.67,0.01 h -0.68 -0.67 l -0.68,-0.01 -0.67,-0.01 -0.68,-0.01 -0.67,-0.02 -0.68,-0.02 -0.67,-0.03 -0.67,-0.03 -0.68,-0.04 -0.67,-0.04 -0.68,-0.04 -0.67,-0.05 -0.67,-0.05 -0.67,-0.06 -0.68,-0.06 -0.67,-0.06 -0.67,-0.07 -0.67,-0.07 -0.67,-0.08 -0.67,-0.08 -0.67,-0.09 -0.67,-0.09 -0.67,-0.1 -0.66,-0.09 -0.67,-0.11 -0.67,-0.1 -0.66,-0.12 -0.67,-0.11 -0.66,-0.12 -0.66,-0.12 -0.67,-0.13 -0.66,-0.14 -0.66,-0.13 -0.66,-0.14 -0.66,-0.15 -0.66,-0.15 -0.65,-0.15 -0.66,-0.16 -0.65,-0.16 -0.66,-0.16 -0.65,-0.17 -0.65,-0.18 -0.65,-0.17 -0.65,-0.18 -0.65,-0.19 -0.65,-0.19 -0.65,-0.19 -0.64,-0.2 -0.65,-0.2 -0.64,-0.21 -0.64,-0.21 -0.64,-0.22 -0.64,-0.21 -0.63,-0.23 -0.64,-0.22 -0.63,-0.23 -0.64,-0.24 -0.63,-0.24 -0.63,-0.24 -0.63,-0.24 -0.62,-0.25 -0.63,-0.26 -0.62,-0.26 -0.62,-0.26 -0.62,-0.26 -0.62,-0.27 -0.62,-0.28 -0.61,-0.27 -0.62,-0.29 -0.61,-0.28 -0.61,-0.29 -0.61,-0.29 -0.6,-0.3 -0.61,-0.3 -0.6,-0.3 -0.6,-0.31 -0.6,-0.31 -0.59,-0.32 -0.6,-0.32 -0.59,-0.32 -0.59,-0.33 -0.59,-0.33 -0.59,-0.33 -0.58,-0.34 -0.58,-0.34 -0.58,-0.35 -0.58,-0.35 -0.57,-0.35 -0.58,-0.36 -0.57,-0.36 -0.57,-0.36 -0.56,-0.37 -0.57,-0.37 -0.56,-0.37 -0.56,-0.38 -0.55,-0.38 -0.56,-0.38 -0.55,-0.39 -0.55,-0.39 -0.55,-0.4 -0.54,-0.4 -0.54,-0.4 -0.54,-0.4 -0.54,-0.41 -0.54,-0.41 -0.53,-0.42 -0.53,-0.42 -0.52,-0.42 -0.53,-0.43 -0.52,-0.42 -0.52,-0.44 -0.51,-0.43 -0.52,-0.44 -0.51,-0.44 -0.5,-0.45 -0.51,-0.44 -0.5,-0.46 -0.5,-0.45 -0.49,-0.46 -0.5,-0.46 -0.49,-0.46 -0.49,-0.47 -0.48,-0.47 -0.48,-0.47 -0.48,-0.48 -0.48,-0.47 -0.47,-0.49 -0.47,-0.48 -0.46,-0.49 -0.47,-0.49 -0.46,-0.49 -0.45,-0.5 -0.46,-0.5 -0.45,-0.5 -0.45,-0.51 -0.44,-0.5 -0.44,-0.51 -0.44,-0.52 -0.43,-0.51 -0.44,-0.52 -0.42,-0.52 -0.43,-0.53 -0.42,-0.53 -0.42,-0.52 -0.41,-0.54 -0.42,-0.53 -0.4,-0.54 -0.41,-0.54 -0.4,-0.54 -0.4,-0.55 -0.39,-0.54 -0.39,-0.55 -0.39,-0.56 -0.38,-0.55 -0.39,-0.56 -0.37,-0.56 -0.38,-0.56 -0.37,-0.56 -0.36,-0.57 -0.37,-0.57 -0.36,-0.57 -0.35,-0.57 -0.35,-0.58 -0.35,-0.58 -0.35,-0.58 -0.34,-0.58 -0.33,-0.58 -0.34,-0.59 -0.33,-0.59 -0.33,-0.59 -0.32,-0.59 -0.32,-0.6 -0.31,-0.59 -0.31,-0.6 -0.31,-0.6 -0.31,-0.6 -0.3,-0.61 -0.29,-0.6 -0.29,-0.61 -0.29,-0.61 -0.29,-0.61 -0.28,-0.62 -0.28,-0.61 -0.27,-0.62 -0.27,-0.62 -0.26,-0.62 -0.26,-0.62 -0.26,-0.62 -0.26,-0.63 -0.25,-0.63 -0.24,-0.63 -0.24,-0.63 -0.24,-0.63 -0.23,-0.63 -0.23,-0.63 -0.23,-0.64 -0.22,-0.64 -0.22,-0.64 -0.21,-0.64 -0.21,-0.64 -0.21,-0.64 -0.2,-0.64 -0.2,-0.65 -0.19,-0.65 -0.19,-0.64 -0.19,-0.65 -0.18,-0.65 -0.18,-0.65 -0.17,-0.65 -0.17,-0.66 -0.16,-0.65 -0.16,-0.66 -0.16,-0.65 -0.15,-0.66 -0.15,-0.66 -0.14,-0.66 -0.14,-0.66 -0.14,-0.66 -0.13,-0.66 -0.13,-0.66 -0.12,-0.67 -0.12,-0.66 -0.12,-0.67 -0.11,-0.66 -0.11,-0.67 -0.1,-0.67 -0.1,-0.66 -0.09,-0.67 -0.09,-0.67 -0.09,-0.67 -0.08,-0.67 -0.07,-0.67 -0.08,-0.67 -0.07,-0.67 -0.06,-0.67 -0.06,-0.67 -0.06,-0.68 -0.05,-0.67 -0.05,-0.67 -0.04,-0.68 -0.04,-0.67 -0.03,-0.67 -0.03,-0.68 -0.03,-0.67 -0.02,-0.68 -0.02,-0.67 -0.01,-0.68 -0.01,-0.67 -0.01,-0.68 v -0.67 -0.67 l 0.01,-0.68 0.01,-0.67 0.02,-0.68 0.02,-0.67 0.02,-0.68 0.03,-0.67 0.04,-0.68 0.03,-0.67 0.04,-0.67 0.05,-0.68 0.05,-0.67 0.05,-0.67 0.06,-0.67 0.07,-0.68 0.06,-0.67 0.07,-0.67 0.08,-0.67 0.08,-0.67 0.08,-0.67 0.09,-0.67 0.09,-0.67 0.1,-0.66 0.1,-0.67 0.1,-0.67 0.11,-0.66 0.12,-0.67 0.11,-0.66 0.13,-0.67 0.12,-0.66 0.13,-0.66 0.14,-0.66 0.13,-0.66 0.15,-0.66 0.14,-0.66 0.15,-0.66 0.16,-0.66 0.16,-0.65 0.16,-0.66 0.17,-0.65 0.17,-0.65 0.17,-0.65 0.18,-0.65 0.19,-0.65 0.18,-0.65 0.2,-0.65 0.19,-0.65 0.2,-0.64 0.21,-0.64 0.2,-0.64 0.22,-0.65 0.21,-0.63 0.22,-0.64 0.23,-0.64 0.22,-0.63 0.24,-0.64 0.23,-0.63 0.24,-0.63 0.25,-0.63 0.24,-0.63 0.26,-0.62 0.25,-0.63 0.26,-0.62 0.27,-0.62 0.26,-0.62 0.28,-0.62 0.27,-0.61 0.28,-0.62 0.28,-0.61 0.29,-0.61 0.29,-0.61 0.3,-0.61 0.29,-0.6 0.31,-0.61 0.3,-0.6 0.31,-0.6 0.32,-0.59 0.31,-0.6 0.32,-0.59 0.33,-0.59 0.33,-0.59 0.33,-0.59 0.33,-0.59 0.34,-0.58 0.35,-0.58 0.34,-0.58 0.36,-0.58 0.35,-0.57 0.36,-0.57 0.36,-0.57 0.36,-0.57 0.37,-0.57 0.37,-0.56 0.38,-0.56 0.38,-0.56 0.38,-0.55 0.39,-0.56 0.39,-0.55 0.39,-0.55 0.4,-0.54 0.4,-0.55 0.4,-0.54 0.41,-0.53 0.41,-0.54 0.41,-0.53 0.42,-0.53 0.42,-0.53 0.42,-0.53 0.43,-0.52 0.43,-0.52 0.43,-0.52 0.44,-0.51 0.44,-0.51 0.44,-0.51 0.45,-0.51 0.45,-0.5 0.45,-0.5 0.45,-0.5 0.46,-0.5 0.46,-0.49 0.47,-0.49 0.47,-0.48 0.47,-0.49 0.47,-0.48 0.48,-0.47 0.48,-0.48 0.48,-0.47 0.49,-0.47 0.49,-0.46 0.49,-0.46 0.49,-0.46 0.5,-0.46 0.5,-0.45 0.51,-0.45 0.5,-0.44 0.51,-0.45 0.51,-0.44 0.52,-0.43 0.51,-0.44 0.52,-0.43 0.53,-0.42 0.52,-0.43 0.53,-0.42 0.53,-0.41 0.54,-0.42 0.53,-0.41 0.54,-0.4 0.54,-0.41 0.54,-0.4 0.55,-0.39 0.55,-0.4 0.55,-0.39 0.55,-0.38 0.56,-0.39 0.56,-0.37 0.56,-0.38 0.56,-0.37 0.57,-0.37 0.56,-0.37 0.57,-0.36 0.58,-0.35 0.57,-0.36 0.58,-0.35 0.57,-0.35 0.59,-0.34 0.58,-0.34 0.58,-0.33 0.59,-0.34 0.59,-0.32 0.59,-0.33 0.6,-0.32 0.59,-0.32 0.6,-0.31 0.6,-0.31 0.6,-0.31 0.6,-0.3 0.61,-0.3 0.61,-0.29 0.6,-0.29 0.62,-0.29 0.61,-0.28 0.61,-0.28 0.62,-0.28 0.62,-0.27 0.62,-0.27 0.62,-0.26 0.62,-0.26 0.62,-0.26 0.63,-0.25 0.63,-0.25 0.63,-0.24 0.63,-0.24 0.63,-0.24 0.63,-0.23 0.64,-0.23 0.63,-0.22 0.64,-0.22 0.64,-0.22 0.64,-0.21 0.64,-0.21 0.65,-0.2 0.64,-0.2 0.65,-0.2 0.64,-0.19 0.65,-0.18 0.65,-0.19 0.65,-0.18 0.65,-0.17 0.66,-0.17 0.65,-0.17 0.65,-0.16 0.66,-0.16 0.66,-0.16 0.65,-0.15 0.66,-0.15 0.66,-0.14 0.66,-0.14 0.66,-0.13 0.67,-0.13 0.66,-0.13 0.66,-0.12 0.67,-0.11 0.66,-0.12 0.67,-0.11 0.67,-0.1 0.66,-0.1 0.67,-0.1 0.67,-0.09 0.67,-0.09 0.67,-0.08 0.67,-0.08 0.67,-0.08 0.67,-0.07 0.67,-0.07 0.67,-0.06 0.68,-0.06 0.67,-0.05 0.67,-0.05 0.67,-0.05 0.68,-0.04 0.67,-0.03 0.67,-0.04 0.68,-0.03 0.67,-0.02 0.68,-0.02 0.67,-0.02 0.68,-0.01 0.67,-0.01 h 0.68 0.67 l 0.68,0.01 0.67,0.01 0.68,0.01 0.67,0.02 0.67,0.02 0.68,0.03 0.67,0.03 0.68,0.03 0.67,0.04 0.67,0.04 0.68,0.05 0.67,0.05 0.67,0.06 0.67,0.06 0.68,0.06 0.67,0.07 0.67,0.08 0.67,0.07 0.67,0.09 0.67,0.08 0.67,0.09 0.66,0.1 0.67,0.09 0.67,0.11 0.66,0.1 0.67,0.11 0.67,0.12 -18.62,105.57 z"
   style="fill:#e31a1c;fill-opacity:1;fill-rule:nonzero;stroke:none"
   id="path62"
   inkscape:connector-curvature="0" /><path
   d="m 725.9,780.93 0.67,0.12 0.68,0.13 0.67,0.13 0.68,0.13 0.67,0.14 0.67,0.14 0.67,0.15 0.67,0.15 0.67,0.16 0.67,0.16 0.67,0.16 0.66,0.17 0.67,0.17 0.66,0.18 0.66,0.18 0.66,0.19 0.66,0.19 0.66,0.19 0.66,0.2 0.66,0.2 0.65,0.21 0.66,0.21 0.65,0.22 0.65,0.22 0.65,0.22 0.65,0.23 0.64,0.23 0.65,0.24 0.64,0.24 0.65,0.24 0.64,0.25 0.64,0.25 0.63,0.26 0.64,0.26 0.63,0.26 0.63,0.27 0.63,0.28 0.63,0.27 0.63,0.28 0.63,0.29 0.62,0.29 0.62,0.29 0.62,0.3 0.62,0.3 0.61,0.3 0.62,0.31 0.61,0.32 0.61,0.31 0.61,0.32 0.6,0.33 0.61,0.32 0.6,0.34 0.6,0.33 0.59,0.34 0.6,0.35 0.59,0.34 0.59,0.36 0.59,0.35 0.59,0.36 0.58,0.36 0.58,0.37 -57.44,90.51 z"
   style="fill:#fdbf6f;fill-opacity:1;fill-rule:nonzero;stroke:none"
   id="path64"
   inkscape:connector-curvature="0" /><path
   d="m 764.72,795.99 0.58,0.37 0.57,0.37 0.57,0.37 0.57,0.38 0.57,0.39 0.56,0.38 0.57,0.39 0.56,0.4 0.55,0.4 0.56,0.4 0.55,0.4 0.55,0.41 0.54,0.41 0.55,0.42 0.54,0.41 0.54,0.43 0.53,0.42 0.54,0.43 0.53,0.43 0.53,0.44 0.52,0.44 0.52,0.44 0.52,0.44 0.52,0.45 0.51,0.46 0.51,0.45 0.51,0.46 0.51,0.46 0.5,0.47 0.5,0.46 0.49,0.48 0.5,0.47 0.49,0.48 0.48,0.48 0.49,0.48 0.48,0.49 0.47,0.49 0.48,0.49 0.47,0.5 0.47,0.5 0.46,0.5 0.46,0.51 0.46,0.5 0.46,0.52 0.45,0.51 0.45,0.52 0.44,0.52 0.44,0.52 0.44,0.52 0.44,0.53 0.43,0.53 0.43,0.54 0.42,0.53 0.43,0.54 0.41,0.54 0.42,0.55 0.41,0.54 0.41,0.55 0.4,0.55 0.4,0.56 0.4,0.56 0.39,0.56 0.39,0.56 0.39,0.56 0.38,0.57 0.38,0.57 0.38,0.57 0.37,0.58 0.37,0.57 0.36,0.58 0.36,0.58 0.36,0.59 0.35,0.58 0.35,0.59 0.35,0.59 0.34,0.6 0.34,0.59 0.33,0.6 0.33,0.6 0.33,0.6 0.32,0.6 0.32,0.61 0.32,0.6 0.31,0.61 0.31,0.61 0.3,0.62 0.3,0.61 0.29,0.62 0.3,0.62 0.28,0.62 0.29,0.62 0.28,0.63 0.27,0.62 0.27,0.63 0.27,0.63 0.27,0.63 0.26,0.63 0.25,0.64 0.25,0.64 0.25,0.63 0.24,0.64 0.24,0.64 0.24,0.65 0.23,0.64 0.23,0.65 -101.24,35.25 z"
   style="fill:#ff7f00;fill-opacity:1;fill-rule:nonzero;stroke:none"
   id="path66"
   inkscape:connector-curvature="0" /><path
   d="m 808.52,851.25 0.22,0.65 0.22,0.65 0.22,0.66 0.21,0.66 0.21,0.66 0.2,0.66 0.2,0.66 0.2,0.66 0.19,0.66 0.19,0.67 0.18,0.66 0.18,0.67 0.17,0.67 0.17,0.67 0.17,0.67 0.16,0.67 0.15,0.68 0.16,0.67 0.15,0.67 0.14,0.68 0.14,0.68 0.13,0.67 0.13,0.68 0.13,0.68 0.12,0.68 0.12,0.68 0.11,0.68 0.11,0.69 0.1,0.68 0.1,0.68 0.1,0.69 0.09,0.68 0.09,0.69 0.08,0.68 0.08,0.69 0.07,0.69 0.07,0.68 0.06,0.69 0.06,0.69 0.06,0.69 0.05,0.69 0.05,0.69 0.04,0.69 0.04,0.69 0.03,0.69 0.03,0.69 0.02,0.69 0.02,0.69 0.02,0.69 0.01,0.69 0.01,0.69 v 0.69 h -107.2 z"
   style="fill:#cab2d6;fill-opacity:1;fill-rule:nonzero;stroke:none"
   id="path68"
   inkscape:connector-curvature="0" /><text
   transform="scale(1,-1)"
   style="font-style:normal;font-variant:normal;font-weight:600;font-stretch:normal;font-size:48px;font-family:'URW Gothic L';-inkscape-font-specification:'URW Gothic L, Semi-Bold';font-variant-ligatures:normal;font-variant-caps:normal;font-variant-numeric:normal;font-feature-settings:normal;text-align:start;writing-mode:lr-tb;text-anchor:start;fill:#ffffff;fill-opacity:1;fill-rule:nonzero;stroke:#000000;stroke-width:1.52474999;stroke-miterlimit:4;stroke-dasharray:none;stroke-opacity:1"
   id="text72"
   x="696.15997"
   y="-872.29999"><tspan
     x="696.15997"
     y="-872.29999"
     id="tspan70"
     style="font-style:normal;font-variant:normal;font-weight:600;font-stretch:normal;font-size:48px;font-family:'URW Gothic L';-inkscape-font-specification:'URW Gothic L, Semi-Bold';font-variant-ligatures:normal;font-variant-caps:normal;font-variant-numeric:normal;font-feature-settings:normal;text-align:start;writing-mode:lr-tb;text-anchor:start;fill:#ffffff;fill-opacity:1;stroke:#000000;stroke-width:1.52474999;stroke-miterlimit:4;stroke-dasharray:none;stroke-opacity:1">2</tspan></text>

<path
   d="m 586.54,657 v 0 h -107.2 z"
   style="fill:#000000;fill-opacity:1;fill-rule:nonzero;stroke:none"
   id="path82"
   inkscape:connector-curvature="0" /><path
   d="m 586.54,657 -0.01,1.4 -107.19,-1.4 z"
   style="fill:#a6cee3;fill-opacity:1;fill-rule:nonzero;stroke:none"
   id="path84"
   inkscape:connector-curvature="0" /><path
   d="m 586.53,658.4 -0.01,0.75 -0.02,0.75 -0.02,0.75 -0.03,0.76 -0.03,0.75 -0.04,0.75 -0.05,0.75 -0.05,0.75 -0.05,0.75 -0.06,0.75 -0.07,0.75 -0.07,0.75 -0.07,0.75 L 479.34,657 Z"
   style="fill:#1f78b4;fill-opacity:1;fill-rule:nonzero;stroke:none"
   id="path86"
   inkscape:connector-curvature="0" /><path
   d="m 585.96,668.16 v 0 L 479.34,657 Z"
   style="fill:#b2df8a;fill-opacity:1;fill-rule:nonzero;stroke:none"
   id="path88"
   inkscape:connector-curvature="0" /><path
   d="m 585.96,668.16 -0.08,0.69 -0.08,0.7 -0.08,0.69 -0.09,0.69 -0.09,0.7 -0.1,0.69 -0.1,0.69 -0.11,0.69 -0.11,0.69 -0.12,0.69 -0.12,0.69 -0.12,0.69 -0.13,0.68 -0.13,0.69 -0.14,0.68 -0.14,0.69 -0.15,0.68 -0.15,0.68 -0.16,0.68 -0.16,0.68 -0.16,0.68 -0.17,0.68 -0.17,0.68 -0.18,0.67 -0.18,0.68 -0.19,0.67 -0.19,0.67 -0.2,0.67 -0.2,0.67 -0.2,0.67 -0.21,0.67 -0.21,0.66 -0.22,0.67 -0.22,0.66 -0.23,0.66 -0.23,0.66 -0.23,0.66 -0.24,0.66 -0.24,0.65 -0.25,0.65 -0.25,0.66 -0.26,0.65 -0.26,0.65 -0.26,0.64 -0.27,0.65 -0.27,0.64 L 479.34,657 Z"
   style="fill:#33a02c;fill-opacity:1;fill-rule:nonzero;stroke:none"
   id="path90"
   inkscape:connector-curvature="0" /><path
   d="m 577.91,699.15 -0.27,0.62 -0.27,0.62 -0.28,0.62 -0.28,0.61 -0.28,0.62 -0.29,0.61 -0.29,0.61 -0.3,0.61 -0.29,0.6 -0.31,0.61 -0.3,0.6 -0.31,0.6 -0.32,0.6 -0.31,0.6 -0.33,0.59 -0.32,0.59 -0.33,0.59 -0.33,0.59 -0.34,0.59 -0.34,0.58 -0.34,0.58 -0.35,0.58 -0.35,0.58 -0.35,0.58 -0.36,0.57 -0.36,0.57 -0.37,0.57 -0.37,0.57 -0.37,0.56 -0.38,0.56 -0.38,0.56 -0.38,0.56 -0.39,0.55 -0.39,0.55 -0.39,0.55 -0.4,0.55 -0.4,0.55 -0.4,0.54 -0.41,0.54 -0.41,0.53 -0.42,0.54 -0.41,0.53 -0.42,0.53 -0.43,0.52 -0.43,0.53 -0.43,0.52 -0.43,0.52 -0.44,0.51 -0.44,0.51 -0.44,0.51 -0.45,0.51 -0.45,0.51 -0.45,0.5 -0.46,0.5 -0.46,0.49 -0.46,0.49 -0.47,0.49 -0.47,0.49 -0.47,0.48 -0.47,0.49 -0.48,0.47 -0.48,0.48 -0.49,0.47 -0.48,0.47 -0.49,0.46 -0.5,0.47 -0.49,0.46 -0.5,0.45 -0.5,0.46 -0.51,0.45 -0.5,0.44 -0.51,0.45 -0.52,0.44 -0.51,0.43 -0.52,0.44 -0.52,0.43 -0.52,0.43 -0.53,0.42 -0.53,0.42 -0.53,0.42 -0.54,0.41 -0.53,0.41 -0.54,0.41 -0.54,0.4 -0.55,0.4 -0.55,0.4 -0.55,0.39 -0.55,0.39 -0.55,0.39 -0.56,0.38 -0.56,0.38 -0.56,0.38 -0.56,0.37 -0.57,0.37 -0.57,0.36 -0.57,0.37 -0.57,0.35 -0.58,0.36 -0.58,0.35 -0.58,0.35 -0.58,0.34 -0.58,0.34 -0.59,0.34 -0.59,0.33 -0.59,0.33 -0.59,0.32 -0.6,0.32 -0.59,0.32 -0.6,0.31 -0.6,0.31 -0.6,0.31 -0.61,0.3 -0.61,0.3 -0.6,0.3 -0.61,0.29 -0.62,0.28 -0.61,0.29 -0.62,0.28 -0.61,0.27 -0.62,0.27 -0.62,0.27 -0.63,0.26 -0.62,0.26 -0.62,0.26 -0.63,0.25 -0.63,0.25 -0.63,0.24 -0.63,0.24 -0.64,0.24 -0.63,0.23 -0.64,0.23 -0.64,0.22 -0.63,0.22 -0.65,0.22 -0.64,0.21 -0.64,0.21 -0.64,0.2 -0.65,0.2 -0.65,0.2 -0.65,0.19 -0.65,0.18 -0.65,0.19 -0.65,0.18 -0.65,0.17 -0.65,0.17 -0.66,0.17 -0.66,0.16 -0.65,0.16 -0.66,0.15 -0.66,0.15 -0.66,0.15 -0.66,0.14 -0.66,0.14 -0.66,0.13 -0.67,0.13 -0.66,0.13 -0.67,0.12 -0.66,0.12 -0.67,0.11 -0.67,0.11 -0.66,0.1 -0.67,0.1 -0.67,0.1 -0.67,0.09 -0.67,0.09 -0.67,0.08 -0.67,0.08 -0.68,0.07 -0.67,0.07 -0.67,0.07 -0.67,0.06 -0.68,0.06 -0.67,0.05 -0.68,0.05 -0.67,0.05 -0.67,0.04 -0.68,0.03 -0.67,0.03 -0.68,0.03 -0.68,0.03 -0.67,0.02 -0.68,0.01 -0.67,0.01 -0.68,0.01 h -0.67 -0.68 l -0.68,-0.01 -0.67,-0.01 -0.68,-0.01 -0.67,-0.02 -0.68,-0.03 -0.67,-0.02 -0.68,-0.04 -0.67,-0.03 -0.68,-0.04 -0.67,-0.05 -0.68,-0.04 -0.67,-0.06 -0.68,-0.06 -0.67,-0.06 -0.67,-0.06 -0.67,-0.07 -0.68,-0.08 -0.67,-0.08 -0.67,-0.08 -0.67,-0.08 -0.67,-0.1 -0.67,-0.09 -0.66,-0.1 -0.67,-0.11 -0.67,-0.1 -0.67,-0.12 -0.66,-0.11 -0.67,-0.12 -0.66,-0.13 -0.67,-0.13 -0.66,-0.13 -0.66,-0.14 -0.66,-0.14 -0.66,-0.14 -0.66,-0.15 -0.66,-0.16 -0.65,-0.16 -0.66,-0.16 -0.66,-0.16 -0.65,-0.18 -0.65,-0.17 -0.65,-0.18 -0.66,-0.18 -0.65,-0.19 -0.64,-0.19 -0.65,-0.2 -0.65,-0.19 -0.64,-0.21 -0.64,-0.21 -0.65,-0.21 -0.64,-0.21 -0.64,-0.22 -0.63,-0.23 -0.64,-0.22 -0.64,-0.23 -0.63,-0.24 -0.63,-0.24 -0.63,-0.24 -0.63,-0.25 -0.63,-0.25 -0.62,-0.26 -0.63,-0.26 -0.62,-0.26 -0.62,-0.27 -0.62,-0.27 -0.62,-0.27 -0.61,-0.28 -0.62,-0.29 -0.61,-0.28 -0.61,-0.29 -0.61,-0.3 -0.6,-0.3 -0.61,-0.3 -0.6,-0.3 -0.6,-0.31 -0.6,-0.32 -0.6,-0.31 -0.59,-0.32 -0.6,-0.33 -0.59,-0.33 -0.59,-0.33 -0.58,-0.33 -0.59,-0.34 -0.58,-0.35 -0.58,-0.34 -0.58,-0.35 -0.57,-0.36 -0.58,-0.36 -0.57,-0.36 -0.57,-0.36 -0.56,-0.37 -0.57,-0.37 -0.56,-0.38 -0.56,-0.38 -0.56,-0.38 -0.55,-0.39 -0.55,-0.39 -0.55,-0.39 -0.55,-0.4 -0.55,-0.4 -0.54,-0.4 -0.54,-0.41 -0.53,-0.41 -0.54,-0.41 -0.53,-0.42 -0.53,-0.42 -0.53,-0.42 -0.52,-0.43 -0.52,-0.43 -0.52,-0.43 -0.52,-0.44 -0.51,-0.44 -0.51,-0.44 -0.51,-0.45 -0.5,-0.45 -0.5,-0.45 -0.5,-0.46 -0.5,-0.46 -0.49,-0.46 -0.49,-0.47 -0.49,-0.46 -0.48,-0.48 -0.48,-0.47 -0.48,-0.48 -0.48,-0.48 -0.47,-0.48 -0.47,-0.49 -0.46,-0.49 -0.47,-0.49 -0.46,-0.5 -0.45,-0.5 -0.46,-0.5 -0.45,-0.5 -0.45,-0.51 -0.44,-0.51 -0.44,-0.51 -0.44,-0.51 -0.43,-0.52 -0.43,-0.52 -0.43,-0.53 -0.42,-0.52 -0.43,-0.53 -0.41,-0.53 -0.42,-0.54 -0.41,-0.53 -0.41,-0.54 -0.4,-0.54 -0.4,-0.55 -0.4,-0.54 -0.39,-0.55 -0.39,-0.56 -0.39,-0.55 -0.38,-0.56 -0.38,-0.56 -0.38,-0.56 -0.37,-0.56 -0.37,-0.57 -0.37,-0.57 -0.36,-0.57 -0.36,-0.57 -0.35,-0.57 -0.35,-0.58 -0.35,-0.58 -0.35,-0.58 -0.34,-0.59 -0.33,-0.58 -0.34,-0.59 -0.32,-0.59 -0.33,-0.59 -0.32,-0.6 -0.32,-0.6 -0.31,-0.59 -0.31,-0.6 -0.31,-0.61 -0.3,-0.6 -0.3,-0.61 -0.3,-0.61 -0.29,-0.61 -0.29,-0.61 -0.28,-0.61 -0.28,-0.62 -0.28,-0.61 -0.27,-0.62 -0.27,-0.62 -0.26,-0.62 -0.26,-0.63 -0.26,-0.62 -0.25,-0.63 -0.25,-0.63 -0.24,-0.63 -0.24,-0.63 -0.24,-0.63 -0.23,-0.64 -0.23,-0.64 -0.22,-0.63 -0.22,-0.64 -0.22,-0.64 -0.21,-0.64 -0.21,-0.65 -0.2,-0.64 -0.2,-0.65 -0.2,-0.64 -0.19,-0.65 -0.19,-0.65 -0.18,-0.65 -0.18,-0.65 -0.18,-0.66 -0.17,-0.65 -0.17,-0.66 -0.16,-0.65 -0.16,-0.66 -0.15,-0.66 -0.16,-0.65 -0.14,-0.66 -0.14,-0.67 -0.14,-0.66 -0.14,-0.66 -0.13,-0.66 -0.12,-0.67 -0.12,-0.66 -0.12,-0.67 -0.11,-0.66 -0.11,-0.67 -0.11,-0.67 -0.1,-0.67 -0.09,-0.67 -0.1,-0.67 -0.08,-0.67 -0.09,-0.67 -0.08,-0.67 -0.07,-0.67 -0.07,-0.67 -0.07,-0.67 -0.06,-0.68 -0.06,-0.67 -0.05,-0.67 -0.05,-0.68 -0.05,-0.67 -0.04,-0.68 -0.04,-0.67 -0.03,-0.68 -0.03,-0.67 -0.02,-0.68 -0.02,-0.67 -0.02,-0.68 -0.01,-0.68 -0.01,-0.67 v -0.68 -0.67 l 0.01,-0.68 0.01,-0.67 0.01,-0.68 0.02,-0.68 0.02,-0.67 0.03,-0.68 0.03,-0.67 0.04,-0.68 0.04,-0.67 0.04,-0.68 0.05,-0.67 0.05,-0.67 0.06,-0.68 0.06,-0.67 0.06,-0.67 0.07,-0.68 0.08,-0.67 0.07,-0.67 0.09,-0.67 0.08,-0.67 0.09,-0.67 0.1,-0.67 0.1,-0.67 0.1,-0.67 0.11,-0.66 0.11,-0.67 0.12,-0.67 0.12,-0.66 0.12,-0.67 0.13,-0.66 0.13,-0.66 0.14,-0.66 0.14,-0.67 0.15,-0.66 0.14,-0.65 0.16,-0.66 0.16,-0.66 0.16,-0.66 0.16,-0.65 0.17,-0.66 0.18,-0.65 0.18,-0.65 0.18,-0.65 0.18,-0.65 0.2,-0.65 0.19,-0.65 0.2,-0.64 0.2,-0.65 0.21,-0.64 0.21,-0.64 0.21,-0.64 0.22,-0.64 0.23,-0.64 0.22,-0.64 0.23,-0.63 0.24,-0.64 0.24,-0.63 0.24,-0.63 0.25,-0.63 0.25,-0.63 0.25,-0.62 0.26,-0.63 0.27,-0.62 0.26,-0.62 0.27,-0.62 0.28,-0.62 0.28,-0.61 0.28,-0.62 0.28,-0.61 0.29,-0.61 0.3,-0.61 0.3,-0.61 0.3,-0.6 0.3,-0.6 0.31,-0.61 0.32,-0.59 0.31,-0.6 0.32,-0.6 0.33,-0.59 0.32,-0.59 0.34,-0.59 0.33,-0.59 0.34,-0.58 0.34,-0.58 0.35,-0.58 0.35,-0.58 91.53,55.8 z"
   style="fill:#e31a1c;fill-opacity:1;fill-rule:nonzero;stroke:none"
   id="path92"
   inkscape:connector-curvature="0" /><path
   d="m 387.81,601.2 0.35,-0.58 0.36,-0.58 0.36,-0.57 0.37,-0.57 0.37,-0.57 0.37,-0.56 0.38,-0.57 0.38,-0.56 0.38,-0.56 0.39,-0.55 0.39,-0.56 0.39,-0.55 0.4,-0.55 0.4,-0.55 0.4,-0.54 0.41,-0.54 0.41,-0.54 0.42,-0.54 0.42,-0.53 0.42,-0.53 0.42,-0.53 0.43,-0.52 0.43,-0.53 0.44,-0.52 0.43,-0.51 0.44,-0.52 0.45,-0.51 0.45,-0.51 0.45,-0.5 0.45,-0.51 0.46,-0.5 0.46,-0.5 0.46,-0.49 0.47,-0.49 0.47,-0.49 0.47,-0.49 0.48,-0.48 0.47,-0.48 0.49,-0.47 0.48,-0.48 0.49,-0.47 0.49,-0.47 0.49,-0.46 0.5,-0.46 0.5,-0.46 0.5,-0.45 0.51,-0.46 0.51,-0.44 0.51,-0.45 0.51,-0.44 0.52,-0.44 0.52,-0.44 0.52,-0.43 0.52,-0.43 0.53,-0.42 0.53,-0.42 0.53,-0.42 0.54,-0.42 0.54,-0.41 0.54,-0.41 0.54,-0.4 0.55,-0.41 0.55,-0.39 0.55,-0.4 0.55,-0.39 0.56,-0.39 0.55,-0.38 0.56,-0.38 0.57,-0.38 0.56,-0.37 0.57,-0.37 0.57,-0.37 0.57,-0.36 0.58,-0.36 0.57,-0.36 0.58,-0.35 0.58,-0.35 0.59,-0.34 0.58,-0.34 0.59,-0.34 0.59,-0.33 0.59,-0.33 0.6,-0.33 0.59,-0.32 0.6,-0.32 0.6,-0.31 0.61,-0.32 0.6,-0.3 0.61,-0.31 0.6,-0.29 0.61,-0.3 0.62,-0.29 0.61,-0.29 0.61,-0.28 0.62,-0.28 0.62,-0.28 0.62,-0.27 0.62,-0.27 0.63,-0.26 0.62,-0.26 0.63,-0.26 0.63,-0.25 0.63,-0.25 0.63,-0.25 0.64,-0.24 0.63,-0.23 0.64,-0.24 0.64,-0.22 0.63,-0.23 0.65,-0.22 0.64,-0.21 0.64,-0.22 0.65,-0.2 0.64,-0.21 0.65,-0.2 0.65,-0.19 0.65,-0.2 0.65,-0.18 0.65,-0.19 0.66,-0.18 0.65,-0.17 0.66,-0.17 0.65,-0.17 0.66,-0.16 0.66,-0.16 0.66,-0.16 0.66,-0.15 0.66,-0.14 0.67,-0.14 0.66,-0.14 0.66,-0.14 0.67,-0.12 0.66,-0.13 0.67,-0.12 0.67,-0.12 0.67,-0.11 0.67,-0.11 0.67,-0.1 0.67,-0.1 0.67,-0.1 0.67,-0.09 0.67,-0.09 0.67,-0.08 0.68,-0.08 0.67,-0.07 0.67,-0.07 0.68,-0.07 0.67,-0.06 0.68,-0.06 0.67,-0.05 0.68,-0.05 0.68,-0.04 0.67,-0.04 0.68,-0.04 0.68,-0.03 0.67,-0.03 0.68,-0.02 0.68,-0.02 0.68,-0.01 0.67,-0.01 0.68,-0.01 h 0.68 0.68 l 0.67,0.01 0.68,0.01 0.68,0.02 0.68,0.02 0.67,0.02 0.68,0.03 0.68,0.03 0.68,0.04 0.67,0.04 0.68,0.05 0.67,0.05 0.68,0.05 0.67,0.06 0.68,0.06 0.67,0.07 0.68,0.07 0.67,0.07 0.67,0.08 0.68,0.09 0.67,0.09 0.67,0.09 0.67,0.09 0.67,0.11 0.67,0.1 0.67,0.11 0.67,0.11 0.66,0.12 0.67,0.12 0.67,0.13 0.66,0.13 0.67,0.13 0.66,0.14 0.66,0.15 0.66,0.14 0.66,0.15 0.66,0.16 0.66,0.16 0.66,0.16 0.66,0.17 0.65,0.17 0.66,0.18 0.65,0.18 0.65,0.19 0.65,0.18 0.65,0.2 0.65,0.19 0.65,0.2 0.64,0.21 0.65,0.21 0.64,0.21 0.64,0.22 0.64,0.22 0.64,0.23 0.64,0.23 0.64,0.23 0.63,0.24 0.63,0.24 0.64,0.24 0.63,0.25 0.63,0.26 0.62,0.25 0.63,0.27 0.62,0.26 0.62,0.27 0.62,0.27 0.62,0.28 0.62,0.28 0.61,0.29 0.62,0.28 0.61,0.3 0.61,0.29 0.6,0.3 0.61,0.31 0.6,0.31 0.61,0.31 0.6,0.31 0.59,0.32 0.6,0.33 0.59,0.32 0.59,0.33 0.59,0.34 0.59,0.34 0.59,0.34 0.58,0.34 0.58,0.35 0.58,0.36 0.57,0.35 0.58,0.36 0.57,0.37 0.57,0.36 0.57,0.37 0.56,0.38 0.56,0.38 0.56,0.38 0.56,0.38 0.56,0.39 0.55,0.4 0.55,0.39 0.55,0.4 0.54,0.4 0.54,0.41 0.54,0.41 0.54,0.41 -65.58,84.8 z"
   style="fill:#fdbf6f;fill-opacity:1;fill-rule:nonzero;stroke:none"
   id="path94"
   inkscape:connector-curvature="0" /><path
   d="m 544.92,572.2 0.55,0.43 0.55,0.43 0.55,0.44 0.54,0.44 0.54,0.44 0.54,0.45 0.53,0.45 0.53,0.45 0.53,0.46 0.53,0.46 0.52,0.47 0.52,0.46 0.51,0.48 0.52,0.47 0.51,0.48 0.5,0.48 0.51,0.48 0.5,0.49 0.49,0.49 0.5,0.5 0.49,0.49 0.49,0.5 0.48,0.51 0.48,0.5 0.48,0.51 0.47,0.52 0.48,0.51 0.46,0.52 0.47,0.52 0.46,0.53 0.46,0.53 0.45,0.53 0.45,0.53 0.45,0.54 0.44,0.54 0.44,0.54 0.44,0.55 0.43,0.55 -84.37,66.13 z"
   style="fill:#ff7f00;fill-opacity:1;fill-rule:nonzero;stroke:none"
   id="path96"
   inkscape:connector-curvature="0" /><path
   d="m 563.71,590.87 0.42,0.54 0.42,0.54 0.41,0.55 0.41,0.55 0.41,0.55 0.4,0.55 0.4,0.56 0.4,0.56 0.39,0.56 0.39,0.56 0.39,0.57 0.38,0.57 0.38,0.57 0.37,0.57 0.37,0.58 0.37,0.58 0.36,0.58 0.36,0.58 0.36,0.59 0.35,0.58 0.35,0.59 0.35,0.6 0.34,0.59 0.33,0.6 0.34,0.6 0.33,0.6 0.32,0.6 0.33,0.6 0.31,0.61 0.32,0.61 0.31,0.61 0.3,0.61 0.31,0.62 0.3,0.62 0.29,0.61 0.29,0.63 0.29,0.62 0.28,0.62 0.28,0.63 0.27,0.63 0.27,0.63 0.27,0.63 0.26,0.63 0.26,0.63 0.26,0.64 0.25,0.64 0.24,0.64 0.24,0.64 0.24,0.64 0.24,0.65 0.23,0.64 0.22,0.65 0.22,0.65 0.22,0.65 0.21,0.65 0.21,0.65 0.21,0.65 0.2,0.66 0.2,0.66 0.19,0.65 0.19,0.66 0.18,0.66 0.18,0.66 0.17,0.67 0.18,0.66 0.16,0.66 0.17,0.67 0.15,0.67 0.16,0.67 0.15,0.66 0.14,0.67 0.14,0.67 0.14,0.68 0.13,0.67 0.13,0.67 0.13,0.67 0.12,0.68 0.11,0.67 0.11,0.68 0.11,0.68 0.1,0.68 0.1,0.67 0.1,0.68 0.09,0.68 0.08,0.68 0.08,0.68 0.08,0.68 0.07,0.68 0.07,0.69 0.06,0.68 0.06,0.68 0.05,0.68 0.06,0.69 0.04,0.68 0.04,0.69 0.04,0.68 0.03,0.68 0.03,0.69 0.03,0.68 0.01,0.69 0.02,0.68 0.01,0.69 0.01,0.68 V 657 h -107.2 z"
   style="fill:#cab2d6;fill-opacity:1;fill-rule:nonzero;stroke:none"
   id="path98"
   inkscape:connector-curvature="0" /><text
   transform="scale(1,-1)"
   style="font-style:normal;font-variant:normal;font-weight:600;font-stretch:normal;font-size:48px;font-family:'URW Gothic L';-inkscape-font-specification:'URW Gothic L, Semi-Bold';font-variant-ligatures:normal;font-variant-caps:normal;font-variant-numeric:normal;font-feature-settings:normal;text-align:start;writing-mode:lr-tb;text-anchor:start;fill:#ffffff;fill-opacity:1;fill-rule:nonzero;stroke:#000000;stroke-width:1.52474999;stroke-miterlimit:4;stroke-dasharray:none;stroke-opacity:1"
   id="text102"
   x="468.22"
   y="-643.17999"><tspan
     x="468.22"
     y="-643.17999"
     id="tspan100"
     style="font-style:normal;font-variant:normal;font-weight:600;font-stretch:normal;font-size:48px;font-family:'URW Gothic L';-inkscape-font-specification:'URW Gothic L, Semi-Bold';font-variant-ligatures:normal;font-variant-caps:normal;font-variant-numeric:normal;font-feature-settings:normal;text-align:start;writing-mode:lr-tb;text-anchor:start;fill:#ffffff;fill-opacity:1;stroke:#000000;stroke-width:1.52474999;stroke-miterlimit:4;stroke-dasharray:none;stroke-opacity:1">3</tspan></text>

<path
   d="m 814.48,657 v 0 h -107.2 z"
   style="fill:#000000;fill-opacity:1;fill-rule:nonzero;stroke:none"
   id="path112"
   inkscape:connector-curvature="0" /><path
   d="m 814.48,657 v 0 h -107.2 z"
   style="fill:#a6cee3;fill-opacity:1;fill-rule:nonzero;stroke:none"
   id="path114"
   inkscape:connector-curvature="0" /><path
   d="m 814.48,657 v 0.71 l -0.01,0.7 -0.01,0.71 -0.02,0.7 -0.02,0.71 -0.02,0.7 -0.03,0.71 -0.04,0.7 -0.04,0.71 -0.04,0.7 -0.05,0.71 -0.05,0.7 -0.06,0.7 -0.06,0.71 -0.07,0.7 -0.07,0.7 -0.08,0.7 -0.08,0.7 -0.09,0.7 -0.09,0.7 -0.09,0.7 -0.1,0.7 -0.11,0.7 L 707.28,657 Z"
   style="fill:#1f78b4;fill-opacity:1;fill-rule:nonzero;stroke:none"
   id="path116"
   inkscape:connector-curvature="0" /><path
   d="m 813.25,673.17 v 0 L 707.28,657 Z"
   style="fill:#b2df8a;fill-opacity:1;fill-rule:nonzero;stroke:none"
   id="path118"
   inkscape:connector-curvature="0" /><path
   d="m 813.25,673.17 -0.11,0.73 -0.12,0.73 -0.12,0.72 -0.13,0.73 -0.14,0.72 -0.13,0.73 -0.15,0.72 -0.15,0.73 -0.15,0.72 -0.16,0.72 -0.16,0.72 L 707.28,657 Z"
   style="fill:#33a02c;fill-opacity:1;fill-rule:nonzero;stroke:none"
   id="path120"
   inkscape:connector-curvature="0" /><path
   d="m 811.73,681.14 -0.16,0.65 -0.15,0.66 -0.17,0.65 -0.16,0.66 -0.17,0.65 -0.18,0.65 -0.18,0.65 -0.18,0.65 -0.19,0.65 -0.19,0.65 -0.19,0.64 -0.2,0.65 -0.2,0.64 -0.21,0.64 -0.21,0.64 -0.22,0.64 -0.22,0.64 -0.22,0.64 -0.23,0.63 -0.23,0.64 -0.23,0.63 -0.24,0.63 -0.25,0.63 -0.24,0.63 -0.25,0.62 -0.26,0.63 -0.26,0.62 -0.26,0.62 -0.27,0.62 -0.27,0.62 -0.27,0.61 -0.28,0.62 -0.28,0.61 -0.29,0.61 -0.29,0.61 -0.29,0.61 -0.3,0.6 -0.3,0.61 -0.31,0.6 -0.31,0.6 -0.31,0.6 -0.31,0.59 -0.32,0.6 -0.33,0.59 -0.33,0.59 -0.33,0.59 -0.33,0.58 -0.34,0.58 -0.34,0.59 -0.35,0.57 -0.35,0.58 -0.35,0.58 -0.36,0.57 -0.36,0.57 -0.36,0.57 -0.37,0.56 -0.37,0.57 -0.38,0.56 -0.38,0.55 -0.38,0.56 -0.38,0.55 -0.39,0.56 -0.39,0.54 -0.4,0.55 -0.4,0.55 -0.4,0.54 -0.41,0.54 -0.4,0.53 -0.42,0.54 -0.41,0.53 -0.42,0.52 -0.43,0.53 -0.42,0.52 -0.43,0.52 -0.43,0.52 -0.44,0.52 -0.44,0.51 -0.44,0.51 -0.44,0.5 -0.45,0.51 -0.46,0.5 -0.45,0.5 -0.46,0.49 -0.46,0.5 -0.46,0.49 -0.47,0.48 -0.47,0.49 -0.47,0.48 -0.48,0.47 -0.48,0.48 -0.48,0.47 -0.49,0.47 -0.49,0.46 -0.49,0.47 -0.49,0.46 -0.5,0.45 -0.5,0.46 -0.5,0.44 -0.5,0.45 -0.51,0.45 -0.51,0.44 -0.52,0.43 -0.51,0.44 -0.52,0.43 -0.53,0.42 -0.52,0.43 -0.53,0.42 -0.53,0.42 -0.53,0.41 -0.53,0.41 -0.54,0.41 -0.54,0.4 -0.55,0.4 -0.54,0.4 -0.55,0.39 -0.55,0.39 -0.55,0.39 -0.56,0.38 -0.55,0.38 -0.56,0.38 -0.57,0.37 -0.56,0.37 -0.57,0.37 -0.57,0.36 -0.57,0.36 -0.57,0.35 -0.58,0.36 -0.58,0.34 -0.58,0.35 -0.58,0.34 -0.58,0.33 -0.59,0.34 -0.59,0.33 -0.59,0.32 -0.59,0.32 -0.6,0.32 -0.59,0.32 -0.6,0.31 -0.6,0.3 -0.61,0.31 -0.6,0.3 -0.61,0.29 -0.61,0.29 -0.61,0.29 -0.61,0.28 -0.61,0.28 -0.62,0.28 -0.61,0.27 -0.62,0.27 -0.62,0.27 -0.62,0.26 -0.63,0.25 -0.62,0.26 -0.63,0.24 -0.63,0.25 -0.63,0.24 -0.63,0.24 -0.63,0.23 -0.64,0.23 -0.63,0.22 -0.64,0.23 -0.64,0.21 -0.64,0.21 -0.64,0.21 -0.65,0.21 -0.64,0.2 -0.64,0.2 -0.65,0.19 -0.65,0.19 -0.65,0.18 -0.65,0.18 -0.65,0.18 -0.65,0.17 -0.65,0.17 -0.66,0.16 -0.65,0.16 -0.66,0.16 -0.66,0.15 -0.66,0.15 -0.65,0.14 -0.66,0.14 -0.67,0.14 -0.66,0.13 -0.66,0.12 -0.66,0.13 -0.67,0.11 -0.66,0.12 -0.67,0.11 -0.66,0.1 -0.67,0.11 -0.67,0.09 -0.67,0.1 -0.66,0.09 -0.67,0.08 -0.67,0.08 -0.67,0.08 -0.67,0.07 -0.68,0.07 -0.67,0.06 -0.67,0.06 -0.67,0.06 -0.67,0.05 -0.68,0.04 -0.67,0.05 -0.67,0.04 -0.68,0.03 -0.67,0.03 -0.68,0.02 -0.67,0.03 -0.67,0.01 -0.68,0.02 h -0.67 l -0.68,0.01 h -0.67 -0.68 l -0.67,-0.01 -0.68,-0.02 -0.67,-0.01 -0.67,-0.02 -0.68,-0.03 -0.67,-0.03 -0.68,-0.03 -0.67,-0.04 -0.67,-0.04 -0.68,-0.05 -0.67,-0.05 -0.67,-0.05 -0.67,-0.06 -0.67,-0.07 -0.67,-0.06 -0.68,-0.08 -0.67,-0.07 -0.67,-0.08 -0.66,-0.09 -0.67,-0.09 -0.67,-0.09 -0.67,-0.1 -0.67,-0.1 -0.66,-0.1 -0.67,-0.11 -0.66,-0.12 -0.67,-0.11 -0.66,-0.13 -0.66,-0.12 -0.66,-0.13 -0.67,-0.14 -0.66,-0.14 -0.65,-0.14 -0.66,-0.15 -0.66,-0.15 -0.66,-0.15 -0.65,-0.16 -0.66,-0.17 -0.65,-0.17 -0.65,-0.17 -0.65,-0.17 -0.65,-0.18 -0.65,-0.19 -0.65,-0.19 -0.65,-0.19 -0.64,-0.2 -0.65,-0.2 -0.64,-0.2 -0.64,-0.21 -0.64,-0.21 -0.64,-0.22 -0.64,-0.22 -0.63,-0.22 -0.64,-0.23 -0.63,-0.24 -0.63,-0.23 -0.63,-0.24 -0.63,-0.25 -0.63,-0.25 -0.62,-0.25 -0.63,-0.25 -0.62,-0.26 -0.62,-0.27 -0.62,-0.27 -0.62,-0.27 -0.61,-0.27 -0.62,-0.28 -0.61,-0.29 -0.61,-0.29 -0.61,-0.29 -0.6,-0.29 -0.61,-0.3 -0.6,-0.3 -0.6,-0.31 -0.6,-0.31 -0.6,-0.31 -0.59,-0.32 -0.6,-0.32 -0.59,-0.33 -0.59,-0.33 -0.58,-0.33 -0.59,-0.34 -0.58,-0.34 -0.58,-0.34 -0.58,-0.35 -0.57,-0.35 -0.58,-0.35 -0.57,-0.36 -0.57,-0.36 -0.57,-0.37 -0.56,-0.37 -0.56,-0.37 -0.56,-0.38 -0.56,-0.38 -0.56,-0.38 -0.55,-0.39 -0.55,-0.39 -0.55,-0.39 -0.54,-0.4 -0.55,-0.4 -0.54,-0.4 -0.53,-0.41 -0.54,-0.41 -0.53,-0.41 -0.53,-0.42 -0.53,-0.42 -0.52,-0.42 -0.53,-0.43 -0.52,-0.43 -0.51,-0.43 -0.52,-0.44 -0.51,-0.44 -0.51,-0.44 -0.5,-0.45 -0.51,-0.45 -0.5,-0.45 -0.49,-0.46 -0.5,-0.46 -0.49,-0.46 -0.49,-0.47 -0.48,-0.46 -0.48,-0.48 -0.48,-0.47 -0.48,-0.48 -0.47,-0.48 -0.47,-0.48 -0.47,-0.49 -0.47,-0.49 -0.46,-0.49 -0.46,-0.49 -0.45,-0.5 -0.45,-0.5 -0.45,-0.51 -0.45,-0.5 -0.44,-0.51 -0.44,-0.51 -0.43,-0.52 -0.44,-0.52 -0.43,-0.52 -0.42,-0.52 -0.43,-0.53 -0.41,-0.52 -0.42,-0.53 -0.41,-0.54 -0.41,-0.53 -0.41,-0.54 -0.4,-0.54 -0.4,-0.55 -0.4,-0.54 -0.39,-0.55 -0.39,-0.55 -0.38,-0.56 -0.39,-0.55 -0.37,-0.56 -0.38,-0.56 -0.37,-0.57 -0.37,-0.56 -0.36,-0.57 -0.36,-0.57 -0.36,-0.57 -0.35,-0.58 -0.35,-0.57 -0.35,-0.58 -0.34,-0.58 -0.34,-0.59 -0.34,-0.58 -0.33,-0.59 -0.33,-0.59 -0.32,-0.59 -0.32,-0.59 -0.32,-0.6 -0.31,-0.6 -0.31,-0.6 -0.31,-0.6 -0.3,-0.6 -0.3,-0.61 -0.29,-0.6 -0.29,-0.61 -0.29,-0.61 -0.28,-0.61 -0.28,-0.62 -0.27,-0.62 -0.27,-0.61 -0.27,-0.62 -0.26,-0.62 -0.26,-0.63 -0.26,-0.62 -0.25,-0.63 -0.25,-0.62 -0.24,-0.63 -0.24,-0.63 -0.23,-0.64 -0.24,-0.63 -0.22,-0.63 -0.23,-0.64 -0.22,-0.64 -0.21,-0.64 -0.21,-0.64 -0.21,-0.64 -0.2,-0.64 -0.2,-0.65 -0.2,-0.64 -0.19,-0.65 -0.19,-0.65 -0.18,-0.65 -0.18,-0.65 -0.17,-0.65 -0.17,-0.65 -0.17,-0.66 -0.16,-0.65 -0.16,-0.66 -0.16,-0.65 -0.15,-0.66 -0.14,-0.66 -0.14,-0.66 -0.14,-0.66 -0.14,-0.66 -0.12,-0.66 -0.13,-0.67 -0.12,-0.66 -0.12,-0.66 -0.11,-0.67 -0.11,-0.66 -0.1,-0.67 -0.1,-0.67 -0.1,-0.67 -0.09,-0.66 -0.09,-0.67 -0.08,-0.67 -0.08,-0.67 -0.08,-0.67 -0.07,-0.67 -0.06,-0.67 -0.06,-0.68 -0.06,-0.67 -0.06,-0.67 -0.05,-0.67 -0.04,-0.68 -0.04,-0.67 -0.04,-0.67 -0.03,-0.68 -0.03,-0.67 -0.02,-0.68 -0.02,-0.67 -0.02,-0.67 -0.01,-0.68 -0.01,-0.67 v -0.68 -0.67 l 0.01,-0.68 0.01,-0.67 0.01,-0.68 0.02,-0.67 0.02,-0.67 0.03,-0.68 0.03,-0.67 0.04,-0.68 0.04,-0.67 0.04,-0.67 0.05,-0.67 0.05,-0.68 0.06,-0.67 0.06,-0.67 0.06,-0.67 0.07,-0.67 0.07,-0.67 0.08,-0.67 0.08,-0.67 0.09,-0.67 0.09,-0.67 0.09,-0.67 0.1,-0.67 0.11,-0.66 0.1,-0.67 0.11,-0.66 0.12,-0.67 0.12,-0.66 0.12,-0.67 0.13,-0.66 0.13,-0.66 0.14,-0.66 0.14,-0.66 0.14,-0.66 0.15,-0.66 0.16,-0.65 0.15,-0.66 0.16,-0.66 0.17,-0.65 0.17,-0.65 0.17,-0.65 0.18,-0.66 0.18,-0.64 0.19,-0.65 0.19,-0.65 0.19,-0.65 0.2,-0.64 0.2,-0.65 0.21,-0.64 0.21,-0.64 0.21,-0.64 0.22,-0.64 0.22,-0.63 0.23,-0.64 0.23,-0.63 0.23,-0.64 0.24,-0.63 0.24,-0.63 0.25,-0.62 0.25,-0.63 0.25,-0.63 0.26,-0.62 0.26,-0.62 0.27,-0.62 0.27,-0.62 0.27,-0.62 0.28,-0.61 0.28,-0.61 0.28,-0.62 0.29,-0.6 0.3,-0.61 0.29,-0.61 0.3,-0.6 0.31,-0.6 0.31,-0.6 0.31,-0.6 0.31,-0.6 0.32,-0.59 0.32,-0.6 0.33,-0.59 0.33,-0.58 0.34,-0.59 0.33,-0.58 0.34,-0.59 0.35,-0.58 0.35,-0.57 0.35,-0.58 0.36,-0.57 0.36,-0.57 0.36,-0.57 0.37,-0.57 0.37,-0.56 0.37,-0.56 0.38,-0.56 0.38,-0.56 0.38,-0.55 0.39,-0.55 0.39,-0.55 0.4,-0.55 0.39,-0.55 0.41,-0.54 0.4,-0.54 0.41,-0.53 0.41,-0.54 0.42,-0.53 0.41,-0.53 0.43,-0.53 0.42,-0.52 0.43,-0.52 0.43,-0.52 0.44,-0.51 0.43,-0.52 0.45,-0.51 0.44,-0.5 0.45,-0.51 0.45,-0.5 0.45,-0.5 0.46,-0.5 0.46,-0.49 0.46,-0.49 0.47,-0.49 0.47,-0.48 0.47,-0.48 0.48,-0.48 0.48,-0.48 0.48,-0.47 0.48,-0.47 0.49,-0.46 0.49,-0.47 0.49,-0.46 0.5,-0.45 0.5,-0.46 0.5,-0.45 0.5,-0.45 0.51,-0.44 0.51,-0.44 0.52,-0.44 0.51,-0.44 0.52,-0.43 0.52,-0.42 0.52,-0.43 0.53,-0.42 0.53,-0.42 0.53,-0.41 0.54,-0.42 0.53,-0.4 0.54,-0.41 0.55,-0.4 0.54,-0.4 0.55,-0.39 0.55,-0.39 0.55,-0.39 0.55,-0.39 0.56,-0.38 0.56,-0.37 0.56,-0.38 0.56,-0.37 0.57,-0.36 0.57,-0.37 0.57,-0.36 0.57,-0.35 0.58,-0.35 0.58,-0.35 0.58,-0.35 0.58,-0.34 0.58,-0.34 0.59,-0.33 0.59,-0.33 0.59,-0.33 0.59,-0.32 0.59,-0.32 0.6,-0.32 0.6,-0.31 0.6,-0.3 0.6,-0.31 0.6,-0.3 0.61,-0.3 0.61,-0.29 0.61,-0.29 0.61,-0.28 0.61,-0.28 0.62,-0.28 0.61,-0.27 0.62,-0.27 0.62,-0.27 0.62,-0.26 0.63,-0.26 0.62,-0.25 0.63,-0.25 0.63,-0.25 0.63,-0.24 0.63,-0.24 0.63,-0.23 0.64,-0.23 0.63,-0.23 0.64,-0.22 0.64,-0.22 0.64,-0.21 0.64,-0.21 0.64,-0.21 0.64,-0.2 0.65,-0.2 0.64,-0.19 0.65,-0.19 0.65,-0.18 0.65,-0.19 0.65,-0.17 0.65,-0.18 0.66,-0.17 0.65,-0.16 0.65,-0.16 0.66,-0.16 0.66,-0.15 0.66,-0.15 0.65,-0.15 0.66,-0.14 0.66,-0.13 0.67,-0.13 0.66,-0.13 0.66,-0.13 0.67,-0.11 0.66,-0.12 0.67,-0.11 0.66,-0.11 0.67,-0.1 0.67,-0.1 0.66,-0.09 0.67,-0.09 0.67,-0.09 0.67,-0.08 0.67,-0.08 0.67,-0.07 0.67,-0.07 0.67,-0.07 0.68,-0.06 0.67,-0.05 0.67,-0.05 0.67,-0.05 0.68,-0.05 0.67,-0.04 0.67,-0.03 0.68,-0.03 0.67,-0.03 0.68,-0.02 0.67,-0.02 0.67,-0.01 0.68,-0.01 0.67,-0.01 h 0.68 0.67 l 0.68,0.01 0.67,0.01 0.68,0.02 0.67,0.02 0.67,0.02 0.68,0.03 0.67,0.03 0.68,0.04 0.67,0.04 0.67,0.05 0.67,0.05 0.68,0.05 0.67,0.06 0.67,0.06 0.67,0.07 0.67,0.07 0.67,0.07 0.67,0.08 0.67,0.09 0.67,0.08 0.67,0.09 0.67,0.1 0.66,0.1 0.67,0.11 0.67,0.1 0.66,0.12 0.67,0.11 0.66,0.13 0.66,0.12 0.66,0.13 0.67,0.13 0.66,0.14 0.66,0.14 0.65,0.15 0.66,0.15 0.66,0.15 0.65,0.16 0.66,0.17 0.65,0.16 0.65,0.17 0.66,0.18 0.65,0.18 0.65,0.18 0.64,0.19 0.65,0.19 0.65,0.19 0.64,0.2 0.64,0.21 0.65,0.21 0.64,0.21 0.64,0.21 0.63,0.22 0.64,0.23 0.63,0.22 0.64,0.23 0.63,0.24 0.63,0.24 0.63,0.24 0.63,0.25 0.62,0.25 0.63,0.26 0.62,0.26 0.62,0.26 0.62,0.27 0.62,0.27 0.61,0.27 0.62,0.28 0.61,0.28 0.61,0.29 0.61,0.29 0.61,0.3 0.6,0.29 0.61,0.31 0.6,0.3 0.6,0.31 0.59,0.31 0.6,0.32 0.59,0.32 0.6,0.33 0.58,0.32 -52.42,93.51 z"
   style="fill:#e31a1c;fill-opacity:1;fill-rule:nonzero;stroke:none"
   id="path122"
   inkscape:connector-curvature="0" /><path
   d="m 759.7,563.49 0.61,0.34 0.59,0.35 0.6,0.34 0.6,0.36 0.59,0.35 0.59,0.36 0.59,0.36 0.58,0.37 0.59,0.37 0.58,0.37 0.57,0.38 0.58,0.38 0.57,0.39 0.57,0.39 0.57,0.39 0.57,0.39 0.56,0.4 0.56,0.41 0.56,0.4 0.56,0.41 0.55,0.42 0.55,0.42 0.55,0.42 0.54,0.42 0.54,0.43 0.54,0.43 0.54,0.44 0.53,0.44 0.53,0.44 0.53,0.44 0.52,0.45 0.53,0.46 0.51,0.45 0.52,0.46 0.51,0.46 0.51,0.47 0.51,0.47 0.51,0.47 0.5,0.47 0.49,0.48 0.5,0.48 0.49,0.49 0.49,0.49 0.49,0.49 0.48,0.49 0.48,0.5 0.47,0.5 -77.92,73.62 z"
   style="fill:#fdbf6f;fill-opacity:1;fill-rule:nonzero;stroke:none"
   id="path124"
   inkscape:connector-curvature="0" /><path
   d="m 785.2,583.38 0.48,0.51 0.47,0.51 0.47,0.51 0.47,0.52 0.46,0.52 0.46,0.52 0.46,0.52 0.45,0.53 0.45,0.53 0.44,0.54 0.44,0.53 0.44,0.54 0.44,0.55 0.43,0.54 0.43,0.55 0.42,0.55 0.42,0.56 0.42,0.55 0.41,0.56 0.41,0.56 0.41,0.57 0.4,0.56 0.4,0.57 0.4,0.58 0.39,0.57 0.39,0.58 0.38,0.58 0.38,0.58 0.38,0.59 0.37,0.58 0.37,0.59 0.37,0.6 0.36,0.59 0.35,0.6 0.36,0.6 -92.5,54.18 z"
   style="fill:#ff7f00;fill-opacity:1;fill-rule:nonzero;stroke:none"
   id="path126"
   inkscape:connector-curvature="0" /><path
   d="m 799.78,602.82 0.34,0.59 0.34,0.59 0.34,0.6 0.33,0.6 0.33,0.6 0.33,0.6 0.32,0.6 0.31,0.61 0.32,0.61 0.31,0.61 0.3,0.61 0.3,0.61 0.3,0.62 0.3,0.62 0.29,0.62 0.28,0.62 0.28,0.62 0.28,0.63 0.27,0.63 0.27,0.63 0.27,0.63 0.26,0.63 0.26,0.63 0.25,0.64 0.25,0.64 0.25,0.63 0.24,0.64 0.24,0.65 0.23,0.64 0.23,0.64 0.23,0.65 0.22,0.65 0.21,0.65 0.22,0.65 0.21,0.65 0.2,0.65 0.2,0.66 0.2,0.65 0.19,0.66 0.19,0.66 0.18,0.66 0.18,0.66 0.17,0.66 0.17,0.66 0.17,0.67 0.16,0.66 0.16,0.67 0.15,0.66 0.15,0.67 0.15,0.67 0.14,0.67 0.14,0.67 0.13,0.67 0.13,0.68 0.12,0.67 0.12,0.67 0.12,0.68 0.11,0.67 0.1,0.68 0.11,0.68 0.09,0.67 0.1,0.68 0.09,0.68 0.08,0.68 0.08,0.68 0.08,0.68 0.07,0.68 0.07,0.68 0.06,0.68 0.06,0.68 0.06,0.69 0.05,0.68 0.04,0.68 0.04,0.68 0.04,0.69 0.03,0.68 0.03,0.68 0.03,0.69 0.02,0.68 0.01,0.69 0.01,0.68 0.01,0.69 V 657 h -107.2 z"
   style="fill:#cab2d6;fill-opacity:1;fill-rule:nonzero;stroke:none"
   id="path128"
   inkscape:connector-curvature="0" /><text
   transform="scale(1,-1)"
   style="font-style:normal;font-variant:normal;font-weight:600;font-stretch:normal;font-size:48px;font-family:'URW Gothic L';-inkscape-font-specification:'URW Gothic L, Semi-Bold';font-variant-ligatures:normal;font-variant-caps:normal;font-variant-numeric:normal;font-feature-settings:normal;text-align:start;writing-mode:lr-tb;text-anchor:start;fill:#ffffff;fill-opacity:1;fill-rule:nonzero;stroke:#000000;stroke-width:1.52474999;stroke-miterlimit:4;stroke-dasharray:none;stroke-opacity:1"
   id="text132"
   x="696.15997"
   y="-642.79999"><tspan
     x="696.15997"
     y="-642.79999"
     id="tspan130"
     style="font-style:normal;font-variant:normal;font-weight:600;font-stretch:normal;font-size:48px;font-family:'URW Gothic L';-inkscape-font-specification:'URW Gothic L, Semi-Bold';font-variant-ligatures:normal;font-variant-caps:normal;font-variant-numeric:normal;font-feature-settings:normal;text-align:start;writing-mode:lr-tb;text-anchor:start;fill:#ffffff;fill-opacity:1;stroke:#000000;stroke-width:1.52474999;stroke-miterlimit:4;stroke-dasharray:none;stroke-opacity:1">4</tspan></text>

<path
   d="m 586.54,429 v 0 h -107.2 z"
   style="fill:#000000;fill-opacity:1;fill-rule:nonzero;stroke:none"
   id="path142"
   inkscape:connector-curvature="0" /><path
   d="m 586.54,429 v 0 h -107.2 z"
   style="fill:#a6cee3;fill-opacity:1;fill-rule:nonzero;stroke:none"
   id="path144"
   inkscape:connector-curvature="0" /><path
   d="m 586.54,429 v 0 h -107.2 z"
   style="fill:#1f78b4;fill-opacity:1;fill-rule:nonzero;stroke:none"
   id="path146"
   inkscape:connector-curvature="0" /><path
   d="m 586.54,429 v 0 h -107.2 z"
   style="fill:#b2df8a;fill-opacity:1;fill-rule:nonzero;stroke:none"
   id="path148"
   inkscape:connector-curvature="0" /><path
   d="m 586.54,429 v 0.68 l -0.01,0.67 -0.01,0.68 -0.01,0.67 -0.02,0.68 -0.03,0.67 -0.02,0.68 -0.04,0.67 -0.03,0.68 -0.04,0.67 -0.05,0.68 -0.05,0.67 -0.05,0.67 -0.06,0.68 -0.06,0.67 -0.06,0.67 -0.07,0.68 -0.08,0.67 -0.08,0.67 -0.08,0.67 -0.09,0.67 -0.09,0.67 -0.09,0.67 -0.1,0.67 -0.11,0.66 -0.11,0.67 -0.11,0.67 -0.12,0.66 -0.12,0.67 -0.12,0.66 -0.13,0.66 -0.13,0.67 -0.14,0.66 -0.14,0.66 -0.15,0.66 -0.15,0.66 -0.15,0.66 -0.16,0.65 -0.16,0.66 -0.17,0.65 -0.17,0.66 -0.17,0.65 -0.18,0.65 -0.19,0.65 -0.18,0.65 -0.19,0.65 -0.2,0.65 -0.2,0.64 -0.2,0.65 -0.21,0.64 -0.21,0.64 -0.22,0.64 -0.22,0.64 -0.22,0.64 -0.23,0.63 -0.23,0.64 -0.24,0.63 -0.23,0.63 -0.25,0.63 -0.25,0.63 -0.25,0.63 -0.25,0.63 -0.26,0.62 -0.27,0.62 -0.26,0.62 -0.27,0.62 -0.28,0.62 -0.28,0.61 -0.28,0.62 -0.29,0.61 -0.29,0.61 -0.29,0.61 -0.3,0.61 -0.3,0.6 -0.31,0.6 -0.31,0.6 -0.31,0.6 -0.32,0.6 -0.32,0.59 -0.32,0.6 -0.33,0.59 -0.33,0.58 -0.34,0.59 -0.34,0.59 -0.34,0.58 -0.35,0.58 -0.35,0.58 -0.35,0.57 -0.36,0.57 -0.36,0.57 -0.37,0.57 -0.37,0.57 -0.37,0.56 -0.37,0.57 -0.38,0.56 -0.39,0.55 -0.38,0.56 -0.39,0.55 -0.39,0.55 -0.4,0.55 -0.4,0.54 -0.4,0.54 -0.41,0.54 -0.41,0.54 -0.41,0.53 -0.42,0.53 -0.42,0.53 -0.43,0.53 -0.42,0.52 -0.43,0.52 -0.44,0.52 -0.43,0.52 -0.44,0.51 -0.45,0.51 -0.44,0.51 -0.45,0.5 -0.46,0.5 -0.45,0.5 -0.46,0.5 -0.46,0.49 -0.47,0.49 -0.47,0.49 -0.47,0.48 -0.47,0.48 -0.48,0.48 -0.48,0.48 -0.48,0.47 -0.49,0.47 -0.49,0.46 -0.49,0.47 -0.5,0.46 -0.5,0.45 -0.5,0.46 -0.5,0.45 -0.51,0.44 -0.51,0.45 -0.51,0.44 -0.51,0.44 -0.52,0.43 -0.52,0.43 -0.52,0.43 -0.53,0.42 -0.53,0.42 -0.53,0.42 -0.53,0.42 -0.54,0.41 -0.54,0.4 -0.54,0.41 -0.55,0.4 -0.54,0.4 -0.55,0.39 -0.55,0.39 -0.56,0.39 -0.55,0.38 -0.56,0.38 -0.56,0.38 -0.57,0.37 -0.56,0.37 -0.57,0.36 -0.57,0.37 -0.57,0.36 -0.58,0.35 -0.58,0.35 -0.58,0.35 -0.58,0.34 -0.58,0.34 -0.59,0.34 -0.59,0.33 -0.59,0.33 -0.59,0.33 -0.59,0.32 -0.6,0.32 -0.6,0.31 -0.6,0.31 -0.6,0.31 -0.6,0.3 -0.61,0.3 -0.61,0.29 -0.61,0.3 -0.61,0.28 -0.61,0.29 -0.62,0.28 -0.61,0.27 -0.62,0.27 -0.62,0.27 -0.63,0.27 -0.62,0.26 -0.62,0.25 -0.63,0.25 -0.63,0.25 -0.63,0.25 -0.63,0.24 -0.63,0.23 -0.64,0.24 -0.63,0.22 -0.64,0.23 -0.64,0.22 -0.64,0.22 -0.64,0.21 -0.64,0.21 -0.65,0.2 -0.64,0.2 -0.65,0.2 -0.65,0.19 -0.65,0.19 -0.65,0.18 -0.65,0.18 -0.65,0.18 -0.66,0.17 -0.65,0.16 -0.66,0.17 -0.65,0.16 -0.66,0.15 -0.66,0.15 -0.66,0.15 -0.66,0.14 -0.66,0.14 -0.66,0.13 -0.67,0.13 -0.66,0.13 -0.66,0.12 -0.67,0.12 -0.67,0.11 -0.66,0.11 -0.67,0.11 -0.67,0.1 -0.67,0.09 -0.67,0.09 -0.67,0.09 -0.67,0.09 -0.67,0.08 -0.67,0.07 -0.67,0.07 -0.67,0.07 -0.68,0.06 -0.67,0.06 -0.67,0.05 -0.68,0.05 -0.67,0.05 -0.68,0.04 -0.67,0.04 -0.68,0.03 -0.67,0.03 -0.68,0.02 -0.67,0.02 -0.68,0.02 -0.67,0.01 -0.68,0.01 h -0.67 -0.68 l -0.68,-0.01 -0.67,-0.01 -0.68,-0.01 -0.67,-0.02 -0.68,-0.02 -0.67,-0.03 -0.68,-0.03 -0.67,-0.03 -0.68,-0.04 -0.67,-0.05 -0.68,-0.05 -0.67,-0.05 -0.67,-0.06 -0.68,-0.06 -0.67,-0.06 -0.67,-0.07 -0.67,-0.07 -0.67,-0.08 -0.67,-0.08 -0.67,-0.09 -0.67,-0.09 -0.67,-0.1 -0.67,-0.09 -0.67,-0.11 -0.67,-0.1 -0.66,-0.12 -0.67,-0.11 -0.66,-0.12 -0.67,-0.13 -0.66,-0.12 -0.66,-0.14 -0.67,-0.13 -0.66,-0.14 -0.66,-0.15 -0.66,-0.15 -0.65,-0.15 -0.66,-0.16 -0.66,-0.16 -0.65,-0.17 -0.66,-0.17 -0.65,-0.17 -0.65,-0.18 -0.65,-0.18 -0.65,-0.19 -0.65,-0.19 -0.65,-0.19 -0.64,-0.2 -0.65,-0.2 -0.64,-0.21 -0.64,-0.21 -0.64,-0.21 -0.64,-0.22 -0.64,-0.23 -0.64,-0.22 -0.63,-0.23 -0.64,-0.24 -0.63,-0.24 -0.63,-0.24 -0.63,-0.25 -0.63,-0.25 -0.62,-0.25 -0.63,-0.26 -0.62,-0.26 -0.62,-0.27 -0.62,-0.27 -0.62,-0.27 -0.61,-0.28 -0.62,-0.28 -0.61,-0.29 -0.61,-0.29 -0.61,-0.29 -0.6,-0.3 -0.61,-0.3 -0.6,-0.31 -0.6,-0.31 -0.6,-0.31 -0.6,-0.31 -0.59,-0.32 -0.6,-0.33 -0.59,-0.33 -0.59,-0.33 -0.58,-0.33 -0.59,-0.34 -0.58,-0.34 -0.58,-0.35 -0.58,-0.35 -0.58,-0.35 -0.57,-0.36 -0.57,-0.36 -0.57,-0.36 -0.57,-0.37 -0.56,-0.37 -0.56,-0.38 -0.56,-0.38 -0.56,-0.38 -0.56,-0.38 -0.55,-0.39 -0.55,-0.4 -0.55,-0.39 -0.54,-0.4 -0.54,-0.4 -0.54,-0.41 -0.54,-0.41 -0.54,-0.41 -0.53,-0.42 -0.53,-0.42 -0.53,-0.42 -0.52,-0.43 -0.52,-0.43 -0.52,-0.43 -0.52,-0.44 -0.51,-0.43 -0.51,-0.45 -0.51,-0.44 -0.5,-0.45 -0.5,-0.45 -0.5,-0.46 -0.5,-0.46 -0.49,-0.46 -0.49,-0.46 -0.49,-0.47 -0.49,-0.47 -0.48,-0.48 -0.48,-0.47 -0.47,-0.48 -0.48,-0.49 -0.47,-0.48 -0.46,-0.49 -0.47,-0.49 -0.46,-0.5 -0.45,-0.5 -0.46,-0.5 -0.45,-0.5 -0.45,-0.51 -0.44,-0.5 -0.44,-0.52 -0.44,-0.51 -0.43,-0.52 -0.44,-0.52 -0.42,-0.52 -0.43,-0.53 -0.42,-0.52 -0.42,-0.53 -0.41,-0.54 -0.42,-0.53 -0.4,-0.54 -0.41,-0.54 -0.4,-0.55 -0.4,-0.54 -0.39,-0.55 -0.39,-0.55 -0.39,-0.56 -0.38,-0.55 -0.39,-0.56 -0.37,-0.56 -0.38,-0.56 -0.37,-0.57 -0.36,-0.57 -0.36,-0.57 -0.36,-0.57 -0.36,-0.57 -0.35,-0.58 -0.35,-0.58 -0.34,-0.58 -0.35,-0.59 -0.33,-0.58 -0.34,-0.59 -0.33,-0.59 -0.32,-0.59 -0.32,-0.59 -0.32,-0.6 -0.32,-0.6 -0.31,-0.6 -0.31,-0.6 -0.3,-0.6 -0.3,-0.61 -0.3,-0.61 -0.29,-0.61 -0.29,-0.61 -0.28,-0.61 -0.28,-0.61 -0.28,-0.62 -0.27,-0.62 -0.27,-0.62 -0.26,-0.62 -0.26,-0.62 -0.26,-0.63 -0.25,-0.63 -0.25,-0.62 -0.25,-0.63 -0.24,-0.63 -0.24,-0.64 -0.23,-0.63 -0.23,-0.64 -0.22,-0.63 -0.23,-0.64 -0.21,-0.64 -0.22,-0.64 -0.2,-0.65 -0.21,-0.64 -0.2,-0.65 -0.2,-0.64 -0.19,-0.65 -0.19,-0.65 -0.18,-0.65 -0.18,-0.65 -0.18,-0.65 -0.17,-0.66 -0.17,-0.65 -0.17,-0.65 -0.15,-0.66 -0.16,-0.66 -0.15,-0.66 -0.15,-0.66 -0.14,-0.66 -0.14,-0.66 -0.14,-0.66 -0.13,-0.66 -0.12,-0.67 -0.13,-0.66 -0.12,-0.67 -0.11,-0.66 -0.11,-0.67 -0.1,-0.67 -0.11,-0.67 -0.09,-0.66 -0.1,-0.67 -0.08,-0.67 -0.09,-0.67 -0.08,-0.67 -0.08,-0.68 -0.07,-0.67 -0.07,-0.67 -0.06,-0.67 -0.06,-0.68 -0.05,-0.67 -0.05,-0.67 -0.05,-0.68 -0.04,-0.67 -0.04,-0.68 -0.03,-0.67 -0.03,-0.68 -0.03,-0.67 -0.02,-0.68 -0.02,-0.67 -0.01,-0.68 -0.01,-0.67 v -0.68 -0.68 l 0.01,-0.67 v -0.68 l 0.02,-0.67 0.02,-0.68 0.02,-0.67 0.02,-0.68 0.03,-0.67 0.04,-0.68 0.04,-0.67 0.04,-0.68 0.05,-0.67 0.05,-0.68 0.05,-0.67 0.06,-0.67 0.07,-0.67 0.07,-0.68 0.07,-0.67 0.08,-0.67 0.08,-0.67 0.08,-0.67 0.09,-0.67 0.1,-0.67 0.09,-0.67 0.11,-0.67 0.1,-0.66 0.11,-0.67 0.12,-0.67 0.12,-0.66 0.12,-0.67 0.13,-0.66 0.13,-0.66 0.14,-0.66 0.14,-0.66 0.14,-0.66 0.15,-0.66 104.51,23.85 z"
   style="fill:#33a02c;fill-opacity:1;fill-rule:nonzero;stroke:none"
   id="path150"
   inkscape:connector-curvature="0" /><path
   d="m 374.83,405.15 0.18,-0.79 0.19,-0.78 0.19,-0.77 0.2,-0.78 0.2,-0.78 0.21,-0.77 0.22,-0.77 0.22,-0.77 0.23,-0.77 0.23,-0.77 102.44,31.6 z"
   style="fill:#e31a1c;fill-opacity:1;fill-rule:nonzero;stroke:none"
   id="path152"
   inkscape:connector-curvature="0" /><path
   d="m 376.9,397.4 0.2,-0.64 0.21,-0.65 0.21,-0.64 0.21,-0.65 0.22,-0.64 0.22,-0.64 0.23,-0.63 0.23,-0.64 0.23,-0.64 0.24,-0.63 0.24,-0.63 0.25,-0.63 0.25,-0.63 0.25,-0.63 0.26,-0.63 0.26,-0.62 0.27,-0.62 0.27,-0.62 0.27,-0.62 0.28,-0.62 0.28,-0.62 0.29,-0.61 0.29,-0.61 0.29,-0.61 0.29,-0.61 0.31,-0.61 0.3,-0.6 0.31,-0.61 0.31,-0.6 0.32,-0.59 0.32,-0.6 0.32,-0.6 0.33,-0.59 0.33,-0.59 0.33,-0.59 0.34,-0.58 0.34,-0.59 0.35,-0.58 0.35,-0.58 0.35,-0.58 0.36,-0.57 0.36,-0.58 0.36,-0.57 0.37,-0.57 0.37,-0.56 0.38,-0.57 0.37,-0.56 0.39,-0.56 0.38,-0.55 0.39,-0.56 0.39,-0.55 0.4,-0.55 0.4,-0.55 0.4,-0.54 0.41,-0.54 0.41,-0.54 0.41,-0.54 0.42,-0.53 0.42,-0.53 0.42,-0.53 0.42,-0.53 0.43,-0.52 0.44,-0.52 0.43,-0.52 0.44,-0.51 0.45,-0.52 0.44,-0.5 0.45,-0.51 0.45,-0.5 0.46,-0.51 0.46,-0.49 0.46,-0.5 0.46,-0.49 0.47,-0.49 0.47,-0.49 0.48,-0.48 0.48,-0.48 0.48,-0.48 0.48,-0.47 0.49,-0.47 0.48,-0.47 0.5,-0.46 0.49,-0.47 0.5,-0.45 0.5,-0.46 0.5,-0.45 0.51,-0.45 0.51,-0.45 0.51,-0.44 0.52,-0.44 0.52,-0.44 0.52,-0.43 0.52,-0.43 0.53,-0.42 0.52,-0.43 0.54,-0.42 0.53,-0.41 0.54,-0.42 0.54,-0.41 0.54,-0.4 0.54,-0.4 0.55,-0.4 0.55,-0.4 0.55,-0.39 0.55,-0.39 0.56,-0.39 0.56,-0.38 0.56,-0.38 0.57,-0.37 0.56,-0.37 0.57,-0.37 0.57,-0.36 0.57,-0.36 0.58,-0.36 0.58,-0.35 0.58,-0.35 0.58,-0.35 0.58,-0.34 0.59,-0.34 0.59,-0.33 0.59,-0.33 0.59,-0.33 0.6,-0.32 0.59,-0.32 0.6,-0.32 0.6,-0.31 0.61,-0.31 0.6,-0.3 0.61,-0.3 0.61,-0.3 0.61,-0.29 0.61,-0.29 0.61,-0.29 0.62,-0.28 0.62,-0.28 0.62,-0.27 0.62,-0.27 0.62,-0.27 0.62,-0.26 0.63,-0.26 0.63,-0.25 0.63,-0.25 0.63,-0.24 0.63,-0.25 0.63,-0.23 0.64,-0.24 0.64,-0.23 0.63,-0.22 0.64,-0.23 0.64,-0.21 0.65,-0.22 0.64,-0.21 0.65,-0.2 0.64,-0.2 0.65,-0.2 0.65,-0.19 0.65,-0.19 0.65,-0.19 0.65,-0.18 0.66,-0.18 0.65,-0.17 0.66,-0.17 0.65,-0.16 0.66,-0.16 0.66,-0.16 0.66,-0.15 0.66,-0.15 0.66,-0.14 0.66,-0.14 0.67,-0.14 0.66,-0.13 0.67,-0.12 0.66,-0.13 0.67,-0.12 0.67,-0.11 0.66,-0.11 0.67,-0.11 0.67,-0.1 0.67,-0.09 0.67,-0.1 0.67,-0.09 0.68,-0.08 0.67,-0.08 0.67,-0.08 0.67,-0.07 0.68,-0.07 0.67,-0.06 0.68,-0.06 0.67,-0.05 0.68,-0.06 0.67,-0.04 0.68,-0.04 0.67,-0.04 0.68,-0.03 0.68,-0.03 0.67,-0.03 0.68,-0.02 0.68,-0.02 0.67,-0.01 0.68,-0.01 h 0.68 0.67 l 0.68,0.01 0.68,0.01 0.68,0.01 0.67,0.02 0.68,0.02 0.68,0.02 0.67,0.04 0.68,0.03 0.67,0.04 0.68,0.04 0.67,0.05 0.68,0.05 0.67,0.06 0.68,0.06 0.67,0.06 0.68,0.07 0.67,0.08 0.67,0.07 0.67,0.08 0.68,0.09 0.67,0.09 0.67,0.1 0.67,0.09 0.67,0.11 0.66,0.1 0.67,0.12 0.67,0.11 0.67,0.12 0.66,0.12 0.67,0.13 0.66,0.14 0.66,0.13 0.67,0.14 0.66,0.15 0.66,0.15 0.66,0.15 0.65,0.16 0.66,0.16 0.66,0.16 0.65,0.17 0.66,0.18 0.65,0.18 0.65,0.18 0.65,0.19 0.65,0.19 0.65,0.19 0.65,0.2 0.65,0.2 0.64,0.21 0.64,0.21 0.65,0.21 0.64,0.22 0.64,0.23 0.63,0.22 0.64,0.23 0.63,0.24 0.64,0.24 0.63,0.24 0.63,0.25 0.63,0.25 0.63,0.26 0.62,0.25 0.63,0.27 0.62,0.26 0.62,0.27 0.62,0.28 0.61,0.28 0.62,0.28 0.61,0.29 0.61,0.29 0.61,0.29 0.61,0.3 0.61,0.3 0.6,0.31 0.6,0.31 0.6,0.31 0.6,0.32 0.6,0.32 0.59,0.32 0.6,0.33 0.59,0.33 0.58,0.34 0.59,0.34 0.58,0.34 0.58,0.35 0.58,0.35 0.58,0.35 0.58,0.36 0.57,0.36 0.57,0.37 0.57,0.36 0.56,0.38 0.56,0.37 0.57,0.38 0.55,0.38 0.56,0.39 0.55,0.39 0.55,0.39 0.55,0.4 0.55,0.4 0.54,0.4 0.54,0.41 0.54,0.41 0.54,0.42 0.53,0.41 0.53,0.42 0.53,0.43 0.52,0.43 0.53,0.43 0.52,0.43 0.51,0.44 0.52,0.44 0.51,0.44 0.51,0.45 0.5,0.45 0.51,0.45 0.5,0.46 0.49,0.46 0.5,0.46 0.49,0.47 0.49,0.47 0.48,0.47 0.48,0.47 0.48,0.48 0.48,0.48 0.47,0.49 0.47,0.48 0.47,0.49 0.46,0.5 0.47,0.49 0.45,0.5 0.46,0.5 0.45,0.51 0.45,0.5 0.44,0.51 0.44,0.52 0.44,0.51 0.44,0.52 0.43,0.52 0.43,0.53 0.42,0.52 0.43,0.53 0.41,0.54 0.42,0.53 0.41,0.54 0.41,0.54 0.41,0.54 0.4,0.54 0.4,0.55 0.39,0.55 0.39,0.55 0.39,0.56 0.38,0.56 0.38,0.56 0.38,0.56 0.37,0.56 0.38,0.57 0.36,0.57 0.36,0.57 0.36,0.58 0.36,0.57 0.35,0.58 0.35,0.58 0.34,0.58 0.34,0.59 0.34,0.59 0.34,0.58 0.33,0.6 0.32,0.59 0.32,0.59 0.32,0.6 0.32,0.6 0.31,0.6 0.31,0.61 0.3,0.6 0.3,0.61 0.29,0.61 -96.58,46.51 z"
   style="fill:#fdbf6f;fill-opacity:1;fill-rule:nonzero;stroke:none"
   id="path154"
   inkscape:connector-curvature="0" /><path
   d="m 575.92,382.49 0.3,0.62 0.29,0.62 0.29,0.62 0.28,0.63 0.29,0.63 0.27,0.63 0.27,0.63 0.27,0.63 0.27,0.64 0.26,0.63 0.25,0.64 0.25,0.64 0.25,0.64 0.24,0.64 0.24,0.65 0.24,0.64 0.23,0.65 0.23,0.65 0.22,0.65 0.22,0.65 0.21,0.65 0.21,0.66 0.21,0.65 0.2,0.66 0.2,0.66 0.19,0.66 0.19,0.66 0.19,0.66 0.18,0.66 0.17,0.67 0.18,0.66 0.16,0.67 0.17,0.67 0.16,0.67 0.15,0.67 0.15,0.67 0.15,0.67 0.14,0.67 0.14,0.67 0.13,0.68 0.13,0.67 0.13,0.68 0.12,0.68 0.11,0.67 0.12,0.68 0.1,0.68 0.11,0.68 0.1,0.68 0.09,0.68 0.09,0.68 0.09,0.68 0.08,0.69 0.07,0.68 0.08,0.68 0.06,0.69 0.07,0.68 0.06,0.69 0.05,0.68 0.05,0.69 0.05,0.68 0.04,0.69 0.04,0.68 0.03,0.69 0.03,0.69 0.02,0.68 0.02,0.69 0.02,0.69 0.01,0.69 0.01,0.68 V 429 h -107.2 z"
   style="fill:#ff7f00;fill-opacity:1;fill-rule:nonzero;stroke:none"
   id="path156"
   inkscape:connector-curvature="0" /><path
   d="m 586.54,429 v 0 h -107.2 z"
   style="fill:#cab2d6;fill-opacity:1;fill-rule:nonzero;stroke:none"
   id="path158"
   inkscape:connector-curvature="0" /><text
   transform="scale(1,-1)"
   style="font-style:normal;font-variant:normal;font-weight:600;font-stretch:normal;font-size:48px;font-family:'URW Gothic L';-inkscape-font-specification:'URW Gothic L, Semi-Bold';font-variant-ligatures:normal;font-variant-caps:normal;font-variant-numeric:normal;font-feature-settings:normal;text-align:start;writing-mode:lr-tb;text-anchor:start;fill:#ffffff;fill-opacity:1;fill-rule:nonzero;stroke:#000000;stroke-width:1.52474999;stroke-miterlimit:4;stroke-dasharray:none;stroke-opacity:1"
   id="text162"
   x="468.22"
   y="-415.42001"><tspan
     x="468.22"
     y="-415.42001"
     id="tspan160"
     style="font-style:normal;font-variant:normal;font-weight:600;font-stretch:normal;font-size:48px;font-family:'URW Gothic L';-inkscape-font-specification:'URW Gothic L, Semi-Bold';font-variant-ligatures:normal;font-variant-caps:normal;font-variant-numeric:normal;font-feature-settings:normal;text-align:start;writing-mode:lr-tb;text-anchor:start;fill:#ffffff;fill-opacity:1;stroke:#000000;stroke-width:1.52474999;stroke-miterlimit:4;stroke-dasharray:none;stroke-opacity:1">5</tspan></text>

<path
   d="m 814.48,429 v 0.84 l -0.01,0.84 -0.02,0.85 -0.02,0.84 -0.03,0.84 L 707.28,429 Z"
   style="fill:#000000;fill-opacity:1;fill-rule:nonzero;stroke:none"
   id="path172"
   inkscape:connector-curvature="0" /><path
   d="m 814.4,433.21 v 0 L 707.28,429 Z"
   style="fill:#a6cee3;fill-opacity:1;fill-rule:nonzero;stroke:none"
   id="path174"
   inkscape:connector-curvature="0" /><path
   d="m 814.4,433.21 -0.03,0.74 -0.04,0.74 -0.04,0.74 -0.05,0.75 -0.05,0.74 -0.06,0.74 -0.06,0.74 -0.07,0.74 -0.07,0.74 -0.08,0.74 -0.08,0.73 -0.09,0.74 -0.1,0.74 -0.09,0.74 -0.11,0.73 -0.11,0.74 -0.11,0.73 L 707.28,429 Z"
   style="fill:#1f78b4;fill-opacity:1;fill-rule:nonzero;stroke:none"
   id="path176"
   inkscape:connector-curvature="0" /><path
   d="m 813.16,445.77 v 0 L 707.28,429 Z"
   style="fill:#b2df8a;fill-opacity:1;fill-rule:nonzero;stroke:none"
   id="path178"
   inkscape:connector-curvature="0" /><path
   d="m 813.16,445.77 -0.12,0.76 -0.13,0.75 -0.13,0.75 -0.14,0.76 -0.15,0.75 -0.15,0.75 -0.15,0.75 -0.16,0.75 -0.17,0.74 -0.17,0.75 -0.17,0.75 L 707.28,429 Z"
   style="fill:#33a02c;fill-opacity:1;fill-rule:nonzero;stroke:none"
   id="path180"
   inkscape:connector-curvature="0" /><path
   d="m 811.52,454.03 -0.16,0.65 -0.17,0.66 -0.16,0.66 -0.18,0.65 -0.17,0.65 -0.18,0.66 -0.19,0.65 -0.19,0.65 -0.19,0.65 -0.2,0.64 -0.2,0.65 -0.21,0.64 -0.21,0.65 -0.21,0.64 -0.22,0.64 -0.22,0.64 -0.22,0.64 -0.23,0.64 -0.24,0.63 -0.23,0.64 -0.25,0.63 -0.24,0.63 -0.25,0.63 -0.25,0.63 -0.26,0.62 -0.26,0.63 -0.27,0.62 -0.27,0.62 -0.27,0.62 -0.28,0.62 -0.28,0.61 -0.29,0.62 -0.28,0.61 -0.3,0.61 -0.29,0.61 -0.3,0.6 -0.31,0.61 -0.31,0.6 -0.31,0.6 -0.31,0.6 -0.32,0.6 -0.33,0.59 -0.32,0.6 -0.33,0.59 -0.34,0.59 -0.34,0.58 -0.34,0.59 -0.34,0.58 -0.35,0.58 -0.36,0.58 -0.35,0.57 -0.36,0.57 -0.37,0.58 -0.36,0.56 -0.37,0.57 -0.38,0.56 -0.38,0.57 -0.38,0.56 -0.38,0.55 -0.39,0.56 -0.39,0.55 -0.4,0.55 -0.4,0.54 -0.4,0.55 -0.41,0.54 -0.41,0.54 -0.41,0.54 -0.41,0.53 -0.42,0.53 -0.43,0.53 -0.42,0.53 -0.43,0.52 -0.43,0.52 -0.44,0.52 -0.44,0.51 -0.44,0.52 -0.45,0.51 -0.45,0.5 -0.45,0.51 -0.45,0.5 -0.46,0.5 -0.46,0.49 -0.47,0.49 -0.47,0.49 -0.47,0.49 -0.47,0.48 -0.48,0.48 -0.48,0.48 -0.48,0.47 -0.49,0.47 -0.49,0.47 -0.49,0.47 -0.49,0.46 -0.5,0.46 -0.5,0.45 -0.5,0.46 -0.51,0.45 -0.51,0.44 -0.51,0.45 -0.52,0.43 -0.51,0.44 -0.52,0.43 -0.53,0.43 -0.52,0.43 -0.53,0.42 -0.53,0.42 -0.54,0.42 -0.53,0.41 -0.54,0.41 -0.54,0.41 -0.55,0.4 -0.54,0.4 -0.55,0.4 -0.55,0.39 -0.56,0.39 -0.55,0.38 -0.56,0.39 -0.56,0.37 -0.57,0.38 -0.56,0.37 -0.57,0.37 -0.57,0.36 -0.58,0.36 -0.57,0.36 -0.58,0.35 -0.58,0.35 -0.58,0.35 -0.58,0.34 -0.59,0.34 -0.59,0.33 -0.59,0.34 -0.59,0.32 -0.6,0.33 -0.59,0.32 -0.6,0.31 -0.6,0.31 -0.61,0.31 -0.6,0.31 -0.61,0.3 -0.6,0.3 -0.61,0.29 -0.62,0.29 -0.61,0.28 -0.62,0.29 -0.61,0.27 -0.62,0.28 -0.62,0.27 -0.63,0.26 -0.62,0.26 -0.63,0.26 -0.62,0.26 -0.63,0.25 -0.63,0.24 -0.64,0.25 -0.63,0.23 -0.63,0.24 -0.64,0.23 -0.64,0.22 -0.64,0.23 -0.64,0.21 -0.64,0.22 -0.64,0.21 -0.65,0.2 -0.65,0.21 -0.64,0.19 -0.65,0.2 -0.65,0.19 -0.65,0.18 -0.65,0.18 -0.66,0.18 -0.65,0.17 -0.66,0.17 -0.65,0.17 -0.66,0.16 -0.66,0.15 -0.66,0.16 -0.66,0.15 -0.66,0.14 -0.66,0.14 -0.67,0.13 -0.66,0.14 -0.67,0.12 -0.66,0.13 -0.67,0.11 -0.67,0.12 -0.66,0.11 -0.67,0.11 -0.67,0.1 -0.67,0.1 -0.67,0.09 -0.67,0.09 -0.67,0.08 -0.68,0.08 -0.67,0.08 -0.67,0.07 -0.68,0.07 -0.67,0.06 -0.67,0.06 -0.68,0.06 L 707.28,429 Z"
   style="fill:#e31a1c;fill-opacity:1;fill-rule:nonzero;stroke:none"
   id="path182"
   inkscape:connector-curvature="0" /><path
   d="m 715.69,535.87 -0.67,0.05 -0.68,0.05 -0.67,0.04 -0.67,0.04 -0.68,0.03 -0.67,0.03 -0.68,0.03 -0.67,0.02 -0.68,0.01 -0.67,0.02 -0.68,0.01 h -0.68 -0.67 l -0.68,-0.01 h -0.67 l -0.68,-0.02 -0.67,-0.01 -0.68,-0.03 -0.67,-0.02 -0.68,-0.03 -0.67,-0.03 -0.68,-0.04 -0.67,-0.05 -0.67,-0.04 -0.68,-0.05 -0.67,-0.06 -0.67,-0.06 -0.67,-0.06 -0.68,-0.07 -0.67,-0.07 -0.67,-0.08 -0.67,-0.08 -0.67,-0.09 -0.67,-0.09 -0.67,-0.09 -0.67,-0.1 -0.66,-0.1 -0.67,-0.1 -0.67,-0.11 -0.66,-0.12 -0.67,-0.12 -0.66,-0.12 -0.67,-0.13 -0.66,-0.13 -0.66,-0.13 -0.66,-0.14 -0.66,-0.15 -0.66,-0.15 -0.66,-0.15 -0.65,-0.15 -0.66,-0.16 -0.66,-0.17 -0.65,-0.17 -0.65,-0.17 -0.65,-0.18 -0.66,-0.18 -0.64,-0.18 -0.65,-0.19 -0.65,-0.19 -0.65,-0.2 -0.64,-0.2 -0.64,-0.21 -0.65,-0.21 -0.64,-0.21 -0.64,-0.22 -0.63,-0.22 -0.64,-0.23 -0.64,-0.22 -0.63,-0.24 -0.63,-0.24 -0.63,-0.24 -0.63,-0.24 -0.63,-0.25 -0.63,-0.26 -0.62,-0.25 -0.62,-0.26 -0.62,-0.27 -0.62,-0.27 -0.62,-0.27 -0.62,-0.28 -0.61,-0.28 -0.61,-0.28 -0.62,-0.29 -0.6,-0.29 -0.61,-0.3 -0.61,-0.3 -0.6,-0.3 -0.6,-0.31 -0.6,-0.31 -0.6,-0.32 -0.59,-0.32 -0.6,-0.32 -0.59,-0.33 -0.59,-0.33 -0.58,-0.33 -0.59,-0.34 -0.58,-0.34 -0.58,-0.34 -0.58,-0.35 -0.58,-0.35 -0.57,-0.36 -0.57,-0.36 -0.57,-0.36 -0.57,-0.37 -0.57,-0.37 -0.56,-0.37 -0.56,-0.38 -0.56,-0.38 -0.55,-0.38 -0.56,-0.39 -0.55,-0.39 -0.54,-0.4 -0.55,-0.39 -0.54,-0.41 -0.54,-0.4 -0.54,-0.41 -0.54,-0.41 -0.53,-0.42 -0.53,-0.41 -0.53,-0.43 -0.52,-0.42 -0.52,-0.43 -0.52,-0.43 -0.52,-0.44 -0.52,-0.43 -0.51,-0.45 -0.5,-0.44 -0.51,-0.45 -0.5,-0.45 -0.5,-0.45 -0.5,-0.46 -0.49,-0.46 -0.5,-0.46 -0.48,-0.47 -0.49,-0.47 -0.48,-0.47 -0.48,-0.48 -0.48,-0.48 -0.47,-0.48 -0.47,-0.48 -0.47,-0.49 -0.46,-0.49 -0.46,-0.49 -0.46,-0.5 -0.46,-0.5 -0.45,-0.5 -0.45,-0.51 -0.44,-0.5 -0.45,-0.52 -0.43,-0.51 -0.44,-0.51 -0.43,-0.52 -0.43,-0.53 -0.43,-0.52 -0.42,-0.53 -0.42,-0.53 -0.41,-0.53 -0.42,-0.53 -0.41,-0.54 -0.4,-0.54 -0.4,-0.54 -0.4,-0.55 -0.4,-0.55 -0.39,-0.55 -0.39,-0.55 -0.38,-0.55 -0.39,-0.56 -0.37,-0.56 -0.38,-0.56 -0.37,-0.57 -0.37,-0.56 -0.36,-0.57 -0.36,-0.57 -0.36,-0.58 -0.35,-0.57 -0.35,-0.58 -0.35,-0.58 -0.34,-0.58 -0.34,-0.59 -0.33,-0.58 -0.33,-0.59 -0.33,-0.59 -0.32,-0.6 -0.32,-0.59 -0.32,-0.6 -0.31,-0.6 -0.31,-0.6 -0.3,-0.6 -0.3,-0.61 -0.3,-0.6 -0.29,-0.61 -0.29,-0.61 -0.29,-0.61 -0.28,-0.62 -0.28,-0.61 -0.27,-0.62 -0.27,-0.62 -0.27,-0.62 -0.26,-0.62 -0.26,-0.63 -0.25,-0.62 -0.25,-0.63 -0.25,-0.63 -0.24,-0.63 -0.24,-0.63 -0.24,-0.63 -0.23,-0.64 -0.22,-0.63 -0.23,-0.64 -0.21,-0.64 -0.22,-0.64 -0.21,-0.64 -0.21,-0.65 -0.2,-0.64 -0.2,-0.65 -0.19,-0.64 -0.19,-0.65 -0.19,-0.65 -0.18,-0.65 -0.18,-0.65 -0.17,-0.66 -0.17,-0.65 -0.17,-0.65 -0.16,-0.66 -0.15,-0.66 -0.16,-0.65 -0.15,-0.66 -0.14,-0.66 -0.14,-0.66 -0.14,-0.66 -0.13,-0.67 -0.13,-0.66 -0.12,-0.66 -0.12,-0.67 -0.12,-0.66 -0.11,-0.67 -0.11,-0.67 -0.1,-0.66 -0.1,-0.67 -0.09,-0.67 -0.09,-0.67 -0.09,-0.67 -0.08,-0.67 -0.08,-0.67 -0.07,-0.67 -0.07,-0.68 -0.07,-0.67 -0.06,-0.67 -0.05,-0.67 -0.05,-0.68 -0.05,-0.67 -0.05,-0.67 -0.04,-0.68 -0.03,-0.67 -0.03,-0.68 -0.03,-0.67 -0.02,-0.68 -0.02,-0.67 -0.01,-0.68 -0.01,-0.67 -0.01,-0.68 v -0.67 -0.68 l 0.01,-0.67 0.01,-0.68 0.02,-0.68 0.02,-0.67 0.02,-0.68 0.03,-0.67 0.03,-0.67 0.04,-0.68 0.04,-0.67 0.05,-0.68 0.05,-0.67 0.05,-0.67 0.06,-0.68 0.06,-0.67 0.07,-0.67 0.07,-0.67 0.08,-0.67 0.07,-0.68 0.09,-0.67 0.09,-0.66 0.09,-0.67 0.09,-0.67 0.1,-0.67 0.11,-0.67 0.11,-0.66 0.11,-0.67 0.12,-0.67 0.12,-0.66 0.13,-0.66 0.13,-0.67 0.13,-0.66 0.14,-0.66 0.14,-0.66 0.15,-0.66 0.15,-0.66 0.15,-0.65 0.16,-0.66 0.17,-0.66 0.16,-0.65 0.17,-0.65 0.18,-0.66 0.18,-0.65 0.18,-0.65 0.19,-0.65 0.19,-0.64 0.2,-0.65 0.2,-0.64 0.2,-0.65 0.21,-0.64 0.21,-0.64 0.22,-0.64 0.22,-0.64 0.22,-0.64 0.23,-0.63 0.23,-0.64 0.24,-0.63 0.24,-0.63 0.24,-0.63 0.25,-0.63 0.25,-0.63 0.26,-0.62 0.26,-0.62 0.26,-0.63 0.27,-0.62 0.27,-0.61 0.28,-0.62 0.28,-0.62 0.28,-0.61 0.29,-0.61 0.29,-0.61 0.29,-0.61 0.3,-0.6 0.31,-0.61 0.3,-0.6 0.31,-0.6 0.32,-0.6 0.31,-0.59 0.33,-0.6 0.32,-0.59 0.33,-0.59 0.33,-0.59 0.34,-0.58 0.34,-0.59 0.34,-0.58 0.35,-0.58 0.35,-0.57 0.35,-0.58 0.36,-0.57 0.36,-0.57 0.37,-0.57 0.37,-0.57 0.37,-0.56 0.38,-0.56 0.38,-0.56 0.38,-0.55 0.39,-0.56 0.39,-0.55 0.39,-0.55 0.4,-0.55 0.4,-0.54 0.4,-0.54 0.41,-0.54 0.41,-0.54 0.41,-0.53 0.42,-0.53 0.42,-0.53 0.42,-0.52 0.43,-0.53 0.43,-0.52 0.44,-0.52 0.43,-0.51 0.44,-0.51 0.45,-0.51 0.44,-0.51 0.45,-0.5 0.46,-0.5 0.45,-0.5 0.46,-0.5 0.46,-0.49 0.47,-0.49 0.47,-0.48 0.47,-0.49 0.48,-0.48 0.47,-0.48 0.48,-0.47 0.49,-0.47 0.48,-0.47 0.49,-0.46 0.5,-0.47 0.49,-0.46 0.5,-0.45 0.5,-0.45 0.51,-0.45 0.5,-0.45 0.51,-0.44 0.51,-0.44 0.52,-0.44 0.52,-0.43 0.52,-0.43 0.52,-0.43 0.53,-0.42 0.53,-0.43 0.53,-0.41 0.53,-0.42 0.54,-0.41 0.54,-0.4 0.54,-0.41 0.54,-0.4 0.55,-0.39 0.55,-0.4 0.55,-0.39 0.55,-0.38 0.56,-0.38 0.56,-0.38 0.56,-0.38 0.56,-0.37 0.57,-0.37 0.57,-0.36 0.57,-0.37 0.57,-0.35 0.58,-0.36 0.57,-0.35 0.58,-0.35 0.59,-0.34 0.58,-0.34 0.59,-0.33 0.58,-0.34 0.59,-0.32 0.6,-0.33 0.59,-0.32 0.6,-0.32 0.6,-0.31 0.6,-0.31 0.6,-0.31 0.6,-0.3 0.61,-0.3 0.61,-0.29 0.6,-0.29 0.62,-0.29 0.61,-0.28 0.61,-0.28 0.62,-0.28 0.62,-0.27 0.62,-0.26 0.62,-0.27 0.63,-0.26 0.62,-0.25 0.63,-0.25 0.63,-0.25 0.63,-0.25 0.63,-0.24 0.63,-0.23 0.63,-0.23 0.64,-0.23 0.64,-0.23 0.64,-0.22 0.64,-0.21 0.64,-0.21 0.64,-0.21 0.64,-0.2 0.65,-0.2 0.65,-0.2 0.64,-0.19 0.65,-0.19 0.65,-0.18 0.65,-0.18 0.66,-0.17 0.65,-0.18 0.65,-0.16 0.66,-0.17 0.66,-0.15 0.65,-0.16 0.66,-0.15 0.66,-0.14 0.66,-0.15 0.66,-0.13 0.66,-0.14 0.67,-0.13 0.66,-0.12 0.67,-0.12 0.66,-0.12 0.67,-0.11 0.66,-0.11 0.67,-0.11 0.67,-0.1 0.67,-0.09 0.67,-0.09 0.67,-0.09 0.67,-0.08 0.67,-0.08 0.67,-0.08 0.67,-0.07 0.67,-0.06 0.67,-0.07 0.68,-0.05 0.67,-0.06 0.67,-0.05 0.68,-0.04 0.67,-0.04 0.68,-0.04 0.67,-0.03 0.68,-0.03 0.67,-0.02 0.68,-0.02 0.67,-0.02 0.68,-0.01 0.67,-0.01 h 0.68 0.67 l 0.68,0.01 0.67,0.01 0.68,0.01 0.67,0.02 0.68,0.02 0.67,0.03 0.68,0.03 0.67,0.04 0.68,0.04 0.67,0.04 0.68,0.05 0.67,0.05 0.67,0.06 0.67,0.06 0.68,0.07 0.67,0.07 0.67,0.07 0.67,0.08 0.67,0.08 0.67,0.09 0.67,0.09 0.67,0.09 0.67,0.1 0.66,0.11 0.67,0.1 0.67,0.12 0.66,0.11 0.67,0.12 0.66,0.13 0.66,0.12 0.67,0.14 0.66,0.13 0.66,0.14 0.66,0.15 0.66,0.15 0.65,0.15 0.66,0.16 0.66,0.16 0.65,0.17 0.65,0.17 0.66,0.17 0.65,0.18 0.65,0.18 0.65,0.19 0.65,0.19 0.64,0.19 0.65,0.2 0.64,0.21 0.65,0.2 0.64,0.21 0.64,0.22 0.64,0.22 0.63,0.22 0.64,0.23 0.63,0.23 0.64,0.23 0.63,0.24 0.63,0.25 0.63,0.24 0.63,0.25 0.62,0.26 0.62,0.26 0.63,0.26 0.62,0.27 0.62,0.27 0.61,0.27 0.62,0.28 0.61,0.28 0.61,0.29 0.61,0.29 0.61,0.29 0.61,0.3 0.6,0.3 0.61,0.3 0.6,0.31 0.6,0.32 0.59,0.31 0.6,0.32 0.59,0.33 0.59,0.32 0.59,0.33 0.59,0.34 0.58,0.34 0.58,0.34 0.58,0.35 0.58,0.35 0.57,0.35 0.58,0.36 0.57,0.36 0.57,0.36 0.56,0.37 0.57,0.37 0.56,0.38 0.56,0.37 0.56,0.39 0.55,0.38 0.55,0.39 0.55,0.39 0.55,0.4 0.55,0.4 0.54,0.4 0.54,0.41 0.53,0.41 0.54,0.41 0.53,0.42 0.53,0.42 0.53,0.42 0.52,0.42 0.52,0.43 0.52,0.44 0.52,0.43 0.51,0.44 0.51,0.44 0.51,0.45 0.5,0.45 0.5,0.45 0.5,0.46 0.5,0.45 0.49,0.47 0.49,0.46 0.49,0.47 0.48,0.47 0.48,0.47 0.48,0.48 0.48,0.48 0.47,0.48 0.47,0.49 0.47,0.49 0.46,0.49 0.46,0.49 -78.72,72.77 z"
   style="fill:#fdbf6f;fill-opacity:1;fill-rule:nonzero;stroke:none"
   id="path184"
   inkscape:connector-curvature="0" /><path
   d="m 786,356.23 0.5,0.55 0.5,0.55 0.5,0.55 0.49,0.56 0.48,0.56 0.49,0.57 0.48,0.57 0.47,0.57 0.47,0.57 0.47,0.58 0.46,0.58 0.46,0.58 0.46,0.59 0.45,0.59 0.44,0.59 0.45,0.6 0.44,0.6 -86.73,63.01 z"
   style="fill:#ff7f00;fill-opacity:1;fill-rule:nonzero;stroke:none"
   id="path186"
   inkscape:connector-curvature="0" /><path
   d="m 794.01,365.99 0.4,0.56 0.4,0.56 0.39,0.56 0.39,0.56 0.39,0.57 0.39,0.57 0.38,0.57 0.37,0.58 0.38,0.58 0.37,0.58 0.36,0.58 0.36,0.58 0.36,0.59 0.36,0.59 0.35,0.59 0.34,0.59 0.35,0.6 0.34,0.6 0.33,0.6 0.33,0.6 0.33,0.6 0.32,0.61 0.32,0.61 0.32,0.61 0.31,0.61 0.31,0.61 0.3,0.62 0.3,0.62 0.3,0.62 0.29,0.62 0.29,0.62 0.28,0.63 0.29,0.63 0.27,0.63 0.27,0.63 0.27,0.63 0.27,0.64 0.26,0.63 0.25,0.64 0.25,0.64 0.25,0.64 0.24,0.64 0.24,0.65 0.24,0.64 0.23,0.65 0.23,0.65 0.22,0.65 0.22,0.65 0.21,0.65 0.21,0.66 0.21,0.65 0.2,0.66 0.2,0.66 0.19,0.66 0.19,0.66 0.19,0.66 0.18,0.66 0.17,0.67 0.18,0.66 0.16,0.67 0.17,0.67 0.16,0.67 0.15,0.67 0.15,0.67 0.15,0.67 0.14,0.67 0.14,0.67 0.13,0.68 0.13,0.67 0.13,0.68 0.12,0.68 0.11,0.67 0.12,0.68 0.1,0.68 0.11,0.68 0.1,0.68 0.09,0.68 0.09,0.68 0.09,0.68 0.08,0.69 0.07,0.68 0.08,0.68 0.06,0.69 0.07,0.68 0.06,0.69 0.05,0.68 0.05,0.69 0.05,0.68 0.04,0.69 0.04,0.68 0.03,0.69 0.03,0.69 0.02,0.68 0.02,0.69 0.02,0.69 0.01,0.69 0.01,0.68 V 429 h -107.2 z"
   style="fill:#cab2d6;fill-opacity:1;fill-rule:nonzero;stroke:none"
   id="path188"
   inkscape:connector-curvature="0" /><text
   transform="scale(1,-1)"
   style="font-style:normal;font-variant:normal;font-weight:600;font-stretch:normal;font-size:48px;font-family:'URW Gothic L';-inkscape-font-specification:'URW Gothic L, Semi-Bold';font-variant-ligatures:normal;font-variant-caps:normal;font-variant-numeric:normal;font-feature-settings:normal;text-align:start;writing-mode:lr-tb;text-anchor:start;fill:#ffffff;fill-opacity:1;fill-rule:nonzero;stroke:#000000;stroke-width:1.52474999;stroke-miterlimit:4;stroke-dasharray:none;stroke-opacity:1"
   id="text192"
   x="696.15997"
   y="-415.17999"><tspan
     x="696.15997"
     y="-415.17999"
     id="tspan190"
     style="font-style:normal;font-variant:normal;font-weight:600;font-stretch:normal;font-size:48px;font-family:'URW Gothic L';-inkscape-font-specification:'URW Gothic L, Semi-Bold';font-variant-ligatures:normal;font-variant-caps:normal;font-variant-numeric:normal;font-feature-settings:normal;text-align:start;writing-mode:lr-tb;text-anchor:start;fill:#ffffff;fill-opacity:1;stroke:#000000;stroke-width:1.52474999;stroke-miterlimit:4;stroke-dasharray:none;stroke-opacity:1">6</tspan></text>

<text
   xml:space="preserve"
   style="font-style:normal;font-variant:normal;font-weight:normal;font-stretch:normal;font-size:30px;line-height:2ex;font-family:'URW Gothic L';-inkscape-font-specification:'URW Gothic L, Normal';font-variant-ligatures:normal;font-variant-caps:normal;font-variant-numeric:normal;font-feature-settings:normal;text-align:start;letter-spacing:0px;word-spacing:0px;writing-mode:lr-tb;text-anchor:start;fill:#000000;fill-opacity:1;stroke:none;stroke-width:0.75"
   x="48.32296"
   y="-951.35822"
   id="text1075"
   transform="scale(1,-1)"><tspan
     sodipodi:role="line"
     id="tspan1073"
     x="48.32296"
     y="-927.24054"
     style="stroke-width:0.75" /></text>

<flowRoot
   xml:space="preserve"
   id="flowRoot1077"
   style="font-style:normal;font-variant:normal;font-weight:normal;font-stretch:normal;font-size:40px;line-height:2ex;font-family:'URW Gothic L';-inkscape-font-specification:'URW Gothic L, Normal';font-variant-ligatures:normal;font-variant-caps:normal;font-variant-numeric:normal;font-feature-settings:normal;text-align:start;letter-spacing:0px;word-spacing:0px;writing-mode:lr-tb;text-anchor:start;fill:#000000;fill-opacity:1;stroke:none"><flowRegion
     id="flowRegion1079"><rect
       id="rect1081"
       width="4.0269132"
       height="88.592087"
       x="28.188393"
       y="43.307037" /></flowRegion><flowPara
     id="flowPara1083" /></flowRoot><text
   xml:space="preserve"
   style="font-style:normal;font-variant:normal;font-weight:normal;font-stretch:normal;font-size:30px;line-height:2ex;font-family:'URW Gothic L';-inkscape-font-specification:'URW Gothic L, Normal';font-variant-ligatures:normal;font-variant-caps:normal;font-variant-numeric:normal;font-feature-settings:normal;text-align:start;letter-spacing:0px;word-spacing:0px;writing-mode:lr-tb;text-anchor:start;fill:#000000;fill-opacity:1;stroke:none;stroke-width:0.75"
   x="6.0403714"
   y="-978.53986"
   id="text1087"
   transform="scale(1,-1)"><tspan
     sodipodi:role="line"
     id="tspan1085"
     x="6.0403714"
     y="-978.53986"
     style="font-style:normal;font-variant:normal;font-weight:600;font-stretch:normal;font-size:30px;font-family:'URW Gothic L';-inkscape-font-specification:'URW Gothic L, Semi-Bold';font-variant-ligatures:normal;font-variant-caps:normal;font-variant-numeric:normal;font-feature-settings:normal;text-align:start;writing-mode:lr-tb;text-anchor:start;stroke-width:0.75">Dominant mode</tspan><tspan
     sodipodi:role="line"
     x="6.0403714"
     y="-948.5163"
     style="font-style:normal;font-variant:normal;font-weight:600;font-stretch:normal;font-size:30px;font-family:'URW Gothic L';-inkscape-font-specification:'URW Gothic L, Semi-Bold';font-variant-ligatures:normal;font-variant-caps:normal;font-variant-numeric:normal;font-feature-settings:normal;text-align:start;writing-mode:lr-tb;text-anchor:start;stroke-width:0.75"
     id="tspan1089">of subsistence (v42)</tspan></text>

<text
   xml:space="preserve"
   style="font-style:normal;font-variant:normal;font-weight:normal;font-stretch:normal;font-size:30px;line-height:2ex;font-family:'URW Gothic L';-inkscape-font-specification:'URW Gothic L, Normal';font-variant-ligatures:normal;font-variant-caps:normal;font-variant-numeric:normal;font-feature-settings:normal;text-align:start;letter-spacing:0px;word-spacing:0px;writing-mode:lr-tb;text-anchor:start;fill:#000000;fill-opacity:1;stroke:none;stroke-width:0.75"
   x="172.15054"
   y="-575.34521"
   id="text1113"
   transform="scale(1,-1)"><tspan
     sodipodi:role="line"
     id="tspan1111"
     x="172.15054"
     y="-551.22754"
     style="stroke-width:0.75" /></text>

<g
   id="g1316"
   transform="translate(-16.611017,25.671572)"><g
     transform="translate(0,1.3955465)"
     id="g1192"><text
   id="text202"
   style="font-variant:normal;font-weight:normal;font-size:29.48176575px;font-family:ZapfDingbats;-inkscape-font-specification:ZapfDingbats;writing-mode:lr-tb;fill:#a6cee3;fill-opacity:1;fill-rule:nonzero;stroke:none;stroke-width:1.31380415"
   transform="scale(1,-1)"
   x="29.165272"
   y="-818.98352"><tspan
     id="tspan200"
     y="-818.98352"
     x="29.165272"
     style="stroke-width:1.31380415"></tspan></text>

<text
   xml:space="preserve"
   style="font-style:normal;font-variant:normal;font-weight:normal;font-stretch:normal;font-size:30px;line-height:2ex;font-family:'URW Gothic L';-inkscape-font-specification:'URW Gothic L, Normal';font-variant-ligatures:normal;font-variant-caps:normal;font-variant-numeric:normal;font-feature-settings:normal;text-align:start;letter-spacing:0px;word-spacing:0px;writing-mode:lr-tb;text-anchor:start;fill:#000000;fill-opacity:1;stroke:none;stroke-width:0.75"
   x="74.60463"
   y="-818.75311"
   id="text1093"
   transform="scale(1,-1)"><tspan
     sodipodi:role="line"
     id="tspan1091"
     x="74.60463"
     y="-818.75311"
     style="stroke-width:0.75">gathering</tspan></text>

</g><g
     transform="translate(0,16.129951)"
     id="g1198"><text
   id="text206"
   style="font-variant:normal;font-weight:normal;font-size:29.48176575px;font-family:ZapfDingbats;-inkscape-font-specification:ZapfDingbats;writing-mode:lr-tb;fill:#1f78b4;fill-opacity:1;fill-rule:nonzero;stroke:none;stroke-width:1.31380415"
   transform="scale(1,-1)"
   x="29.165272"
   y="-758.89343"><tspan
     id="tspan204"
     y="-758.89343"
     x="29.165272"
     style="stroke-width:1.31380415"></tspan></text>

<text
   xml:space="preserve"
   style="font-style:normal;font-variant:normal;font-weight:normal;font-stretch:normal;font-size:30px;line-height:2ex;font-family:'URW Gothic L';-inkscape-font-specification:'URW Gothic L, Normal';font-variant-ligatures:normal;font-variant-caps:normal;font-variant-numeric:normal;font-feature-settings:normal;text-align:start;letter-spacing:0px;word-spacing:0px;writing-mode:lr-tb;text-anchor:start;fill:#000000;fill-opacity:1;stroke:none;stroke-width:0.75"
   x="75.384628"
   y="-758.66302"
   id="text1097"
   transform="scale(1,-1)"><tspan
     sodipodi:role="line"
     id="tspan1095"
     x="75.384628"
     y="-758.66302"
     style="stroke-width:0.75">fishing</tspan></text>

</g><g
     transform="translate(0,27.844214)"
     id="g1204"><text
   id="text210"
   style="font-variant:normal;font-weight:normal;font-size:29.48176575px;font-family:ZapfDingbats;-inkscape-font-specification:ZapfDingbats;writing-mode:lr-tb;fill:#b2df8a;fill-opacity:1;fill-rule:nonzero;stroke:none;stroke-width:1.31380415"
   transform="scale(1,-1)"
   x="29.165272"
   y="-701.82355"><tspan
     id="tspan208"
     y="-701.82355"
     x="29.165272"
     style="stroke-width:1.31380415"></tspan></text>

<text
   xml:space="preserve"
   style="font-style:normal;font-variant:normal;font-weight:normal;font-stretch:normal;font-size:30px;line-height:2ex;font-family:'URW Gothic L';-inkscape-font-specification:'URW Gothic L, Normal';font-variant-ligatures:normal;font-variant-caps:normal;font-variant-numeric:normal;font-feature-settings:normal;text-align:start;letter-spacing:0px;word-spacing:0px;writing-mode:lr-tb;text-anchor:start;fill:#000000;fill-opacity:1;stroke:none;stroke-width:0.75"
   x="73.974625"
   y="-701.59308"
   id="text1101"
   transform="scale(1,-1)"><tspan
     sodipodi:role="line"
     id="tspan1099"
     x="73.974625"
     y="-701.59308"
     style="stroke-width:0.75">hunting</tspan></text>

</g><g
     transform="translate(0,23.259819)"
     id="g1210"><text
   id="text214"
   style="font-variant:normal;font-weight:normal;font-size:29.48176575px;font-family:ZapfDingbats;-inkscape-font-specification:ZapfDingbats;writing-mode:lr-tb;fill:#33a02c;fill-opacity:1;fill-rule:nonzero;stroke:none;stroke-width:1.31380415"
   transform="scale(1,-1)"
   x="29.165272"
   y="-661.39722"><tspan
     id="tspan212"
     y="-661.39722"
     x="29.165272"
     style="stroke-width:1.31380415"></tspan></text>

<text
   xml:space="preserve"
   style="font-style:normal;font-variant:normal;font-weight:normal;font-stretch:normal;font-size:30px;line-height:2ex;font-family:'URW Gothic L';-inkscape-font-specification:'URW Gothic L, Normal';font-variant-ligatures:normal;font-variant-caps:normal;font-variant-numeric:normal;font-feature-settings:normal;text-align:start;letter-spacing:0px;word-spacing:0px;writing-mode:lr-tb;text-anchor:start;fill:#000000;fill-opacity:1;stroke:none;stroke-width:0.75"
   x="73.974625"
   y="-660.82178"
   id="text1105"
   transform="scale(1,-1)"><tspan
     sodipodi:role="line"
     id="tspan1103"
     x="73.974625"
     y="-660.82178"
     style="stroke-width:0.75">pastoralism</tspan></text>

</g><g
     transform="translate(0,51.412128)"
     id="g1242"><text
   id="text218"
   style="font-variant:normal;font-weight:normal;font-size:29.48176575px;font-family:ZapfDingbats;-inkscape-font-specification:ZapfDingbats;writing-mode:lr-tb;fill:#e31a1c;fill-opacity:1;fill-rule:nonzero;stroke:none;stroke-width:1.31380415"
   transform="scale(1,-1)"
   x="29.165272"
   y="-588.23425"><tspan
     id="tspan216"
     y="-588.23425"
     x="29.165272"
     style="stroke-width:1.31380415"></tspan></text>

<text
   xml:space="preserve"
   style="font-style:normal;font-variant:normal;font-weight:normal;font-stretch:normal;font-size:30px;line-height:2ex;font-family:'URW Gothic L';-inkscape-font-specification:'URW Gothic L, Normal';font-variant-ligatures:normal;font-variant-caps:normal;font-variant-numeric:normal;font-feature-settings:normal;text-align:start;letter-spacing:0px;word-spacing:0px;writing-mode:lr-tb;text-anchor:start;fill:#000000;fill-opacity:1;stroke:none;stroke-width:0.75"
   x="74.60463"
   y="-588.00378"
   id="text1117"
   transform="scale(1,-1)"><tspan
     sodipodi:role="line"
     id="tspan1115"
     x="74.60463"
     y="-588.00378"
     style="stroke-width:0.75">extensive agriculture</tspan></text>

</g><g
     transform="translate(0,54.065783)"
     id="g1252"><text
   id="text222"
   style="font-variant:normal;font-weight:normal;font-size:29.48176575px;font-family:ZapfDingbats;-inkscape-font-specification:ZapfDingbats;writing-mode:lr-tb;fill:#fdbf6f;fill-opacity:1;fill-rule:nonzero;stroke:none;stroke-width:1.31380415"
   transform="scale(1,-1)"
   x="29.165272"
   y="-540.22491"><tspan
     id="tspan220"
     y="-540.22491"
     x="29.165272"
     style="stroke-width:1.31380415"></tspan></text>

<text
   xml:space="preserve"
   style="font-style:normal;font-variant:normal;font-weight:normal;font-stretch:normal;font-size:30px;line-height:2ex;font-family:'URW Gothic L';-inkscape-font-specification:'URW Gothic L, Normal';font-variant-ligatures:normal;font-variant-caps:normal;font-variant-numeric:normal;font-feature-settings:normal;text-align:start;letter-spacing:0px;word-spacing:0px;writing-mode:lr-tb;text-anchor:start;fill:#000000;fill-opacity:1;stroke:none;stroke-width:0.75"
   x="70.954437"
   y="-539.99445"
   id="text1121"
   transform="scale(1,-1)"><tspan
     sodipodi:role="line"
     id="tspan1119"
     x="70.954437"
     y="-539.99445"
     style="stroke-width:0.75">intensive agriculture</tspan></text>

</g><g
     transform="translate(0,38.721103)"
     id="g1259"><text
   id="text226"
   style="font-variant:normal;font-weight:normal;font-size:29.48176575px;font-family:ZapfDingbats;-inkscape-font-specification:ZapfDingbats;writing-mode:lr-tb;fill:#ff7f00;fill-opacity:1;fill-rule:nonzero;stroke:none;stroke-width:1.31380415"
   transform="scale(1,-1)"
   x="26.145086"
   y="-495.55887"><tspan
     id="tspan224"
     y="-495.55887"
     x="26.145086"
     style="stroke-width:1.31380415"></tspan></text>

<text
   xml:space="preserve"
   style="font-style:normal;font-variant:normal;font-weight:normal;font-stretch:normal;font-size:30px;line-height:2ex;font-family:'URW Gothic L';-inkscape-font-specification:'URW Gothic L, Normal';font-variant-ligatures:normal;font-variant-caps:normal;font-variant-numeric:normal;font-feature-settings:normal;text-align:start;letter-spacing:0px;word-spacing:0px;writing-mode:lr-tb;text-anchor:start;fill:#000000;fill-opacity:1;stroke:none;stroke-width:0.75"
   x="75.504623"
   y="-509.98343"
   id="text1125"
   transform="scale(1,-1)"><tspan
     sodipodi:role="line"
     id="tspan1123"
     x="75.504623"
     y="-509.98343"
     style="stroke-width:0.75">two or more sources</tspan><tspan
     sodipodi:role="line"
     x="75.504623"
     y="-479.98343"
     style="stroke-width:0.75"
     id="tspan1127">contribute equally</tspan></text>

</g><g
     transform="translate(0,50.999986)"
     id="g1266"><text
   id="text230"
   style="font-variant:normal;font-weight:normal;font-size:29.48176575px;font-family:ZapfDingbats;-inkscape-font-specification:ZapfDingbats;writing-mode:lr-tb;fill:#cab2d6;fill-opacity:1;fill-rule:nonzero;stroke:none;stroke-width:1.31380415"
   transform="scale(1,-1)"
   x="29.165272"
   y="-408.61429"><tspan
     id="tspan228"
     y="-408.61429"
     x="29.165272"
     style="stroke-width:1.31380415"></tspan></text>

<text
   xml:space="preserve"
   style="font-style:normal;font-variant:normal;font-weight:normal;font-stretch:normal;font-size:30px;line-height:2ex;font-family:'URW Gothic L';-inkscape-font-specification:'URW Gothic L, Normal';font-variant-ligatures:normal;font-variant-caps:normal;font-variant-numeric:normal;font-feature-settings:normal;text-align:start;letter-spacing:0px;word-spacing:0px;writing-mode:lr-tb;text-anchor:start;fill:#000000;fill-opacity:1;stroke:none;stroke-width:0.75"
   x="74.60463"
   y="-423.03885"
   id="text1131"
   transform="scale(1,-1)"><tspan
     sodipodi:role="line"
     id="tspan1129"
     x="74.60463"
     y="-423.03885"
     style="stroke-width:0.75">agriculture</tspan><tspan
     sodipodi:role="line"
     x="74.60463"
     y="-393.03885"
     style="stroke-width:0.75"
     id="tspan1133">(type unknown)</tspan></text>

</g><g
     transform="translate(0,-1.1524239e-4)"
     id="g1186"><text
   id="text198"
   style="font-variant:normal;font-weight:normal;font-size:29.48176575px;font-family:ZapfDingbats;-inkscape-font-specification:ZapfDingbats;writing-mode:lr-tb;fill:#000000;fill-opacity:1;fill-rule:nonzero;stroke:none;stroke-width:1.31380415"
   transform="scale(1,-1)"
   x="29.165272"
   y="-877.7049"><tspan
     id="tspan196"
     y="-877.7049"
     x="29.165272"
     style="stroke-width:1.31380415"></tspan></text>

<text
   xml:space="preserve"
   style="font-style:normal;font-variant:normal;font-weight:normal;font-stretch:normal;font-size:30px;line-height:2ex;font-family:'URW Gothic L';-inkscape-font-specification:'URW Gothic L, Normal';font-variant-ligatures:normal;font-variant-caps:normal;font-variant-numeric:normal;font-feature-settings:normal;text-align:start;letter-spacing:0px;word-spacing:0px;writing-mode:lr-tb;text-anchor:start;fill:#000000;fill-opacity:1;stroke:none;stroke-width:0.75"
   x="74.60463"
   y="-889.44446"
   id="text1137"
   transform="scale(1,-1)"><tspan
     sodipodi:role="line"
     x="74.60463"
     y="-889.44446"
     style="stroke-width:0.75"
     id="tspan1139">data not</tspan><tspan
     sodipodi:role="line"
     x="74.60463"
     y="-859.44446"
     style="stroke-width:0.75"
     id="tspan1143">available</tspan></text>

</g></g></g></svg>